<?xml version="1.0" encoding="UTF-8"?><svg id="_レイヤー_2" xmlns="http://www.w3.org/2000/svg" viewBox="0 0 219.62695 16.43994"><defs><style>.cls-1{fill:#b60005;}</style></defs><g id="header"><g><path class="cls-1" d="M5.33984,14.87988c0,.14014,.04492,.25488,.13477,.34473,.09033,.09033,.3252,.15527,.70508,.19531v.35986H0v-.35986c.37939-.04004,.61475-.10498,.70508-.19531,.08984-.08984,.13477-.20459,.13477-.34473V.8999c0-.13965-.04492-.25488-.13477-.34521-.09033-.08984-.32568-.15479-.70508-.19482v-.35986H10.73975c.93994,0,1.77002,.13477,2.48975,.40479,.72021,.27002,1.32031,.63525,1.80029,1.09521s.84033,.99512,1.08008,1.60498c.23975,.61035,.35986,1.24463,.35986,1.90479s-.12012,1.29541-.35986,1.90479c-.23975,.61035-.6001,1.14014-1.08008,1.59033-.47998,.44971-1.08008,.81006-1.80029,1.08008-.71973,.27002-1.5498,.40479-2.48975,.40479H5.33984v4.89014ZM9.8999,6.80957c.83984,0,1.45459-.13965,1.84521-.41992,.38965-.27979,.58496-.73975,.58496-1.37988,0-.57959-.19531-1-.58496-1.25977-.39062-.25977-1.00537-.39014-1.84521-.39014H5.33984v3.44971h4.56006Z"/><path class="cls-1" d="M19.64941,3.47998c0-.22021-.07031-.36035-.20996-.42041-.13965-.05957-.29004-.09961-.4502-.11963v-.36035h9.63037c1.5,0,2.69482,.35059,3.58496,1.05029,.88965,.7002,1.33496,1.73975,1.33496,3.12012,0,1.07959-.31494,1.93457-.94482,2.56494-.62988,.62988-1.4248,1.125-2.38477,1.48486l2.66992,4.02002c.09961,.16016,.24414,.2998,.43457,.41992,.18994,.12012,.39453,.18018,.61523,.18018v.35986h-6.06006v-.35986c.13965,0,.29492-.0249,.46533-.0752,.16943-.0498,.25488-.15479,.25488-.31494,0-.09961-.10547-.34961-.31543-.75-.20996-.3999-.44971-.82959-.71973-1.29004-.27002-.45996-.53027-.8999-.78027-1.31982s-.40479-.68994-.46484-.81006h-2.87988v4.02002c0,.22021,.0752,.35986,.22461,.41992,.15039,.06006,.33496,.1001,.55566,.12012v.35986h-5.16016v-.35986c.12012-.02002,.25-.06006,.38965-.12012s.20996-.19971,.20996-.41992V3.47998Zm8.04004,4.85986c.63965,0,1.14453-.13525,1.51514-.40527,.36963-.27002,.55518-.6748,.55518-1.21484,0-.45996-.15527-.84473-.46484-1.15479-.31055-.31006-.91504-.46533-1.81543-.46533h-4.0498v3.24023h4.25977Z"/><path class="cls-1" d="M42.44922,2.93994c-.2998,.02002-.53516,.06006-.70508,.11963-.16992,.06006-.25488,.2002-.25488,.42041V14.87988c0,.22021,.08496,.35986,.25488,.41992s.40527,.1001,.70508,.12012v.35986h-5.93945v-.35986c.2998-.02002,.53467-.06006,.70508-.12012,.16943-.06006,.25488-.19971,.25488-.41992V3.47998c0-.22021-.08545-.36035-.25488-.42041-.17041-.05957-.40527-.09961-.70508-.11963v-.36035h5.93945v.36035Z"/><path class="cls-1" d="M50.09961,2.57959v.36035c-.12012,0-.27539,.01025-.46533,.02979-.19043,.02002-.28467,.11035-.28467,.27002,0,.04053,.05957,.24023,.17969,.6001s.27441,.80029,.46484,1.31982c.18994,.52051,.39453,1.08545,.61523,1.69531,.21973,.61035,.42969,1.18994,.62988,1.73975,.19971,.55029,.375,1.03516,.5249,1.45508s.24463,.7002,.28516,.83984h.06006c.25977-.63965,.56982-1.38477,.92969-2.23486,.36035-.84961,.7002-1.66504,1.02051-2.44482,.31934-.78027,.59473-1.45508,.82471-2.02539,.22998-.56982,.34521-.88477,.34521-.94482,0-.15967-.09033-.25-.27051-.27002-.17969-.01953-.31982-.02979-.41992-.02979v-.36035h5.01025v.36035c-.16064,.02002-.29541,.05518-.40479,.10498-.11035,.0498-.18555,.15479-.22559,.31494-.05957,.22021-.21484,.6499-.46484,1.29004s-.5498,1.37988-.8999,2.21973c-.3501,.84033-.71533,1.7251-1.09521,2.65527-.37988,.92969-.73438,1.79004-1.06445,2.58008s-.60059,1.4502-.81055,1.97998-.31445,.81494-.31445,.85498c0,.16016,.06934,.28467,.20996,.375,.13965,.08984,.2793,.125,.41992,.10498v.35986h-6.33008v-.35986c.13965,.02002,.27979-.01514,.41992-.10498,.13965-.09033,.20996-.21484,.20996-.375,0-.02002-.09521-.31982-.28516-.90039-.19043-.57959-.43018-1.2998-.71973-2.15967-.29004-.85986-.61035-1.79492-.95996-2.80518-.35059-1.00977-.68555-1.94971-1.00488-2.81982-.32031-.87012-.5957-1.60498-.8252-2.20508-.23047-.6001-.38525-.91992-.46484-.95996-.12012-.07959-.21533-.12451-.28516-.13525-.07031-.00977-.14551-.01465-.2251-.01465v-.36035h5.67041Z"/><path class="cls-1" d="M73.31934,15.41992c.05957,0,.13965-.00977,.24023-.03027,.09961-.01953,.14941-.09961,.14941-.23975,0-.07959-.03516-.20508-.10449-.375-.07031-.16992-.15039-.35498-.24023-.55518-.08984-.19971-.18555-.3999-.28516-.6001-.1001-.19971-.17969-.36963-.24023-.50977h-6.95996c-.04004,.14014-.10449,.31006-.19434,.50977-.09033,.2002-.18555,.40039-.28516,.6001-.10059,.2002-.19043,.38525-.27051,.55518s-.11963,.29541-.11963,.375c0,.14014,.04932,.22021,.1499,.23975,.09961,.02051,.17969,.03027,.24023,.03027v.35986h-4.5v-.35986c.12012,0,.23975-.0249,.35986-.0752,.11963-.0498,.19971-.12451,.23975-.2251,.6001-1.39941,1.20996-2.78467,1.83008-4.15479,.62012-1.36963,1.1748-2.60986,1.66504-3.72021,.49023-1.10986,.89502-2.0293,1.21484-2.75977,.31982-.72998,.48047-1.14453,.48047-1.24512,0-.18018-.13086-.27979-.39014-.2998v-.36035h6.27002v.36035c-.26025,.02002-.39014,.11963-.39014,.2998,0,.06006,.10498,.3252,.31494,.79492,.20996,.47021,.48486,1.06055,.8252,1.77002,.33984,.71045,.71484,1.49561,1.125,2.35498,.40967,.86035,.81982,1.72021,1.22998,2.58008,.40967,.86035,.79492,1.67529,1.15479,2.44482,.36035,.77051,.6499,1.41553,.87012,1.93506,.04004,.10059,.12012,.17529,.24023,.2251,.12012,.05029,.23975,.0752,.35986,.0752v.35986h-4.97998v-.35986Zm-4.02002-9.72021l-2.46045,5.25h4.98047l-2.52002-5.25Z"/><path class="cls-1" d="M93.3291,7.6499l-.42041-.20996c.02002-.08008,.04541-.16016,.0752-.24023,.02979-.07959,.04492-.16943,.04492-.27002,0-.12012-.12549-.25977-.375-.41992-.25049-.15967-.56982-.30469-.95996-.43506-.39014-.12988-.83057-.24463-1.31982-.34473-.49023-.1001-.98535-.15039-1.48535-.15039-.56006,0-1.12988,.07031-1.70996,.21094s-1.1001,.35693-1.56006,.64795c-.46045,.29102-.83984,.6626-1.14014,1.11426-.2998,.45166-.44971,.99951-.44971,1.64209,0,.62256,.1499,1.16504,.44971,1.62695,.30029,.4624,.67969,.83887,1.14014,1.12988,.45996,.29102,.97998,.50635,1.56006,.64697s1.1499,.21094,1.70996,.21094c.6001,0,1.16504-.07471,1.69531-.22461,.5293-.15039,.99951-.33008,1.40967-.54004,.40967-.20996,.72998-.41992,.96045-.63037,.22949-.20996,.34473-.36426,.34473-.46484v-.27002c0-.12012-.01025-.20996-.03027-.27002l.33008-.20996,2.8501,4.0957-.35986,.20801c-.18018-.21777-.34033-.32715-.47998-.32715-.08057,0-.29541,.08936-.64502,.26758-.35059,.17822-.81543,.38086-1.39502,.60889-.58057,.22803-1.26514,.4209-2.05518,.57959-.79004,.1582-1.66504,.2373-2.625,.2373-1.1001,0-2.1748-.10938-3.22461-.33008-1.05029-.21973-1.98535-.59473-2.80518-1.125-.82031-.5293-1.48047-1.22461-1.97998-2.08496-.5-.85938-.75-1.90967-.75-3.1499,0-1.21973,.25-2.25977,.75-3.12012,.49951-.85938,1.15967-1.55957,1.97998-2.09961,.81982-.54004,1.75488-.93506,2.80518-1.18506,1.0498-.25,2.12451-.375,3.22461-.375,.66016,0,1.2998,.05518,1.91992,.16504s1.18994,.22461,1.70996,.34473,.96973,.23535,1.3501,.34521c.37988,.10986,.6499,.16504,.81006,.16504,.09961,0,.18994-.03027,.27002-.09033,.07959-.05957,.13965-.11963,.18018-.17969l.35986,.12012-2.15967,4.37988Z"/><path class="cls-1" d="M107.90869,14.87988c0,.22021,.06982,.35986,.20996,.41992,.13965,.06006,.27979,.1001,.41992,.12012v.35986h-5.27979v-.35986c.13965-.02002,.27979-.06006,.41992-.12012,.13965-.06006,.20996-.19971,.20996-.41992v-3.87012l-5.72998-7.77002c-.08057-.12012-.21533-.19971-.40479-.23975-.19043-.04004-.34521-.06006-.46533-.06006v-.36035h6.44971v.36035c-.11963,0-.26465,.01465-.43457,.04492-.16992,.02979-.25488,.125-.25488,.28516,0,.1001,.09473,.28467,.28516,.55469,.18945,.27002,.42432,.59521,.70459,.9751,.27979,.38037,.58984,.78516,.93018,1.21484,.33984,.43066,.66016,.84521,.95996,1.24512,.07959-.15967,.25977-.43945,.54004-.83984,.27979-.3999,.57422-.81982,.88477-1.26025,.31006-.43945,.58496-.83984,.8252-1.19971,.24023-.36035,.35986-.58984,.35986-.68994,0-.16016-.08008-.25537-.23975-.28516-.16016-.03027-.29004-.04492-.39014-.04492v-.36035h5.93994v.36035c-.10059,0-.24023,.02002-.41992,.06006-.18018,.04004-.31055,.11963-.39014,.23975l-5.12988,7.6499v3.99023Z"/><path class="cls-1" d="M130.4082,14.87988c0,.14014,.04492,.25488,.13477,.34473,.09033,.09033,.3252,.15527,.70508,.19531v.35986h-6.17969v-.35986c.37939-.04004,.61475-.10498,.70508-.19531,.08984-.08984,.13477-.20459,.13477-.34473V.8999c0-.13965-.04492-.25488-.13477-.34521-.09033-.08984-.32568-.15479-.70508-.19482v-.35986h10.73975c.93994,0,1.77002,.13477,2.48975,.40479,.72021,.27002,1.32031,.63525,1.80029,1.09521s.84033,.99512,1.08008,1.60498c.23975,.61035,.35986,1.24463,.35986,1.90479s-.12012,1.29541-.35986,1.90479c-.23975,.61035-.6001,1.14014-1.08008,1.59033-.47998,.44971-1.08008,.81006-1.80029,1.08008-.71973,.27002-1.5498,.40479-2.48975,.40479h-5.3999v4.89014Zm4.56006-8.07031c.83984,0,1.45459-.13965,1.84521-.41992,.38965-.27979,.58496-.73975,.58496-1.37988,0-.57959-.19531-1-.58496-1.25977-.39062-.25977-1.00537-.39014-1.84521-.39014h-4.56006v3.44971h4.56006Z"/><path class="cls-1" d="M151.07812,2.3999c.93945,0,1.88477,.13037,2.83496,.38965,.94922,.26025,1.80957,.66553,2.58008,1.21533,.76953,.55029,1.39453,1.25537,1.875,2.11475,.47949,.86035,.71973,1.88037,.71973,3.06006,0,1.2002-.24023,2.2251-.71973,3.0752-.48047,.8501-1.10547,1.54492-1.875,2.08496-.77051,.54004-1.63086,.93018-2.58008,1.16992-.9502,.24023-1.89551,.35986-2.83496,.35986-.94043,0-1.88574-.11963-2.83496-.35986-.9502-.23975-1.81055-.62988-2.58008-1.16992-.77051-.54004-1.39502-1.23486-1.875-2.08496-.48047-.8501-.72021-1.875-.72021-3.0752,0-1.17969,.23975-2.19971,.72021-3.06006,.47998-.85938,1.10449-1.56445,1.875-2.11475,.76953-.5498,1.62988-.95508,2.58008-1.21533,.94922-.25928,1.89453-.38965,2.83496-.38965Zm0,3.17969c-.56055,0-1.09082,.08594-1.58984,.25684-.50049,.17041-.94043,.41113-1.32031,.72266-.37988,.31104-.6748,.68799-.88477,1.12939-.20996,.44238-.31543,.94434-.31543,1.50635,0,.5625,.10547,1.06445,.31543,1.50586,.20996,.44238,.50488,.81885,.88477,1.12988s.81982,.55273,1.32031,.72314c.49902,.1709,1.0293,.25586,1.58984,.25586,.57959,0,1.11426-.08496,1.60449-.25586,.49023-.17041,.92529-.41211,1.30566-.72314,.37939-.31104,.6748-.6875,.88477-1.12988,.20996-.44141,.31494-.94336,.31494-1.50586,0-.56201-.10498-1.06396-.31494-1.50635-.20996-.44141-.50537-.81836-.88477-1.12939-.38037-.31152-.81543-.55225-1.30566-.72266-.49023-.1709-1.0249-.25684-1.60449-.25684Z"/><path class="cls-1" d="M162.11816,3.47998c0-.22021-.08057-.36035-.24023-.42041-.16016-.05957-.35059-.09961-.57031-.11963v-.36035h5.61035v.36035c-.2207,.02002-.40527,.06006-.55518,.11963-.1499,.06006-.2251,.2002-.2251,.42041V12.71973h8.22021c.11963,0,.23975-.04492,.35986-.13477,.12012-.09033,.18018-.29492,.18018-.61523h.35986v4.47021h-.35986c0-.32031-.06006-.51025-.18018-.57031s-.24023-.08984-.35986-.08984h-13.05029v-.35986c.21973-.02002,.41016-.06006,.57031-.12012,.15967-.06006,.24023-.19971,.24023-.41992V3.47998Z"/><path class="cls-1" d="M183.47754,2.93994c-.2998,.02002-.53516,.06006-.70508,.11963-.16992,.06006-.25488,.2002-.25488,.42041V14.87988c0,.22021,.08496,.35986,.25488,.41992s.40527,.1001,.70508,.12012v.35986h-5.93945v-.35986c.2998-.02002,.53467-.06006,.70508-.12012,.16943-.06006,.25488-.19971,.25488-.41992V3.47998c0-.22021-.08545-.36035-.25488-.42041-.17041-.05957-.40527-.09961-.70508-.11963v-.36035h5.93945v.36035Z"/><path class="cls-1" d="M199.10742,7.6499l-.41992-.20996c.01953-.08008,.04492-.16016,.0752-.24023,.02979-.07959,.04492-.16943,.04492-.27002,0-.12012-.125-.25977-.375-.41992-.25-.15967-.57031-.30469-.95996-.43506-.39014-.12988-.83008-.24463-1.32031-.34473s-.98535-.15039-1.48486-.15039c-.56006,0-1.13037,.07031-1.70996,.21094-.58057,.14062-1.1001,.35693-1.56006,.64795s-.83984,.6626-1.13965,1.11426c-.30029,.45166-.4502,.99951-.4502,1.64209,0,.62256,.1499,1.16504,.4502,1.62695,.2998,.4624,.67969,.83887,1.13965,1.12988s.97949,.50635,1.56006,.64697c.57959,.14062,1.1499,.21094,1.70996,.21094,.6001,0,1.16504-.07471,1.69482-.22461,.53027-.15039,1-.33008,1.41016-.54004s.72998-.41992,.95996-.63037c.22949-.20996,.34521-.36426,.34521-.46484v-.27002c0-.12012-.01025-.20996-.02979-.27002l.33008-.20996,2.84961,4.0957-.35986,.20801c-.18018-.21777-.34033-.32715-.47998-.32715-.08008,0-.29541,.08936-.64502,.26758-.3501,.17822-.81494,.38086-1.39502,.60889s-1.26514,.4209-2.05518,.57959c-.79053,.1582-1.66455,.2373-2.625,.2373-1.1001,0-2.1748-.10938-3.2251-.33008-1.0498-.21973-1.98486-.59473-2.80469-1.125-.82031-.5293-1.48047-1.22461-1.98047-2.08496-.5-.85938-.75-1.90967-.75-3.1499,0-1.21973,.25-2.25977,.75-3.12012,.5-.85938,1.16016-1.55957,1.98047-2.09961,.81982-.54004,1.75488-.93506,2.80469-1.18506,1.05029-.25,2.125-.375,3.2251-.375,.66016,0,1.30029,.05518,1.92041,.16504,.61914,.10986,1.18945,.22461,1.70996,.34473,.51953,.12012,.96973,.23535,1.34961,.34521s.6499,.16504,.81006,.16504c.1001,0,.18994-.03027,.27002-.09033,.08008-.05957,.13965-.11963,.17969-.17969l.36035,.12012-2.16016,4.37988Z"/><path class="cls-1" d="M213.6875,14.87988c0,.22021,.06934,.35986,.20996,.41992,.13965,.06006,.2793,.1001,.41992,.12012v.35986h-5.28027v-.35986c.13965-.02002,.28027-.06006,.41992-.12012s.20996-.19971,.20996-.41992v-3.87012l-5.72949-7.77002c-.08057-.12012-.21582-.19971-.40527-.23975-.19043-.04004-.34473-.06006-.46484-.06006v-.36035h6.44971v.36035c-.11963,0-.26514,.01465-.43506,.04492-.16992,.02979-.25488,.125-.25488,.28516,0,.1001,.09473,.28467,.28516,.55469,.18945,.27002,.4248,.59521,.70508,.9751,.2793,.38037,.58984,.78516,.92969,1.21484,.33984,.43066,.66016,.84521,.95996,1.24512,.08008-.15967,.25977-.43945,.54004-.83984,.28027-.3999,.57471-.81982,.88477-1.26025,.31055-.43945,.58545-.83984,.8252-1.19971,.24023-.36035,.36035-.58984,.36035-.68994,0-.16016-.08008-.25537-.24023-.28516-.16016-.03027-.29004-.04492-.38965-.04492v-.36035h5.93945v.36035c-.1001,0-.23975,.02002-.41992,.06006-.17969,.04004-.31006,.11963-.38965,.23975l-5.12988,7.6499v3.99023Z"/></g></g></svg>