<?xml version="1.0" encoding="UTF-8"?><svg id="_レイヤー_2" xmlns="http://www.w3.org/2000/svg" viewBox="0 0 250.37695 16.62012"><defs><style>.cls-1{fill:#b60005;}</style></defs><g id="header"><g><path class="cls-1" d="M15.05957,5.79004c.01953-.06006,.03516-.125,.04492-.19531,.00977-.06982,.01562-.1543,.01562-.25488,0-.15967-.13525-.31934-.40527-.47998-.27002-.15967-.62988-.30469-1.08008-.43506-.4502-.12988-.96484-.23975-1.54492-.33008-.58008-.08984-1.19043-.13477-1.83008-.13477-.6001,0-1.22998,.07031-1.88965,.20996-.66016,.14014-1.26562,.37012-1.81543,.68994-.55029,.32031-1,.74561-1.34961,1.2749-.35059,.53027-.52539,1.17529-.52539,1.93506,0,.76025,.1748,1.40527,.52539,1.93506,.34961,.53027,.79932,.95557,1.34961,1.2749,.5498,.32031,1.15527,.55029,1.81543,.68994,.65967,.14062,1.28955,.21045,1.88965,.21045,.25977,0,.66992-.04541,1.22998-.13525s1.11963-.21484,1.68018-.375c.55957-.15967,1.05469-.33984,1.48486-.54004,.43018-.19971,.64502-.40967,.64502-.62988,0-.1001-.02051-.18018-.06006-.24023-.04053-.05957-.08008-.12988-.11963-.20996l.32959-.20996,3.09033,4.70996-.36035,.20996c-.04004-.09961-.09473-.16504-.16504-.19482s-.15527-.04492-.25488-.04492c-.14014,0-.41992,.08545-.83984,.25488-.41992,.17041-.96533,.3501-1.63525,.54004-.67041,.19043-1.45459,.35986-2.35498,.51025-.8999,.1499-1.91016,.22461-3.03027,.22461-1.19971,0-2.38965-.1543-3.56934-.46484-1.18066-.31006-2.24023-.7998-3.18066-1.47021-.93994-.66943-1.69971-1.50977-2.2793-2.52002-.58057-1.00928-.87012-2.18457-.87012-3.5249,0-1.33936,.28955-2.51465,.87012-3.5249,.57959-1.00977,1.33936-1.84961,2.2793-2.52002,.94043-.66992,2-1.1748,3.18066-1.51514,1.17969-.33984,2.36963-.50977,3.56934-.50977,1.2002,0,2.23535,.06494,3.10547,.19482,.87012,.13037,1.60498,.27539,2.20508,.43506,.57959,.16016,1.0293,.29541,1.34961,.40527,.31982,.10986,.55957,.16504,.72021,.16504,.18018,0,.33008-.08008,.44971-.24023l.33008,.08984-2.69971,4.9502-.30029-.20996Z"/><path class="cls-1" d="M28.34961,2.58008c.93945,0,1.88477,.13037,2.83496,.38965,.94922,.26025,1.80957,.66553,2.58008,1.21533,.76953,.55029,1.39453,1.25537,1.875,2.11475,.47949,.86035,.71973,1.88037,.71973,3.06006,0,1.2002-.24023,2.2251-.71973,3.0752-.48047,.8501-1.10547,1.54492-1.875,2.08496-.77051,.54004-1.63086,.93018-2.58008,1.16992-.9502,.24023-1.89551,.35986-2.83496,.35986-.94043,0-1.88574-.11963-2.83496-.35986-.9502-.23975-1.81055-.62988-2.58008-1.16992-.77051-.54004-1.39502-1.23486-1.875-2.08496-.48047-.8501-.72021-1.875-.72021-3.0752,0-1.17969,.23975-2.19971,.72021-3.06006,.47998-.85938,1.10449-1.56445,1.875-2.11475,.76953-.5498,1.62988-.95508,2.58008-1.21533,.94922-.25928,1.89453-.38965,2.83496-.38965Zm0,3.17969c-.56055,0-1.09082,.08594-1.58984,.25684-.50049,.17041-.94043,.41113-1.32031,.72266-.37988,.31104-.6748,.68799-.88477,1.12939-.20996,.44238-.31543,.94434-.31543,1.50635,0,.5625,.10547,1.06445,.31543,1.50586,.20996,.44238,.50488,.81885,.88477,1.12988s.81982,.55273,1.32031,.72314c.49902,.1709,1.0293,.25586,1.58984,.25586,.57959,0,1.11426-.08496,1.60449-.25586,.49023-.17041,.92529-.41211,1.30566-.72314,.37939-.31104,.6748-.6875,.88477-1.12988,.20996-.44141,.31494-.94336,.31494-1.50586,0-.56201-.10498-1.06396-.31494-1.50635-.20996-.44141-.50537-.81836-.88477-1.12939-.38037-.31152-.81543-.55225-1.30566-.72266-.49023-.1709-1.0249-.25684-1.60449-.25684Z"/><path class="cls-1" d="M42.98926,15.06006c0,.22021,.08008,.35986,.24023,.41992,.15967,.06006,.35986,.1001,.59961,.12012v.35986h-4.70996v-.35986c.16016-.02002,.31543-.06006,.46484-.12012,.15039-.06006,.22559-.19971,.22559-.41992V3.66016c0-.22021-.0752-.36035-.22559-.42041-.14941-.05957-.30469-.09961-.46484-.11963v-.36035h6.51025v.36035c-.16064,.02002-.29541,.04004-.40479,.06006-.11035,.02002-.16504,.08008-.16504,.17969,0,.08008,.11426,.37061,.34473,.87012,.22949,.5,.49512,1.0498,.79492,1.6499s.58008,1.16553,.83984,1.69531,.41992,.875,.48047,1.03467c.23975-.47998,.51465-1.00488,.82471-1.57471,.31006-.57031,.6001-1.11035,.87012-1.62012,.27002-.51025,.49463-.95508,.67529-1.33496,.17969-.37988,.26953-.61963,.26953-.72021,0-.09961-.05518-.15967-.16504-.17969s-.24512-.04004-.40479-.06006v-.36035h6.54004v.36035c-.14014,.02002-.28027,.06006-.42041,.11963-.13965,.06006-.20996,.2002-.20996,.42041V15.06006c0,.22021,.07031,.35986,.20996,.41992,.14014,.06006,.28027,.1001,.42041,.12012v.35986h-5.01025v-.35986c.21973-.02002,.40527-.06006,.55518-.12012s.2251-.19971,.2251-.41992V6.54004h-.06006l-4.47021,8.66992-4.31982-8.66992h-.06006V15.06006Z"/><path class="cls-1" d="M60.26855,3.66016c0-.22021-.06494-.36035-.19482-.42041-.13037-.05957-.2251-.09961-.28467-.11963v-.36035h7.88965c.73975,0,1.45508,.06006,2.14502,.18018s1.29443,.34033,1.81494,.66016c.52002,.31982,.93994,.75488,1.25977,1.30469,.32031,.55029,.48047,1.26514,.48047,2.14502,0,.86035-.16016,1.57031-.48047,2.13037-.31982,.56006-.73975,1-1.25977,1.31982-.52051,.32031-1.125,.54004-1.81494,.66016-.68994,.11963-1.40527,.17969-2.14502,.17969h-3.38965v3.72021c0,.22021,.07471,.35986,.22461,.41992,.15039,.06006,.30469,.1001,.46484,.12012v.35986h-5.18945v-.35986c.05957-.02002,.1543-.06006,.28467-.12012,.12988-.06006,.19482-.19971,.19482-.41992V3.66016Zm6.87012,5.15967c.83984,0,1.44043-.13477,1.7998-.40479,.36035-.27002,.54004-.72461,.54004-1.36523,0-.61963-.16016-1.06934-.47949-1.34961-.32031-.28027-.86035-.42041-1.62012-.42041h-3.08984v3.54004h2.84961Z"/><path class="cls-1" d="M87.3291,15.6001c.05957,0,.13965-.00977,.23975-.03027,.1001-.01953,.1499-.09961,.1499-.23975,0-.07959-.03516-.20508-.10498-.375-.07031-.16992-.1499-.35498-.23975-.55518-.09033-.19971-.18555-.3999-.28516-.6001-.10059-.19971-.18018-.36963-.24023-.50977h-6.95996c-.04004,.14014-.10498,.31006-.19482,.50977-.09033,.2002-.18506,.40039-.28516,.6001-.1001,.2002-.18994,.38525-.27002,.55518s-.12012,.29541-.12012,.375c0,.14014,.0498,.22021,.15039,.23975,.09961,.02051,.17969,.03027,.23975,.03027v.35986h-4.5v-.35986c.12012,0,.23975-.0249,.35986-.0752,.12012-.0498,.2002-.12451,.24023-.2251,.59961-1.39941,1.20996-2.78467,1.83008-4.15479,.61963-1.36963,1.1748-2.60986,1.66504-3.72021,.48975-1.10986,.89453-2.0293,1.21484-2.75977,.31934-.72998,.47998-1.14453,.47998-1.24512,0-.18018-.13037-.27979-.39014-.2998v-.36035h6.27051v.36035c-.26074,.02002-.39062,.11963-.39062,.2998,0,.06006,.10547,.3252,.31543,.79492,.20996,.47021,.48438,1.06055,.8252,1.77002,.33984,.71045,.71484,1.49561,1.125,2.35498,.40918,.86035,.81934,1.72021,1.22949,2.58008,.41016,.86035,.79492,1.67529,1.15527,2.44482,.35986,.77051,.64941,1.41553,.87012,1.93506,.03955,.10059,.12012,.17529,.23975,.2251,.12012,.05029,.23975,.0752,.35986,.0752v.35986h-4.97949v-.35986Zm-4.02051-9.72021l-2.45996,5.25h4.98047l-2.52051-5.25Z"/><path class="cls-1" d="M110.36816,15.06006c0,.22021,.08008,.35986,.24023,.41992,.15967,.06006,.35986,.1001,.59961,.12012v.35986h-5.5498v-.35986c.16016,0,.34473-.02002,.55518-.06006,.20996-.04004,.31494-.1499,.31494-.33008s-.2207-.51465-.66016-1.00488c-.43994-.48975-1.00488-1.09521-1.69482-1.81494-.68994-.72021-1.46533-1.5249-2.32471-2.41504-.86035-.88965-1.71045-1.83496-2.55029-2.83496l-.06006,.06006v7.85986c0,.22021,.0752,.35986,.2251,.41992s.33447,.1001,.55518,.12012v.35986h-5.13037v-.35986c.19971-.02002,.375-.06006,.5249-.12012,.15039-.06006,.2251-.19971,.2251-.41992V3.66016c0-.22021-.08008-.36035-.23975-.42041-.16016-.05957-.35059-.09961-.57031-.11963v-.36035h7.14014v.36035c-.14014,.02002-.28027,.06006-.41992,.11963-.14014,.06006-.20996,.2002-.20996,.42041,0,.04004,.16455,.24512,.49463,.61475,.33008,.37061,.75488,.83545,1.27539,1.39502,.51953,.56006,1.09961,1.18018,1.74023,1.85986,.63965,.68018,1.2793,1.36035,1.91992,2.04004V3.66016c0-.22021-.08008-.36035-.24023-.42041-.16016-.05957-.36035-.09961-.6001-.11963v-.36035h5.27979v.36035c-.23975,.02002-.43994,.06006-.59961,.11963-.16016,.06006-.24023,.2002-.24023,.42041V15.06006Z"/><path class="cls-1" d="M123.59814,15.06006c0,.22021,.06982,.35986,.20996,.41992,.13965,.06006,.27979,.1001,.41992,.12012v.35986h-5.27979v-.35986c.13965-.02002,.27979-.06006,.41992-.12012,.13965-.06006,.20996-.19971,.20996-.41992v-3.87012l-5.72998-7.77002c-.08057-.12012-.21533-.19971-.40479-.23975-.19043-.04004-.34521-.06006-.46533-.06006v-.36035h6.44971v.36035c-.11963,0-.26465,.01465-.43457,.04492-.16992,.02979-.25488,.125-.25488,.28516,0,.1001,.09473,.28467,.28516,.55469,.18945,.27002,.42432,.59521,.70459,.9751,.27979,.38037,.58984,.78516,.93018,1.21484,.33984,.43066,.66016,.84521,.95996,1.24512,.07959-.15967,.25977-.43945,.54004-.83984,.27979-.3999,.57422-.81982,.88477-1.26025,.31006-.43945,.58496-.83984,.8252-1.19971,.24023-.36035,.35986-.58984,.35986-.68994,0-.16016-.08008-.25537-.23975-.28516-.16016-.03027-.29004-.04492-.39014-.04492v-.36035h5.93994v.36035c-.10059,0-.24023,.02002-.41992,.06006-.18018,.04004-.31055,.11963-.39014,.23975l-5.12988,7.6499v3.99023Z"/><path class="cls-1" d="M146.09766,15.06006c0,.14014,.04492,.25488,.13525,.34473,.09033,.09033,.32471,.15527,.70508,.19531v.35986h-6.18018v-.35986c.37988-.04004,.61523-.10498,.70508-.19531,.08984-.08984,.13477-.20459,.13477-.34473V1.08008c0-.13965-.04492-.25488-.13477-.34521-.08984-.08984-.3252-.15479-.70508-.19482V.18018h10.74023c.93945,0,1.76953,.13477,2.48975,.40479s1.31982,.63525,1.80029,1.09521c.47949,.45996,.83984,.99512,1.08008,1.60498,.23975,.61035,.35938,1.24463,.35938,1.90479s-.11963,1.29541-.35938,1.90479c-.24023,.61035-.60059,1.14014-1.08008,1.59033-.48047,.44971-1.08008,.81006-1.80029,1.08008s-1.55029,.40479-2.48975,.40479h-5.40039v4.89014Zm4.56055-8.07031c.83984,0,1.45459-.13965,1.84473-.41992,.38965-.27979,.58496-.73975,.58496-1.37988,0-.57959-.19531-1-.58496-1.25977-.39014-.25977-1.00488-.39014-1.84473-.39014h-4.56055v3.44971h4.56055Z"/><path class="cls-1" d="M160.40771,3.66016c0-.22021-.07031-.36035-.20996-.42041-.14014-.05957-.29053-.09961-.4502-.11963v-.36035h9.63037c1.5,0,2.69434,.35059,3.58496,1.05029,.88965,.7002,1.33496,1.73975,1.33496,3.12012,0,1.07959-.31543,1.93457-.94531,2.56494-.62988,.62988-1.4248,1.125-2.38477,1.48486l2.66992,4.02002c.09961,.16016,.24463,.2998,.43506,.41992,.18994,.12012,.39453,.18018,.61475,.18018v.35986h-6.05957v-.35986c.13965,0,.29492-.0249,.46484-.0752,.16992-.0498,.25488-.15479,.25488-.31494,0-.09961-.10498-.34961-.31494-.75-.20996-.3999-.44971-.82959-.72021-1.29004-.26953-.45996-.53027-.8999-.77979-1.31982-.25049-.41992-.40479-.68994-.46533-.81006h-2.87988v4.02002c0,.22021,.0752,.35986,.2251,.41992s.33447,.1001,.55518,.12012v.35986h-5.16016v-.35986c.12012-.02002,.25-.06006,.39014-.12012,.13965-.06006,.20996-.19971,.20996-.41992V3.66016Zm8.04004,4.85986c.63965,0,1.14453-.13525,1.51514-.40527,.36963-.27002,.55469-.6748,.55469-1.21484,0-.45996-.15527-.84473-.46484-1.15479-.31055-.31006-.91504-.46533-1.81494-.46533h-4.05029v3.24023h4.26025Z"/><path class="cls-1" d="M184.37744,2.58008c.93994,0,1.88525,.13037,2.83545,.38965,.94922,.26025,1.80957,.66553,2.57959,1.21533,.77002,.55029,1.39502,1.25537,1.875,2.11475,.47998,.86035,.72021,1.88037,.72021,3.06006,0,1.2002-.24023,2.2251-.72021,3.0752s-1.10498,1.54492-1.875,2.08496-1.63037,.93018-2.57959,1.16992c-.9502,.24023-1.89551,.35986-2.83545,.35986s-1.88525-.11963-2.83496-.35986c-.9502-.23975-1.81006-.62988-2.57959-1.16992-.77051-.54004-1.39551-1.23486-1.875-2.08496-.48047-.8501-.7207-1.875-.7207-3.0752,0-1.17969,.24023-2.19971,.7207-3.06006,.47949-.85938,1.10449-1.56445,1.875-2.11475,.76953-.5498,1.62939-.95508,2.57959-1.21533,.94971-.25928,1.89502-.38965,2.83496-.38965Zm0,3.17969c-.56006,0-1.09033,.08594-1.58984,.25684-.50049,.17041-.94043,.41113-1.31982,.72266-.38037,.31104-.67529,.68799-.88525,1.12939-.20996,.44238-.31494,.94434-.31494,1.50635,0,.5625,.10498,1.06445,.31494,1.50586,.20996,.44238,.50488,.81885,.88525,1.12988,.37939,.31104,.81934,.55273,1.31982,.72314,.49951,.1709,1.02979,.25586,1.58984,.25586,.57959,0,1.11475-.08496,1.60498-.25586,.49023-.17041,.9248-.41211,1.30518-.72314,.37939-.31104,.67529-.6875,.88525-1.12988,.20996-.44141,.31445-.94336,.31445-1.50586,0-.56201-.10449-1.06396-.31445-1.50635-.20996-.44141-.50586-.81836-.88525-1.12939-.38037-.31152-.81494-.55225-1.30518-.72266-.49023-.1709-1.02539-.25684-1.60498-.25684Z"/><path class="cls-1" d="M195.56738,3.66016c0-.22021-.08008-.36035-.24023-.42041-.16016-.05957-.37988-.09961-.65967-.11963v-.36035h13.0498c.12012,0,.24023-.03955,.35986-.11963,.12012-.08008,.18018-.25977,.18018-.54004h.35986V6.23975h-.35986c0-.2998-.06006-.49463-.18018-.58496-.11963-.08984-.23975-.13477-.35986-.13477h-8.12988v2.79004h5.48975c.12012,0,.24023-.04004,.36035-.12012,.12012-.07959,.17969-.25977,.17969-.54004h.36035v4.02002h-.36035c0-.2998-.05957-.49512-.17969-.58496s-.24023-.13477-.36035-.13477h-5.48975v4.10986c0,.22021,.07959,.35986,.23975,.41992s.36035,.1001,.60059,.12012v.35986h-5.7002v-.35986c.23975-.02002,.43945-.06006,.59961-.12012s.24023-.19971,.24023-.41992V3.66016Z"/><path class="cls-1" d="M216.77734,3.12012c-.2998,.02002-.53516,.06006-.70508,.11963-.16992,.06006-.25488,.2002-.25488,.42041V15.06006c0,.22021,.08496,.35986,.25488,.41992s.40527,.1001,.70508,.12012v.35986h-5.93994v-.35986c.30029-.02002,.53467-.06006,.70508-.12012,.16943-.06006,.25488-.19971,.25488-.41992V3.66016c0-.22021-.08545-.36035-.25488-.42041-.17041-.05957-.40479-.09961-.70508-.11963v-.36035h5.93994v.36035Z"/><path class="cls-1" d="M220.64697,3.66016c0-.22021-.08057-.36035-.23975-.42041-.16064-.05957-.35059-.09961-.57031-.11963v-.36035h5.60986v.36035c-.22021,.02002-.40479,.06006-.55518,.11963-.14941,.06006-.22461,.2002-.22461,.42041V12.8999h8.21973c.12012,0,.24023-.04492,.36035-.13477,.12012-.09033,.17969-.29492,.17969-.61523h.36035v4.47021h-.36035c0-.32031-.05957-.51025-.17969-.57031s-.24023-.08984-.36035-.08984h-13.0498v-.35986c.21973-.02002,.40967-.06006,.57031-.12012,.15918-.06006,.23975-.19971,.23975-.41992V3.66016Z"/><path class="cls-1" d="M249.23682,13.31982c.3999,0,.66016-.24951,.77979-.75h.36035v3.93018h-.2998c-.10059-.28027-.20557-.44043-.31543-.47998-.11035-.04053-.28516-.06006-.5249-.06006h-13.37988v-.35986c.21973-.02002,.41455-.06006,.58496-.12012,.16943-.06006,.25488-.19971,.25488-.41992V3.66016c0-.22021-.08545-.36035-.25488-.42041-.17041-.05957-.36523-.09961-.58496-.11963v-.36035h13.61963c.12012,0,.24023-.03955,.36035-.11963s.17969-.25977,.17969-.54004h.36035V6.12012h-.36035c0-.30029-.05957-.49512-.17969-.58496-.12012-.09033-.24023-.13525-.36035-.13525h-8.75977v2.43018h5.64014c.11963,0,.23975-.04492,.35986-.13525,.12012-.08984,.18018-.27441,.18018-.55469h.35986v3.8999h-.35986c0-.27979-.06006-.46484-.18018-.55518-.12012-.08984-.24023-.13477-.35986-.13477h-5.64014v2.96973h8.52002Z"/></g></g></svg>