<?xml version="1.0" encoding="UTF-8"?><svg id="_レイヤー_2" xmlns="http://www.w3.org/2000/svg" viewBox="0 0 124.49805 16.0498"><defs><style>.cls-1{fill:#b60005;}</style></defs><g id="header"><g><path class="cls-1" d="M15.05957,5.79004c.01953-.06006,.03516-.125,.04492-.19531,.00977-.06982,.01562-.1543,.01562-.25488,0-.15967-.13525-.31934-.40527-.47998-.27002-.15967-.62988-.30469-1.08008-.43506-.4502-.12988-.96484-.23975-1.54492-.33008-.58008-.08984-1.19043-.13477-1.83008-.13477-.6001,0-1.22998,.07031-1.88965,.20996-.66016,.14014-1.26562,.37012-1.81543,.68994-.55029,.32031-1,.74561-1.34961,1.2749-.35059,.53027-.52539,1.17529-.52539,1.93506,0,.76025,.1748,1.40527,.52539,1.93506,.34961,.53027,.79932,.95557,1.34961,1.2749,.5498,.32031,1.15527,.55029,1.81543,.68994,.65967,.14062,1.28955,.21045,1.88965,.21045,.25977,0,.66992-.04541,1.22998-.13525s1.11963-.21484,1.68018-.375c.55957-.15967,1.05469-.33984,1.48486-.54004,.43018-.19971,.64502-.40967,.64502-.62988,0-.1001-.02051-.18018-.06006-.24023-.04053-.05957-.08008-.12988-.11963-.20996l.32959-.20996,3.09033,4.70996-.36035,.20996c-.04004-.09961-.09473-.16504-.16504-.19482s-.15527-.04492-.25488-.04492c-.14014,0-.41992,.08545-.83984,.25488-.41992,.17041-.96533,.3501-1.63525,.54004-.67041,.19043-1.45459,.35986-2.35498,.51025-.8999,.1499-1.91016,.22461-3.03027,.22461-1.19971,0-2.38965-.1543-3.56934-.46484-1.18066-.31006-2.24023-.7998-3.18066-1.47021-.93994-.66943-1.69971-1.50977-2.2793-2.52002-.58057-1.00928-.87012-2.18457-.87012-3.5249,0-1.33936,.28955-2.51465,.87012-3.5249,.57959-1.00977,1.33936-1.84961,2.2793-2.52002,.94043-.66992,2-1.1748,3.18066-1.51514,1.17969-.33984,2.36963-.50977,3.56934-.50977,1.2002,0,2.23535,.06494,3.10547,.19482,.87012,.13037,1.60498,.27539,2.20508,.43506,.57959,.16016,1.0293,.29541,1.34961,.40527,.31982,.10986,.55957,.16504,.72021,.16504,.18018,0,.33008-.08008,.44971-.24023l.33008,.08984-2.69971,4.9502-.30029-.20996Z"/><path class="cls-1" d="M28.34912,2.58008c.93994,0,1.88525,.13037,2.83545,.38965,.94922,.26025,1.80957,.66553,2.57959,1.21533,.77002,.55029,1.39502,1.25537,1.875,2.11475,.47998,.86035,.72021,1.88037,.72021,3.06006,0,1.2002-.24023,2.2251-.72021,3.0752s-1.10498,1.54492-1.875,2.08496-1.63037,.93018-2.57959,1.16992c-.9502,.24023-1.89551,.35986-2.83545,.35986s-1.88525-.11963-2.83496-.35986c-.9502-.23975-1.81006-.62988-2.57959-1.16992-.77051-.54004-1.39551-1.23486-1.875-2.08496-.48047-.8501-.7207-1.875-.7207-3.0752,0-1.17969,.24023-2.19971,.7207-3.06006,.47949-.85938,1.10449-1.56445,1.875-2.11475,.76953-.5498,1.62939-.95508,2.57959-1.21533,.94971-.25928,1.89502-.38965,2.83496-.38965Zm0,3.17969c-.56006,0-1.09033,.08594-1.58984,.25684-.50049,.17041-.94043,.41113-1.31982,.72266-.38037,.31104-.67529,.68799-.88525,1.12939-.20996,.44238-.31494,.94434-.31494,1.50635,0,.5625,.10498,1.06445,.31494,1.50586,.20996,.44238,.50488,.81885,.88525,1.12988,.37939,.31104,.81934,.55273,1.31982,.72314,.49951,.1709,1.02979,.25586,1.58984,.25586,.57959,0,1.11475-.08496,1.60498-.25586,.49023-.17041,.9248-.41211,1.30518-.72314,.37939-.31104,.67529-.6875,.88525-1.12988,.20996-.44141,.31445-.94336,.31445-1.50586,0-.56201-.10449-1.06396-.31445-1.50635-.20996-.44141-.50586-.81836-.88525-1.12939-.38037-.31152-.81494-.55225-1.30518-.72266-.49023-.1709-1.02539-.25684-1.60498-.25684Z"/><path class="cls-1" d="M54.1792,15.06006c0,.22021,.07959,.35986,.23975,.41992s.36035,.1001,.6001,.12012v.35986h-5.55029v-.35986c.16016,0,.34521-.02002,.55566-.06006,.20996-.04004,.31445-.1499,.31445-.33008s-.22021-.51465-.65967-1.00488c-.43994-.48975-1.00537-1.09521-1.69482-1.81494-.69043-.72021-1.46582-1.5249-2.3252-2.41504-.86035-.88965-1.70996-1.83496-2.5498-2.83496l-.06055,.06006v7.85986c0,.22021,.0752,.35986,.22559,.41992,.14941,.06006,.33447,.1001,.55469,.12012v.35986h-5.12988v-.35986c.19922-.02002,.375-.06006,.5249-.12012s.2251-.19971,.2251-.41992V3.66016c0-.22021-.08008-.36035-.24023-.42041-.16016-.05957-.3501-.09961-.56982-.11963v-.36035h7.14014v.36035c-.14062,.02002-.28027,.06006-.41992,.11963-.14062,.06006-.20996,.2002-.20996,.42041,0,.04004,.16455,.24512,.49463,.61475,.33008,.37061,.75439,.83545,1.2749,1.39502,.52002,.56006,1.09961,1.18018,1.74023,1.85986,.63965,.68018,1.2793,1.36035,1.91992,2.04004V3.66016c0-.22021-.08008-.36035-.24023-.42041-.16016-.05957-.35986-.09961-.59961-.11963v-.36035h5.27979v.36035c-.23975,.02002-.43994,.06006-.6001,.11963-.16016,.06006-.23975,.2002-.23975,.42041V15.06006Z"/><path class="cls-1" d="M70.73877,2.75977c.12012,0,.23975-.03955,.35986-.11963s.18018-.25977,.18018-.54004h.35986V6.47998h-.35986c0-.27979-.06006-.45996-.18018-.54004-.12012-.07959-.23975-.12012-.35986-.12012h-4.28955V15.06006c0,.22021,.07471,.35986,.22461,.41992,.15039,.06006,.30469,.1001,.46484,.12012v.35986h-5.3999v-.35986c.15967-.02002,.31494-.06006,.46533-.12012,.14941-.06006,.22461-.19971,.22461-.41992V5.81982h-4.29004c-.12012,0-.23975,.04053-.35986,.12012-.11963,.08008-.18018,.26025-.18018,.54004h-.35986V2.1001h.35986c0,.28027,.06055,.45996,.18018,.54004,.12012,.08008,.23975,.11963,.35986,.11963h12.6001Z"/><path class="cls-1" d="M85.67871,15.6001c.06006,0,.13965-.00977,.24023-.03027,.09961-.01953,.1499-.09961,.1499-.23975,0-.07959-.03516-.20508-.10498-.375-.07031-.16992-.15039-.35498-.24023-.55518-.08984-.19971-.18506-.3999-.28516-.6001-.09961-.19971-.17969-.36963-.23975-.50977h-6.95996c-.04053,.14014-.10498,.31006-.19482,.50977-.08984,.2002-.18555,.40039-.28516,.6001-.10059,.2002-.19043,.38525-.27002,.55518-.08008,.16992-.11963,.29541-.11963,.375,0,.14014,.04932,.22021,.14941,.23975,.1001,.02051,.18018,.03027,.24023,.03027v.35986h-4.5v-.35986c.12012,0,.24023-.0249,.36035-.0752,.11963-.0498,.19922-.12451,.23975-.2251,.6001-1.39941,1.20947-2.78467,1.82959-4.15479,.62012-1.36963,1.1748-2.60986,1.66504-3.72021,.49023-1.10986,.89551-2.0293,1.21533-2.75977,.31982-.72998,.47998-1.14453,.47998-1.24512,0-.18018-.13037-.27979-.38965-.2998v-.36035h6.26953v.36035c-.25977,.02002-.38965,.11963-.38965,.2998,0,.06006,.10449,.3252,.31445,.79492,.20996,.47021,.48535,1.06055,.8252,1.77002,.33984,.71045,.71484,1.49561,1.125,2.35498,.41016,.86035,.82031,1.72021,1.23047,2.58008,.40918,.86035,.79492,1.67529,1.1543,2.44482,.36035,.77051,.65039,1.41553,.87012,1.93506,.04004,.10059,.12012,.17529,.24023,.2251,.12012,.05029,.24023,.0752,.36035,.0752v.35986h-4.98047v-.35986Zm-4.01953-9.72021l-2.46045,5.25h4.97998l-2.51953-5.25Z"/><path class="cls-1" d="M105.68848,7.83008l-.41992-.20996c.01953-.08008,.04492-.16016,.0752-.24023,.0293-.07959,.04492-.16943,.04492-.27002,0-.12012-.12549-.25977-.375-.41992-.25049-.15967-.57031-.30469-.95996-.43506-.39062-.12988-.83057-.24463-1.32031-.34473-.49023-.1001-.98535-.15039-1.48535-.15039-.55957,0-1.12988,.07031-1.70996,.21094s-1.09961,.35693-1.55957,.64795c-.46045,.29102-.83984,.6626-1.14014,1.11426s-.44971,.99951-.44971,1.64209c0,.62256,.14941,1.16504,.44971,1.62695,.30029,.4624,.67969,.83887,1.14014,1.12988,.45996,.29102,.97949,.50635,1.55957,.64697s1.15039,.21094,1.70996,.21094c.60059,0,1.16504-.07471,1.69531-.22461,.52979-.15039,1-.33008,1.41016-.54004,.40967-.20996,.72949-.41992,.95996-.63037,.22949-.20996,.34473-.36426,.34473-.46484v-.27002c0-.12012-.00977-.20996-.02979-.27002l.33008-.20996,2.8501,4.0957-.36035,.20801c-.17969-.21777-.33984-.32715-.47949-.32715-.08057,0-.2959,.08936-.64551,.26758-.3501,.17822-.81494,.38086-1.39453,.60889-.58057,.22803-1.26562,.4209-2.05566,.57959-.79004,.1582-1.66455,.2373-2.625,.2373-1.09961,0-2.1748-.10938-3.22461-.33008-1.0498-.21973-1.98535-.59473-2.80469-1.125-.82031-.5293-1.48047-1.22461-1.98047-2.08496-.5-.85938-.75-1.90967-.75-3.1499,0-1.21973,.25-2.25977,.75-3.12012,.5-.85938,1.16016-1.55957,1.98047-2.09961,.81934-.54004,1.75488-.93506,2.80469-1.18506s2.125-.375,3.22461-.375c.66016,0,1.30029,.05518,1.92041,.16504,.61963,.10986,1.18994,.22461,1.70996,.34473s.96973,.23535,1.3501,.34521c.37988,.10986,.64941,.16504,.80957,.16504,.1001,0,.19043-.03027,.27051-.09033,.07959-.05957,.13965-.11963,.17969-.17969l.36035,.12012-2.16016,4.37988Z"/><path class="cls-1" d="M123.59814,2.75977c.12012,0,.23975-.03955,.35986-.11963s.18018-.25977,.18018-.54004h.35986V6.47998h-.35986c0-.27979-.06006-.45996-.18018-.54004-.12012-.07959-.23975-.12012-.35986-.12012h-4.28955V15.06006c0,.22021,.07471,.35986,.22461,.41992,.15039,.06006,.30469,.1001,.46484,.12012v.35986h-5.3999v-.35986c.15967-.02002,.31494-.06006,.46533-.12012,.14941-.06006,.22461-.19971,.22461-.41992V5.81982h-4.29004c-.12012,0-.23975,.04053-.35986,.12012-.11963,.08008-.18018,.26025-.18018,.54004h-.35986V2.1001h.35986c0,.28027,.06055,.45996,.18018,.54004,.12012,.08008,.23975,.11963,.35986,.11963h12.6001Z"/></g></g></svg>