<?xml version="1.0" encoding="UTF-8"?><svg id="_レイヤー_2" xmlns="http://www.w3.org/2000/svg" viewBox="0 0 77.31006 16.31982"><defs><style>.cls-1{fill:#b60005;}</style></defs><g id="header"><g><path class="cls-1" d="M.84033,.8999c0-.13965-.04492-.25488-.13525-.34521-.08984-.08984-.3252-.15479-.70508-.19482v-.35986H7.23047V.35986c-.34082,.02002-.56543,.06494-.6748,.13477-.11035,.07031-.16504,.15527-.16504,.25537,0,.04004,.12988,.22021,.38965,.53955,.25977,.32031,.6001,.72021,1.02002,1.2002s.89502,1.01514,1.42529,1.60498c.5293,.59033,1.06445,1.18018,1.60449,1.77002,.54004,.59033,1.06006,1.15039,1.56055,1.68018,.49902,.52979,.92969,.98535,1.29004,1.36475V.8999c0-.33984-.21045-.52002-.63037-.54004v-.35986h5.48975V.35986c-.37988,.04004-.61475,.10498-.70508,.19482-.08984,.09033-.13477,.20557-.13477,.34521V14.87988c0,.14014,.04492,.25488,.13477,.34473,.09033,.09033,.3252,.15527,.70508,.19531v.35986h-5.69971v-.35986c.27979,0,.46533-.03027,.55518-.09033,.08984-.05957,.13477-.13965,.13477-.23975,0-.06006-.03027-.13525-.08984-.2251-.06006-.08984-.19043-.24463-.39014-.46484-.2002-.21973-.49463-.53516-.88525-.94531-.38965-.40967-.90479-.95996-1.54492-1.6499s-1.42969-1.5498-2.37012-2.58008c-.93994-1.02979-2.06934-2.28467-3.38965-3.76465V14.87988c0,.14014,.04492,.25488,.13477,.34473,.08984,.09033,.3252,.15527,.70508,.19531v.35986H0v-.35986c.37988-.04004,.61523-.10498,.70508-.19531,.09033-.08984,.13525-.20459,.13525-.34473V.8999Z"/><path class="cls-1" d="M35.40039,13.13965c.3999,0,.66016-.24951,.78027-.75h.35986v3.93018h-.30029c-.1001-.28027-.20508-.44043-.31445-.47998-.11035-.04053-.28516-.06006-.52539-.06006h-13.37988v-.35986c.21973-.02002,.41504-.06006,.58496-.12012s.25488-.19971,.25488-.41992V3.47998c0-.22021-.08496-.36035-.25488-.42041-.16992-.05957-.36523-.09961-.58496-.11963v-.36035h13.62012c.12012,0,.23975-.03955,.35986-.11963,.11963-.08008,.18018-.25977,.18018-.54004h.35986V5.93994h-.35986c0-.30029-.06055-.49512-.18018-.58496-.12012-.09033-.23975-.13525-.35986-.13525h-8.76025v2.43018h5.64014c.12012,0,.24023-.04492,.35986-.13525,.12012-.08984,.18018-.27441,.18018-.55469h.35986v3.8999h-.35986c0-.27979-.06006-.46484-.18018-.55518-.11963-.08984-.23975-.13477-.35986-.13477h-5.64014v2.96973h8.52002Z"/><path class="cls-1" d="M43.89062,2.93994c-.18066,0-.36035,.03516-.54004,.10498-.18018,.07031-.27051,.21484-.27051,.43506,0,.08008,.0498,.2998,.15039,.65967,.09961,.36035,.22949,.78516,.38965,1.2749,.16016,.49072,.33008,1.02002,.51025,1.59033,.18018,.56982,.35498,1.12012,.5249,1.6499,.16992,.53027,.31982,1.01025,.4502,1.43994,.12988,.43018,.21484,.74561,.25488,.94482h.06006c.03955-.21973,.13477-.53955,.28467-.95996,.15039-.41992,.3252-.88965,.52539-1.40967,.19922-.52002,.40918-1.06494,.62988-1.63525,.21973-.56982,.4248-1.09473,.61523-1.57471,.18945-.47998,.34473-.90039,.46484-1.26025s.17969-.6001,.17969-.71973c0-.22021-.08984-.36475-.26953-.43506-.18018-.06982-.36035-.10498-.54004-.10498v-.36035h6.08984v.36035c-.2002,0-.39014,.03516-.57031,.10498-.17969,.07031-.26953,.21484-.26953,.43506,0,.05957,.06445,.27002,.19482,.62988,.12988,.35986,.28955,.79492,.47998,1.30469,.18945,.51025,.39453,1.06543,.61523,1.66504,.21973,.6001,.43457,1.17041,.64453,1.70996,.20996,.54004,.39014,1.01562,.54004,1.42529,.15039,.41016,.24512,.68506,.28516,.82471h.06006c.03955-.21973,.12451-.54443,.25488-.97461,.12988-.43018,.27979-.90479,.44971-1.42529,.16992-.51953,.34521-1.05469,.52539-1.60498,.17969-.5498,.34961-1.06934,.50977-1.56006,.16016-.48975,.29004-.91504,.39014-1.2749s.1499-.6001,.1499-.71973c0-.22021-.08984-.36475-.26953-.43506-.18066-.06982-.37061-.10498-.57031-.10498v-.36035h4.97998v.36035c-.28027,.04004-.46045,.13037-.54004,.27002-.08008,.14014-.16016,.31982-.23975,.54004-.06055,.19971-.19043,.60986-.39014,1.22998-.2002,.62012-.43994,1.33984-.72021,2.15967-.28027,.82031-.56543,1.68018-.85498,2.58008-.29004,.8999-.56494,1.73535-.82471,2.50488-.26025,.77051-.47021,1.41553-.62988,1.93506-.16064,.52051-.24023,.81006-.24023,.87012,0,.2002,.27979,.33008,.83984,.39014v.35986h-6.33008v-.35986c.58008-.06006,.87012-.18994,.87012-.39014,0-.09961-.06006-.33008-.17969-.68994-.12012-.35986-.27051-.79004-.4502-1.29004-.18018-.49951-.375-1.03955-.58496-1.62012-.20996-.57959-.41553-1.12939-.61523-1.6499-.2002-.52002-.37012-.97949-.50977-1.37988-.14014-.3999-.23047-.67969-.27002-.84033h-.06006c-.04004,.16064-.13037,.44043-.27002,.84033-.14014,.40039-.31006,.85986-.51025,1.37988-.2002,.52051-.40479,1.07031-.61475,1.6499-.20996,.58057-.40479,1.12061-.58496,1.62012-.18018,.5-.33008,.93018-.44971,1.29004-.12012,.35986-.18066,.59033-.18066,.68994,0,.12012,.0752,.20508,.22559,.25488,.14941,.05029,.33447,.09521,.55469,.13525v.35986h-6.20996v-.35986c.54004-.06006,.81006-.18994,.81006-.39014,0-.07959-.09033-.40967-.27002-.99023-.17969-.57959-.40527-1.28467-.6748-2.11475-.27051-.82959-.56543-1.72949-.88525-2.7002-.31982-.96973-.62012-1.875-.8999-2.71484-.28027-.83984-.51514-1.55469-.70508-2.14502-.19043-.58984-.29541-.93457-.31494-1.03516-.04053-.15967-.10498-.26465-.19482-.31494-.09033-.04932-.18555-.07471-.28516-.07471v-.36035h5.28027v.36035Z"/><path class="cls-1" d="M64.83008,11.36963c0,.04053-.00488,.08545-.01465,.13525-.01074,.05029-.01562,.11523-.01562,.19482,0,.2002,.19043,.39014,.57031,.57031,.37988,.17969,.86475,.34473,1.45508,.49463,.58984,.1499,1.22998,.27002,1.91992,.36035,.68994,.08984,1.33496,.13477,1.93506,.13477,.18018,0,.42432-.00977,.73486-.02979,.30957-.02002,.61523-.0752,.91504-.16504,.2998-.09033,.55469-.22021,.76465-.39014,.21045-.16992,.31543-.40479,.31543-.70508,0-.3999-.24023-.68457-.71973-.85498-.48047-.16943-1.08545-.2998-1.81543-.39014-.73047-.08984-1.52002-.18457-2.37012-.28467s-1.63965-.2749-2.37012-.52539c-.72998-.24951-1.33496-.60938-1.81445-1.07959-.48047-.46973-.72021-1.125-.72021-1.96533,0-.45947,.11963-.95459,.35986-1.48486,.24023-.52979,.62012-1.01465,1.14014-1.45508,.52002-.43945,1.20459-.80469,2.05518-1.09473,.84961-.29004,1.88477-.43506,3.10449-.43506,.72021,0,1.40527,.04004,2.05566,.12012,.64941,.08008,1.23926,.16992,1.76953,.26953,.52979,.10059,.97949,.19043,1.3501,.27002,.36963,.08057,.63477,.12012,.79492,.12012,.15967,0,.28955-.04492,.39014-.13477,.09961-.09033,.18945-.16504,.27002-.2251l.32959,.12012-1.7998,3.77979-.38965-.18018c0-.03955,.00439-.08984,.01465-.1499,.00977-.06006,.01514-.11963,.01514-.17969,0-.08008-.11963-.18018-.35986-.30029s-.55518-.23975-.94531-.35986c-.38965-.12012-.83008-.2251-1.31982-.31494-.49023-.08984-.99512-.13525-1.51514-.13525-.17969,0-.45996,.00537-.83984,.01514-.37988,.01025-.76025,.06006-1.13965,.1499-.38086,.09033-.71582,.22021-1.00537,.39014-.29004,.16992-.43506,.42529-.43506,.76514,0,.35986,.24023,.61475,.71973,.76465,.48047,.15039,1.08496,.27002,1.81543,.36035,.72949,.08984,1.51953,.18994,2.37012,.2998,.84961,.11035,1.63965,.29541,2.37012,.55518,.72949,.26025,1.33496,.63525,1.81445,1.125,.48047,.49023,.72021,1.1748,.72021,2.05469,0,.58057-.13037,1.13574-.39014,1.66504-.25977,.53027-.66016,.99512-1.2002,1.39502-.53955,.40039-1.22461,.70508-2.05469,.91504s-1.81494,.31494-2.95508,.31494c-.71973,0-1.4502-.04492-2.18994-.13477s-1.42041-.19971-2.04004-.33008c-.62012-.12988-1.13525-.25-1.54492-.35986-.41016-.10986-.64502-.16504-.70508-.16504-.14014,0-.26514,.04492-.375,.13477-.10986,.09033-.21533,.18506-.31494,.28516l-.33008-.08984,1.23047-4.02002,.38965,.17969Z"/></g></g></svg>