<?xml version="1.0" encoding="UTF-8"?><svg id="_レイヤー_2" xmlns="http://www.w3.org/2000/svg" viewBox="0 0 149.39795 26.44971"><defs><style>.cls-1{fill:#fff;}</style></defs><g id="text"><g><path class="cls-1" d="M7.94995,25.19971c0,.16748,.05786,.29248,.17505,.375,.11646,.0835,.35767,.125,.72485,.125v.6001H0v-.6001c.36646-.06641,.63281-.1748,.80005-.32471,.16626-.15039,.33276-.42529,.5-.8252,.06641-.1665,.23267-.61621,.5-1.3501,.26636-.73291,.61621-1.65771,1.0498-2.7749,.43286-1.11621,.9165-2.35791,1.4502-3.7251,.53271-1.36621,1.06641-2.75781,1.59985-4.1748,.53296-1.4165,1.05786-2.80029,1.57495-4.1499,.5166-1.3501,.9751-2.55811,1.375-3.625,.40015-1.06641,.7251-1.93311,.9751-2.6001,.25-.6665,.375-1.0166,.375-1.05029,0-.16602-.10864-.28271-.32495-.34961-.21729-.06641-.44214-.1167-.67505-.15039V0h13.05005V.59961c-.26733,.03369-.48364,.08398-.65015,.15039-.16699,.06689-.25,.2334-.25,.5,0,.06689,.15796,.5,.4751,1.2998,.31641,.7998,.7251,1.84229,1.2251,3.125,.5,1.28369,1.07495,2.7334,1.72485,4.3501,.65015,1.61719,1.32495,3.26709,2.02515,4.94971,.69995,1.68359,1.375,3.3252,2.0249,4.92529s1.24146,3.03369,1.7749,4.2998c.2666,.6001,.49146,1,.67505,1.2002,.18286,.19971,.42505,.2998,.7251,.2998v.6001h-9.8501v-.6001c.63281-.03271,.94995-.23291,.94995-.6001,0-.03271-.0835-.25781-.25-.6748-.16699-.4165-.34985-.88281-.5498-1.3999-.2002-.5166-.39233-1.00781-.5752-1.4751-.18359-.46631-.29199-.78271-.32495-.9502H9.55005c-.33374,.90039-.6001,1.63379-.80005,2.2002-.19995,.56738-.35864,1.01709-.4751,1.3501-.11719,.3335-.19995,.57471-.25,.7251-.05005,.1499-.07495,.2583-.07495,.32471Zm12.1499-8.6001L15.25,4.69971l-4.44995,11.8999h9.2998Z"/><path class="cls-1" d="M38.04932,5.7998c0-.36621-.14209-.6001-.42505-.7002-.28345-.09961-.67505-.16602-1.17505-.19971v-.6001h15.05005c1.5,0,2.78296,.0752,3.8501,.2251,1.06641,.1499,1.93286,.4248,2.59985,.82471,.6665,.40039,1.15796,.95898,1.4751,1.67529,.31641,.71729,.4751,1.625,.4751,2.7251,0,1.06689-.3252,2.0249-.9751,2.875-.6499,.84961-1.42505,1.49219-2.32495,1.9248,1.34985,.43359,2.37036,1.05859,3.0625,1.875,.69141,.81738,1.03735,1.9751,1.03735,3.4751,0,1.96729-.70142,3.5249-2.10449,4.6748-1.40332,1.1499-3.69141,1.7251-6.86499,1.7251h-15.28052v-.6001c.5-.03271,.8916-.1001,1.17505-.19971,.28296-.1001,.42505-.33301,.42505-.7002V5.7998Zm12.6499,7.5c1.30005,0,2.17505-.23291,2.625-.7002,.4502-.46631,.67505-1.03271,.67505-1.69971,0-1-.2749-1.6499-.82495-1.9502-.55005-.2998-1.375-.44971-2.4751-.44971h-5.94995v4.7998h5.94995Zm-.5,8.7998c1.1665,0,2.15015-.19971,2.9502-.59961,.7998-.40039,1.19995-1.1001,1.19995-2.1001,0-.6665-.125-1.18311-.375-1.55029-.25-.36621-.57495-.63281-.9751-.7998-.3999-.1665-.84204-.2666-1.32495-.2998-.48364-.0332-.9751-.05029-1.4751-.05029h-5.44995v5.3999h5.44995Z"/><path class="cls-1" d="M77.34888,4c1.56641,0,3.14136,.2168,4.7251,.6499,1.58276,.43359,3.01636,1.1084,4.2998,2.0249,1.28296,.91699,2.3252,2.09229,3.125,3.5249,.80005,1.43359,1.2002,3.13379,1.2002,5.1001,0,2-.40015,3.7085-1.2002,5.125-.7998,1.41699-1.84204,2.5752-3.125,3.4751-1.28345,.8999-2.71704,1.5498-4.2998,1.94971-1.58374,.40039-3.15869,.6001-4.7251,.6001-1.56714,0-3.14209-.19971-4.7251-.6001-1.5835-.3999-3.01709-1.0498-4.2998-1.94971-1.28369-.8999-2.3252-2.05811-3.125-3.4751-.80005-1.4165-1.2002-3.125-1.2002-5.125,0-1.96631,.40015-3.6665,1.2002-5.1001,.7998-1.43262,1.84131-2.60791,3.125-3.5249,1.28271-.9165,2.71631-1.59131,4.2998-2.0249,1.58301-.43311,3.15796-.6499,4.7251-.6499Zm0,5.2998c-.93359,0-1.81714,.14307-2.6499,.42725-.83374,.28467-1.56738,.68604-2.2002,1.20459-.63354,.51904-1.125,1.14697-1.47485,1.88281-.3501,.73682-.52515,1.57373-.52515,2.51025,0,.9375,.17505,1.77441,.52515,2.51025,.34985,.73682,.84131,1.36426,1.47485,1.88281,.63281,.51855,1.36646,.9209,2.2002,1.20557,.83276,.28418,1.71631,.42627,2.6499,.42627,.96631,0,1.85791-.14209,2.67505-.42627,.81641-.28467,1.54126-.68701,2.17505-1.20557,.63281-.51855,1.125-1.146,1.47485-1.88281,.3501-.73584,.52515-1.57275,.52515-2.51025,0-.93652-.17505-1.77344-.52515-2.51025-.34985-.73584-.84204-1.36377-1.47485-1.88281-.63379-.51855-1.35864-.91992-2.17505-1.20459-.81714-.28418-1.70874-.42725-2.67505-.42725Z"/><path class="cls-1" d="M96.34839,5.7998c0-.36621-.14209-.6001-.42505-.7002-.28345-.09961-.625-.16602-1.0249-.19971v-.6001h9v.6001c-.16724,.03369-.3501,.1001-.55005,.19971-.19995,.1001-.30005,.33398-.30005,.7002v12.1499c0,1.26709,.45801,2.17529,1.375,2.7251,.9165,.5498,2.125,.8252,3.625,.8252s2.70801-.27539,3.625-.8252c.9165-.5498,1.375-1.45801,1.375-2.7251V5.7998c0-.36621-.09985-.6001-.2998-.7002-.2002-.09961-.38379-.16602-.55005-.19971v-.6001h9v.6001c-.40015,.03369-.74219,.1001-1.02515,.19971-.28345,.1001-.4248,.33398-.4248,.7002v11c0,1.3335-.2002,2.59229-.6001,3.7749-.3999,1.18359-1.05005,2.21729-1.94995,3.1001-.90015,.88379-2.1001,1.56738-3.6001,2.0498-1.5,.48389-3.34985,.7251-5.55005,.7251-2.19995,0-4.0498-.24121-5.5498-.7251-1.5-.48242-2.7002-1.16602-3.6001-2.0498-.8999-.88281-1.55005-1.9165-1.94995-3.1001-.40015-1.18262-.6001-2.44141-.6001-3.7749V5.7998Z"/><path class="cls-1" d="M147.89795,4.2998c.2002,0,.40015-.06641,.6001-.2002,.19995-.13281,.30005-.43262,.30005-.8999h.59985v7.30029h-.59985c0-.4668-.1001-.7666-.30005-.90039-.19995-.13281-.3999-.19971-.6001-.19971h-7.1499v15.3999c0,.36719,.125,.6001,.375,.7002,.25,.09961,.50781,.16699,.7749,.19971v.6001h-9v-.6001c.2666-.03271,.52515-.1001,.77515-.19971,.25-.1001,.375-.33301,.375-.7002V9.3999h-7.15015c-.19995,0-.3999,.06689-.59985,.19971-.19995,.13379-.30005,.43359-.30005,.90039h-.6001V3.19971h.6001c0,.46729,.1001,.76709,.30005,.8999,.19995,.13379,.3999,.2002,.59985,.2002h21Z"/></g></g></svg>