<?xml version="1.0" encoding="UTF-8"?><svg id="_レイヤー_2" xmlns="http://www.w3.org/2000/svg" viewBox="0 0 283.08899 60.04883"><defs><style>.cls-1{fill:#3e0005;}</style></defs><g id="text"><g><path class="cls-1" d="M39.97913,16.98047c-.24658,.24658-.54492,.36914-.89648,.36914-.35205,0-.646-.12256-.8833-.36914-.2373-.24609-.35596-.54443-.35596-.89648V2.29395c0-.63281,.21973-1.17334,.65918-1.62158,.43896-.44824,.98438-.67236,1.63477-.67236h5.2207c.31641,0,.58887,.10986,.81738,.32959,.22803,.22021,.34277,.49219,.34277,.81738,0,.32568-.11475,.60254-.34277,.83057-.22852,.22852-.50098,.34277-.81738,.34277h-4.74609c-.17578,0-.26367,.08838-.26367,.26367v13.5c0,.35205-.12305,.65039-.36914,.89648Z"/><path class="cls-1" d="M55.98401,11.78613c1.33545,.49219,1.09814,2.10059-.71191,4.8252-.05273,.08838-.08838,.14941-.10547,.18457-.49219,.73828-1.125,1.5293-1.89844,2.37305-.17578,.21094-.32568,.36914-.44824,.47461-.54492,.51025-1.1167,.65918-1.71387,.44824-.38672-.14062-.62402-.47461-.71191-1.00195-.08838-.45703,.02637-.84375,.34277-1.16016,.73828-.73828,1.37988-1.49365,1.9248-2.26758,.66797-.94922,1.16895-1.88086,1.50293-2.79492,.1582-.43896,.39551-.76465,.71191-.97559s.68555-.24609,1.10742-.10547Zm9.57129-1.55566c-1.0376,.07031-1.81055,.11475-2.32031,.13184h-.59326c-.0791,0-.14502,.02637-.19775,.0791s-.0791,.13184-.0791,.2373,.00391,.28613,.01318,.54053c.00879,.25488,.01318,.44434,.01318,.56689l.02637,4.19238v3.95508c0,1.65234-.04395,2.7334-.13184,3.24316-.08838,.4917-.33887,.83936-.75146,1.0415-.41309,.20166-.87451,.26758-1.38428,.19775-1.1958-.1582-2.37305-.53662-3.5332-1.13379-.47461-.24658-.71631-.63281-.7251-1.16016-.00928-.52734,.20654-.93164,.646-1.21289,.17529-.10547,.37305-.16211,.59326-.17139,.21973-.00879,.44824,.01758,.68555,.0791,.2373,.06201,.45215,.12793,.646,.19775,.19336,.07031,.41748,.1626,.67236,.27686,.25439,.11475,.44385,.18896,.56689,.22412,.05273-2.021,.04346-5.68604-.02637-10.99512-2.30322,.07031-4.03418,.10547-5.19434,.10547-2.33789,0-3.57715-.58008-3.71777-1.74023-.05273-.35156,.03955-.68115,.27686-.98877,.2373-.30713,.53125-.48779,.8833-.54053,.24609-.03516,.55762,.04395,.93604,.2373,.37793,.19385,.66309,.29932,.85693,.31641,.75537,.05273,2.42578,.03564,5.00977-.05273,.08789,0,.20654-.00391,.35596-.01318,.14893-.00879,.25928-.01318,.32959-.01318,.06982,0,.12744-.00879,.17139-.02637,.04346-.01709,.06982-.04834,.0791-.09229,.00879-.04346,.01318-.08301,.01318-.11865l-.10547-3.87598c0-.21094-.12793-.39551-.38232-.55371-.25488-.1582-.40869-.27246-.46143-.34277-.22852-.28076-.3208-.60645-.27686-.97559,.04346-.36914,.20654-.67627,.48779-.92285,.68555-.54443,1.38818-.47852,2.10938,.19775,.7207,.67676,1.11621,1.41064,1.18652,2.20166,.05273,.43945,.08789,.89258,.10547,1.35791,.01709,.46582,.02197,1.01123,.01318,1.63477-.00928,.62402-.01318,1.09424-.01318,1.41064,1.86279-.10547,3.26953-.20166,4.21875-.29004,.94922-.06982,1.6875-.13184,2.21484-.18457,.58008-.05273,1.02832,.06201,1.34473,.34277,.38623,.35205,.50977,.78711,.36914,1.30518-.14111,.51855-.45752,.83984-.94922,.9624-.38672,.08838-.79102,.1582-1.21289,.21094s-.94043,.08838-1.55566,.10547c-.61572,.01758-1.01953,.03564-1.21289,.05273Zm5.95898,7.48828c.22803,.38672,.25928,.79102,.09229,1.21289-.16748,.42188-.46143,.69482-.8833,.81738-.42188,.10547-.76465,.05713-1.02832-.14502-.26367-.20166-.53662-.53125-.81738-.98877-.52734-.79102-1.1167-1.63477-1.7666-2.53125-.19385-.22803-.54053-.60645-1.0415-1.13379s-.85693-.93994-1.06787-1.23926c-.24658-.35156-.30322-.75537-.17139-1.21289,.13184-.45703,.40869-.75537,.83057-.89648,.12256-.03516,.24609-.05273,.36914-.05273,.12256,0,.23291,.00928,.32959,.02637,.09619,.01758,.19775,.05713,.30322,.11865,.10547,.06201,.19775,.11865,.27686,.17139s.17529,.13184,.29004,.2373c.11426,.10547,.19775,.18896,.25049,.25049,.05273,.06201,.13184,.14941,.2373,.26367,.10547,.11475,.17529,.19775,.21094,.25049,1.33545,1.51221,2.53125,3.12891,3.58594,4.85156Zm-3.11133-12.65625c.1582,.56299,.00879,1.01123-.44824,1.34473-.45752,.33398-.90576,.28125-1.34473-.1582-.08838-.10547-.16748-.23291-.2373-.38232-.07031-.14893-.13623-.32031-.19775-.51416-.06201-.19336-.10986-.3335-.14502-.42188-.31641-.75537-.58936-1.25635-.81738-1.50293-.38672-.43896-.38672-.89648,0-1.37109,.38623-.47461,.83447-.5708,1.34473-.29004,.70264,.40479,1.31836,1.50293,1.8457,3.2959Zm2.92676-.55371c.08789,.35205,.01709,.65918-.21094,.92285-.22852,.26367-.52344,.3916-.8833,.38232-.36035-.00879-.63721-.17139-.83057-.48779-.10547-.1582-.22021-.41748-.34277-.77783-.12305-.35986-.20215-.57568-.2373-.646-.07031-.12256-.35205-.58887-.84375-1.39746-.29932-.50977-.21533-.9624,.25049-1.35791,.46533-.39551,.92676-.40869,1.38428-.03955,.75537,.65039,1.32715,1.78418,1.71387,3.40137Z"/><path class="cls-1" d="M81.63049,14.84473c0,.56299-.22412,.95361-.67236,1.17334-.44824,.22021-.89648,.22021-1.34473,0-.44824-.21973-.67236-.61035-.67236-1.17334V5.2998c0-.21094-.14111-.43896-.42188-.68555-.28125-.24609-.44824-.4126-.50098-.50098-.21094-.4043-.22412-.80811-.03955-1.21289,.18457-.4043,.49658-.6499,.93604-.73828,.68555-.17529,1.36182,.20215,2.03027,1.13379,.45703,.63281,.68555,1.59131,.68555,2.87402V14.84473Zm8.30566-10.44141c.05273,.28125,.08789,.58008,.10547,.89648,.01709,.31641,.01709,.68994,0,1.12061-.01758,.43115-.02637,.73438-.02637,.90967v3.77051c0,5.69531-1.5293,9.76514-4.58789,12.20801-.89648,.73828-1.88135,1.30078-2.95312,1.6875-1.23047,.42188-2.04785,.35156-2.45215-.21094-.26367-.33398-.33398-.7251-.21094-1.17334,.12256-.44824,.38623-.75146,.79102-.90967,.1582-.05273,.38623-.13184,.68555-.2373,.29883-.10547,.53613-.18848,.71191-.25049,.17529-.06152,.38232-.14893,.61963-.26367,.2373-.11426,.46143-.24121,.67236-.38232,2.68945-1.82812,4.0249-5.27344,4.00781-10.33594V5.19434c0-.42188-.12305-.69434-.36914-.81738-.65039-.6499-.83496-1.25635-.55371-1.81934,.4043-.6499,.85693-.89648,1.35791-.73828s.97119,.51416,1.41064,1.06787c.43896,.55371,.70264,1.05908,.79102,1.51611Z"/><path class="cls-1" d="M114.51379,19.74902c.01709,.21094-.00928,.40479-.0791,.58008-.19385,.52734-1.1167,.79102-2.76855,.79102l-4.71973,.1582c-.42188,.01758-1.48975,.05273-3.20361,.10547s-3.02832,.0791-3.94189,.0791c-.38672,0-.69873-.00879-.93604-.02637-.2373-.01709-.5498-.06982-.93604-.1582-.38672-.08789-.71191-.2373-.97559-.44824s-.44824-.4917-.55371-.84375c-.12305-.42188-.02246-.81299,.30322-1.17334,.3252-.35986,.71582-.50488,1.17334-.43506,.21094,.03564,.41748,.13184,.61963,.29004,.20166,.1582,.32031,.2373,.35596,.2373,.47461,.01758,.82617,.02246,1.05469,.01318,.22803-.00879,.58008-.02637,1.05469-.05273s.83447-.03955,1.08105-.03955l4.79883-.1582c.3335-.05273,.51807-.08789,.55371-.10547,.21094-.58008,.51807-2.32031,.92285-5.2207l-4.16602,.26367c-.12305,0-.43945,.02637-.94922,.0791-.51025,.05273-.91406,.0791-1.21289,.0791-.29932,0-.646-.03955-1.0415-.11865s-.71631-.22412-.9624-.43506c-.28125-.21094-.50098-.50488-.65918-.8833-.1582-.37793-.1582-.73389,0-1.06787,.12256-.28076,.35986-.48779,.71191-.61963,.35156-.13184,.68555-.13574,1.00195-.01318,.08789,.05273,.18848,.12305,.30322,.21094,.11426,.08838,.21094,.16748,.29004,.2373,.0791,.07031,.13574,.10547,.17139,.10547,.82617-.01709,3.05859-.14893,6.69727-.39551,.26367-.01709,.4043-.04346,.42188-.0791,.29883-.26367,.62354-.39551,.97559-.39551,.29883,0,.58008,.11865,.84375,.35596s.4043,.51416,.42188,.83057c.03516,.28125-.00928,.74756-.13184,1.39746-.01758,.08838-.07031,.35596-.1582,.8042-.08838,.44824-.1582,.81348-.21094,1.09424l-.65918,3.87598c.29883-.01709,.97559-.04346,2.03027-.0791,.01709,0,.16699-.00879,.44824-.02637,.77344-.05273,1.29199,.02637,1.55566,.2373,.10547,.08838,.21094,.21094,.31641,.36914s.1582,.35205,.1582,.58008Z"/><path class="cls-1" d="M138.67102,11.28516c.52734-.01709,.92285,.20703,1.18652,.67236,.26367,.46582,.26367,.92725,0,1.38428-.28125,.43945-.76465,.65039-1.4502,.63281-10.10791,.17578-15.74121,.2373-16.90137,.18457-.51025-.01709-1.07227-.11865-1.6875-.30322-.61572-.18457-1.16016-.4917-1.63477-.92285-.47461-.43066-.64209-.92676-.50098-1.48975,.10547-.43896,.36914-.74219,.79102-.90967,.42188-.16699,.82617-.13574,1.21289,.09229,.08789,.05273,.2373,.14502,.44824,.27686s.36475,.22412,.46143,.27686c.09619,.05273,.23291,.10986,.40869,.17139,.17529,.06201,.36914,.10156,.58008,.11865,.82617,.03564,2.91748,.03564,6.27539,0l10.81055-.18457Z"/><path class="cls-1" d="M162.42981,20.38184c.19336,.38672,.22412,.7251,.09229,1.01514s-.32568,.53174-.58008,.7251c-.25488,.19385-.56299,.26367-.92285,.21094-.36035-.05273-.65527-.22803-.8833-.52734-.1582-.22803-.35596-.58887-.59326-1.08105-.2373-.4917-.3916-.78174-.46143-.87012-6.96094,.91406-11.36426,1.47656-13.20996,1.6875-.05273,0-.21533,.01758-.48779,.05273-.27295,.03564-.4707,.06201-.59326,.0791-.59766,.08838-1.23047,.10547-1.89844,.05273-.24658-.01709-.45752-.06152-.63281-.13184-.63281-.24609-1.01953-.59717-1.16016-1.05469-.12305-.43896-.04883-.83936,.22412-1.19971,.27246-.35986,.63672-.54932,1.09424-.56689,.10547,0,.25439,.04395,.44824,.13184,.19336,.08838,.34277,.13184,.44824,.13184,.35156,0,.62354-.00879,.81738-.02637,.1582,0,.3252-.12744,.50098-.38232,.17529-.25439,.35156-.58398,.52734-.98877,.17529-.4043,.27246-.62354,.29004-.65918,.77344-1.59912,1.23926-2.55762,1.39746-2.87402,1.21289-2.53125,2.11816-4.54395,2.71582-6.03809,.24609-.54443,.4043-.95801,.47461-1.23926,.03516-.31641,.05273-.4834,.05273-.50098,0-.01709-.10547-.14893-.31641-.39551-.24658-.28076-.33887-.63281-.27686-1.05469,.06152-.42188,.25928-.73828,.59326-.94922,.45703-.21094,.8833-.23291,1.27881-.06592,.39551,.16748,.73389,.45264,1.01514,.85693,.45703,.61572,.58887,1.40674,.39551,2.37305-.08838,.45752-.2334,.94531-.43506,1.46338-.20215,.51855-.38232,.9624-.54053,1.33154s-.38232,.85693-.67236,1.46338-.49707,1.0415-.61963,1.30518c-1.07227,2.37305-2.03955,4.35986-2.90039,5.95898l9.94043-1.26562c-.58008-.80811-1.1167-1.49365-1.6084-2.05664-.01758-.01709-.20215-.20166-.55371-.55371-.35205-.35156-.57129-.6416-.65918-.87012-.24658-.66797-.0752-1.19971,.51416-1.59521,.58887-.39551,1.1377-.34668,1.64795,.14502,1.07178,1.00195,2.02588,2.13574,2.86084,3.40137,.83447,1.26562,1.72705,2.78613,2.67627,4.56152Z"/><path class="cls-1" d="M170.22522,9.49219c.29883,.17578,.4917,.43945,.58008,.79102,.01709,.08838,.02637,.17578,.02637,.26367,0,.26367-.0791,.50098-.2373,.71191-.19385,.28125-.45752,.45752-.79102,.52734h-.2373c-.26367,0-.50098-.06982-.71191-.21094-.80859-.50977-1.71387-.98438-2.71582-1.42383-.26367-.12256-.44824-.3252-.55371-.60645-.01758-.10547-.02637-.20166-.02637-.29004,0-.17529,.05273-.35156,.1582-.52734,.19336-.28076,.45703-.47461,.79102-.58008,.14062-.05273,.29004-.0791,.44824-.0791,.17529,0,.35156,.03564,.52734,.10547,1.00195,.40479,1.91553,.84375,2.74219,1.31836Zm-1.6084,13.97461c-.1582,.3335-.41309,.54443-.76465,.63281-.10547,.01709-.21094,.02637-.31641,.02637-.22852,0-.45752-.07031-.68555-.21094-.31641-.19385-.51025-.47461-.58008-.84375-.01758-.12305-.02637-.2373-.02637-.34277,0-.24609,.06152-.4834,.18457-.71191,1.10742-1.98633,2.16211-4.08691,3.16406-6.30176,.14062-.29883,.35156-.4834,.63281-.55371,.08789-.01709,.18457-.02637,.29004-.02637,.21094,0,.4043,.06201,.58008,.18457,.28076,.22852,.47461,.51855,.58008,.87012,.03516,.14111,.05273,.28125,.05273,.42188,0,.21094-.04395,.41309-.13184,.60645-.91406,2.09229-1.90771,4.17529-2.97949,6.24902Zm2.87402-20.88281c.28076,.19385,.43896,.46582,.47461,.81738v.13184c0,.29932-.09668,.57129-.29004,.81738-.19385,.24658-.45752,.38672-.79102,.42188h-.13184c-.28125,0-.53662-.08789-.76465-.26367-.73828-.5625-1.6084-1.12451-2.61035-1.6875-.26367-.14062-.42627-.35596-.48779-.646-.06201-.29004,.00391-.54932,.19775-.77783,.22803-.26367,.50977-.43066,.84375-.50098,.10547-.03516,.21094-.05273,.31641-.05273,.21094,0,.42188,.05273,.63281,.1582,1.00195,.51025,1.87207,1.0376,2.61035,1.58203Zm18.04834,5.24707c.21973,.22852,.32959,.49707,.32959,.8042,0,.30762-.10986,.57129-.32959,.79102-.22021,.22021-.48779,.32959-.8042,.32959h-6.48633c-.17578,0-.26367,.08838-.26367,.26367v1.4502c0,.17578,.08789,.26367,.26367,.26367h4.53516c.63281,0,1.17334,.22412,1.62158,.67236s.67236,.98877,.67236,1.62158v8.4375c0,.59717-.07031,1.06348-.21094,1.39746-.14111,.3335-.41309,.58887-.81738,.76465-.52734,.21094-1.47656,.31641-2.84766,.31641-.29932,0-.57129-.10156-.81738-.30322-.24658-.20215-.42188-.46143-.52734-.77783-.07031-.24658-.03076-.47461,.11865-.68555,.14893-.21094,.35596-.31641,.61963-.31641,.52734,.01758,1.08984,.02637,1.6875,.02637,.17529,0,.29395-.03027,.35596-.09229,.06152-.06152,.09229-.17139,.09229-.32959V14.21191c0-.17529-.08838-.26367-.26367-.26367h-4.48242c-.17578,0-.26367,.08838-.26367,.26367v4.40332c0,.17578,.08789,.26367,.26367,.26367h1.29199c.17529,0,.26367-.08789,.26367-.26367v-2.58398c0-.21094,.0791-.39551,.2373-.55371s.34277-.2373,.55371-.2373,.39551,.0791,.55371,.2373,.2373,.34277,.2373,.55371v5.03613c0,.22852-.0791,.41797-.2373,.56689-.1582,.14941-.34277,.22412-.55371,.22412s-.39551-.07471-.55371-.22412c-.1582-.14893-.2373-.33838-.2373-.56689v-.21094c0-.08789-.03564-.13184-.10547-.13184h-5.19434c-.12305,0-.18457,.05273-.18457,.1582v.68555c0,.21094-.0752,.39551-.22412,.55371-.14941,.1582-.33398,.2373-.55371,.2373-.22021,0-.40479-.0791-.55371-.2373-.14941-.1582-.22412-.34277-.22412-.55371v-5.53711c0-.21094,.07471-.39551,.22412-.55371,.14893-.1582,.3335-.2373,.55371-.2373,.21973,0,.4043,.0791,.55371,.2373,.14893,.1582,.22412,.34277,.22412,.55371v2.58398c0,.17578,.08789,.26367,.26367,.26367h1.21289c.17529,0,.26367-.08789,.26367-.26367v-4.40332c0-.17529-.08838-.26367-.26367-.26367h-4.27148c-.17578,0-.26367,.08838-.26367,.26367v9.65039c0,.31641-.10986,.58398-.32959,.8042-.22021,.21973-.48389,.32959-.79102,.32959-.30762,0-.57129-.10986-.79102-.32959-.22021-.22021-.32959-.48779-.32959-.8042V14.02734c0-.63281,.22412-1.17334,.67236-1.62158s.98877-.67236,1.62158-.67236h4.24512c.17529,0,.26367-.08789,.26367-.26367v-1.4502c0-.17529-.08838-.26367-.26367-.26367h-6.38086c-.31641,0-.58447-.10938-.8042-.32959-.22021-.21973-.32959-.4834-.32959-.79102,0-.30713,.10938-.57568,.32959-.8042,.21973-.22803,.48779-.34277,.8042-.34277h3.1377c.17529,0,.26367-.08789,.26367-.26367v-2.00391c0-.17529-.08838-.26367-.26367-.26367h-2.32031c-.29932,0-.55371-.10938-.76465-.32959-.21094-.21973-.31641-.47852-.31641-.77783,0-.29883,.10547-.55371,.31641-.76465s.46533-.31641,.76465-.31641h2.32031c.17529,0,.26367-.08789,.26367-.26367V1.39746c0-.31641,.10938-.58887,.32959-.81738,.21973-.22803,.49658-.34277,.83057-.34277,.3335,0,.61523,.11475,.84375,.34277,.22803,.22852,.34277,.50098,.34277,.81738v1.10742c0,.17578,.08789,.26367,.26367,.26367h3.74414c.17529,0,.26367-.08789,.26367-.26367V1.42383c0-.31641,.11426-.59326,.34277-.83057,.22803-.2373,.50977-.35596,.84375-.35596,.3335,0,.61963,.12305,.85693,.36914,.2373,.24658,.35596,.51855,.35596,.81738v1.08105c0,.17578,.08789,.26367,.26367,.26367h2.42578c.29883,0,.55371,.10547,.76465,.31641s.31641,.46582,.31641,.76465c0,.29932-.10547,.55811-.31641,.77783-.21094,.22021-.46582,.32959-.76465,.32959h-2.42578c-.17578,0-.26367,.08838-.26367,.26367v2.00391c0,.17578,.08789,.26367,.26367,.26367h3.1377c.31641,0,.58398,.11475,.8042,.34277Zm-10.61279-2.87402c-.17578,0-.26367,.08838-.26367,.26367v2.00391c0,.17578,.08789,.26367,.26367,.26367h3.74414c.17529,0,.26367-.08789,.26367-.26367v-2.00391c0-.17529-.08838-.26367-.26367-.26367h-3.74414Z"/><path class="cls-1" d="M194.81311,23.99414c-.24658,.28076-.56299,.46533-.94922,.55371h-.31641c-.26367,0-.51855-.05273-.76465-.1582-.28125-.14111-.44824-.36035-.50098-.65918v-.18457c0-.22852,.0791-.43945,.2373-.63281,.77344-.89648,1.48535-1.99463,2.13574-3.2959,.1582-.31641,.39551-.54443,.71191-.68555,.19336-.10547,.39551-.1582,.60645-.1582,.12256,0,.24609,.01758,.36914,.05273,.31641,.08838,.55371,.27295,.71191,.55371,.06982,.1582,.10547,.30762,.10547,.44824,0,.14111-.03564,.28125-.10547,.42188-.65039,1.44141-1.39746,2.68945-2.24121,3.74414Zm16.03125-15.74121c.63281,0,1.17334,.22412,1.62158,.67236s.67236,.98877,.67236,1.62158v4.29785c0,.63281-.22412,1.17334-.67236,1.62158s-.98877,.67236-1.62158,.67236h-13.60547c-.63281,0-1.17334-.22412-1.62158-.67236s-.67236-.98877-.67236-1.62158v-4.29785c0-.63281,.22412-1.17334,.67236-1.62158s.98877-.67236,1.62158-.67236h5.0625c.17529,0,.26367-.08789,.26367-.26367V1.5293c0-.38623,.12256-.69873,.36914-.93604,.24609-.2373,.54443-.35596,.89648-.35596,.35156,0,.65479,.12305,.90967,.36914,.25439,.24658,.38232,.55371,.38232,.92285v1.08105c0,.17578,.08789,.26367,.26367,.26367h8.49023c.31641,0,.58887,.11475,.81738,.34277,.22803,.22852,.34277,.50098,.34277,.81738s-.11475,.58936-.34277,.81738c-.22852,.22852-.50098,.34277-.81738,.34277h-8.49023c-.17578,0-.26367,.0791-.26367,.2373v2.55762c0,.17578,.08789,.26367,.26367,.26367h5.45801Zm-.52734,6.56543c.17529,0,.26367-.08789,.26367-.26367v-3.71777c0-.17529-.08838-.26367-.26367-.26367h-12.70898c-.17578,0-.26367,.08838-.26367,.26367v3.71777c0,.17578,.08789,.26367,.26367,.26367h12.70898Zm-10.62598,5.72168v-.18457c0-.24609,.0791-.47461,.2373-.68555,.19336-.26367,.45703-.4043,.79102-.42188h.13184c.28076,0,.54443,.08838,.79102,.26367,.28076,.19385,.44824,.45752,.50098,.79102,.17529,1.00195,.30713,1.96045,.39551,2.87402v.13184c0,.29883-.10547,.5708-.31641,.81738-.22852,.28076-.51855,.44824-.87012,.50098h-.13184c-.28125,0-.53662-.09668-.76465-.29004-.26367-.21094-.40479-.49219-.42188-.84375-.07031-.93164-.18457-1.91553-.34277-2.95312Zm5.80078-.10547c-.07031-.12256-.10547-.2373-.10547-.34277,0-.1582,.04346-.31641,.13184-.47461,.12256-.26367,.3335-.43066,.63281-.50098,.10547-.01709,.21973-.02637,.34277-.02637,.21094,0,.42188,.04395,.63281,.13184,.29883,.1582,.51807,.38672,.65918,.68555,.45703,1.00195,.85254,1.98682,1.18652,2.95312,.03516,.12256,.05273,.24609,.05273,.36914,0,.19336-.05273,.38623-.1582,.58008-.17578,.29883-.43115,.4917-.76465,.58008-.10547,.01709-.21094,.02637-.31641,.02637-.21094,0-.42188-.06201-.63281-.18457-.29932-.17578-.49219-.43115-.58008-.76465-.28125-.94922-.64209-1.95996-1.08105-3.03223Zm5.66895-.29004c-.10547-.17529-.1582-.35156-.1582-.52734,0-.08789,.00879-.18457,.02637-.29004,.08789-.28076,.27246-.47461,.55371-.58008,.19336-.06982,.38623-.10547,.58008-.10547,.14062,0,.29004,.01758,.44824,.05273,.3335,.10547,.60645,.29932,.81738,.58008,.89648,1.23047,1.63477,2.36426,2.21484,3.40137,.10547,.17578,.1582,.35986,.1582,.55371,0,.12256-.02637,.25439-.0791,.39551-.12305,.3335-.35205,.5625-.68555,.68555-.1582,.06982-.3208,.10547-.48779,.10547-.16748,0-.32959-.03564-.48779-.10547-.33398-.14111-.58936-.36914-.76465-.68555-.54492-1.05469-1.25684-2.21484-2.13574-3.48047Z"/><path class="cls-1" d="M227.28821,22.41211c-.47461,.43945-1.05469,.65918-1.74023,.65918s-1.26562-.21973-1.74023-.65918c-.47461-.43896-.71191-1.00195-.71191-1.6875s.2373-1.25244,.71191-1.70068,1.05469-.67236,1.74023-.67236,1.26562,.22412,1.74023,.67236,.71191,1.01514,.71191,1.70068-.2373,1.24854-.71191,1.6875Zm-.92285-6.53906c-.22852,.21094-.50098,.31641-.81738,.31641s-.58936-.10547-.81738-.31641c-.22852-.21094-.35205-.47461-.36914-.79102l-.71191-8.83301-.02637-1.58203c-.01758-.54443,.16699-1.01074,.55371-1.39746,.38623-.38623,.84766-.58008,1.38428-.58008,.53613,0,.99756,.19385,1.38428,.58008,.38623,.38672,.5708,.85303,.55371,1.39746l-.02637,1.58203-.73828,8.83301c-.01758,.31641-.14111,.58008-.36914,.79102Z"/><path class="cls-1" d="M246.45667,8.2793c.24609-.24609,.54443-.36914,.89648-.36914,.35156,0,.646,.12305,.8833,.36914,.2373,.24658,.35596,.53662,.35596,.87012v13.81641c0,.63281-.22021,1.17334-.65918,1.62158-.43945,.44824-.98486,.67236-1.63477,.67236h-5.2207c-.31641,0-.58936-.11865-.81738-.35596-.22852-.2373-.34277-.51025-.34277-.81738,0-.30762,.11426-.57617,.34277-.8042,.22803-.22852,.50098-.34277,.81738-.34277h4.74609c.17529,0,.26367-.08789,.26367-.26367V9.14941c0-.3335,.12256-.62354,.36914-.87012Z"/><path class="cls-1" d="M13.60217,45.96875c.29883,1.5293,.2373,3.4541-.18457,5.77441-.51025,2.53125-1.21289,4.40332-2.10938,5.61621-1.0376,1.40625-2.46143,1.66992-4.27148,.79102-.45752-.21094-.8877-.44824-1.29199-.71191-.40479-.26367-.77783-.62354-1.12061-1.08105-.34277-.45703-.46143-.90527-.35596-1.34473,.12256-.43896,.39551-.74219,.81738-.90967,.42188-.16699,.81738-.12744,1.18652,.11865,.1582,.10547,.36914,.29004,.63281,.55371s.46533,.43945,.60645,.52734c.58008,.40479,1.06348,.61572,1.4502,.63281,.19336-.17529,.42188-.53613,.68555-1.08105,.31641-.66797,.63281-1.62549,.94922-2.87402,.29883-1.35352,.46533-2.58398,.50098-3.69141,0-1.31836-.14111-2.16211-.42188-2.53125-.22852-.31641-.98486-.30713-2.26758,.02637-.31641,.07031-.55371,.13184-.71191,.18457-.10547,.31641-.20215,.56299-.29004,.73828-.10547,.33398-.28125,.84375-.52734,1.5293-.98486,2.63672-1.89844,4.85156-2.74219,6.64453-.05273,.08838-.14941,.29004-.29004,.60645-.14111,.31641-.26807,.59766-.38232,.84375-.11475,.24658-.26367,.53174-.44824,.85693-.18457,.32568-.36523,.58936-.54053,.79102-.17578,.20166-.37354,.37793-.59326,.52734-.22021,.14893-.44824,.21484-.68555,.19775-.2373-.01758-.48779-.14111-.75146-.36914-.26367-.21094-.40869-.47021-.43506-.77783-.02637-.30713,0-.55762,.0791-.75146,.0791-.19336,.21484-.47461,.40869-.84375,.5625-.96631,1.05469-1.91553,1.47656-2.84766,.84375-1.82812,1.70459-3.96387,2.58398-6.40723-1.8457,.28125-3.10254-.10547-3.77051-1.16016-.29932-.47461-.3208-.97119-.06592-1.48975,.25439-.51807,.68115-.74219,1.27881-.67236,.26367,.03564,.4834,.12305,.65918,.26367,.03516,.01758,.10938,.09668,.22412,.2373,.11426,.14111,.19775,.21094,.25049,.21094,.22803,.05273,.75537,.00928,1.58203-.13184,.19336-.03516,.4917-.11426,.89648-.2373,.01709-.06982,.05664-.19775,.11865-.38232,.06152-.18457,.10938-.32959,.14502-.43506,.24609-.73828,.45703-1.37988,.63281-1.9248,.29883-.98438,.45703-1.50293,.47461-1.55566,.06982-.38623-.02637-.84375-.29004-1.37109-.24658-.52734-.17139-1.01514,.22412-1.46338s.86572-.57568,1.41064-.38232c.50977,.17578,.87891,.56299,1.10742,1.16016,.22803,.59766,.3252,1.18652,.29004,1.7666-.01758,.29932-.07031,.64209-.1582,1.02832-.08838,.38672-.1582,.67676-.21094,.87012-.05273,.19385-.16748,.54492-.34277,1.05469-.17578,.51025-.27295,.80029-.29004,.87012,1.24805-.21094,2.31104-.06592,3.19043,.43506,.87891,.50098,1.44092,1.35791,1.6875,2.5708Zm8.49023,4.37695c.14062,1.42383-.27295,2.33789-1.23926,2.74219-.52734,.21094-1.14307,.30762-1.8457,.29004-.29932-.01709-.64209-.01709-1.02832,0-.52734,.01758-.93604-.19336-1.22607-.63281-.29004-.43896-.30322-.89648-.03955-1.37109,.12256-.21094,.30713-.37305,.55371-.48779,.24609-.11426,.45215-.18018,.61963-.19775,.16699-.01709,.43506-.02197,.8042-.01318,.36914,.00928,.59717,.01318,.68555,.01318-.12305-1.17725-1.01953-2.60107-2.68945-4.27148-.10547-.10547-.30322-.25928-.59326-.46143-.29004-.20166-.54053-.39551-.75146-.58008s-.36035-.38232-.44824-.59326c-.14111-.3335-.14502-.67627-.01318-1.02832,.13184-.35156,.37305-.59717,.7251-.73828,.54443-.22803,1.22168-.01709,2.03027,.63281,.61523,.51025,1.28271,1.16943,2.00391,1.97754,1.45898,1.59961,2.27637,3.17334,2.45215,4.71973Zm-1.79297-8.30566c.1582,.56299,.00879,1.01123-.44824,1.34473-.45752,.33398-.90576,.28125-1.34473-.1582-.08838-.10547-.16748-.2373-.2373-.39551-.07031-.1582-.13623-.32959-.19775-.51416-.06201-.18457-.10986-.32031-.14502-.40869-.31641-.75537-.58936-1.26562-.81738-1.5293-.38672-.43896-.38232-.89209,.01318-1.35791,.39551-.46533,.83936-.55762,1.33154-.27686,.70264,.40479,1.31836,1.50293,1.8457,3.2959Zm2.95312-.58008c.08789,.35205,.01318,.66357-.22412,.93604-.2373,.27295-.53662,.40479-.89648,.39551-.36035-.00879-.63721-.17139-.83057-.48779-.10547-.1582-.22021-.42188-.34277-.79102-.12305-.4043-.47461-1.08105-1.05469-2.03027-.29932-.50977-.22021-.9624,.2373-1.35791,.45703-.39551,.91357-.41748,1.37109-.06592,.77344,.65039,1.35352,1.78418,1.74023,3.40137Z"/><path class="cls-1" d="M43.84045,48.28906c.45703,1.2832,.42188,2.5708-.10547,3.86279s-1.34473,2.40381-2.45215,3.33545c-1.14307,.87939-2.32031,1.57324-3.5332,2.08301-1.05469,.38623-1.74023,.61523-2.05664,.68555-1.01953,.24609-1.71387,.3335-2.08301,.26367-.31641-.08838-.57129-.27686-.76465-.56689-.19385-.29004-.26367-.58398-.21094-.8833,.05273-.63281,.50977-1.01074,1.37109-1.13379,1.33545-.21094,2.59277-.6416,3.77051-1.29199,1.19531-.63281,2.15283-1.44092,2.87402-2.42578,.7207-.98438,.87012-2.03027,.44824-3.1377-.42188-1.05469-1.54688-1.49365-3.375-1.31836-1.0376,.12305-2.69873,.52734-4.9834,1.21289-.1582,.05273-.57129,.20215-1.23926,.44824-.66846,.24658-1.25244,.41309-1.75342,.50098-.50098,.08838-.97168,.09668-1.41064,.02637-.40479-.08789-.80859-.28076-1.21289-.58008-.40479-.29883-.65918-.61523-.76465-.94922-.08838-.38623-.00439-.74219,.25049-1.06787,.25439-.3252,.57568-.50488,.9624-.54053,.54443-.06982,.95801,.0791,1.23926,.44824,.08789,.12305,.14062,.17578,.1582,.1582,.05273,0,.4126-.10547,1.08105-.31641,1.63477-.5625,3.25195-1.03711,4.85156-1.42383,.86084-.21094,1.69141-.35156,2.4917-.42188,.7998-.06982,1.64355-.05664,2.53125,.03955,.88721,.09668,1.68311,.39551,2.38623,.89648,.70264,.50098,1.21289,1.19971,1.5293,2.09619Z"/><path class="cls-1" d="M69.61487,44.62402c.58008,1.61768,.54932,3.22119-.09229,4.81201-.64209,1.59131-1.66553,2.98389-3.07178,4.1792-1.30127,1.07227-2.8042,1.96875-4.50879,2.68945-.86133,.35205-1.75781,.65039-2.68945,.89648-1.24854,.33398-2.07422,.43945-2.47852,.31641-.29932-.10547-.54053-.29883-.7251-.58008-.18457-.28076-.25049-.58887-.19775-.92285,.08789-.63281,.5625-1.01904,1.42383-1.16016,1.74023-.24609,3.44482-.82617,5.11523-1.74023,.5625-.29883,1.09814-.6416,1.6084-1.02832,.50977-.38623,1.02393-.83447,1.54248-1.34473,.51807-.50977,.91357-1.0415,1.18652-1.59521,.27246-.55371,.46533-1.15576,.58008-1.80615,.11426-.6499,.01318-1.30078-.30322-1.95117-.65039-1.54639-2.30322-2.1792-4.95703-1.89844-1.61768,.17578-3.83252,.69482-6.64453,1.55566-.24658,.07031-.59766,.19385-1.05469,.36914-.45752,.17578-.83057,.3125-1.12061,.40869-.29004,.09668-.68164,.21533-1.17334,.35596-1.45947,.40479-2.66309,.2373-3.6123-.50098-.43945-.3335-.71191-.71191-.81738-1.13379-.10547-.4043-.04395-.77783,.18457-1.12061,.22803-.34277,.55371-.53125,.97559-.56689,.47461-.05273,.87012,.11475,1.18652,.50098,.1582,.21094,.28076,.31641,.36914,.31641,.26367,0,.85254-.13184,1.7666-.39551,2.81201-.89648,4.93945-1.52002,6.38086-1.87207,6.15234-1.45898,9.86133-.38623,11.12695,3.2168Z"/><path class="cls-1" d="M88.54993,42.85742c.61523,3.74414,.34277,7.12842-.81738,10.15137-.63281,1.65234-1.56494,3.08496-2.79492,4.29785-1.1958,1.19531-2.60156,1.88916-4.21875,2.08301-.86133,.10547-1.44141-.14111-1.74023-.73828-.14111-.28125-.16748-.59326-.0791-.93604,.08789-.34277,.27246-.60205,.55371-.77783,.19336-.12256,.52734-.21973,1.00195-.29004,.47461-.06982,.7998-.14062,.97559-.21094,.61523-.24609,1.21289-.6416,1.79297-1.18652,1.81006-1.79297,2.75928-4.57031,2.84766-8.33203,.05273-2.81201-.32568-4.89502-1.13379-6.24902-.65039-1.07178-1.55566-1.48535-2.71582-1.23926-.47461,.10547-.94531,.38672-1.41064,.84375-.46582,.45752-.82178,1.0376-1.06787,1.74023-.42188,1.1958-.57129,3.35791-.44824,6.48633,.03516,.79102,.01709,1.4502-.05273,1.97754-.12305,.66846-.36914,1.09863-.73828,1.29199-.89648,.45752-1.61768,.25488-2.16211-.60645-.19385-.29883-.29004-1.01904-.29004-2.16211,0-.19336,.03516-1.05469,.10547-2.58398,.12256-4.0957,.19336-6.29248,.21094-6.5918,.05273-1.05469-.06201-1.77539-.34277-2.16211-.24658-.3335-.30762-.7251-.18457-1.17334,.12256-.44824,.38623-.75146,.79102-.90967,.47461-.17529,.87891-.14893,1.21289,.0791,.3335,.22852,.58887,.57129,.76465,1.02832,.17529,.45752,.30322,.90967,.38232,1.35791s.10938,.84814,.09229,1.19971c.6499-.96631,1.48535-1.62549,2.50488-1.97754,1.05469-.36914,2.11816-.35156,3.19043,.05273,2.021,.72119,3.27832,2.56689,3.77051,5.53711Z"/><path class="cls-1" d="M114.27161,49.47559c.43896,.86133,.65479,1.7666,.646,2.71582-.00928,.94922-.22412,1.85498-.646,2.71582-.42188,.87939-1.07227,1.59131-1.95117,2.13574-1.07227,.63281-2.05664,.96631-2.95312,1.00195-1.09033-.05273-2.18848-.0791-3.2959-.0791-.01758,0-.11865-.01758-.30322-.05273s-.29932-.05664-.34277-.06592c-.04395-.00879-.14502-.03955-.30322-.09229-.65039-.19336-1.06396-.50098-1.23926-.92285-.14111-.3335-.14111-.67627,0-1.02832,.31641-.77344,1.08984-.97559,2.32031-.60645,.36914,.10547,.6416,.16748,.81738,.18457,1.08984,.14111,2.13574,.04395,3.1377-.29004,1.00195-.3335,1.63477-.96631,1.89844-1.89844,.28076-1.00195,.17529-1.88086-.31641-2.63672-.49219-.7207-1.26562-1.12451-2.32031-1.21289-.87939-.06982-1.91602,.05273-3.11133,.36914-.75586,.19385-1.26562,.34277-1.5293,.44824-.08838,.03564-.22021,.0835-.39551,.14502-.17578,.06201-.30762,.10986-.39551,.14502-.03564,.01758-.10547,.03955-.21094,.06592s-.16748,.05273-.18457,.0791c-.01758,.02637-.04395,.07031-.0791,.13184-.03564,.06201-.05273,.13623-.05273,.22412v.98877c0,.50098-.00439,.87012-.01318,1.10742-.00928,.2373-.02637,.57617-.05273,1.01514-.02637,.43945-.06592,.8042-.11865,1.09424s-.12793,.61572-.22412,.97559c-.09668,.36035-.21533,.68164-.35596,.9624-.77393,1.65186-2.46143,2.04736-5.0625,1.18652-.10547-.03564-.29443-.10547-.56689-.21094-.27295-.10547-.479-.18457-.61963-.2373-.14111-.05273-.3208-.13184-.54053-.2373-.22021-.10547-.40869-.22412-.56689-.35596s-.30762-.26758-.44824-.40869c-.75586-.84375-.99316-1.75732-.71191-2.74219,.06982-.24609,.17529-.49658,.31641-.75146,.14062-.25439,.27246-.47852,.39551-.67236,.12256-.19336,.32031-.39941,.59326-.61963,.27246-.21973,.47461-.39111,.60645-.51416,.13184-.12256,.37793-.29395,.73828-.51416,.35986-.21973,.58887-.35986,.68555-.42188,.09619-.06152,.34668-.20166,.75146-.42188,.4043-.21973,.62354-.33838,.65918-.35596,.86084-.45703,1.39746-.729,1.6084-.81738,.12256-.05273,.21094-.14502,.26367-.27686s.06982-.34668,.05273-.646c-.03564-.79102-.08838-2.0127-.1582-3.66504-1.67041,.10547-2.9624-.11426-3.87598-.65918-.29932-.17529-.55371-.39941-.76465-.67236-.21094-.27246-.35205-.56689-.42188-.8833-.07031-.31641,.02637-.63281,.29004-.94922,.35156-.42188,.81738-.5625,1.39746-.42188,.1582,.03564,.32959,.13623,.51416,.30322,.18457,.16748,.32031,.27686,.40869,.32959,.21094,.12305,.68555,.22021,1.42383,.29004,.21094,.01758,.53613,.00928,.97559-.02637v-.73828c0-.1582,.00879-.53613,.02637-1.13379,.01709-.59717,.00879-1.09424-.02637-1.48975-.03564-.39551-.11475-.76025-.2373-1.09424-.17578-.4917-.17139-.94482,.01318-1.35791,.18457-.4126,.53125-.63672,1.0415-.67236,.45703-.03516,.83057,.09668,1.12061,.39551,.29004,.29932,.4834,.73828,.58008,1.31836,.09619,.58008,.1582,1.09863,.18457,1.55566,.02637,.45752,.03027,1.01953,.01318,1.6875-.01758,.66846-.02637,1.0459-.02637,1.13379,.5625-.10547,1.30908-.27246,2.24121-.50098,.06982-.01709,.21484-.05273,.43506-.10547,.21973-.05273,.37793-.08789,.47461-.10547,.09619-.01709,.23291-.02637,.40869-.02637,.17529,0,.3335,.03564,.47461,.10547,.47461,.22852,.729,.60645,.76465,1.13379,.03516,.52734-.17578,.94043-.63281,1.23926-.1582,.10547-.83496,.29004-2.03027,.55371-.9668,.22852-1.57324,.36914-1.81934,.42188-.08838,.01758-.1582,.05713-.21094,.11865-.05273,.06201-.0791,.11865-.0791,.17139s.00391,.14111,.01318,.26367c.00879,.12305,.01318,.21094,.01318,.26367,0,.10547,.00391,.27295,.01318,.50098,.00879,.22852,.01318,.40479,.01318,.52734,0,.21094,.00391,.52734,.01318,.94922,.00879,.42188,.01318,.73828,.01318,.94922,.96631-.35156,1.92041-.62354,2.86084-.81738,.93994-.19336,1.94189-.29883,3.00586-.31641,1.06348-.01709,2.03418,.21533,2.91357,.69873,.87891,.48389,1.56445,1.19092,2.05664,2.12256Zm-13.52637,3.2959v-.84375c-1.26562,.66846-2.32031,1.30127-3.16406,1.89844-.52734,.38672-.78223,.72119-.76465,1.00195,0,.17578,.6416,.52734,1.9248,1.05469,.17529,.07031,.37793,.14502,.60645,.22412,.22803,.0791,.42188,.10547,.58008,.0791s.26367-.10107,.31641-.22412c.08789-.17529,.16211-.35986,.22412-.55371,.06152-.19336,.10938-.42578,.14502-.69873,.03516-.27246,.05664-.47461,.06592-.60645,.00879-.13184,.02197-.37305,.03955-.7251,.01709-.35156,.02637-.55371,.02637-.60645Zm16.18945-7.30371c.24609,.77393,.11426,1.4502-.39551,2.03027-.51025,.58008-1.17773,.8877-2.00391,.92285-.38672,.01758-.70312-.09229-.94922-.32959-.24658-.2373-.3916-.51416-.43506-.83057-.04395-.31641,.02637-.62842,.21094-.93604,.18457-.30713,.46143-.49658,.83057-.56689-.59766-1.19531-1.79297-1.9248-3.58594-2.18848-.51025-.06982-.87451-.3335-1.09424-.79102-.22021-.45703-.17139-.91357,.14502-1.37109,.61523-.80811,1.94189-.71191,3.98145,.29004,1.70459,.82666,2.80371,2.08301,3.2959,3.77051Z"/><path class="cls-1" d="M140.06165,38.50684c.63281,0,1.17334,.22412,1.62158,.67236s.67236,.98877,.67236,1.62158v15.63574c0,1.40674-.40479,2.26758-1.21289,2.58398-.58008,.24609-1.69678,.39551-3.34863,.44824h-.05273c-.35205,0-.67676-.11475-.97559-.34277-.29932-.24658-.50098-.55371-.60645-.92285-.03564-.10547-.05273-.21094-.05273-.31641,0-.17529,.05273-.34277,.1582-.50098,.17529-.26367,.4126-.39551,.71191-.39551,.63281,.01758,1.39746,.02637,2.29395,.02637,.4043-.01709,.60645-.22803,.60645-.63281v-15.13477c0-.17529-.08838-.26367-.26367-.26367h-7.06641c-.17578,0-.29004,.08838-.34277,.26367-.01758,.08838-.05273,.20215-.10547,.34277-.05273,.1582,0,.27295,.1582,.34277,2.37305,1.38867,4.22754,2.58398,5.56348,3.58594,.31641,.24658,.47461,.57129,.47461,.97559,0,.31641-.10547,.59766-.31641,.84375-.22852,.26367-.52734,.40479-.89648,.42188h-.0791c-.33398,0-.62402-.10547-.87012-.31641-1.1958-.98438-2.8125-2.11816-4.85156-3.40137-.14111-.08789-.25488-.05273-.34277,.10547-1.0376,1.63477-2.54053,2.94434-4.50879,3.92871-.19385,.07031-.37842,.10547-.55371,.10547-.14111,0-.27295-.01709-.39551-.05273-.31641-.10547-.58936-.29883-.81738-.58008-.19385-.21094-.26367-.45215-.21094-.7251,.05273-.27246,.20166-.47021,.44824-.59326,1.07178-.52734,1.95117-1.14258,2.63672-1.8457,.84375-.89648,1.49365-1.95117,1.95117-3.16406,.01709-.05273,.00879-.10547-.02637-.1582-.03564-.05273-.08838-.0791-.1582-.0791h-6.03809c-.17578,0-.26367,.08838-.26367,.26367v16.92773c0,.35156-.12305,.6499-.36914,.89648-.24658,.24609-.54492,.36914-.89648,.36914-.35205,0-.65039-.12305-.89648-.36914-.24658-.24658-.36914-.54492-.36914-.89648v-17.37598c0-.63281,.22412-1.17334,.67236-1.62158s.98877-.67236,1.62158-.67236h7.11914c.17529,0,.27246-.08789,.29004-.26367,.08789-.6499,.16699-1.37988,.2373-2.18848,.01709-.38623,.16211-.70264,.43506-.94922,.27246-.24609,.60205-.36914,.98877-.36914,.35156,0,.6499,.13184,.89648,.39551,.21094,.22852,.31641,.51025,.31641,.84375,0,.31641-.08838,1.07227-.26367,2.26758,0,.07031,.02197,.13184,.06592,.18457,.04346,.05273,.10107,.0791,.17139,.0791h7.04004Zm-2.42578,15.1084c.26367,.22852,.39551,.52344,.39551,.8833,0,.36035-.12793,.65918-.38232,.89648-.25488,.2373-.55811,.35596-.90967,.35596h-.02637c-.35205,0-.65918-.12256-.92285-.36914-1.07227-.98438-2.54053-2.1709-4.40332-3.55957-.14111-.10547-.25488-.08789-.34277,.05273-1.09033,1.65234-2.646,2.9624-4.66699,3.92871-.17578,.08838-.35205,.13184-.52734,.13184-.14111,0-.28125-.02637-.42188-.0791-.31641-.10547-.58936-.30713-.81738-.60645-.17578-.21094-.2373-.45703-.18457-.73828,.05273-.28076,.20166-.47461,.44824-.58008,.66797-.29883,1.27441-.63281,1.81934-1.00195,.82617-.58008,1.47656-1.22607,1.95117-1.93799s.84375-1.40137,1.10742-2.06982c.12256-.31641,.22803-.6499,.31641-1.00195,.10547-.38623,.30713-.69434,.60645-.92285,.29883-.22803,.63281-.34277,1.00195-.34277,.3335,0,.60645,.13184,.81738,.39551,.1582,.17578,.2373,.37842,.2373,.60645,0,.08838-.00928,.17578-.02637,.26367-.12305,.47461-.25488,.93213-.39551,1.37109-.05273,.1582-.00928,.29004,.13184,.39551,2.14453,1.45947,3.87598,2.76855,5.19434,3.92871Z"/><path class="cls-1" d="M165.03284,45.33594c.01709,.80859-.19775,1.45459-.646,1.93799-.44824,.48389-1.12988,.97998-2.04346,1.48975-1.00195,.54492-1.75781,.94043-2.26758,1.18652-.05273,.03564-.12305,.07031-.21094,.10547-.08838,.03564-.14502,.06201-.17139,.0791-.02637,.01758-.05273,.05713-.0791,.11865-.02637,.06201-.03955,.14502-.03955,.25049,0,.05273,.00391,.14502,.01318,.27686,.00879,.13184,.01318,.2334,.01318,.30322v1.7666c0,.19385-.00439,.33887-.01318,.43506-.00928,.09668-.01758,.24658-.02637,.44824-.00928,.20215-.02246,.36035-.03955,.47461-.01758,.11475-.04883,.25049-.09229,.40869-.04395,.1582-.09668,.29004-.1582,.39551-.06201,.10547-.14111,.20703-.2373,.30322-.09668,.09668-.19775,.1626-.30322,.19775-.10547,.03564-.2373,.05273-.39551,.05273s-.33398-.02637-.52734-.0791c-.26367-.08789-.47461-.2373-.63281-.44824s-.25977-.47461-.30322-.79102c-.04395-.31641-.06201-.60645-.05273-.87012,.00879-.26367,.02637-.58008,.05273-.94922s.03955-.63281,.03955-.79102c-.70312,.40479-1.22607,.70801-1.56885,.90967-.34277,.20215-.78223,.50537-1.31836,.90967-.53662,.40479-.97168,.80029-1.30518,1.18652-.21094,.26367-.33887,.51025-.38232,.73828-.04395,.22852,.01318,.41309,.17139,.55371,.1582,.14111,.33838,.27295,.54053,.39551,.20166,.12305,.46143,.21533,.77783,.27686,.31641,.06201,.58008,.10986,.79102,.14502,.21094,.03564,.43896,.06201,.68555,.0791,2.021,.1582,4.14844,.07031,6.38086-.26367,1.00195-.14062,1.67822-.14062,2.03027,0,.68555,.28125,.95801,.76465,.81738,1.4502-.07031,.61523-.55371,1.00195-1.4502,1.16016-.38672,.06982-.66846,.09619-.84375,.0791-5.02734,.47461-8.4375,.34277-10.23047-.39551-1.00195-.43945-1.70068-1.12061-2.09619-2.04346s-.37354-1.89404,.06592-2.91357c.28076-.58008,.7207-1.15088,1.31836-1.71387,.59717-.5625,1.13379-.99756,1.6084-1.30518,.47461-.30713,1.10742-.68945,1.89844-1.14697,.21094-.12256,.51416-.29395,.90967-.51416,.39551-.21973,.646-.36475,.75146-.43506,.22803-.12256,.21094-.4834-.05273-1.08105-.14111-.4043-.36914-.6499-.68555-.73828-.31641-.08789-.66846-.06982-1.05469,.05273-.59766,.12305-1.15137,.38672-1.66113,.79102-.51025,.40479-1.02441,.87451-1.54248,1.41064-.51855,.53662-.97168,.92725-1.35791,1.17334-.31641,.22852-.68164,.29932-1.09424,.21094-.41309-.08789-.71631-.30713-.90967-.65918-.05273-.10547-.09229-.21094-.11865-.31641s-.04395-.19775-.05273-.27686c-.00928-.0791,.00391-.17529,.03955-.29004,.03516-.11426,.05664-.19775,.06592-.25049,.00879-.05273,.05273-.14062,.13184-.26367,.0791-.12256,.12744-.20166,.14502-.2373,.01709-.03516,.0791-.12256,.18457-.26367l.1582-.2373c1.17725-1.66992,2.36377-3.64746,3.55957-5.93262-1.56494,.10547-2.7334-.02637-3.50684-.39551-.52734-.24609-.9624-.58398-1.30518-1.01514-.34277-.43066-.42627-.89209-.25049-1.38428,.1582-.45703,.47852-.73828,.9624-.84375,.4834-.10547,.90039,.00928,1.25244,.34277,.31641,.31641,.59717,.51025,.84375,.58008,.19336,.03564,.65918,.05273,1.39746,.05273l1.97754-.1582c.19336-.47461,.29004-.83447,.29004-1.08105,0-.17529-.03955-.42188-.11865-.73828s-.11865-.59326-.11865-.83057,.0791-.47021,.2373-.69873c.28076-.4043,.67236-.58398,1.17334-.54053,.50098,.04395,.86572,.27686,1.09424,.69873,.4043,.73828,.52734,1.67871,.36914,2.82129,.91357-.1582,1.57275-.31641,1.97754-.47461,.08789-.05273,.21484-.14062,.38232-.26367,.16699-.12256,.32031-.20654,.46143-.25049,.14062-.04346,.30713-.04834,.50098-.01318,.63281,.10547,.98438,.46143,1.05469,1.06787,.06982,.60645-.12305,1.09424-.58008,1.46338-.63281,.51025-1.8457,.90576-3.63867,1.18652l-1.26562,.18457c-.21094,.43945-.36914,.74756-.47461,.92285-.28125,.59766-.62402,1.23926-1.02832,1.9248,1.28271-.31641,2.39502-.21973,3.33545,.29004,.93994,.51025,1.58594,1.39746,1.93799,2.66309,.93164-.47461,1.6875-.87891,2.26758-1.21289,.35156-.21094,.60645-.37793,.76465-.50098,.05273-.03516,.08789-.0791,.10547-.13184l.02637-.34277c.05273-.50977,.30322-.85693,.75146-1.0415s.87891-.16211,1.29199,.06592c.4126,.22852,.62842,.59766,.646,1.10742Z"/><path class="cls-1" d="M174.38342,43.80664c.24609-.14062,.49658-.1582,.75146-.05273,.25439,.10547,.42578,.29004,.51416,.55371,.05273,.1582,.0791,.30762,.0791,.44824,0,.14111-.02637,.29004-.0791,.44824-.10547,.29932-.29004,.52734-.55371,.68555-1.07227,.65039-2.37305,1.43311-3.90234,2.34668-.19385,.10547-.39551,.1582-.60645,.1582-.10547,0-.21094-.00879-.31641-.02637-.33398-.08789-.58936-.27246-.76465-.55371-.10547-.19336-.1582-.38623-.1582-.58008,0-.10547,.01709-.21094,.05273-.31641,.08789-.31641,.28076-.55371,.58008-.71191,.79102-.42188,2.2583-1.22168,4.40332-2.39941Zm18.54932,6.92139c.21973,.22021,.32959,.48389,.32959,.79102,0,.30762-.10986,.56689-.32959,.77783-.22021,.21094-.479,.31641-.77783,.31641h-7.19824c-.05273,0-.08838,.02246-.10547,.06592-.01758,.04395-.00928,.0835,.02637,.11865,1.98633,1.72314,4.54395,3.10254,7.67285,4.13965,.28076,.10547,.46533,.30762,.55371,.60645,.01709,.08838,.02637,.16748,.02637,.2373,0,.21094-.07031,.39551-.21094,.55371-.24658,.3335-.55371,.5625-.92285,.68555-.17578,.05273-.35205,.0791-.52734,.0791-.19385,0-.39551-.03564-.60645-.10547-3.19971-1.26562-5.90625-2.98828-8.12109-5.16797-.03564-.03516-.0752-.04346-.11865-.02637-.04395,.01758-.06592,.05273-.06592,.10547v4.79883c0,.35156-.12305,.6499-.36914,.89648-.24658,.24609-.54492,.36914-.89648,.36914-.35205,0-.65039-.12305-.89648-.36914-.24658-.24658-.36914-.54492-.36914-.89648v-4.87793c0-.05273-.02246-.08789-.06592-.10547-.04395-.01709-.0835-.00879-.11865,.02637-2.17969,2.25049-4.86084,4.05176-8.04199,5.40527-.21094,.08789-.42188,.13184-.63281,.13184-.1582,0-.31641-.02637-.47461-.0791-.38672-.12305-.69482-.34277-.92285-.65918-.14111-.1582-.21094-.34277-.21094-.55371,0-.07031,.00879-.14893,.02637-.2373,.08789-.29883,.27246-.50098,.55371-.60645,2.98828-1.08984,5.50146-2.54004,7.54102-4.35059,.01709-.03516,.02197-.07471,.01318-.11865-.00928-.04346-.03955-.06592-.09229-.06592h-7.01367c-.29932,0-.55811-.10547-.77783-.31641-.22021-.21094-.32959-.47021-.32959-.77783,0-.30713,.10938-.5708,.32959-.79102,.21973-.21973,.47852-.32959,.77783-.32959h9.17578c.17529,0,.26367-.08789,.26367-.26367v-1.50293c0-.17529-.08838-.26367-.26367-.26367h-1.16016c-.65039,0-1.1958-.22412-1.63477-.67236-.43945-.44824-.65918-.99756-.65918-1.64795v-5.85352c0-.63281,.21973-1.17334,.65918-1.62158,.43896-.44824,.98438-.67236,1.63477-.67236h.68555c.17529,0,.29004-.0791,.34277-.2373,.10547-.42188,.20166-.79102,.29004-1.10742,.08789-.38623,.29004-.68555,.60645-.89648,.26367-.19336,.54443-.29004,.84375-.29004,.06982,0,.14062,.00928,.21094,.02637,.35156,.05273,.62354,.22852,.81738,.52734,.10547,.17578,.1582,.36035,.1582,.55371,0,.14111-.02637,.27295-.0791,.39551-.03564,.08838-.08838,.22021-.1582,.39551l-.1582,.39551c-.01758,.05273-.00928,.10547,.02637,.1582,.03516,.05273,.0791,.0791,.13184,.0791h1.81934c.63281,0,1.17725,.22412,1.63477,.67236,.45703,.44824,.68555,.98877,.68555,1.62158v4.08691c0,.03564,.01318,.05713,.03955,.06592,.02637,.00928,.04834,.00439,.06592-.01318,.3335-.38623,.73828-.61523,1.21289-.68555,.12256-.03516,.25439-.05273,.39551-.05273,.3335,0,.6499,.08838,.94922,.26367,1.44092,.79102,2.67188,1.54688,3.69141,2.26758,.28076,.19385,.43896,.45752,.47461,.79102v.13184c0,.28125-.09668,.53662-.29004,.76465-.21094,.26367-.48389,.40479-.81738,.42188-.03564,.01758-.0791,.02637-.13184,.02637-.28125,0-.53662-.09619-.76465-.29004-1.33594-1.01904-2.87402-2.00391-4.61426-2.95312-.05273-.01709-.10156-.01318-.14502,.01318-.04395,.02637-.06592,.06592-.06592,.11865v.89648c0,.63281-.22412,1.17773-.67236,1.63477-.44824,.45752-.99805,.68555-1.64795,.68555h-1.31836c-.17578,0-.26367,.08838-.26367,.26367v1.50293c0,.17578,.08789,.26367,.26367,.26367h9.33398c.29883,0,.55762,.10986,.77783,.32959Zm-17.99561-10.79736c.19336,.22852,.29004,.48389,.29004,.76465,0,.38672-.14941,.71191-.44824,.97559-.21094,.17578-.44824,.26367-.71191,.26367h-.13184c-.31641-.03516-.58936-.17529-.81738-.42188-.70312-.82617-1.58203-1.66113-2.63672-2.50488-.21094-.19336-.3208-.43066-.32959-.71191-.00928-.28076,.09229-.51807,.30322-.71191,.26367-.21094,.5625-.3252,.89648-.34277h.05273c.31641,0,.59717,.08838,.84375,.26367,1.07178,.82666,1.96826,1.63477,2.68945,2.42578Zm3.95508-.0791c-.17578,0-.26367,.08838-.26367,.26367v1.81934c0,.17578,.08789,.26367,.26367,.26367h4.85156c.17529,0,.26367-.08789,.26367-.26367v-1.81934c0-.17529-.08838-.26367-.26367-.26367h-4.85156Zm0,4.19238c-.17578,0-.26367,.08838-.26367,.26367v1.8457c0,.17578,.08789,.26367,.26367,.26367h4.85156c.17529,0,.26367-.08789,.26367-.26367v-1.8457c0-.17529-.08838-.26367-.26367-.26367h-4.85156Zm11.10059-6.5127c.24609-.26367,.54443-.43066,.89648-.50098,.08789-.01709,.17529-.02637,.26367-.02637,.24609,0,.4834,.07031,.71191,.21094,.28076,.1582,.44824,.39551,.50098,.71191v.18457c0,.24658-.08838,.46582-.26367,.65918-.9668,1.00195-1.9248,1.89844-2.87402,2.68945-.24658,.21094-.53662,.32568-.87012,.34277h-.0791c-.29932,0-.58008-.08789-.84375-.26367-.22852-.1582-.35205-.37305-.36914-.646-.01758-.27246,.06982-.50488,.26367-.69873,1.00195-.87891,1.88916-1.7666,2.66309-2.66309Z"/><path class="cls-1" d="M213.53381,51.875c1.07178,.91406,.25439,2.38232-2.45215,4.40332-.08838,.07031-.14941,.11475-.18457,.13184-2.35596,1.79297-4.6499,2.68945-6.88184,2.68945-1.23047,0-2.27686-.34717-3.1377-1.0415-.86133-.69434-1.40674-1.63037-1.63477-2.80811-.08838-.42188-.1582-.85693-.21094-1.30518s-.0752-.93994-.06592-1.47656c.00879-.53613,.02197-.97119,.03955-1.30518,.01709-.3335,.04346-.81738,.0791-1.4502,.03516-.63281,.06152-1.07178,.0791-1.31836,.10547-2.74219,.16699-4.80762,.18457-6.19629,0-.14062,.00879-.41748,.02637-.83057,.01709-.4126,.02637-.7251,.02637-.93604s-.00928-.4834-.02637-.81738c-.01758-.3335-.06201-.62354-.13184-.87012-.03564-.10547-.11865-.26758-.25049-.48779-.13184-.21973-.20703-.39941-.22412-.54053-.05273-.47461,.08789-.86084,.42188-1.16016,.3335-.29883,.70752-.40869,1.12061-.32959,.4126,.0791,.75146,.28613,1.01514,.61963,.43896,.56299,.68555,1.45947,.73828,2.68945,.03516,.84375-.00928,3.03223-.13184,6.56543-.14111,3.74414-.21094,5.86279-.21094,6.35449v.90967c0,.09668,.00391,.25049,.01318,.46143,.00879,.21094,.02197,.37842,.03955,.50098,.01709,.12305,.04346,.26367,.0791,.42188,.03516,.1582,.0791,.30762,.13184,.44824,.05273,.14111,.11426,.27295,.18457,.39551,.38623,.61572,1.14258,.8877,2.26758,.81738,1.93359-.19336,3.83203-1.15088,5.69531-2.87402,.12256-.10547,.30322-.29004,.54053-.55371s.45703-.48779,.65918-.67236c.20166-.18457,.42578-.36475,.67236-.54053,.24609-.17529,.50098-.25439,.76465-.2373,.26367,.01758,.51807,.13184,.76465,.34277Z"/><path class="cls-1" d="M240.33264,45.75781c.75537,2.14502,.67627,4.28906-.2373,6.43359-.91406,2.14502-2.37305,3.79688-4.37695,4.95703-1.6875,1.00195-3.5332,1.63477-5.53711,1.89844-.58008,.06982-1.01514-.09668-1.30518-.50098-.29004-.40479-.35205-.84375-.18457-1.31836,.16699-.47461,.53125-.75537,1.09424-.84375,1.24805-.19336,2.40332-.52734,3.46729-1.00195,1.06348-.47461,2.03906-1.15088,2.92676-2.03027,.88721-.87891,1.46338-1.90723,1.72705-3.08496,.28076-.96631,.28564-2.00391,.01318-3.11133-.27295-1.10742-.83057-1.96826-1.67432-2.58398-.77393-.54443-1.78418-.87891-3.03223-1.00195-.43945,.94922-.92285,1.96045-1.4502,3.03223-.58008,1.14307-1.1958,2.23242-1.8457,3.26953-.01758,.03564-.10986,.17139-.27686,.40869-.16748,.2373-.28613,.43506-.35596,.59326-.07031,.1582-.0791,.29932-.02637,.42188,.21094,.49219,.4126,.87012,.60645,1.13379,.26367,.35205,.32959,.74756,.19775,1.18652-.13184,.43945-.40869,.72949-.83057,.87012-.73828,.26367-1.354-.05273-1.8457-.94922-1.33594,1.65234-2.58398,2.67236-3.74414,3.05859-.72119,.22852-1.43311,.2334-2.13574,.01318-.70312-.21973-1.2749-.65479-1.71387-1.30518-.58008-.84375-.89258-1.83252-.93604-2.96631-.04395-1.13379,.11426-2.21484,.47461-3.24316,.35986-1.02832,.84766-1.95508,1.46338-2.78174,.54443-.70264,1.12451-1.33545,1.74023-1.89844,.28076-.24609,.63281-.52734,1.05469-.84375-.08838-.28076-.17578-.53613-.26367-.76465l-.47461-1.5293c-.05273-.1582-.18457-.38232-.39551-.67236s-.34277-.52295-.39551-.69873c-.1582-.63281,.04346-1.12939,.60645-1.48975,.5625-.35986,1.09814-.32031,1.6084,.11865,.19336,.17578,.36475,.37354,.51416,.59326,.14893,.22021,.28564,.4707,.40869,.75146,.12256,.28125,.21973,.51855,.29004,.71191,.06982,.19385,.1582,.47461,.26367,.84375s.17529,.61572,.21094,.73828c1.51172-.70264,3.10205-1.13379,4.77246-1.29199,.38623-.01709,.60645-.05664,.65918-.11865,.05273-.06152,.10547-.19775,.1582-.40869,.01709-.08789,.05273-.21094,.10547-.36914l.10547-.31641c.05273-.31641,.07471-.55371,.06592-.71191-.00928-.1582-.04395-.37793-.10547-.65918-.06201-.28076-.09229-.50977-.09229-.68555-.03564-.70264,.29004-1.15088,.97559-1.34473,.68555-.19336,1.20361,.00928,1.55566,.60645,.5625,1.05469,.5708,2.42578,.02637,4.11328,1.42383,.21094,2.68945,.72949,3.79688,1.55566,1.10742,.82666,1.88916,1.89844,2.34668,3.2168Zm-14.87109,5.82715c.10547-.12256,.26367-.3252,.47461-.60645,.05273-.06982,.09229-.14062,.11865-.21094,.02637-.06982,.03516-.12744,.02637-.17139-.00928-.04346-.03955-.10938-.09229-.19775-.05273-.08789-.08838-.1582-.10547-.21094-.05273-.1582-.13184-.37793-.2373-.65918-.10547-.28076-.16748-.45703-.18457-.52734-.51025-1.42383-.82666-2.3291-.94922-2.71582-1.01953,.86133-1.80225,1.8457-2.34668,2.95312-.54492,1.10742-.71191,2.25879-.50098,3.4541,.21094,1.1958,.70264,1.59131,1.47656,1.18652,.66797-.3335,1.44092-1.09814,2.32031-2.29395Zm2.47852-3.66504c.80811-1.38818,1.55566-2.80371,2.24121-4.24512-1.1958,.19385-2.31152,.54492-3.34863,1.05469,.22803,.72119,.59717,1.78418,1.10742,3.19043Z"/><path class="cls-1" d="M263.48694,48.92188c.59717,1.6875,.53613,3.39258-.18457,5.11523-.72119,1.72314-1.87207,3.02344-3.4541,3.90234-1.354,.73828-3.0415,1.16895-5.0625,1.29199-1.89844,.10547-3.2959-.03564-4.19238-.42188-.72119-.29932-1.30518-.79102-1.75342-1.47656s-.61084-1.40625-.48779-2.16211c.10547-.73828,.42188-1.40625,.94922-2.00391,.58008-.6499,1.20361-1.08105,1.87207-1.29199,.98438-.3335,2.0127-.4126,3.08496-.2373,1.00195,.17578,1.87207,.646,2.61035,1.41064s1.11621,1.69189,1.13379,2.78174c.82617-.35156,1.52002-.87012,2.08301-1.55566,.5625-.68555,.90527-1.46729,1.02832-2.34668,.12256-.82617,.02637-1.6084-.29004-2.34668-.28125-.66797-.80029-1.21289-1.55566-1.63477-.66846-.3335-1.42383-.50977-2.26758-.52734-.89648,.03564-1.64404,.1582-2.24121,.36914-1.00195,.35205-1.72314,.65039-2.16211,.89648-.52734,.28125-.86133,.45752-1.00195,.52734-.14111,.07031-.49707,.27686-1.06787,.61963-.57129,.34277-.87451,.52344-.90967,.54053-.10547,.05273-.37842,.22852-.81738,.52734-.43945,.29932-.77783,.51025-1.01514,.63281-.2373,.12305-.53174,.16748-.8833,.13184-.38672-.03516-.68555-.22803-.89648-.58008-.26367-.4917-.29004-.92285-.0791-1.29199,.1582-.29883,.4834-.61523,.97559-.94922,.35156-.24609,1.00195-.87012,1.95117-1.87207,.4917-.50977,1.01904-1.07178,1.58203-1.6875,.5625-.61523,1.01514-1.11133,1.35791-1.48975,.34277-.37793,.85254-.95312,1.5293-1.72705,.67627-.77344,1.12939-1.29199,1.35791-1.55566-.87939,.24658-1.56494,.42188-2.05664,.52734-.49219,.10547-1.13818,.14502-1.93799,.11865-.80029-.02637-1.47266-.19775-2.01709-.51416-.87939-.52734-1.30127-1.14258-1.26562-1.8457,.01709-.35156,.17529-.65479,.47461-.90967,.29883-.25439,.62354-.36475,.97559-.32959,.24609,.01758,.53613,.17139,.87012,.46143,.3335,.29004,.63281,.44434,.89648,.46143,.70264,.01758,1.63477-.13184,2.79492-.44824,.35156-.08789,.86084-.22803,1.5293-.42188,.66797-.19336,1.12451-.3252,1.37109-.39551,.82617-.21094,1.44092-.19336,1.8457,.05273,.6499,.40479,.97559,.93213,.97559,1.58203,0,.1582-.01758,.30762-.05273,.44824-.03564,.14111-.10547,.28613-.21094,.43506-.10547,.14941-.18896,.26367-.25049,.34277-.06201,.0791-.17139,.20703-.32959,.38232-.1582,.17578-.25488,.29004-.29004,.34277-1.6875,1.95117-2.9624,3.40137-3.82324,4.35059,.86084-.26367,1.77539-.37793,2.74219-.34277,.96631,.03564,1.87598,.18066,2.729,.43506,.85254,.25488,1.62549,.69873,2.32031,1.33154,.69434,.63281,1.19971,1.41504,1.51611,2.34668Zm-8.22656,7.56738c.10547-.6499,.06982-1.09814-.10547-1.34473-.47461-.66797-1.14307-1.00195-2.00391-1.00195-.72119,0-1.2749,.1582-1.66113,.47461-.47461,.38672-.63281,.74756-.47461,1.08105,.10547,.22852,.27686,.41309,.51416,.55371,.2373,.14111,.43896,.22852,.60645,.26367,.16699,.03564,.45215,.07031,.85693,.10547,.3335,.03564,1.08984-.00879,2.26758-.13184Z"/><path class="cls-1" d="M275.81213,35.55371c0-.10547,.03027-.18848,.09229-.25049,.06152-.06152,.14062-.09229,.2373-.09229,.09619,0,.17529,.03076,.2373,.09229,.06152,.06201,.10107,.14502,.11865,.25049,.0874,2.00391,1.12451,3.86719,3.11084,5.58984,2.32031,2.02148,3.48047,4.05176,3.48047,6.09082,0,1.86328-.69336,3.95508-2.08203,6.27539-.12305,.19385-.29883,.29004-.52734,.29004-.08789,0-.1543-.03027-.19922-.09229-.04297-.06152-.04688-.13574-.01172-.22412,1.03711-2.16211,1.55469-3.9458,1.55469-5.35254,0-1.49365-.43945-2.80371-1.31836-3.92871-.87891-1.12451-2.00391-1.87207-3.375-2.24121-.05273-.01709-.10547-.00391-.1582,.03955-.05273,.04395-.07812,.10156-.07812,.17139v13.28906c0,1.354-.49268,2.45605-1.47705,3.30908-.98486,.85254-2.14502,1.27881-3.48047,1.27881-.66846,0-1.25244-.17578-1.75342-.52734-.50098-.35205-.75146-.84375-.75146-1.47656,0-.93164,.49658-1.78369,1.48975-2.55762,.99268-.77344,2.05225-1.16016,3.17725-1.16016,.54443,0,1.02832,.0791,1.4502,.2373,.06982,.01758,.13184,.01318,.18457-.01318s.0791-.07471,.0791-.14502v-18.85254Z"/></g></g></svg>