<?xml version="1.0" encoding="UTF-8"?><svg id="_レイヤー_2" xmlns="http://www.w3.org/2000/svg" viewBox="0 0 628.69678 32.15001"><defs><style>.cls-1{fill:#3e0005;}</style></defs><g id="text"><g><path class="cls-1" d="M2.68945,21.71484c-.31006,.31006-.68652,.46484-1.12891,.46484-.44287,0-.81348-.15479-1.1123-.46484-.29883-.30957-.44824-.68604-.44824-1.12891V3.2207c0-.79688,.27637-1.47754,.83008-2.04199C1.3833,.61426,2.06934,.33203,2.88867,.33203h6.57422c.39844,0,.74121,.13867,1.0293,.41504,.2876,.27686,.43164,.62012,.43164,1.0293,0,.40967-.14404,.7583-.43164,1.0459-.28809,.28809-.63086,.43164-1.0293,.43164H3.48633c-.22168,0-.33203,.11084-.33203,.33203V20.58594c0,.44287-.15527,.81934-.46484,1.12891Z"/><path class="cls-1" d="M22.84375,15.17383c1.68213,.62012,1.3833,2.64551-.89648,6.07617-.06641,.11084-.11084,.18848-.13281,.23242-.62012,.92969-1.41699,1.92578-2.39062,2.98828-.22168,.26562-.40967,.46484-.56445,.59766-.68652,.64209-1.40576,.83008-2.1582,.56445-.4873-.17676-.78613-.59766-.89648-1.26172-.11084-.5752,.0332-1.0625,.43164-1.46094,.92969-.92969,1.7373-1.88135,2.42383-2.85547,.84082-1.19531,1.47168-2.36816,1.89258-3.51953,.19922-.55322,.49805-.96289,.89648-1.22852s.86328-.30957,1.39453-.13281Zm12.05273-1.95898c-1.30615,.08887-2.28027,.14404-2.92188,.16602h-.74707c-.09961,0-.18262,.0332-.24902,.09961s-.09961,.16602-.09961,.29883,.00537,.35986,.0166,.68066c.01074,.32129,.0166,.55908,.0166,.71387l.0332,5.2793v4.98047c0,2.08105-.05566,3.44238-.16602,4.08398-.11084,.61963-.42627,1.05664-.94629,1.31152-.52051,.25439-1.10156,.3374-1.74316,.24902-1.50537-.19922-2.98828-.67529-4.44922-1.42773-.59766-.31006-.90234-.79688-.91309-1.46094-.01123-.66406,.25977-1.17285,.81348-1.52734,.22119-.13281,.47021-.20459,.74707-.21582,.27637-.01074,.56445,.02246,.86328,.09961,.29883,.07764,.56982,.16064,.81348,.24902,.24316,.08887,.52539,.20508,.84668,.34863,.3208,.14404,.55859,.23828,.71387,.28223,.06641-2.54541,.05518-7.16064-.0332-13.8457-2.8999,.08887-5.08008,.13281-6.54102,.13281-2.94434,0-4.50488-.73047-4.68164-2.19141-.06641-.44238,.0498-.85742,.34863-1.24512,.29883-.38721,.66943-.61426,1.1123-.68066,.30957-.04395,.70264,.05566,1.17871,.29883,.47559,.24365,.83545,.37646,1.0791,.39844,.95166,.06641,3.05469,.04443,6.30859-.06641,.11035,0,.25977-.00537,.44824-.0166,.18799-.01074,.32617-.0166,.41504-.0166,.08838,0,.16016-.01074,.21582-.0332,.05518-.02197,.08838-.06055,.09961-.11621,.01074-.05518,.0166-.10498,.0166-.14941l-.13281-4.88086c0-.26562-.16064-.49805-.48145-.69727-.32129-.19922-.51465-.34277-.58105-.43164-.28809-.354-.4043-.76367-.34863-1.22852,.05518-.46484,.25977-.85205,.61426-1.16211,.86328-.68604,1.74854-.60303,2.65625,.24902,.90723,.85254,1.40527,1.77637,1.49414,2.77246,.06641,.55371,.11035,1.12354,.13281,1.70996,.02197,.58691,.02734,1.27295,.0166,2.05859-.01123,.78613-.0166,1.37793-.0166,1.77637,2.34619-.13281,4.11719-.25439,5.3125-.36523,1.19531-.08838,2.125-.16602,2.78906-.23242,.73047-.06641,1.29492,.07764,1.69336,.43164,.48682,.44287,.6416,.99072,.46484,1.64355-.17725,.65332-.57568,1.05713-1.19531,1.21191-.4873,.11084-.99609,.19922-1.52734,.26562s-1.18457,.11084-1.95898,.13281c-.7749,.02246-1.28418,.04443-1.52734,.06641Zm7.50391,9.42969c.2876,.4873,.32617,.99609,.11621,1.52734-.21045,.53125-.58105,.87451-1.1123,1.0293-.53125,.13281-.96289,.07227-1.29492-.18262-.33203-.25439-.67529-.66943-1.0293-1.24512-.66406-.99609-1.40576-2.05859-2.22461-3.1875-.24365-.2876-.68066-.76367-1.31152-1.42773s-1.0791-1.18408-1.34473-1.56055c-.31006-.44238-.38184-.95166-.21582-1.52734,.16602-.5752,.51465-.95166,1.0459-1.12891,.15479-.04395,.30957-.06641,.46484-.06641,.15479,0,.29297,.01123,.41504,.0332,.12158,.02246,.24902,.07227,.38184,.14941,.13281,.07764,.24902,.14941,.34863,.21582s.22119,.16602,.36523,.29883c.14355,.13281,.24902,.23828,.31543,.31543,.06641,.07764,.16602,.18848,.29883,.33203,.13281,.14404,.22119,.24902,.26562,.31543,1.68213,1.90381,3.1875,3.94043,4.51562,6.10938Zm-3.91797-15.9375c.19922,.7085,.01074,1.27295-.56445,1.69336-.57568,.4209-1.14014,.35449-1.69336-.19922-.11084-.13281-.21045-.29297-.29883-.48145-.08887-.18799-.17188-.40381-.24902-.64746-.07764-.24316-.13867-.42041-.18262-.53125-.39844-.95166-.7417-1.58252-1.0293-1.89258-.4873-.55322-.4873-1.12891,0-1.72656,.48682-.59766,1.05127-.71924,1.69336-.36523,.88525,.50928,1.66016,1.89258,2.32422,4.15039Zm3.68555-.69727c.11035,.44287,.02197,.83008-.26562,1.16211-.28809,.33203-.65869,.49268-1.1123,.48145-.4541-.01074-.80273-.21582-1.0459-.61426-.13281-.19922-.27686-.52539-.43164-.97949-.15527-.45361-.25488-.72461-.29883-.81348-.08887-.15479-.44287-.74121-1.0625-1.75977-.37646-.6416-.27148-1.21191,.31543-1.70996,.58643-.49805,1.16748-.51465,1.74316-.0498,.95166,.81934,1.6709,2.24707,2.1582,4.2832Z"/><path class="cls-1" d="M54.99951,19.02539c0,.7085-.28223,1.20117-.84668,1.47754-.56445,.27686-1.12891,.27686-1.69336,0-.56445-.27637-.84668-.76904-.84668-1.47754V7.00586c0-.26562-.17725-.55322-.53125-.86328-.35449-.30957-.56445-.52002-.63086-.63086-.26562-.50879-.28223-1.01807-.0498-1.52734,.23242-.50879,.625-.81885,1.17871-.92969,.86328-.22119,1.71533,.25488,2.55664,1.42773,.5752,.79688,.86328,2.00342,.86328,3.61914v10.92383Zm10.45898-13.14844c.06641,.35449,.11035,.73047,.13281,1.12891,.02197,.39844,.02197,.86914,0,1.41113-.02246,.54248-.0332,.92432-.0332,1.14551v4.74805c0,7.17188-1.92578,12.29639-5.77734,15.37305-1.12891,.92969-2.36865,1.6377-3.71875,2.125-1.5498,.53125-2.5791,.44238-3.08789-.26562-.33203-.4209-.4209-.91309-.26562-1.47754,.15479-.56445,.48682-.94629,.99609-1.14551,.19922-.06641,.48682-.16602,.86328-.29883,.37598-.13281,.6748-.23779,.89648-.31543,.22119-.07715,.48145-.18799,.78027-.33203,.29883-.14355,.58105-.3042,.84668-.48145,3.38672-2.30176,5.06885-6.64062,5.04688-13.01562V6.87305c0-.53125-.15527-.87402-.46484-1.0293-.81934-.81885-1.05176-1.58252-.69727-2.29102,.50879-.81885,1.0791-1.12891,1.70996-.92969s1.22266,.64746,1.77637,1.34473c.55322,.69727,.88525,1.33398,.99609,1.90918Z"/><path class="cls-1" d="M96.25195,25.20117c.02197,.26562-.01123,.50928-.09961,.73047-.24365,.66406-1.40576,.99609-3.48633,.99609l-5.94336,.19922c-.53125,.02246-1.87598,.06641-4.03418,.13281s-3.81299,.09961-4.96387,.09961c-.4873,0-.87988-.01074-1.17871-.0332-.29883-.02197-.69189-.08838-1.17871-.19922-.4873-.11035-.89648-.29883-1.22852-.56445s-.56445-.61963-.69727-1.0625c-.15527-.53125-.02783-1.02344,.38184-1.47754,.40918-.45361,.90186-.63623,1.47754-.54785,.26562,.04443,.52539,.16602,.78027,.36523,.25439,.19922,.40381,.29883,.44824,.29883,.59766,.02246,1.04004,.02783,1.32812,.0166,.2876-.01074,.73047-.0332,1.32812-.06641s1.05127-.0498,1.36133-.0498l6.04297-.19922c.42041-.06641,.65283-.11035,.69727-.13281,.26562-.73047,.65283-2.92188,1.16211-6.57422l-5.24609,.33203c-.15527,0-.55371,.0332-1.19531,.09961-.64209,.06641-1.15137,.09961-1.52734,.09961-.37646,0-.81348-.0498-1.31152-.14941s-.90234-.28223-1.21191-.54785c-.35449-.26562-.63086-.63623-.83008-1.1123-.19922-.47559-.19922-.92383,0-1.34473,.15479-.354,.45361-.61426,.89648-.78027,.44238-.16602,.86328-.17139,1.26172-.0166,.11035,.06641,.23779,.15527,.38184,.26562,.14355,.11084,.26562,.21045,.36523,.29883,.09961,.08887,.17139,.13281,.21582,.13281,1.04004-.02197,3.85156-.18799,8.43359-.49805,.33203-.02197,.50879-.05518,.53125-.09961,.37598-.33203,.78564-.49805,1.22852-.49805,.37598,0,.73047,.14941,1.0625,.44824s.50879,.64746,.53125,1.0459c.04395,.35449-.01123,.94092-.16602,1.75977-.02246,.11084-.08887,.44824-.19922,1.0127-.11084,.56445-.19922,1.02393-.26562,1.37793l-.83008,4.88086c.37598-.02197,1.22852-.05518,2.55664-.09961,.02197,0,.20996-.01074,.56445-.0332,.97363-.06641,1.62695,.0332,1.95898,.29883,.13281,.11084,.26562,.26562,.39844,.46484s.19922,.44287,.19922,.73047Z"/><path class="cls-1" d="M126.53613,14.54297c.66406-.02197,1.16211,.26025,1.49414,.84668,.33203,.58691,.33203,1.16797,0,1.74316-.35449,.55371-.96289,.81934-1.82617,.79688-12.72803,.22168-19.82227,.29883-21.2832,.23242-.64209-.02197-1.35059-.14941-2.125-.38184-.7749-.23242-1.46094-.61963-2.05859-1.16211-.59766-.54199-.80811-1.16748-.63086-1.87598,.13281-.55322,.46484-.93506,.99609-1.14551,.53125-.20996,1.04004-.17139,1.52734,.11621,.11035,.06641,.29883,.18262,.56445,.34863s.45898,.28223,.58105,.34863c.12158,.06641,.29297,.13867,.51465,.21582,.22119,.07764,.46484,.12744,.73047,.14941,1.04004,.04443,3.67432,.04443,7.90234,0l13.61328-.23242Z"/><path class="cls-1" d="M156.31885,25.99805c.24316,.4873,.28223,.91309,.11621,1.27832s-.40967,.66992-.73047,.91309c-.32129,.24365-.7085,.33203-1.16211,.26562-.4541-.06641-.82471-.2876-1.1123-.66406-.19922-.2876-.44824-.74121-.74707-1.36133-.29883-.61963-.49268-.98486-.58105-1.0957-8.76562,1.15137-14.31055,1.85938-16.63477,2.125-.06641,0-.27148,.02246-.61426,.06641-.34326,.04443-.59229,.07764-.74707,.09961-.75293,.11084-1.5498,.13281-2.39062,.06641-.31006-.02197-.57568-.07715-.79688-.16602-.79688-.30957-1.28418-.75244-1.46094-1.32812-.15527-.55322-.06104-1.05664,.28223-1.51074,.34277-.45361,.80225-.69141,1.37793-.71387,.13281,0,.3208,.05566,.56445,.16602,.24316,.11084,.43164,.16602,.56445,.16602,.44238,0,.78564-.01074,1.0293-.0332,.19922,0,.40918-.16016,.63086-.48145,.22119-.3208,.44238-.73584,.66406-1.24512,.22119-.50879,.34277-.78564,.36523-.83008,.97363-2.01416,1.56055-3.2207,1.75977-3.61914,1.52734-3.1875,2.66699-5.72168,3.41992-7.60352,.30957-.68604,.50879-1.20605,.59766-1.56055,.04395-.39844,.06641-.6084,.06641-.63086,0-.02197-.13281-.18799-.39844-.49805-.31006-.354-.42627-.79688-.34863-1.32812,.07715-.53125,.32617-.92969,.74707-1.19531,.5752-.26562,1.1123-.29297,1.61035-.08301,.49805,.21045,.92383,.57031,1.27832,1.0791,.5752,.7749,.74121,1.771,.49805,2.98828-.11084,.57568-.29346,1.18994-.54785,1.84277-.25488,.65332-.48145,1.21191-.68066,1.67676s-.48145,1.0791-.84668,1.84277-.62549,1.31152-.78027,1.64355c-1.35059,2.98828-2.56787,5.48975-3.65234,7.50391l12.51758-1.59375c-.73047-1.01807-1.40576-1.88135-2.02539-2.58984-.02246-.02197-.25488-.25439-.69727-.69727-.44287-.44238-.71973-.80762-.83008-1.0957-.31006-.84082-.09424-1.51074,.64746-2.00879,.74121-.49805,1.43311-.43701,2.0752,.18262,1.3501,1.26172,2.55078,2.68945,3.60254,4.2832,1.05127,1.59375,2.1748,3.50879,3.37012,5.74414Z"/><path class="cls-1" d="M166.03662,12.28516c.37598,.22168,.61963,.55371,.73047,.99609,.02197,.11084,.0332,.22168,.0332,.33203,0,.33203-.09961,.63086-.29883,.89648-.24365,.35449-.57568,.57568-.99609,.66406h-.29883c-.33203,0-.63086-.08838-.89648-.26562-1.01855-.6416-2.1582-1.23926-3.41992-1.79297-.33203-.15479-.56445-.40918-.69727-.76367-.02246-.13281-.0332-.25439-.0332-.36523,0-.22119,.06641-.44238,.19922-.66406,.24316-.354,.5752-.59766,.99609-.73047,.17676-.06641,.36523-.09961,.56445-.09961,.22119,0,.44238,.04443,.66406,.13281,1.26172,.50928,2.4126,1.0625,3.45312,1.66016Zm-2.02539,17.59766c-.19922,.42041-.52051,.68604-.96289,.79688-.13281,.02197-.26562,.0332-.39844,.0332-.28809,0-.57568-.08887-.86328-.26562-.39844-.24365-.64209-.59766-.73047-1.0625-.02246-.15527-.0332-.29883-.0332-.43164,0-.30957,.07715-.6084,.23242-.89648,1.39453-2.50098,2.72266-5.14648,3.98438-7.93555,.17676-.37598,.44238-.6084,.79688-.69727,.11035-.02197,.23242-.0332,.36523-.0332,.26562,0,.50879,.07764,.73047,.23242,.354,.28809,.59766,.65332,.73047,1.0957,.04395,.17725,.06641,.35449,.06641,.53125,0,.26562-.05566,.52051-.16602,.76367-1.15137,2.63428-2.40186,5.25732-3.75195,7.86914Zm3.61914-26.29688c.354,.24365,.55322,.58691,.59766,1.0293v.16602c0,.37646-.12207,.71973-.36523,1.0293-.24365,.31006-.57568,.4873-.99609,.53125h-.16602c-.35449,0-.67529-.11035-.96289-.33203-.92969-.70801-2.02539-1.4165-3.28711-2.125-.33203-.17676-.53711-.44824-.61426-.81348-.07764-.36523,.00537-.69141,.24902-.97949,.2876-.33203,.6416-.54199,1.0625-.63086,.13281-.04395,.26562-.06641,.39844-.06641,.26562,0,.53125,.06641,.79688,.19922,1.26172,.64209,2.35742,1.30615,3.28711,1.99219Zm22.72754,6.60742c.27637,.28809,.41504,.62549,.41504,1.0127,0,.3877-.13867,.71973-.41504,.99609-.27686,.27686-.61426,.41504-1.0127,.41504h-8.16797c-.22168,0-.33203,.11084-.33203,.33203v1.82617c0,.22168,.11035,.33203,.33203,.33203h5.71094c.79688,0,1.47754,.28223,2.04199,.84668s.84668,1.24512,.84668,2.04199v10.625c0,.75244-.08887,1.33887-.26562,1.75977-.17725,.42041-.52051,.74121-1.0293,.96289-.66406,.26562-1.85938,.39844-3.58594,.39844-.37646,0-.71973-.12744-1.0293-.38184-.31006-.25488-.53125-.58105-.66406-.97949-.08887-.31006-.03906-.59766,.14941-.86328,.18799-.26562,.44824-.39844,.78027-.39844,.66406,.02246,1.37207,.0332,2.125,.0332,.22119,0,.37061-.03857,.44824-.11621,.07715-.07715,.11621-.21582,.11621-.41504v-10.39258c0-.22119-.11084-.33203-.33203-.33203h-5.64453c-.22168,0-.33203,.11084-.33203,.33203v5.54492c0,.22168,.11035,.33203,.33203,.33203h1.62695c.22119,0,.33203-.11035,.33203-.33203v-3.25391c0-.26562,.09961-.49805,.29883-.69727s.43164-.29883,.69727-.29883,.49805,.09961,.69727,.29883,.29883,.43164,.29883,.69727v6.3418c0,.28809-.09961,.52588-.29883,.71387-.19922,.18848-.43164,.28223-.69727,.28223s-.49805-.09375-.69727-.28223c-.19922-.18799-.29883-.42578-.29883-.71387v-.26562c0-.11035-.04443-.16602-.13281-.16602h-6.54102c-.15527,0-.23242,.06641-.23242,.19922v.86328c0,.26562-.09424,.49805-.28223,.69727-.18848,.19922-.4209,.29883-.69727,.29883-.27686,0-.50928-.09961-.69727-.29883-.18848-.19922-.28223-.43164-.28223-.69727v-6.97266c0-.26562,.09375-.49805,.28223-.69727,.18799-.19922,.42041-.29883,.69727-.29883,.27637,0,.50879,.09961,.69727,.29883,.18799,.19922,.28223,.43164,.28223,.69727v3.25391c0,.22168,.11035,.33203,.33203,.33203h1.52734c.22119,0,.33203-.11035,.33203-.33203v-5.54492c0-.22119-.11084-.33203-.33203-.33203h-5.37891c-.22168,0-.33203,.11084-.33203,.33203v12.15234c0,.39844-.13867,.73584-.41504,1.0127-.27686,.27637-.60889,.41504-.99609,.41504-.3877,0-.71973-.13867-.99609-.41504-.27686-.27686-.41504-.61426-.41504-1.0127v-12.38477c0-.79688,.28223-1.47754,.84668-2.04199s1.24512-.84668,2.04199-.84668h5.3457c.22119,0,.33203-.11035,.33203-.33203v-1.82617c0-.22119-.11084-.33203-.33203-.33203h-8.03516c-.39844,0-.73633-.13818-1.0127-.41504-.27686-.27637-.41504-.6084-.41504-.99609,0-.38721,.13818-.72461,.41504-1.0127,.27637-.2876,.61426-.43164,1.0127-.43164h3.95117c.22119,0,.33203-.11035,.33203-.33203v-2.52344c0-.22119-.11084-.33203-.33203-.33203h-2.92188c-.37646,0-.69727-.13818-.96289-.41504-.26562-.27637-.39844-.60303-.39844-.97949,0-.37598,.13281-.69727,.39844-.96289s.58643-.39844,.96289-.39844h2.92188c.22119,0,.33203-.11035,.33203-.33203v-1.39453c0-.39844,.13818-.74121,.41504-1.0293,.27637-.2876,.625-.43164,1.0459-.43164,.42041,0,.77441,.14404,1.0625,.43164,.2876,.28809,.43164,.63086,.43164,1.0293v1.39453c0,.22168,.11035,.33203,.33203,.33203h4.71484c.22119,0,.33203-.11035,.33203-.33203v-1.36133c0-.39844,.14355-.74707,.43164-1.0459,.2876-.29883,.6416-.44824,1.0625-.44824,.42041,0,.78027,.15527,1.0791,.46484,.29883,.31006,.44824,.65332,.44824,1.0293v1.36133c0,.22168,.11035,.33203,.33203,.33203h3.05469c.37598,0,.69727,.13281,.96289,.39844s.39844,.58691,.39844,.96289c0,.37646-.13281,.70312-.39844,.97949-.26562,.27686-.58691,.41504-.96289,.41504h-3.05469c-.22168,0-.33203,.11084-.33203,.33203v2.52344c0,.22168,.11035,.33203,.33203,.33203h3.95117c.39844,0,.73584,.14404,1.0127,.43164Zm-13.36426-3.61914c-.22168,0-.33203,.11084-.33203,.33203v2.52344c0,.22168,.11035,.33203,.33203,.33203h4.71484c.22119,0,.33203-.11035,.33203-.33203v-2.52344c0-.22119-.11084-.33203-.33203-.33203h-4.71484Z"/><path class="cls-1" d="M196.91064,30.54688c-.31006,.354-.7085,.58643-1.19531,.69727h-.39844c-.33203,0-.65332-.06641-.96289-.19922-.35449-.17725-.56445-.4541-.63086-.83008v-.23242c0-.28809,.09961-.55371,.29883-.79688,.97363-1.12891,1.87012-2.51221,2.68945-4.15039,.19922-.39844,.49805-.68604,.89648-.86328,.24316-.13281,.49805-.19922,.76367-.19922,.15479,0,.30957,.02246,.46484,.06641,.39844,.11084,.69727,.34326,.89648,.69727,.08838,.19922,.13281,.3877,.13281,.56445,0,.17725-.04443,.35449-.13281,.53125-.81934,1.81543-1.75977,3.38672-2.82227,4.71484Zm20.1875-19.82227c.79688,0,1.47754,.28223,2.04199,.84668s.84668,1.24512,.84668,2.04199v5.41211c0,.79688-.28223,1.47754-.84668,2.04199s-1.24512,.84668-2.04199,.84668h-17.13281c-.79688,0-1.47754-.28223-2.04199-.84668s-.84668-1.24512-.84668-2.04199v-5.41211c0-.79688,.28223-1.47754,.84668-2.04199s1.24512-.84668,2.04199-.84668h6.375c.22119,0,.33203-.11035,.33203-.33203V2.25781c0-.48682,.15479-.87988,.46484-1.17871,.30957-.29883,.68604-.44824,1.12891-.44824,.44238,0,.82422,.15527,1.14551,.46484,.3208,.31006,.48145,.69727,.48145,1.16211v1.36133c0,.22168,.11035,.33203,.33203,.33203h10.69141c.39844,0,.74121,.14404,1.0293,.43164,.2876,.28809,.43164,.63086,.43164,1.0293s-.14404,.7417-.43164,1.0293c-.28809,.28809-.63086,.43164-1.0293,.43164h-10.69141c-.22168,0-.33203,.09961-.33203,.29883v3.2207c0,.22168,.11035,.33203,.33203,.33203h6.87305Zm-.66406,8.26758c.22119,0,.33203-.11035,.33203-.33203v-4.68164c0-.22119-.11084-.33203-.33203-.33203h-16.00391c-.22168,0-.33203,.11084-.33203,.33203v4.68164c0,.22168,.11035,.33203,.33203,.33203h16.00391Zm-13.38086,7.20508v-.23242c0-.30957,.09961-.59766,.29883-.86328,.24316-.33203,.5752-.50879,.99609-.53125h.16602c.354,0,.68604,.11084,.99609,.33203,.354,.24365,.56445,.57568,.63086,.99609,.22119,1.26172,.38721,2.46826,.49805,3.61914v.16602c0,.37598-.13281,.71924-.39844,1.0293-.28809,.354-.65332,.56445-1.0957,.63086h-.16602c-.35449,0-.67529-.12207-.96289-.36523-.33203-.26562-.50928-.62012-.53125-1.0625-.08887-1.17285-.23242-2.4126-.43164-3.71875Zm7.30469-.13281c-.08887-.15479-.13281-.29883-.13281-.43164,0-.19922,.05518-.39844,.16602-.59766,.15479-.33203,.42041-.54199,.79688-.63086,.13281-.02197,.27637-.0332,.43164-.0332,.26562,0,.53125,.05566,.79688,.16602,.37598,.19922,.65283,.4873,.83008,.86328,.5752,1.26172,1.07324,2.50146,1.49414,3.71875,.04395,.15479,.06641,.30957,.06641,.46484,0,.24316-.06641,.48682-.19922,.73047-.22168,.37598-.54248,.61963-.96289,.73047-.13281,.02197-.26562,.0332-.39844,.0332-.26562,0-.53125-.07764-.79688-.23242-.37646-.22168-.62012-.54248-.73047-.96289-.35449-1.19531-.80811-2.46777-1.36133-3.81836Zm7.13867-.36523c-.13281-.22119-.19922-.44238-.19922-.66406,0-.11035,.01074-.23242,.0332-.36523,.11035-.354,.34277-.59766,.69727-.73047,.24316-.08838,.48682-.13281,.73047-.13281,.17676,0,.36523,.02246,.56445,.06641,.42041,.13281,.76367,.37646,1.0293,.73047,1.12891,1.5498,2.05859,2.97754,2.78906,4.2832,.13281,.22168,.19922,.45361,.19922,.69727,0,.15479-.0332,.3208-.09961,.49805-.15527,.42041-.44287,.70801-.86328,.86328-.19922,.08838-.4043,.13281-.61426,.13281-.21045,0-.41504-.04443-.61426-.13281-.4209-.17725-.7417-.46484-.96289-.86328-.68652-1.32812-1.58301-2.78906-2.68945-4.38281Z"/><path class="cls-1" d="M237.64893,28.55469c-.59766,.55371-1.32812,.83008-2.19141,.83008s-1.59375-.27637-2.19141-.83008c-.59766-.55322-.89648-1.26172-.89648-2.125s.29883-1.57715,.89648-2.1416,1.32812-.84668,2.19141-.84668,1.59375,.28223,2.19141,.84668,.89648,1.27832,.89648,2.1416-.29883,1.57178-.89648,2.125Zm-1.16211-8.23438c-.28809,.26562-.63086,.39844-1.0293,.39844s-.7417-.13281-1.0293-.39844c-.28809-.26562-.44287-.59766-.46484-.99609l-.89648-11.12305-.0332-1.99219c-.02246-.68604,.20996-1.27246,.69727-1.75977,.48682-.48682,1.06787-.73047,1.74316-.73047,.6748,0,1.25586,.24365,1.74316,.73047,.48682,.4873,.71924,1.07373,.69727,1.75977l-.0332,1.99219-.92969,11.12305c-.02246,.39844-.17725,.73047-.46484,.99609Z"/><path class="cls-1" d="M261.7876,10.75781c.30957-.30957,.68604-.46484,1.12891-.46484,.44238,0,.81348,.15527,1.1123,.46484,.29883,.31006,.44824,.67529,.44824,1.0957V29.25195c0,.79688-.27686,1.47754-.83008,2.04199-.55371,.56445-1.23975,.84668-2.05859,.84668h-6.57422c-.39844,0-.7417-.14941-1.0293-.44824-.28809-.29883-.43164-.64209-.43164-1.0293,0-.3877,.14355-.7251,.43164-1.0127,.2876-.28809,.63086-.43164,1.0293-.43164h5.97656c.22119,0,.33203-.11035,.33203-.33203V11.85352c0-.42041,.15479-.78564,.46484-1.0957Z"/><path class="cls-1" d="M290.67432,14.14453c.37598,1.92578,.29883,4.34961-.23242,7.27148-.64209,3.1875-1.52734,5.54492-2.65625,7.07227-1.30615,1.77051-3.09912,2.10254-5.37891,.99609-.57568-.26562-1.11816-.56445-1.62695-.89648-.50928-.33203-.97949-.78564-1.41113-1.36133-.43164-.5752-.58105-1.13965-.44824-1.69336,.15479-.55322,.49805-.93506,1.0293-1.14551,.53125-.20996,1.0293-.16016,1.49414,.14941,.19922,.13281,.46484,.36523,.79688,.69727s.58643,.55371,.76367,.66406c.73047,.50928,1.33887,.7749,1.82617,.79688,.24316-.22119,.53125-.6748,.86328-1.36133,.39844-.84082,.79688-2.04736,1.19531-3.61914,.37598-1.7041,.58643-3.25391,.63086-4.64844,0-1.66016-.17725-2.72266-.53125-3.1875-.28809-.39844-1.23975-.38721-2.85547,.0332-.39844,.08887-.69727,.16602-.89648,.23242-.13281,.39844-.25488,.7085-.36523,.92969-.13281,.4209-.35449,1.0625-.66406,1.92578-1.23975,3.32031-2.39062,6.10938-3.45312,8.36719-.06641,.11084-.18848,.36523-.36523,.76367-.17725,.39844-.33789,.75293-.48145,1.0625-.14404,.31006-.33203,.66992-.56445,1.0791-.23242,.40967-.45947,.7417-.68066,.99609-.22168,.25439-.4707,.47559-.74707,.66406-.27686,.18799-.56445,.271-.86328,.24902-.29883-.02246-.61426-.17725-.94629-.46484-.33203-.26562-.51465-.5918-.54785-.97949-.0332-.38721,0-.70264,.09961-.94629,.09961-.24316,.271-.59766,.51465-1.0625,.70801-1.21729,1.32812-2.4126,1.85938-3.58594,1.0625-2.30176,2.14697-4.99121,3.25391-8.06836-2.32422,.35449-3.90723-.13281-4.74805-1.46094-.37646-.59766-.4043-1.22266-.08301-1.87598,.3208-.65283,.85742-.93506,1.61035-.84668,.33203,.04443,.6084,.15527,.83008,.33203,.04395,.02246,.13818,.12207,.28223,.29883,.14355,.17725,.24902,.26562,.31543,.26562,.2876,.06641,.95166,.01123,1.99219-.16602,.24316-.04395,.61963-.14355,1.12891-.29883,.02197-.08838,.07178-.24902,.14941-.48145,.07715-.23242,.13818-.41504,.18262-.54785,.30957-.92969,.5752-1.7373,.79688-2.42383,.37598-1.23926,.5752-1.89258,.59766-1.95898,.08838-.48682-.0332-1.0625-.36523-1.72656-.31006-.66406-.21582-1.27832,.28223-1.84277s1.08984-.72461,1.77637-.48145c.6416,.22168,1.10645,.7085,1.39453,1.46094,.2876,.75293,.40918,1.49414,.36523,2.22461-.02246,.37646-.08887,.80811-.19922,1.29492-.11084,.4873-.19922,.85254-.26562,1.0957-.06641,.24365-.21045,.68652-.43164,1.32812-.22168,.64209-.34326,1.00732-.36523,1.0957,1.57129-.26562,2.91064-.08301,4.01758,.54785,1.10645,.63086,1.81494,1.70996,2.125,3.2373Zm10.69141,5.51172c.17676,1.79297-.34326,2.94434-1.56055,3.45312-.66406,.26562-1.43896,.3877-2.32422,.36523-.37646-.02197-.80811-.02197-1.29492,0-.66406,.02246-1.17871-.24316-1.54395-.79688-.36523-.55322-.38184-1.12891-.0498-1.72656,.15479-.26562,.38721-.47021,.69727-.61426,.30957-.14355,.56982-.22656,.78027-.24902,.20996-.02197,.54785-.02734,1.0127-.0166,.46484,.01123,.75244,.0166,.86328,.0166-.15527-1.48291-1.28418-3.27588-3.38672-5.37891-.13281-.13281-.38184-.32617-.74707-.58105-.36523-.25439-.68066-.49805-.94629-.73047s-.4541-.48145-.56445-.74707c-.17725-.42041-.18262-.85205-.0166-1.29492,.16602-.44238,.47021-.75244,.91309-.92969,.68604-.2876,1.53809-.02197,2.55664,.79688,.77441,.64209,1.61572,1.47217,2.52344,2.49023,1.83691,2.01465,2.86621,3.99561,3.08789,5.94336Zm-2.25781-10.45898c.19922,.7085,.01074,1.27295-.56445,1.69336-.57568,.4209-1.14014,.35449-1.69336-.19922-.11084-.13281-.21045-.29883-.29883-.49805-.08887-.19922-.17188-.41504-.24902-.64746-.07764-.23242-.13867-.40381-.18262-.51465-.39844-.95166-.7417-1.59375-1.0293-1.92578-.4873-.55322-.48145-1.12305,.0166-1.70996,.49805-.58643,1.05664-.70264,1.67676-.34863,.88525,.50928,1.66016,1.89258,2.32422,4.15039Zm3.71875-.73047c.11035,.44287,.0166,.83594-.28223,1.17871-.29883,.34326-.67529,.50928-1.12891,.49805-.4541-.01074-.80273-.21582-1.0459-.61426-.13281-.19922-.27686-.53125-.43164-.99609-.15527-.50879-.59766-1.36133-1.32812-2.55664-.37646-.6416-.27686-1.21191,.29883-1.70996,.5752-.49805,1.15088-.52539,1.72656-.08301,.97363,.81934,1.7041,2.24707,2.19141,4.2832Z"/><path class="cls-1" d="M328.64648,17.06641c.5752,1.61621,.53125,3.2373-.13281,4.86426s-1.69336,3.02734-3.08789,4.2002c-1.43896,1.10693-2.92188,1.98145-4.44922,2.62305-1.32812,.48682-2.19141,.77441-2.58984,.86328-1.28418,.30957-2.1582,.42041-2.62305,.33203-.39844-.11084-.71973-.34863-.96289-.71387-.24365-.36523-.33203-.73584-.26562-1.1123,.06641-.79688,.6416-1.27246,1.72656-1.42773,1.68213-.26562,3.26465-.80762,4.74805-1.62695,1.50488-.79688,2.71143-1.81494,3.61914-3.05469,.90723-1.23926,1.0957-2.55664,.56445-3.95117-.53125-1.32812-1.94824-1.88135-4.25-1.66016-1.30615,.15527-3.39795,.66406-6.27539,1.52734-.19922,.06641-.71973,.25488-1.56055,.56445-.84131,.31006-1.57715,.52051-2.20801,.63086-.63086,.11084-1.22314,.12207-1.77637,.0332-.50928-.11035-1.01855-.354-1.52734-.73047-.50928-.37598-.83008-.77441-.96289-1.19531-.11084-.48682-.00586-.93506,.31543-1.34473,.3208-.40918,.72461-.63623,1.21191-.68066,.68604-.08838,1.20605,.09961,1.56055,.56445,.11035,.15527,.17676,.22168,.19922,.19922,.06641,0,.52002-.13281,1.36133-.39844,2.05859-.70801,4.09473-1.30566,6.10938-1.79297,1.08447-.26562,2.13037-.44238,3.1377-.53125,1.00684-.08838,2.06934-.07178,3.1875,.0498,1.11768,.12207,2.11914,.49805,3.00488,1.12891,.88525,.63086,1.52734,1.51074,1.92578,2.63965Z"/><path class="cls-1" d="M360.97363,12.45117c.73047,2.03662,.69141,4.05664-.11621,6.05957-.80811,2.00342-2.09766,3.75781-3.86816,5.2627-1.63818,1.35059-3.53076,2.47949-5.67773,3.38672-1.08496,.44287-2.21387,.81934-3.38672,1.12891-1.57178,.4209-2.6123,.55371-3.12109,.39844-.37646-.13281-.68066-.37598-.91309-.73047-.23242-.354-.31543-.74121-.24902-1.16211,.11035-.79688,.70801-1.28369,1.79297-1.46094,2.19141-.30957,4.33838-1.04004,6.44141-2.19141,.70801-.37598,1.3833-.80762,2.02539-1.29492,.6416-.48682,1.28906-1.05127,1.94238-1.69336,.65283-.6416,1.15088-1.31152,1.49414-2.00879,.34277-.69727,.58643-1.45508,.73047-2.27441,.14355-.81885,.0166-1.6377-.38184-2.45703-.81934-1.94775-2.8999-2.74463-6.24219-2.39062-2.03662,.22168-4.82568,.87451-8.36719,1.95898-.31006,.08887-.75293,.24365-1.32812,.46484-.57568,.22168-1.0459,.39307-1.41113,.51465-.36523,.12207-.85791,.27148-1.47754,.44824-1.8374,.50928-3.35352,.29883-4.54883-.63086-.55371-.42041-.89648-.89648-1.0293-1.42773-.13281-.50879-.05566-.97949,.23242-1.41113,.2876-.43164,.69727-.66943,1.22852-.71387,.59766-.06641,1.0957,.14404,1.49414,.63086,.19922,.26562,.354,.39844,.46484,.39844,.33203,0,1.07324-.16602,2.22461-.49805,3.5415-1.12891,6.21973-1.91455,8.03516-2.35742,7.74707-1.83691,12.41797-.48682,14.01172,4.05078Z"/><path class="cls-1" d="M384.68555,10.22656c.77441,4.71484,.43164,8.97607-1.0293,12.7832-.79688,2.08105-1.97021,3.88477-3.51953,5.41211-1.50537,1.50488-3.27637,2.37939-5.3125,2.62305-1.08496,.13281-1.81543-.17725-2.19141-.92969-.17725-.35449-.21045-.74707-.09961-1.17871,.11035-.43164,.34277-.75781,.69727-.97949,.24316-.15479,.66406-.27637,1.26172-.36523,.59766-.08838,1.00684-.17676,1.22852-.26562,.77441-.30957,1.52734-.80762,2.25781-1.49414,2.27979-2.25781,3.4751-5.75488,3.58594-10.49219,.06641-3.5415-.40967-6.16455-1.42773-7.86914-.81934-1.3501-1.95898-1.87012-3.41992-1.56055-.59766,.13281-1.18994,.4873-1.77637,1.0625-.58691,.57568-1.03516,1.30615-1.34473,2.19141-.53125,1.50537-.71973,4.22803-.56445,8.16797,.04395,.99609,.02197,1.82617-.06641,2.49023-.15527,.84131-.46484,1.38379-.92969,1.62695-1.12891,.57568-2.03662,.32129-2.72266-.76367-.24365-.37598-.36523-1.28369-.36523-2.72266,0-.24316,.04395-1.32812,.13281-3.25391,.15479-5.15723,.24316-7.92432,.26562-8.30078,.06641-1.32812-.07764-2.23535-.43164-2.72266-.31006-.42041-.3877-.91309-.23242-1.47754,.15479-.56445,.48682-.94629,.99609-1.14551,.59766-.22119,1.10645-.18799,1.52734,.09961,.42041,.28809,.74121,.71973,.96289,1.29492,.22119,.57568,.38184,1.14551,.48145,1.70996s.13818,1.06836,.11621,1.51074c.81885-1.21729,1.87012-2.04736,3.1543-2.49023,1.32812-.46484,2.66699-.44238,4.01758,.06641,2.54541,.90771,4.12793,3.23193,4.74805,6.97266Z"/><path class="cls-1" d="M416.93652,18.56055c.55322,1.08496,.82422,2.22461,.81348,3.41992-.01123,1.19531-.28223,2.33545-.81348,3.41992-.53125,1.10693-1.35059,2.00342-2.45703,2.68945-1.35059,.79688-2.58984,1.21729-3.71875,1.26172-1.37256-.06641-2.75586-.09961-4.15039-.09961-.02246,0-.14941-.02246-.38184-.06641s-.37646-.07178-.43164-.08301c-.05566-.01074-.18262-.0498-.38184-.11621-.81934-.24316-1.33936-.63086-1.56055-1.16211-.17725-.42041-.17725-.85205,0-1.29492,.39844-.97363,1.37207-1.22852,2.92188-.76367,.46484,.13281,.80762,.21045,1.0293,.23242,1.37207,.17725,2.68945,.05566,3.95117-.36523,1.26172-.42041,2.05859-1.21729,2.39062-2.39062,.354-1.26172,.22119-2.36816-.39844-3.32031-.62012-.90723-1.59375-1.4165-2.92188-1.52734-1.10693-.08838-2.41309,.06641-3.91797,.46484-.95215,.24365-1.59375,.43164-1.92578,.56445-.11084,.04443-.27686,.10547-.49805,.18262-.22168,.07764-.3877,.13867-.49805,.18262-.04443,.02246-.13281,.0498-.26562,.08301s-.21045,.06641-.23242,.09961c-.02246,.0332-.05566,.08887-.09961,.16602-.04443,.07764-.06641,.17188-.06641,.28223v1.24512c0,.63086-.00586,1.0957-.0166,1.39453-.01123,.29883-.0332,.7251-.06641,1.27832-.0332,.55371-.08301,1.0127-.14941,1.37793s-.16064,.7749-.28223,1.22852c-.12207,.4541-.27148,.85791-.44824,1.21191-.97412,2.08057-3.09912,2.57861-6.375,1.49414-.13281-.04443-.37109-.13281-.71387-.26562-.34326-.13281-.60352-.23242-.78027-.29883-.17725-.06641-.4043-.16602-.68066-.29883-.27686-.13281-.51465-.28223-.71387-.44824s-.3877-.3374-.56445-.51465c-.95215-1.0625-1.25098-2.21338-.89648-3.45312,.08838-.30957,.22119-.625,.39844-.94629,.17676-.3208,.34277-.60303,.49805-.84668,.15479-.24316,.40381-.50342,.74707-.78027,.34277-.27637,.59766-.49219,.76367-.64746,.16602-.15479,.47559-.37061,.92969-.64746,.45361-.27637,.74121-.45361,.86328-.53125,.12158-.07715,.43701-.25439,.94629-.53125,.50879-.27637,.78564-.42578,.83008-.44824,1.08447-.5752,1.75977-.91846,2.02539-1.0293,.15479-.06641,.26562-.18262,.33203-.34863s.08838-.43701,.06641-.81348c-.04443-.99609-.11084-2.53418-.19922-4.61523-2.10303,.13281-3.72998-.14355-4.88086-.83008-.37646-.22119-.69727-.50342-.96289-.84668-.26562-.34277-.44287-.71387-.53125-1.1123-.08887-.39844,.0332-.79688,.36523-1.19531,.44238-.53125,1.0293-.70801,1.75977-.53125,.19922,.04443,.41504,.17188,.64746,.38184,.23242,.21045,.40381,.34863,.51465,.41504,.26562,.15527,.86328,.27686,1.79297,.36523,.26562,.02246,.6748,.01123,1.22852-.0332v-.92969c0-.19922,.01074-.6748,.0332-1.42773,.02197-.75244,.01074-1.37793-.0332-1.87598-.04443-.49805-.14404-.95703-.29883-1.37793-.22168-.61963-.21582-1.18945,.0166-1.70996,.23242-.52002,.66943-.80225,1.31152-.84668,.5752-.04395,1.0459,.12207,1.41113,.49805,.36523,.37646,.6084,.92969,.73047,1.66016,.12158,.73047,.19922,1.38379,.23242,1.95898,.0332,.57568,.03857,1.28418,.0166,2.125-.02246,.84131-.0332,1.31738-.0332,1.42773,.70801-.13281,1.64893-.34277,2.82227-.63086,.08838-.02197,.271-.06641,.54785-.13281,.27637-.06641,.47559-.11035,.59766-.13281,.12158-.02197,.29297-.0332,.51465-.0332,.22119,0,.42041,.04443,.59766,.13281,.59766,.28809,.91846,.76367,.96289,1.42773,.04395,.66406-.22168,1.18457-.79688,1.56055-.19922,.13281-1.05176,.36523-2.55664,.69727-1.21777,.28809-1.98145,.46484-2.29102,.53125-.11084,.02246-.19922,.07227-.26562,.14941-.06641,.07764-.09961,.14941-.09961,.21582s.00537,.17725,.0166,.33203c.01074,.15527,.0166,.26562,.0166,.33203,0,.13281,.00537,.34326,.0166,.63086,.01074,.28809,.0166,.50928,.0166,.66406,0,.26562,.00537,.66406,.0166,1.19531,.01074,.53125,.0166,.92969,.0166,1.19531,1.21729-.44238,2.41797-.78564,3.60254-1.0293,1.18408-.24316,2.4458-.37598,3.78516-.39844,1.33887-.02197,2.56201,.27148,3.66895,.87988,1.10645,.60889,1.96973,1.5,2.58984,2.67285Zm-17.0332,4.15039v-1.0625c-1.59375,.84131-2.92188,1.63818-3.98438,2.39062-.66406,.4873-.98535,.90771-.96289,1.26172,0,.22168,.80762,.66406,2.42383,1.32812,.22119,.08887,.47559,.18262,.76367,.28223,.2876,.09961,.53125,.13281,.73047,.09961s.33203-.12695,.39844-.28223c.11035-.22119,.20459-.45361,.28223-.69727,.07715-.24316,.13818-.53662,.18262-.87988,.04395-.34277,.07178-.59766,.08301-.76367,.01074-.16602,.02734-.47021,.0498-.91309,.02197-.44238,.0332-.69727,.0332-.76367Zm20.38672-9.19727c.30957,.97412,.14355,1.82617-.49805,2.55664-.64209,.73047-1.4834,1.11816-2.52344,1.16211-.4873,.02246-.88574-.11621-1.19531-.41504-.31006-.29883-.49268-.64746-.54785-1.0459-.05566-.39844,.0332-.79102,.26562-1.17871,.23242-.38721,.58105-.625,1.0459-.71387-.75293-1.50488-2.25781-2.42383-4.51562-2.75586-.64209-.08838-1.10156-.42041-1.37793-.99609-.27686-.5752-.21582-1.15088,.18262-1.72656,.77441-1.01807,2.4458-.89648,5.01367,.36523,2.14697,1.04053,3.53027,2.62305,4.15039,4.74805Z"/><path class="cls-1" d="M449.32178,4.74805c.79688,0,1.47754,.28223,2.04199,.84668s.84668,1.24512,.84668,2.04199V27.32617c0,1.771-.50977,2.85547-1.52734,3.25391-.73047,.30957-2.13623,.49805-4.2168,.56445h-.06641c-.44287,0-.85254-.14404-1.22852-.43164-.37646-.31006-.63086-.69727-.76367-1.16211-.04443-.13281-.06641-.26562-.06641-.39844,0-.22119,.06641-.43164,.19922-.63086,.22119-.33203,.52002-.49805,.89648-.49805,.79688,.02246,1.75977,.0332,2.88867,.0332,.50879-.02197,.76367-.2876,.76367-.79688V8.20117c0-.22119-.11084-.33203-.33203-.33203h-8.89844c-.22168,0-.36523,.11084-.43164,.33203-.02246,.11084-.06641,.25488-.13281,.43164-.06641,.19922,0,.34326,.19922,.43164,2.98828,1.74902,5.32324,3.25391,7.00586,4.51562,.39844,.31006,.59766,.71973,.59766,1.22852,0,.39844-.13281,.75293-.39844,1.0625-.28809,.33203-.66406,.50928-1.12891,.53125h-.09961c-.4209,0-.78613-.13281-1.0957-.39844-1.50537-1.23926-3.54199-2.66699-6.10938-4.2832-.17725-.11035-.32129-.06641-.43164,.13281-1.30615,2.05859-3.19873,3.70801-5.67773,4.94727-.24365,.08887-.47607,.13281-.69727,.13281-.17725,0-.34326-.02197-.49805-.06641-.39844-.13281-.7417-.37598-1.0293-.73047-.24365-.26562-.33203-.56982-.26562-.91309,.06641-.34277,.25439-.5918,.56445-.74707,1.3501-.66406,2.45703-1.43848,3.32031-2.32422,1.0625-1.12891,1.88135-2.45703,2.45703-3.98438,.02197-.06641,.01074-.13281-.0332-.19922-.04443-.06641-.11084-.09961-.19922-.09961h-7.60352c-.22168,0-.33203,.11084-.33203,.33203V29.51758c0,.44238-.15527,.81885-.46484,1.12891-.31006,.30957-.68652,.46484-1.12891,.46484-.44287,0-.81934-.15527-1.12891-.46484-.31006-.31006-.46484-.68652-.46484-1.12891V7.63672c0-.79688,.28223-1.47754,.84668-2.04199s1.24512-.84668,2.04199-.84668h8.96484c.22119,0,.34277-.11035,.36523-.33203,.11035-.81885,.20996-1.7373,.29883-2.75586,.02197-.48682,.20459-.88525,.54785-1.19531,.34277-.30957,.75781-.46484,1.24512-.46484,.44238,0,.81885,.16602,1.12891,.49805,.26562,.28809,.39844,.64209,.39844,1.0625,0,.39844-.11084,1.35059-.33203,2.85547,0,.08887,.02734,.16602,.08301,.23242,.05518,.06641,.12695,.09961,.21582,.09961h8.86523Zm-3.05469,19.02539c.33203,.28809,.49805,.65869,.49805,1.1123,0,.4541-.16064,.83008-.48145,1.12891-.32129,.29883-.70312,.44824-1.14551,.44824h-.0332c-.44287,0-.83008-.15479-1.16211-.46484-1.35059-1.23926-3.19873-2.7334-5.54492-4.48242-.17725-.13281-.32129-.11035-.43164,.06641-1.37256,2.08105-3.33154,3.72998-5.87695,4.94727-.22168,.11084-.44287,.16602-.66406,.16602-.17725,0-.35449-.0332-.53125-.09961-.39844-.13281-.7417-.38721-1.0293-.76367-.22168-.26562-.29883-.5752-.23242-.92969,.06641-.354,.25439-.59766,.56445-.73047,.84082-.37598,1.60449-.79688,2.29102-1.26172,1.04004-.73047,1.85938-1.54395,2.45703-2.44043s1.0625-1.76514,1.39453-2.60645c.15479-.39844,.2876-.81885,.39844-1.26172,.13281-.48682,.38721-.87402,.76367-1.16211,.37598-.2876,.79688-.43164,1.26172-.43164,.42041,0,.76367,.16602,1.0293,.49805,.19922,.22168,.29883,.47607,.29883,.76367,0,.11084-.01123,.22168-.0332,.33203-.15527,.59766-.32129,1.17334-.49805,1.72656-.06641,.19922-.01123,.36523,.16602,.49805,2.7002,1.8374,4.88086,3.48633,6.54102,4.94727Z"/><path class="cls-1" d="M480.65479,13.34766c.02148,1.01855-.24902,1.83203-.81348,2.44043-.56445,.60889-1.42285,1.23438-2.57324,1.87598-1.26172,.68652-2.21387,1.18457-2.85547,1.49414-.06641,.04443-.15527,.08887-.26562,.13281-.11133,.04443-.18262,.07764-.21582,.09961-.0332,.02246-.06641,.07227-.09961,.14941-.0332,.07764-.0498,.18262-.0498,.31543,0,.06641,.00488,.18262,.0166,.34863,.01074,.16602,.0166,.29346,.0166,.38184v2.22461c0,.24365-.00586,.42627-.0166,.54785-.01172,.12207-.02246,.31006-.0332,.56445-.01172,.25488-.02832,.4541-.0498,.59766-.02246,.14404-.06152,.31543-.11621,.51465-.05566,.19922-.12207,.36523-.19922,.49805-.07812,.13281-.17773,.26025-.29883,.38184-.12207,.12207-.24902,.20508-.38184,.24902-.13281,.04443-.29883,.06641-.49805,.06641s-.4209-.0332-.66406-.09961c-.33203-.11035-.59766-.29883-.79688-.56445s-.32715-.59766-.38184-.99609c-.05566-.39844-.07812-.76367-.06641-1.0957,.01074-.33203,.0332-.73047,.06641-1.19531s.0498-.79688,.0498-.99609c-.88574,.50928-1.54395,.89111-1.97559,1.14551-.43164,.25488-.98535,.63672-1.66016,1.14551-.67578,.50928-1.22363,1.00732-1.64355,1.49414-.26562,.33203-.42676,.64209-.48145,.92969-.05566,.28809,.0166,.52051,.21582,.69727,.19922,.17725,.42578,.34326,.68066,.49805,.25391,.15527,.58105,.27148,.97949,.34863,.39844,.07764,.73047,.13867,.99609,.18262,.26562,.04443,.55273,.07764,.86328,.09961,2.54492,.19922,5.22363,.08887,8.03516-.33203,1.26172-.17676,2.11328-.17676,2.55664,0,.86328,.35449,1.20605,.96289,1.0293,1.82617-.08887,.77441-.69727,1.26172-1.82617,1.46094-.4873,.08838-.8418,.12158-1.0625,.09961-6.33105,.59766-10.625,.43164-12.88281-.49805-1.26172-.55371-2.1416-1.41113-2.63965-2.57324s-.4707-2.38477,.08301-3.66895c.35352-.73047,.90723-1.44971,1.66016-2.1582,.75195-.70801,1.42773-1.25586,2.02539-1.64355,.59766-.38721,1.39453-.86865,2.39062-1.44434,.26562-.15479,.64746-.37061,1.14551-.64746,.49805-.27637,.81348-.45898,.94629-.54785,.28711-.15479,.26562-.6084-.06641-1.36133-.17773-.50879-.46484-.81885-.86328-.92969-.39844-.11035-.8418-.08838-1.32812,.06641-.75293,.15527-1.4502,.4873-2.0918,.99609-.64258,.50928-1.29004,1.10156-1.94238,1.77637-.65332,.67529-1.22363,1.16797-1.70996,1.47754-.39844,.28809-.8584,.37646-1.37793,.26562-.52051-.11035-.90234-.38721-1.14551-.83008-.06641-.13281-.11621-.26562-.14941-.39844s-.05566-.24902-.06641-.34863c-.01172-.09961,.00488-.22119,.0498-.36523,.04395-.14355,.07129-.24902,.08301-.31543,.01074-.06641,.06641-.17676,.16602-.33203,.09961-.15479,.16016-.25439,.18262-.29883,.02148-.04395,.09961-.15479,.23242-.33203l.19922-.29883c1.48242-2.10254,2.97656-4.59277,4.48242-7.4707-1.9707,.13281-3.44238-.0332-4.41602-.49805-.66406-.30957-1.21191-.73584-1.64355-1.27832-.43164-.54199-.53711-1.12305-.31543-1.74316,.19922-.5752,.60254-.92969,1.21191-1.0625,.6084-.13281,1.13379,.01123,1.57715,.43164,.39844,.39844,.75195,.64209,1.0625,.73047,.24316,.04443,.83008,.06641,1.75977,.06641l2.49023-.19922c.24316-.59766,.36523-1.05127,.36523-1.36133,0-.22119-.0498-.53125-.14941-.92969s-.14941-.74707-.14941-1.0459,.09961-.5918,.29883-.87988c.35352-.50879,.84668-.73584,1.47754-.68066,.63086,.05566,1.08984,.34863,1.37793,.87988,.50879,.92969,.66406,2.11426,.46484,3.55273,1.15039-.19922,1.98047-.39844,2.49023-.59766,.11035-.06641,.27051-.17676,.48145-.33203,.20996-.15479,.40332-.25977,.58105-.31543,.17676-.05518,.38672-.06055,.63086-.0166,.79688,.13281,1.23926,.58105,1.32812,1.34473,.08789,.76367-.15527,1.37793-.73047,1.84277-.79688,.64209-2.32422,1.14014-4.58203,1.49414l-1.59375,.23242c-.26562,.55371-.46484,.94092-.59766,1.16211-.35449,.75293-.78613,1.56055-1.29492,2.42383,1.61523-.39844,3.01562-.27637,4.2002,.36523,1.18359,.64209,1.99707,1.75977,2.44043,3.35352,1.17285-.59766,2.125-1.10645,2.85547-1.52734,.44238-.26562,.76367-.47559,.96289-.63086,.06641-.04395,.11035-.09961,.13281-.16602l.0332-.43164c.06641-.6416,.38184-1.0791,.94629-1.31152s1.10645-.20459,1.62695,.08301c.51953,.28809,.79102,.75293,.81348,1.39453Z"/><path class="cls-1" d="M492.3208,11.42188c.30957-.17676,.625-.19922,.94629-.06641,.32031,.13281,.53613,.36523,.64746,.69727,.06641,.19922,.09961,.3877,.09961,.56445,0,.17725-.0332,.36523-.09961,.56445-.13281,.37646-.36523,.66406-.69727,.86328-1.35059,.81934-2.98828,1.8042-4.91406,2.95508-.24414,.13281-.49805,.19922-.76367,.19922-.13281,0-.26562-.01074-.39844-.0332-.4209-.11035-.74219-.34277-.96289-.69727-.13281-.24316-.19922-.48682-.19922-.73047,0-.13281,.02148-.26562,.06641-.39844,.11035-.39844,.35352-.69727,.73047-.89648,.99609-.53125,2.84375-1.53809,5.54492-3.02148Zm23.3584,8.71582c.27637,.27686,.41504,.60889,.41504,.99609,0,.3877-.13867,.71387-.41504,.97949-.27734,.26562-.60352,.39844-.97949,.39844h-9.06445c-.06641,0-.11133,.02783-.13281,.08301-.02246,.05566-.01172,.10547,.0332,.14941,2.50098,2.16943,5.72168,3.90723,9.66211,5.21289,.35352,.13281,.58594,.3877,.69727,.76367,.02148,.11084,.0332,.21045,.0332,.29883,0,.26562-.08887,.49805-.26562,.69727-.31055,.42041-.69727,.70801-1.16211,.86328-.22168,.06641-.44336,.09961-.66406,.09961-.24414,0-.49805-.04443-.76367-.13281-4.0293-1.59375-7.4375-3.7627-10.22656-6.50781-.04492-.04395-.09473-.05518-.14941-.0332-.05566,.02246-.08301,.06641-.08301,.13281v6.04297c0,.44238-.15527,.81885-.46484,1.12891-.31055,.30957-.68652,.46484-1.12891,.46484-.44336,0-.81934-.15527-1.12891-.46484-.31055-.31006-.46484-.68652-.46484-1.12891v-6.14258c0-.06641-.02832-.11035-.08301-.13281-.05566-.02197-.10547-.01074-.14941,.0332-2.74512,2.8335-6.12109,5.10254-10.12695,6.80664-.26562,.11035-.53125,.16602-.79688,.16602-.19922,0-.39844-.0332-.59766-.09961-.4873-.15527-.875-.43164-1.16211-.83008-.17773-.19922-.26562-.43164-.26562-.69727,0-.08887,.01074-.18799,.0332-.29883,.11035-.37598,.34277-.63086,.69727-.76367,3.7627-1.37207,6.92773-3.19824,9.49609-5.47852,.02148-.04395,.02734-.09375,.0166-.14941-.01172-.05518-.0498-.08301-.11621-.08301h-8.83203c-.37695,0-.70312-.13281-.97949-.39844-.27734-.26562-.41504-.5918-.41504-.97949,0-.38721,.1377-.71924,.41504-.99609,.27637-.27637,.60254-.41504,.97949-.41504h11.55469c.2207,0,.33203-.11035,.33203-.33203v-1.89258c0-.22119-.11133-.33203-.33203-.33203h-1.46094c-.81934,0-1.50586-.28223-2.05859-.84668-.55371-.56445-.83008-1.25586-.83008-2.0752V6.87305c0-.79688,.27637-1.47754,.83008-2.04199,.55273-.56445,1.23926-.84668,2.05859-.84668h.86328c.2207,0,.36523-.09961,.43164-.29883,.13281-.53125,.25391-.99609,.36523-1.39453,.11035-.48682,.36523-.86328,.76367-1.12891,.33203-.24316,.68555-.36523,1.0625-.36523,.08789,0,.17676,.01123,.26562,.0332,.44238,.06641,.78516,.28809,1.0293,.66406,.13281,.22168,.19922,.4541,.19922,.69727,0,.17725-.0332,.34326-.09961,.49805-.04492,.11084-.11133,.27686-.19922,.49805-.08887,.22168-.15527,.3877-.19922,.49805-.02246,.06641-.01172,.13281,.0332,.19922,.04395,.06641,.09961,.09961,.16602,.09961h2.29102c.79688,0,1.48242,.28223,2.05859,.84668,.5752,.56445,.86328,1.24512,.86328,2.04199v5.14648c0,.04443,.0166,.07227,.0498,.08301,.0332,.01123,.06055,.00586,.08301-.0166,.41992-.48682,.92969-.77441,1.52734-.86328,.1543-.04395,.32031-.06641,.49805-.06641,.41992,0,.81836,.11084,1.19531,.33203,1.81445,.99609,3.36426,1.94824,4.64844,2.85547,.35352,.24365,.55273,.57568,.59766,.99609v.16602c0,.35449-.12207,.67529-.36523,.96289-.26562,.33203-.60938,.50928-1.0293,.53125-.04492,.02246-.09961,.0332-.16602,.0332-.35449,0-.67578-.12158-.96289-.36523-1.68262-1.28369-3.61914-2.52344-5.81055-3.71875-.06641-.02197-.12793-.0166-.18262,.0166-.05566,.0332-.08301,.08301-.08301,.14941v1.12891c0,.79688-.28223,1.4834-.84668,2.05859-.56445,.57568-1.25684,.86328-2.0752,.86328h-1.66016c-.22168,0-.33203,.11084-.33203,.33203v1.89258c0,.22168,.11035,.33203,.33203,.33203h11.75391c.37598,0,.70215,.13867,.97949,.41504Zm-22.66113-13.59668c.24316,.28809,.36523,.60889,.36523,.96289,0,.4873-.18848,.89648-.56445,1.22852-.26562,.22168-.56445,.33203-.89648,.33203h-.16602c-.39844-.04395-.74219-.22119-1.0293-.53125-.88574-1.04004-1.99219-2.0918-3.32031-3.1543-.26562-.24316-.4043-.54199-.41504-.89648-.01172-.354,.11621-.65283,.38184-.89648,.33203-.26562,.70801-.40918,1.12891-.43164h.06641c.39844,0,.75195,.11084,1.0625,.33203,1.34961,1.04053,2.47852,2.05859,3.38672,3.05469Zm4.98047-.09961c-.22168,0-.33203,.11084-.33203,.33203v2.29102c0,.22168,.11035,.33203,.33203,.33203h6.10938c.2207,0,.33203-.11035,.33203-.33203v-2.29102c0-.22119-.11133-.33203-.33203-.33203h-6.10938Zm0,5.2793c-.22168,0-.33203,.11084-.33203,.33203v2.32422c0,.22168,.11035,.33203,.33203,.33203h6.10938c.2207,0,.33203-.11035,.33203-.33203v-2.32422c0-.22119-.11133-.33203-.33203-.33203h-6.10938Zm13.97852-8.20117c.30957-.33203,.68555-.54199,1.12891-.63086,.11035-.02197,.2207-.0332,.33203-.0332,.30957,0,.6084,.08887,.89648,.26562,.35352,.19922,.56445,.49805,.63086,.89648v.23242c0,.31006-.11133,.58691-.33203,.83008-1.21777,1.26172-2.42383,2.39062-3.61914,3.38672-.31055,.26562-.67578,.40967-1.0957,.43164h-.09961c-.37695,0-.73047-.11035-1.0625-.33203-.28809-.19922-.44336-.47021-.46484-.81348-.02246-.34277,.08789-.63623,.33203-.87988,1.26172-1.10645,2.37891-2.22461,3.35352-3.35352Z"/><path class="cls-1" d="M541.49463,21.58203c1.34961,1.15137,.32031,2.99951-3.08789,5.54492-.11133,.08887-.18848,.14404-.23242,.16602-2.9668,2.25781-5.85547,3.38672-8.66602,3.38672-1.5498,0-2.86719-.4375-3.95117-1.31152-1.08496-.87402-1.77148-2.05273-2.05859-3.53613-.11133-.53125-.19922-1.0791-.26562-1.64355s-.09473-1.18408-.08301-1.85938c.01074-.6748,.02734-1.22266,.0498-1.64355,.02148-.42041,.05469-1.0293,.09961-1.82617,.04395-.79688,.07715-1.3501,.09961-1.66016,.13281-3.45312,.20996-6.05371,.23242-7.80273,0-.17676,.01074-.52539,.0332-1.0459,.02148-.52002,.0332-.91309,.0332-1.17871s-.01172-.6084-.0332-1.0293c-.02246-.42041-.07812-.78564-.16602-1.0957-.04492-.13281-.14941-.3374-.31543-.61426-.16602-.27637-.26074-.50342-.28223-.68066-.06641-.59766,.11035-1.08447,.53125-1.46094,.41992-.37598,.89062-.51465,1.41113-.41504,.51953,.09961,.94629,.35986,1.27832,.78027,.55273,.7085,.86328,1.8374,.92969,3.38672,.04395,1.0625-.01172,3.81836-.16602,8.26758-.17773,4.71484-.26562,7.38232-.26562,8.00195v1.14551c0,.12207,.00488,.31543,.0166,.58105,.01074,.26562,.02734,.47607,.0498,.63086,.02148,.15527,.05469,.33203,.09961,.53125,.04395,.19922,.09961,.3877,.16602,.56445,.06641,.17725,.14355,.34326,.23242,.49805,.48633,.7749,1.43848,1.11816,2.85547,1.0293,2.43457-.24316,4.8252-1.44971,7.17188-3.61914,.1543-.13281,.38184-.36523,.68066-.69727s.5752-.61426,.83008-.84668c.25391-.23242,.53613-.45898,.84668-.68066,.30957-.22119,.63086-.3208,.96289-.29883,.33203,.02246,.65234,.16602,.96289,.43164Z"/><path class="cls-1" d="M575.12646,13.87891c.95117,2.70068,.85156,5.40137-.29883,8.10156-1.15137,2.70068-2.98828,4.78125-5.51172,6.24219-2.125,1.26172-4.44922,2.05859-6.97266,2.39062-.73047,.08838-1.27832-.12207-1.64355-.63086-.36523-.50928-.44336-1.0625-.23242-1.66016,.20996-.59766,.66895-.95166,1.37793-1.0625,1.57129-.24316,3.02637-.66406,4.36621-1.26172,1.33887-.59766,2.56738-1.44971,3.68555-2.55664,1.11719-1.10645,1.84277-2.40137,2.1748-3.88477,.35352-1.21729,.35938-2.52344,.0166-3.91797-.34375-1.39453-1.0459-2.479-2.1084-3.25391-.97461-.68604-2.24707-1.10645-3.81836-1.26172-.55371,1.19531-1.16211,2.46826-1.82617,3.81836-.73047,1.43896-1.50586,2.81152-2.32422,4.11719-.02246,.04443-.13867,.21582-.34863,.51465-.21094,.29883-.36035,.54785-.44824,.74707-.08887,.19922-.09961,.37646-.0332,.53125,.26562,.62012,.51953,1.0957,.76367,1.42773,.33203,.44287,.41504,.94092,.24902,1.49414-.16602,.55371-.51465,.91895-1.0459,1.0957-.92969,.33203-1.70508-.06641-2.32422-1.19531-1.68262,2.08105-3.25391,3.36475-4.71484,3.85156-.9082,.28809-1.80469,.29346-2.68945,.0166-.88574-.27637-1.60547-.82422-2.1582-1.64355-.73047-1.0625-1.12402-2.30762-1.17871-3.73535-.05566-1.42773,.14355-2.78906,.59766-4.08398,.45312-1.29492,1.06738-2.4624,1.84277-3.50293,.68555-.88525,1.41602-1.68213,2.19141-2.39062,.35352-.30957,.79688-.66406,1.32812-1.0625-.11133-.354-.22168-.6748-.33203-.96289l-.59766-1.92578c-.06641-.19922-.23242-.48145-.49805-.84668s-.43164-.6582-.49805-.87988c-.19922-.79688,.05469-1.42188,.76367-1.87598,.70801-.45361,1.38281-.40381,2.02539,.14941,.24316,.22168,.45898,.4707,.64746,.74707,.1875,.27686,.35938,.59229,.51465,.94629,.1543,.35449,.27637,.65332,.36523,.89648,.08789,.24365,.19922,.59766,.33203,1.0625s.2207,.7749,.26562,.92969c1.90332-.88525,3.90625-1.42773,6.00977-1.62695,.48633-.02197,.76367-.07178,.83008-.14941,.06641-.07715,.13281-.24902,.19922-.51465,.02148-.11035,.06641-.26562,.13281-.46484s.11035-.33203,.13281-.39844c.06641-.39844,.09375-.69727,.08301-.89648-.01172-.19922-.05566-.47559-.13281-.83008-.07812-.354-.11621-.6416-.11621-.86328-.04492-.88525,.36523-1.44971,1.22852-1.69336,.86328-.24316,1.51562,.01123,1.95898,.76367,.70801,1.32812,.71875,3.05469,.0332,5.17969,1.79297,.26562,3.38672,.91895,4.78125,1.95898,1.39453,1.04053,2.37891,2.39062,2.95508,4.05078Zm-18.72656,7.33789c.13281-.15479,.33203-.40918,.59766-.76367,.06641-.08838,.11621-.17676,.14941-.26562,.0332-.08838,.04395-.16016,.0332-.21582-.01172-.05518-.0498-.13818-.11621-.24902-.06641-.11035-.11133-.19922-.13281-.26562-.06641-.19922-.16602-.47559-.29883-.83008-.13281-.354-.21094-.5752-.23242-.66406-.64258-1.79297-1.04102-2.93262-1.19531-3.41992-1.28418,1.08496-2.26953,2.32422-2.95508,3.71875-.68652,1.39453-.89648,2.84473-.63086,4.34961,.26562,1.50537,.88477,2.00342,1.85938,1.49414,.84082-.42041,1.81445-1.3833,2.92188-2.88867Zm3.12109-4.61523c1.01758-1.74854,1.95898-3.53027,2.82227-5.3457-1.50586,.24365-2.91113,.68652-4.2168,1.32812,.28711,.90771,.75195,2.24707,1.39453,4.01758Z"/><path class="cls-1" d="M604.16748,17.86328c.75195,2.125,.6748,4.27246-.23242,6.44141-.9082,2.16943-2.35742,3.80762-4.34961,4.91406-1.70508,.92969-3.83008,1.47168-6.375,1.62695-2.39062,.13281-4.15039-.04443-5.2793-.53125-.9082-.37646-1.64355-.99609-2.20801-1.85938s-.76953-1.77051-.61426-2.72266c.13281-.92969,.53125-1.77051,1.19531-2.52344,.73047-.81885,1.51562-1.36133,2.35742-1.62695,1.23926-.42041,2.53418-.52002,3.88477-.29883,1.26172,.22168,2.35742,.81348,3.28711,1.77637s1.40527,2.13086,1.42773,3.50293c1.04004-.44238,1.91406-1.0957,2.62305-1.95898,.70801-.86328,1.13965-1.84814,1.29492-2.95508,.1543-1.04004,.0332-2.02539-.36523-2.95508-.35449-.84082-1.00781-1.52734-1.95898-2.05859-.8418-.42041-1.79297-.6416-2.85547-.66406-1.12891,.04443-2.07031,.19922-2.82227,.46484-1.26172,.44287-2.16992,.81934-2.72266,1.12891-.66406,.35449-1.08496,.57568-1.26172,.66406-.17773,.08887-.62598,.34863-1.34473,.78027-.71973,.43164-1.10156,.65869-1.14551,.68066-.13281,.06641-.47656,.28809-1.0293,.66406-.55371,.37646-.97949,.64209-1.27832,.79688-.29883,.15527-.66992,.21045-1.1123,.16602-.4873-.04395-.86328-.2876-1.12891-.73047-.33203-.61963-.36523-1.16211-.09961-1.62695,.19922-.37598,.6084-.77441,1.22852-1.19531,.44238-.30957,1.26172-1.0957,2.45703-2.35742,.61914-.6416,1.2832-1.3501,1.99219-2.125,.70801-.77441,1.27832-1.3999,1.70996-1.87598,.43164-.47559,1.07324-1.20068,1.92578-2.1748,.85156-.97363,1.42188-1.62695,1.70996-1.95898-1.10742,.31006-1.9707,.53125-2.58984,.66406-.62012,.13281-1.43359,.18262-2.44043,.14941-1.00781-.0332-1.85449-.24902-2.54004-.64746-1.10742-.66406-1.63867-1.43848-1.59375-2.32422,.02148-.44238,.2207-.82422,.59766-1.14551,.37598-.3208,.78516-.45898,1.22852-.41504,.30957,.02246,.6748,.21582,1.0957,.58105,.41992,.36523,.79688,.55908,1.12891,.58105,.88477,.02246,2.05859-.16602,3.51953-.56445,.44238-.11035,1.08398-.2876,1.92578-.53125,.84082-.24316,1.41602-.40918,1.72656-.49805,1.04004-.26562,1.81445-.24316,2.32422,.06641,.81836,.50928,1.22852,1.17334,1.22852,1.99219,0,.19922-.02246,.3877-.06641,.56445-.04492,.17725-.13281,.35986-.26562,.54785-.13281,.18848-.23828,.33203-.31543,.43164-.07812,.09961-.21582,.26025-.41504,.48145-.19922,.22168-.32129,.36523-.36523,.43164-2.125,2.45703-3.73047,4.2832-4.81445,5.47852,1.08398-.33203,2.23535-.47559,3.45312-.43164,1.2168,.04443,2.3623,.22705,3.43652,.54785,1.07324,.32129,2.04688,.87988,2.92188,1.67676,.87402,.79688,1.51074,1.78223,1.90918,2.95508Zm-10.35938,9.5293c.13281-.81885,.08789-1.3833-.13281-1.69336-.59766-.84082-1.43945-1.26172-2.52344-1.26172-.9082,0-1.60547,.19922-2.0918,.59766-.59766,.4873-.79688,.94092-.59766,1.36133,.13281,.28809,.34863,.52051,.64746,.69727,.29883,.17725,.55273,.28809,.76367,.33203,.20996,.04443,.56934,.08887,1.0791,.13281,.41992,.04443,1.37207-.01074,2.85547-.16602Z"/><path class="cls-1" d="M619.53271,1.0293c0-.13281,.03809-.23779,.11621-.31543,.07715-.07715,.17676-.11621,.29883-.11621,.12109,0,.2207,.03906,.29883,.11621,.07715,.07764,.12695,.18262,.14941,.31543,.11035,2.52344,1.41602,4.87012,3.91797,7.03906,2.92188,2.5459,4.38281,5.10254,4.38281,7.66992,0,2.34668-.875,4.98047-2.62305,7.90234-.15527,.24365-.37695,.36523-.66406,.36523-.11133,0-.19434-.03857-.24902-.11621-.05566-.07715-.06152-.17139-.0166-.28223,1.30566-2.72266,1.95898-4.96924,1.95898-6.74023,0-1.88135-.55371-3.53027-1.66016-4.94727-1.10742-1.4165-2.52344-2.35742-4.25-2.82227-.06641-.02197-.13281-.00537-.19922,.0498-.06641,.05566-.09961,.12744-.09961,.21582V26.09766c0,1.70459-.62012,3.09326-1.85938,4.16699-1.24023,1.07324-2.70117,1.61035-4.38281,1.61035-.8418,0-1.57715-.22168-2.20801-.66406-.63086-.44287-.94629-1.0625-.94629-1.85938,0-1.17285,.625-2.24658,1.87598-3.2207,1.25-.97363,2.58398-1.46094,4.00098-1.46094,.68555,0,1.29492,.09961,1.82617,.29883,.08789,.02246,.16602,.0166,.23242-.0166s.09961-.09375,.09961-.18262V1.0293Z"/></g></g></svg>