<?xml version="1.0" encoding="UTF-8"?><svg id="_レイヤー_2" xmlns="http://www.w3.org/2000/svg" viewBox="0 0 287.80444 27.02393"><defs><style>.cls-1{fill:#b60005;}</style></defs><g id="text"><g><path class="cls-1" d="M28.22412,25.43994c0,.22412,.07202,.4082,.21582,.55176,.14404,.14404,.51978,.24854,1.12817,.31201v.57617h-9.88794v-.57617c.60742-.06348,.98389-.16797,1.12793-.31201,.14404-.14355,.21606-.32764,.21606-.55176v-8.87988H8.54395v8.87988c0,.22412,.07202,.4082,.21606,.55176,.14404,.14404,.51978,.24854,1.12793,.31201v.57617H0v-.57617c.60767-.06348,.98413-.16797,1.12817-.31201,.1438-.14355,.21582-.32764,.21582-.55176V3.07178c0-.22363-.07202-.40771-.21582-.55176-.14404-.14404-.52051-.24756-1.12817-.31201v-.57617H9.88794v.57617c-.60815,.06445-.98389,.16797-1.12793,.31201s-.21606,.32812-.21606,.55176v7.63184h12.48022V3.07178c0-.22363-.07202-.40771-.21606-.55176s-.52051-.24756-1.12793-.31201v-.57617h9.88794v.57617c-.6084,.06445-.98413,.16797-1.12817,.31201-.1438,.14404-.21582,.32812-.21582,.55176V25.43994Z"/><path class="cls-1" d="M54.0481,26.30371c.09595,0,.22339-.01562,.38403-.04785,.15967-.03174,.23999-.15967,.23999-.38428,0-.12695-.05615-.32715-.16797-.59961-.11255-.27148-.23999-.56787-.38403-.88818-.14404-.31934-.29614-.63965-.45605-.95996-.1604-.31934-.28784-.5918-.38403-.81592h-11.13599c-.06445,.22412-.16797,.49658-.31201,.81592-.14404,.32031-.29614,.64062-.45581,.95996-.16064,.32031-.30469,.6167-.43213,.88818-.12817,.27246-.19189,.47266-.19189,.59961,0,.22461,.07935,.35254,.23999,.38428,.15967,.03223,.28784,.04785,.38403,.04785v.57617h-7.2002v-.57617c.19214,0,.38403-.03955,.57617-.11963,.19189-.07959,.31934-.19971,.38379-.36035,.96021-2.23926,1.93579-4.45557,2.92822-6.64795,.99146-2.19141,1.87939-4.17578,2.66382-5.95166,.78394-1.77637,1.43188-3.24756,1.94409-4.41602,.51147-1.16797,.76807-1.83154,.76807-1.99219,0-.28809-.2085-.44775-.62402-.47998v-.57617h10.03198v.57617c-.41626,.03223-.62402,.19189-.62402,.47998,0,.0957,.16797,.52051,.50391,1.27197,.33618,.75244,.77563,1.69678,1.32007,2.83203,.5437,1.13623,1.1438,2.39258,1.80005,3.76807,.65552,1.37598,1.31177,2.75244,1.96802,4.12793,.65552,1.37598,1.27197,2.68066,1.8479,3.91211,.57593,1.23193,1.03955,2.26416,1.39209,3.0957,.06372,.16064,.19189,.28076,.38403,.36035,.19189,.08008,.38403,.11963,.57593,.11963v.57617h-7.96802v-.57617Zm-6.43188-15.55176l-3.93604,8.3999h7.96802l-4.03198-8.3999Z"/><path class="cls-1" d="M90.86377,25.43994c0,.35254,.12744,.57617,.38403,.67188,.25562,.09619,.57593,.16064,.95996,.19189v.57617h-8.87988v-.57617c.25562,0,.552-.03125,.88794-.0957,.33594-.06396,.50391-.24023,.50391-.52783,0-.28809-.35254-.82373-1.05591-1.6084-.70435-.78369-1.60815-1.75195-2.71216-2.90381s-2.34448-2.43994-3.71997-3.86426c-1.37622-1.42334-2.73584-2.93506-4.07983-4.53564l-.09619,.0957v12.57617c0,.35254,.12012,.57617,.36011,.67188,.23999,.09619,.5354,.16064,.88794,.19189v.57617h-8.20801v-.57617c.31958-.03125,.6001-.0957,.84009-.19189,.23999-.0957,.36011-.31934,.36011-.67188V7.19971c0-.35156-.12842-.57568-.38403-.67188-.25659-.0957-.5603-.15967-.91211-.19189v-.57617h11.42407v.57617c-.22437,.03223-.44849,.09619-.67212,.19189-.22412,.09619-.33594,.32031-.33594,.67188,0,.06445,.26392,.39258,.79199,.98438,.52808,.59229,1.20752,1.33643,2.04004,2.23193,.83179,.896,1.75952,1.88818,2.78394,2.97607,1.02368,1.08789,2.04761,2.17627,3.07202,3.26367V7.19971c0-.35156-.12817-.57568-.38403-.67188-.25635-.0957-.57593-.15967-.95996-.19189v-.57617h8.448v.57617c-.38403,.03223-.70435,.09619-.95996,.19189-.25659,.09619-.38403,.32031-.38403,.67188V25.43994Z"/><path class="cls-1" d="M102.76709,.57568c-.47998,.12842-.79199,.27246-.93579,.43213-.14404,.16064-.23267,.43213-.26416,.81592l-.23999,9.74414c-.03223,.25635,.03979,.4248,.21606,.50391,.17554,.08008,.3916,.12012,.64795,.12012v.57617h-5.9519v-.57617c.25562,0,.47168-.04004,.64795-.12012,.17554-.0791,.24756-.24756,.21606-.50391l-.33618-9.74414c-.03223-.38379-.11987-.65527-.26392-.81592-.14404-.15967-.45605-.30371-.93604-.43213V0h7.19995V.57568Z"/><path class="cls-1" d="M107.75854,19.82373c0,.06445-.0083,.13672-.02393,.21631-.0166,.08008-.02417,.18408-.02417,.31201,0,.32031,.30371,.62402,.91211,.91211,.60742,.2876,1.38379,.55176,2.32788,.79199,.9436,.23975,1.96802,.43164,3.07202,.57568s2.13599,.21631,3.09595,.21631c.28809,0,.67969-.01611,1.17603-.04834,.49585-.03125,.98413-.11963,1.46411-.26416,.47998-.14355,.88794-.35156,1.22388-.62402,.33618-.27148,.50415-.64746,.50415-1.12792,0-.63966-.38403-1.09572-1.1521-1.36769-.76782-.27148-1.73608-.47998-2.90405-.62402-1.16846-.14404-2.43213-.29541-3.79199-.45605-1.36035-.15967-2.62427-.43945-3.79199-.84033-1.16846-.39941-2.13599-.97559-2.90381-1.72754-.76807-.75195-1.1521-1.80029-1.1521-3.14404,0-.73584,.19189-1.52783,.57593-2.37598,.38403-.84766,.99146-1.62402,1.82397-2.32812,.83179-.70361,1.92749-1.2876,3.28809-1.75195,1.35986-.46338,3.01587-.6958,4.96802-.6958,1.1521,0,2.2478,.06445,3.28809,.19189,1.03931,.12793,1.98364,.27197,2.83203,.43164,.84741,.16064,1.56738,.30469,2.15991,.43213,.5918,.12842,1.01538,.19189,1.27197,.19189,.25586,0,.46338-.07178,.62402-.21582,.15967-.14404,.30371-.26416,.43188-.35986l.52808,.19189-2.87988,6.04785-.62402-.28809c0-.06348,.00732-.14404,.02393-.23975,.01562-.09619,.02393-.19189,.02393-.28809,0-.12744-.19189-.28809-.57593-.47998s-.88794-.38428-1.51196-.57617-1.32837-.35986-2.11206-.50391c-.78442-.14404-1.59229-.21582-2.42407-.21582-.28784,0-.73633,.0083-1.34399,.02393-.60815,.0166-1.21631,.0957-1.82397,.24023-.60815,.14355-1.14453,.35205-1.60791,.62402-.46436,.27197-.69604,.67969-.69604,1.22363,0,.57617,.38403,.98438,1.1521,1.22412,.76782,.23975,1.73535,.43213,2.90381,.57568,1.16797,.14453,2.43164,.30469,3.79199,.48047,1.35986,.17578,2.62354,.47217,3.79199,.8877,1.16797,.4165,2.13623,1.0166,2.90405,1.7998,.76807,.78467,1.1521,1.88037,1.1521,3.28809,0,.92871-.2085,1.81689-.62402,2.66406-.41626,.84863-1.05591,1.59229-1.91992,2.23242s-1.96069,1.12793-3.28809,1.46387c-1.32837,.33594-2.90405,.50391-4.72803,.50391-1.15186,0-2.32056-.07227-3.50391-.21582-1.18433-.14404-2.27246-.31982-3.26416-.52832-.99219-.20752-1.81641-.39941-2.47192-.57617-.65625-.17529-1.03198-.26367-1.12793-.26367-.22437,0-.42456,.07178-.6001,.21582-.17627,.14404-.34424,.29639-.50391,.45605l-.52808-.14404,1.96802-6.43213,.62402,.28809Z"/><path class="cls-1" d="M161.13428,17.71191c-.25659,0-.43213,.08838-.52808,.26416s-.1604,.40771-.19189,.6958h-.57593v-6.72021h.57593c.06372,.57617,.30371,.86426,.71997,.86426h14.15991v.57617c-.51221,.03223-.76782,.3042-.76782,.81592v7.96777c0,.22412,.03149,.4165,.09595,.57617,.06372,.16064,.22339,.23975,.47998,.23975h.23999v.57617c-4.35229,2.30371-9.50391,3.45605-15.45605,3.45605-2.01587,0-3.95996-.24756-5.83203-.74414-1.87183-.49561-3.52783-1.27197-4.96802-2.32812-1.43994-1.05566-2.6001-2.3916-3.47998-4.00781-.88037-1.61523-1.31982-3.51172-1.31982-5.68799,0-2.17578,.43945-4.07178,1.31982-5.68799,.87988-1.61523,2.04004-2.95947,3.47998-4.03223,1.44019-1.07129,3.09619-1.87158,4.96802-2.3999,1.87207-.52783,3.81616-.79199,5.83203-.79199,.79956,0,1.50366,.0166,2.11206,.04834,.60742,.03223,1.19995,.0957,1.77588,.19189,.57617,.09619,1.16772,.21582,1.77612,.35986,.60742,.14404,1.32739,.32861,2.15991,.55176,.79956,.22461,1.53613,.48828,2.20801,.79199,.67212,.30469,1.104,.45605,1.29614,.45605,.25562,0,.47998-.12744,.67188-.38379l.57593,.19189-3.11987,6.33643-.57593-.33643c.06372-.19189,.09595-.36768,.09595-.52783,0-.22363-.27222-.47168-.81616-.74414-.54443-.27148-1.23218-.51953-2.06396-.74414-.83252-.22314-1.76831-.41504-2.80786-.57568-1.04028-.15967-2.05664-.24023-3.0481-.24023-1.15186,0-2.24854,.15234-3.28784,.45605-1.04028,.30469-1.96802,.77637-2.78418,1.41602-.81592,.64062-1.46387,1.43262-1.94385,2.37598-.47998,.94434-.71997,2.07227-.71997,3.38428,0,1.28027,.28784,2.39258,.86377,3.33594,.57617,.94434,1.30371,1.72021,2.18408,2.32812,.87988,.60791,1.86377,1.05566,2.95215,1.34375,1.0874,.28809,2.15991,.43213,3.21582,.43213,1.34399,0,2.55151-.07959,3.62402-.24023,1.07178-.15967,2.10376-.38379,3.09595-.67188v-3.16797h-6.19189Z"/><path class="cls-1" d="M180.1897,7.19971c0-.35156-.11255-.57568-.33618-.67188-.22412-.0957-.46411-.15967-.71997-.19189v-.57617h15.40796c2.40015,0,4.31177,.56055,5.73608,1.68018,1.42358,1.12061,2.13599,2.78418,2.13599,4.99219,0,1.72754-.50391,3.0957-1.51196,4.10352-1.00806,1.0083-2.28003,1.80029-3.81592,2.37598l4.27197,6.43213c.15967,.25635,.39136,.47998,.6958,.67236,.30396,.19189,.63159,.2876,.98413,.2876v.57617h-9.69604v-.57617c.22363,0,.47168-.03955,.74414-.11963,.27148-.07959,.40796-.24756,.40796-.50391,0-.16016-.16797-.55957-.50415-1.2002-.33594-.63965-.71997-1.32764-1.15186-2.06396-.43213-.73584-.84839-1.43994-1.24805-2.1123-.40063-.67188-.64795-1.104-.7439-1.2959h-4.60815v6.43213c0,.35254,.12012,.57617,.36011,.67188,.23999,.09619,.5354,.16064,.88794,.19189v.57617h-8.2561v-.57617c.19214-.03125,.3999-.0957,.62402-.19189,.22363-.0957,.33618-.31934,.33618-.67188V7.19971Zm12.86377,7.77637c1.02393,0,1.83154-.21631,2.42407-.64844,.5918-.43164,.88794-1.07959,.88794-1.94385,0-.73584-.24805-1.35156-.7439-1.84814-.49658-.49561-1.46411-.74365-2.90405-.74365h-6.47998v5.18408h6.81592Z"/><path class="cls-1" d="M218.49292,5.47217c1.50391,0,3.01587,.20801,4.53613,.62354,1.51953,.4165,2.89575,1.06445,4.12793,1.94434,1.23145,.88037,2.23193,2.0083,3,3.38379,.76807,1.37646,1.1521,3.0083,1.1521,4.896,0,1.91992-.38403,3.56055-1.1521,4.91992-.76807,1.36035-1.76855,2.47217-3,3.33594-1.23218,.86426-2.6084,1.48828-4.12793,1.87207-1.52026,.38428-3.03223,.57617-4.53613,.57617-1.50439,0-3.01636-.19189-4.53589-.57617-1.52026-.38379-2.89648-1.00781-4.12793-1.87207-1.23242-.86377-2.23218-1.97559-3-3.33594-.76807-1.35938-1.1521-3-1.1521-4.91992,0-1.8877,.38403-3.51953,1.1521-4.896,.76782-1.37549,1.76758-2.50342,3-3.38379,1.23145-.87988,2.60767-1.52783,4.12793-1.94434,1.51953-.41553,3.03149-.62354,4.53589-.62354Zm0,5.08789c-.89624,0-1.74438,.13721-2.54395,.41016-.80029,.27295-1.50439,.6582-2.11206,1.15625-.60815,.49805-1.07983,1.10107-1.41577,1.80762-.33618,.70703-.50415,1.51074-.50415,2.40967,0,.8999,.16797,1.70361,.50415,2.40967,.33594,.70752,.80762,1.30957,1.41577,1.80762,.60767,.49805,1.31177,.88428,2.11206,1.15723,.79956,.27295,1.64771,.40967,2.54395,.40967,.92798,0,1.78369-.13672,2.56812-.40967,.78369-.27295,1.47974-.65918,2.08789-1.15723,.60767-.49805,1.08008-1.1001,1.41602-1.80762,.33618-.70605,.50415-1.50977,.50415-2.40967,0-.89893-.16797-1.70264-.50415-2.40967-.33594-.70654-.80835-1.30957-1.41602-1.80762-.60815-.49805-1.3042-.8833-2.08789-1.15625-.78442-.27295-1.64014-.41016-2.56812-.41016Z"/><path class="cls-1" d="M236.73267,7.19971c0-.35156-.13647-.57568-.40796-.67188-.27222-.0957-.6001-.15967-.98389-.19189v-.57617h8.63989v.57617c-.1604,.03223-.33594,.09619-.52808,.19189-.19189,.09619-.28784,.32031-.28784,.67188v11.66406c0,1.2168,.43945,2.08789,1.31982,2.61621,.87988,.52783,2.04004,.79199,3.47998,.79199,1.44019,0,2.59961-.26416,3.48022-.79199,.87964-.52832,1.31982-1.39941,1.31982-2.61621V7.19971c0-.35156-.09595-.57568-.28784-.67188-.19214-.0957-.36841-.15967-.52808-.19189v-.57617h8.63989v.57617c-.38379,.03223-.7124,.09619-.98389,.19189-.27222,.09619-.40796,.32031-.40796,.67188v10.56006c0,1.28027-.19214,2.48877-.57617,3.62402-.38379,1.13623-1.00781,2.12842-1.87183,2.97607-.86401,.84814-2.01611,1.50439-3.45605,1.96777-1.43994,.46436-3.21606,.69629-5.32812,.69629-2.11182,0-3.88794-.23193-5.32788-.69629-1.43994-.46338-2.59204-1.11963-3.45605-1.96777-.86401-.84766-1.48804-1.83984-1.87207-2.97607-.38379-1.13525-.57593-2.34375-.57593-3.62402V7.19971Z"/><path class="cls-1" d="M266.82837,7.19971c0-.35156-.10425-.57568-.31201-.67188-.2085-.0957-.35986-.15967-.45605-.19189v-.57617h12.62402c1.18359,0,2.32812,.09619,3.43213,.28809s2.07153,.54443,2.90405,1.05615c.83154,.51221,1.50366,1.20801,2.01587,2.08789,.51147,.88037,.76807,2.02441,.76807,3.43213,0,1.37598-.25659,2.51221-.76807,3.40771-.51221,.89648-1.18433,1.60059-2.01587,2.1123-.83252,.51221-1.80005,.86377-2.90405,1.05566-1.104,.19238-2.24854,.28809-3.43213,.28809h-5.42383v5.95215c0,.35254,.11987,.57617,.35986,.67188,.23999,.09619,.48755,.16064,.74414,.19189v.57617h-8.3042v-.57617c.09619-.03125,.24756-.0957,.45605-.19189,.20776-.0957,.31201-.31934,.31201-.67188V7.19971Zm10.99194,8.25635c1.34399,0,2.30396-.21631,2.88013-.64795,.57593-.43213,.86401-1.15967,.86401-2.18408,0-.9917-.25659-1.71143-.76807-2.16016-.51221-.44775-1.37622-.67188-2.59204-.67188h-4.94385v5.66406h4.55981Z"/></g></g></svg>