<?xml version="1.0" encoding="UTF-8"?><svg id="_レイヤー_2" xmlns="http://www.w3.org/2000/svg" xmlns:xlink="http://www.w3.org/1999/xlink" viewBox="0 0 899.00038 33.78003"><defs><style>.cls-1{clip-path:url(#clippath-1);}.cls-2{fill:#b60005;}.cls-3{stroke:#b60005;stroke-miterlimit:10;stroke-width:7.33109px;}.cls-3,.cls-4{fill:none;}.cls-5{clip-path:url(#clippath);}</style><clipPath id="clippath"><rect class="cls-4" x="658.83975" y="14.10771" width="240.16063" height="13.66117"/></clipPath><clipPath id="clippath-1"><rect class="cls-4" y="14.10771" width="240.16063" height="13.66117"/></clipPath></defs><g id="text"><g><path class="cls-2" d="M303.91702,31.80005c0,.28027,.09009,.51001,.27002,.68994,.18018,.17993,.64966,.3103,1.41016,.39014v.71997h-12.36011v-.71997c.75952-.07983,1.22998-.21021,1.41016-.39014,.17993-.17993,.26978-.40967,.26978-.68994v-11.1001h-15.59985v11.1001c0,.28027,.08984,.51001,.27002,.68994,.17993,.17993,.64966,.3103,1.40991,.39014v.71997h-12.35986v-.71997c.75928-.07983,1.22998-.21021,1.40991-.39014s.27002-.40967,.27002-.68994V3.84009c0-.27954-.09009-.51001-.27002-.68994-.17993-.18018-.65063-.30957-1.40991-.39014v-.71997h12.35986v.71997c-.76025,.08057-1.22998,.20996-1.40991,.39014-.18018,.17993-.27002,.4104-.27002,.68994V13.38013h15.59985V3.84009c0-.27954-.08984-.51001-.26978-.68994-.18018-.18018-.65063-.30957-1.41016-.39014v-.71997h12.36011v.71997c-.7605,.08057-1.22998,.20996-1.41016,.39014-.17993,.17993-.27002,.4104-.27002,.68994V31.80005Z"/><path class="cls-2" d="M336.19705,32.88013c.12012,0,.2793-.01978,.47998-.06006,.19971-.03931,.30005-.19971,.30005-.47998,0-.15942-.07031-.40967-.20996-.75-.14062-.33936-.30005-.70972-.47998-1.11011-.18018-.39941-.37036-.79956-.57007-1.19995-.20068-.39941-.36011-.73975-.47998-1.02002h-13.91992c-.08081,.28027-.21021,.62061-.39014,1.02002-.17993,.40039-.37036,.80054-.57007,1.19995-.20044,.40039-.38062,.77075-.53979,1.11011-.1604,.34033-.23999,.59058-.23999,.75,0,.28027,.09937,.44067,.2998,.47998,.19971,.04028,.36011,.06006,.47998,.06006v.71997h-9v-.71997c.23999,0,.47998-.0498,.72021-.15015,.23999-.09937,.39917-.24927,.47998-.44995,1.19995-2.79932,2.41968-5.56958,3.65991-8.31006,1.23926-2.73926,2.34937-5.21997,3.33008-7.43994,.97949-2.21997,1.78955-4.05933,2.42993-5.52002,.6394-1.45972,.95996-2.28931,.95996-2.48999,0-.35986-.2605-.55957-.78003-.6001v-.71997h12.54004v.71997c-.52026,.04053-.78003,.24023-.78003,.6001,0,.12012,.20996,.65063,.63013,1.59009,.41992,.94019,.96924,2.12061,1.6499,3.54004,.67969,1.42017,1.42969,2.99048,2.25,4.70996,.81934,1.72021,1.63965,3.44067,2.45996,5.15991,.81934,1.72021,1.59009,3.35059,2.31006,4.89014,.71997,1.54028,1.29932,2.83008,1.73999,3.86987,.07959,.20068,.23999,.35059,.47998,.44995,.23999,.10034,.47998,.15015,.71997,.15015v.71997h-9.95996v-.71997Zm-8.04004-19.44019l-4.91992,10.5h9.95996l-5.04004-10.5Z"/><path class="cls-2" d="M382.21658,31.80005c0,.44067,.15942,.71997,.47998,.84009,.31982,.11987,.71997,.20044,1.19995,.23999v.71997h-11.09985v-.71997c.31958,0,.68994-.03955,1.10986-.12012,.42017-.07959,.63013-.30005,.63013-.65991,0-.36011-.44067-1.02954-1.32007-2.01001-.88037-.97974-2.01001-2.18994-3.38989-3.63013-1.38013-1.43994-2.93066-3.04956-4.65015-4.82983-1.72021-1.77954-3.41992-3.66943-5.09985-5.67017l-.12012,.12012v15.71997c0,.44067,.1499,.71997,.44995,.84009,.30005,.11987,.66943,.20044,1.11011,.23999v.71997h-10.26001v-.71997c.39941-.03955,.75-.12012,1.05005-.23999,.2998-.12012,.44995-.39941,.44995-.84009V9c0-.4397-.1604-.71997-.47998-.83984-.32056-.12012-.70044-.19971-1.14014-.24023v-.71997h14.28003v.71997c-.28027,.04053-.56055,.12012-.83984,.24023-.28052,.11987-.42017,.40015-.42017,.83984,0,.08057,.33008,.49023,.98999,1.22998,.66016,.74072,1.50952,1.67065,2.55005,2.79004,1.03979,1.12036,2.19946,2.3606,3.47998,3.71997,1.27979,1.36035,2.55933,2.7207,3.84009,4.08008V9c0-.4397-.1604-.71997-.47998-.83984-.3208-.12012-.71997-.19971-1.19995-.24023v-.71997h10.55981v.71997c-.47998,.04053-.88013,.12012-1.19995,.24023-.32056,.11987-.47998,.40015-.47998,.83984V31.80005Z"/><path class="cls-2" d="M397.09622,.71997c-.6001,.1604-.98999,.34033-1.17017,.54004-.17993,.20068-.29053,.54004-.32983,1.02002l-.30005,12.17993c-.04028,.3208,.04956,.53076,.27002,.63013,.21924,.10034,.48926,.1499,.80981,.1499v.71997h-7.43994v-.71997c.31982,0,.58984-.04956,.81006-.1499,.21948-.09937,.30933-.30933,.27002-.63013l-.41992-12.17993c-.04053-.47998-.15015-.81934-.33008-1.02002-.17993-.19971-.57007-.37964-1.16992-.54004V0h9V.71997Z"/><path class="cls-2" d="M403.33524,24.78003c0,.08057-.01025,.17065-.03003,.27002-.02051,.10034-.03003,.23071-.03003,.38989,0,.40039,.37964,.78003,1.14014,1.14014,.75928,.35986,1.72949,.68994,2.90991,.98999,1.17944,.30005,2.45996,.54004,3.84009,.71997,1.37988,.17993,2.66992,.27002,3.86987,.27002,.36011,0,.84937-.01978,1.46997-.06006,.61963-.03931,1.22998-.1499,1.83008-.33008,.6001-.17993,1.10986-.43945,1.53003-.77979,.41992-.33936,.62988-.81006,.62988-1.41016,0-.79956-.47998-1.36963-1.43994-1.70996-.95996-.33936-2.17041-.6001-3.62988-.78003-1.46069-.17993-3.04053-.36938-4.73999-.57007-1.70068-.19946-3.28052-.54932-4.74023-1.0498-1.46045-.49976-2.66992-1.21973-3.62988-2.16016-.95996-.93921-1.43994-2.25-1.43994-3.92993,0-.91968,.23999-1.90967,.71997-2.96997,.47998-1.05933,1.23926-2.02979,2.28003-2.90991,1.03955-.87939,2.40942-1.60986,4.10986-2.19019,1.69971-.57935,3.76978-.86987,6.20996-.86987,1.44019,0,2.80981,.08057,4.11011,.23999,1.29932,.16016,2.47974,.34033,3.54004,.54004,1.05933,.20044,1.95923,.38062,2.69995,.54004,.73975,.16016,1.26929,.23999,1.59009,.23999,.31958,0,.57935-.09009,.78003-.27002,.19971-.18018,.37964-.33008,.53979-.4502l.66016,.23999-3.6001,7.56006-.78003-.35986c0-.07983,.00952-.18018,.03003-.30005,.01978-.12012,.03003-.23999,.03003-.36011,0-.15918-.23999-.35986-.71997-.59985s-1.11011-.47998-1.88989-.71997c-.78003-.23999-1.6604-.4502-2.64014-.63013-.98071-.17993-1.99023-.27002-3.03003-.27002-.35986,0-.92065,.01025-1.67993,.03003-.76025,.02075-1.52075,.12012-2.28003,.30005-.76025,.17993-1.43066,.44067-2.01001,.78003-.58032,.34033-.86987,.85034-.86987,1.53003,0,.71997,.47998,1.22998,1.43994,1.53003,.95996,.2998,2.16943,.53979,3.62988,.71997,1.45972,.17993,3.03955,.38062,4.73999,.59985,1.69971,.22046,3.27954,.59058,4.73999,1.11011,1.45972,.52026,2.67017,1.27026,3.63013,2.25,.95996,.98047,1.43994,2.35034,1.43994,4.10986,0,1.16064-.2605,2.27075-.78003,3.33008-.52026,1.0603-1.32007,1.99023-2.3999,2.79004-1.08008,.80054-2.45068,1.40991-4.11011,1.83008-1.66016,.41992-3.62988,.62988-5.90991,.62988-1.43994,0-2.90063-.09009-4.38013-.27002-1.48022-.17993-2.84058-.39941-4.07983-.65991-1.24048-.25977-2.27075-.49976-3.09009-.71997-.82031-.21948-1.29004-.33008-1.40991-.33008-.28027,0-.53076,.09009-.75,.27002-.22046,.17993-.43042,.37036-.63013,.57007l-.65991-.18018,2.45996-8.04004,.78003,.36011Z"/><path class="cls-2" d="M470.05496,22.14014c-.3208,0-.54004,.1106-.66016,.32983-.11987,.22046-.20044,.51001-.23999,.87012h-.71997V14.93994h.71997c.07983,.72021,.37964,1.08008,.90015,1.08008h17.69995v.71997c-.64038,.04028-.95996,.38062-.95996,1.02002v9.95996c0,.28027,.03931,.52026,.11987,.71997,.07983,.20068,.27954,.30005,.6001,.30005h.30005v.71997c-5.44043,2.88013-11.88013,4.32007-19.32007,4.32007-2.52002,0-4.94995-.30933-7.29004-.92993-2.34009-.61963-4.40991-1.59009-6.20996-2.91016-1.80005-1.31982-3.25024-2.9895-4.3501-5.01001-1.10059-2.01929-1.6499-4.38916-1.6499-7.10986,0-2.71973,.54932-5.0896,1.6499-7.11011,1.09985-2.01929,2.55005-3.69922,4.3501-5.04004,1.80005-1.3396,3.86987-2.33984,6.20996-3,2.34009-.65991,4.77002-.98999,7.29004-.98999,.99927,0,1.87964,.02075,2.63989,.06006,.75952,.04028,1.5,.12012,2.21997,.23999,.72021,.12012,1.45972,.27002,2.22021,.44995,.75928,.18018,1.65918,.41064,2.69995,.69019,.99927,.28027,1.91992,.61035,2.76001,.98999,.83984,.38062,1.37988,.56982,1.61987,.56982,.31982,0,.6001-.15918,.84009-.47998l.71997,.23999-3.8999,7.92017-.71997-.42017c.07959-.23999,.11987-.45923,.11987-.65991,0-.2793-.34033-.5896-1.02002-.92993-.68066-.33936-1.54028-.64966-2.58008-.93018-1.04053-.2793-2.21045-.51929-3.51001-.71997-1.30029-.19971-2.57056-.2998-3.80981-.2998-1.44019,0-2.81079,.19019-4.11011,.56982-1.30029,.38062-2.45996,.97046-3.47998,1.77002-1.02002,.80078-1.83008,1.79077-2.42993,2.96997-.6001,1.18042-.90015,2.59033-.90015,4.22998,0,1.60034,.36011,2.99072,1.08008,4.17017,.71997,1.18018,1.62939,2.15063,2.72998,2.90991,1.09961,.76025,2.32983,1.32007,3.68994,1.67993,1.35938,.36011,2.7002,.54004,4.02002,.54004,1.68018,0,3.18945-.09937,4.53003-.30005,1.33984-.19971,2.62964-.47998,3.87012-.83984v-3.95996h-7.73999Z"/><path class="cls-2" d="M493.87405,9c0-.4397-.14062-.71997-.42017-.83984-.28027-.12012-.58032-.19971-.8999-.24023v-.71997h19.26001c3,0,5.38965,.70044,7.16992,2.1001,1.77954,1.40063,2.67017,3.47998,2.67017,6.23999,0,2.15991-.63013,3.87012-1.89014,5.12988-1.26001,1.26001-2.84985,2.25-4.77002,2.97021l5.34009,8.03979c.19971,.3208,.48926,.6001,.86987,.84009,.37988,.23999,.78955,.36011,1.22998,.36011v.71997h-12.11987v-.71997c.2793,0,.5896-.0498,.92993-.15015,.33936-.09937,.51001-.30933,.51001-.62988,0-.19971-.20996-.69946-.62988-1.5-.42017-.7998-.90015-1.65942-1.44019-2.58008-.53979-.91968-1.0603-1.80005-1.55981-2.63989-.50073-.84009-.81006-1.38013-.93018-1.62012h-5.76001v8.04004c0,.44067,.15015,.71997,.4502,.84009,.2998,.11987,.66919,.20044,1.10986,.23999v.71997h-10.32007v-.71997c.24023-.03955,.49976-.12012,.78003-.23999,.27954-.12012,.42017-.39941,.42017-.84009V9Zm16.07983,9.71997c1.27979,0,2.28955-.27002,3.03003-.80981,.73975-.54004,1.11011-1.3501,1.11011-2.43018,0-.91968-.3103-1.68921-.92993-2.31006-.62085-.61963-1.83008-.92993-3.63013-.92993h-8.1001v6.47998h8.52002Z"/><path class="cls-2" d="M541.75369,6.84009c1.87964,0,3.76953,.2605,5.66992,.78003,1.89941,.52026,3.61963,1.33032,5.15991,2.42993,1.53955,1.10059,2.79004,2.5105,3.75,4.22998,.96021,1.72021,1.44019,3.76025,1.44019,6.12012,0,2.3999-.47998,4.4502-1.44019,6.1499-.95996,1.70068-2.21045,3.09009-3.75,4.16992-1.54028,1.08008-3.2605,1.86011-5.15991,2.34009-1.90039,.47998-3.79028,.71997-5.66992,.71997-1.88062,0-3.77075-.23999-5.67017-.71997-1.90015-.47998-3.62061-1.26001-5.15991-2.34009-1.54028-1.07983-2.79004-2.46924-3.75-4.16992-.95996-1.69971-1.43994-3.75-1.43994-6.1499,0-2.35986,.47998-4.3999,1.43994-6.12012,.95996-1.71948,2.20972-3.12939,3.75-4.22998,1.53931-1.09961,3.25977-1.90967,5.15991-2.42993,1.89941-.51953,3.78955-.78003,5.67017-.78003Zm0,6.35986c-1.12036,0-2.18066,.17163-3.17993,.51294-1.00049,.34131-1.88086,.823-2.64014,1.44556-.76025,.62256-1.3501,1.37622-1.77002,2.25952-.41992,.88403-.62988,1.88794-.62988,3.01196,0,1.125,.20996,2.12915,.62988,3.01221,.41992,.88403,1.00977,1.63696,1.77002,2.25952,.75928,.62256,1.63965,1.10522,2.64014,1.44653,.99927,.34131,2.05957,.51196,3.17993,.51196,1.15967,0,2.22925-.17065,3.20996-.51196,.97974-.34131,1.84961-.82397,2.61011-1.44653,.75928-.62256,1.34985-1.37549,1.76978-2.25952,.42017-.88306,.63013-1.88721,.63013-3.01221,0-1.12402-.20996-2.12793-.63013-3.01196-.41992-.8833-1.0105-1.63696-1.76978-2.25952-.7605-.62256-1.63037-1.10425-2.61011-1.44556-.98071-.34131-2.05029-.51294-3.20996-.51294Z"/><path class="cls-2" d="M564.55325,9c0-.4397-.17065-.71997-.51001-.83984-.34033-.12012-.75-.19971-1.22998-.24023v-.71997h10.80005v.71997c-.20068,.04053-.41992,.12012-.65991,.24023-.23999,.11987-.36011,.40015-.36011,.83984v14.58008c0,1.52051,.54932,2.60986,1.6499,3.27002,1.09985,.65991,2.55005,.98999,4.3501,.98999s3.24951-.33008,4.3501-.98999c1.09961-.66016,1.6499-1.74951,1.6499-3.27002V9c0-.4397-.11987-.71997-.35986-.83984-.24023-.12012-.46045-.19971-.66016-.24023v-.71997h10.80005v.71997c-.47998,.04053-.89062,.12012-1.22998,.24023-.34033,.11987-.51001,.40015-.51001,.83984v13.19995c0,1.60034-.23999,3.1106-.71997,4.53003-.47998,1.42041-1.26001,2.66064-2.34009,3.71997-1.08008,1.0603-2.52002,1.88062-4.32007,2.46021-1.7998,.58008-4.01978,.86987-6.65991,.86987-2.63989,0-4.85986-.28979-6.65991-.86987-1.80005-.57959-3.23999-1.3999-4.32007-2.46021-1.08008-1.05933-1.86011-2.29956-2.34009-3.71997-.47998-1.41943-.71997-2.92969-.71997-4.53003V9Z"/><path class="cls-2" d="M602.17288,9c0-.4397-.13037-.71997-.39014-.83984-.2605-.12012-.44995-.19971-.56982-.24023v-.71997h15.78003c1.47925,0,2.90991,.12012,4.28979,.36011,1.38013,.23999,2.58936,.68066,3.63013,1.32007,1.03955,.64014,1.87964,1.51025,2.52002,2.60986,.6394,1.10059,.95996,2.53027,.95996,4.29004,0,1.72021-.32056,3.14062-.95996,4.26001-.64038,1.12036-1.48047,2.00073-2.52002,2.63989-1.04077,.64038-2.25,1.08008-3.63013,1.32007-1.37988,.23999-2.81055,.36011-4.28979,.36011h-6.78003v7.43994c0,.44067,.1499,.71997,.44995,.84009,.30005,.11987,.60938,.20044,.92993,.23999v.71997h-10.37988v-.71997c.11987-.03955,.30933-.12012,.56982-.23999,.25977-.12012,.39014-.39941,.39014-.84009V9Zm13.73999,10.32007c1.67993,0,2.87988-.27002,3.59985-.81006,.72021-.54004,1.08008-1.44946,1.08008-2.72998,0-1.23926-.32056-2.1394-.95996-2.69995-.64038-.55981-1.72021-.84009-3.23999-.84009h-6.17993v7.08008h5.69995Z"/></g><g class="cls-5"><g><line class="cls-3" x1="798.71959" y1="-97.14592" x2="659.78375" y2="93.63444"/><line class="cls-3" x1="813.96228" y1="-88.13122" x2="675.02643" y2="102.64913"/><line class="cls-3" x1="829.20499" y1="-79.11652" x2="690.26914" y2="111.66383"/><line class="cls-3" x1="844.44769" y1="-70.10183" x2="705.51185" y2="120.67853"/><line class="cls-3" x1="752.99149" y1="-124.19" x2="614.05565" y2="66.59035"/><line class="cls-3" x1="768.23418" y1="-115.17531" x2="629.29833" y2="75.60505"/><line class="cls-3" x1="783.47689" y1="-106.16061" x2="644.54104" y2="84.61974"/><line class="cls-3" x1="859.69038" y1="-61.08713" x2="720.75454" y2="129.69322"/><line class="cls-3" x1="874.9331" y1="-52.07241" x2="735.99725" y2="138.70794"/><line class="cls-3" x1="890.17579" y1="-43.05772" x2="751.23994" y2="147.72264"/><line class="cls-3" x1="905.41849" y1="-34.04302" x2="766.48264" y2="156.73733"/><line class="cls-3" x1="920.6612" y1="-25.02832" x2="781.72536" y2="165.75203"/><line class="cls-3" x1="935.90389" y1="-16.01363" x2="796.96805" y2="174.76673"/><line class="cls-3" x1="951.14658" y1="-6.99892" x2="812.21074" y2="183.78143"/><line class="cls-3" x1="966.3893" y1="2.01578" x2="827.45345" y2="192.79613"/></g></g><g class="cls-1"><g><line class="cls-3" x1="139.87984" y1="-97.14592" x2=".94399" y2="93.63444"/><line class="cls-3" x1="155.12253" y1="-88.13122" x2="16.18668" y2="102.64913"/><line class="cls-3" x1="170.36524" y1="-79.11652" x2="31.42939" y2="111.66383"/><line class="cls-3" x1="185.60794" y1="-70.10183" x2="46.67209" y2="120.67853"/><line class="cls-3" x1="94.15174" y1="-124.19" x2="-44.78411" y2="66.59035"/><line class="cls-3" x1="109.39443" y1="-115.17531" x2="-29.54142" y2="75.60505"/><line class="cls-3" x1="124.63714" y1="-106.16061" x2="-14.29871" y2="84.61974"/><line class="cls-3" x1="200.85063" y1="-61.08713" x2="61.91478" y2="129.69322"/><line class="cls-3" x1="216.09335" y1="-52.07241" x2="77.1575" y2="138.70794"/><line class="cls-3" x1="231.33604" y1="-43.05772" x2="92.40019" y2="147.72264"/><line class="cls-3" x1="246.57874" y1="-34.04302" x2="107.64289" y2="156.73733"/><line class="cls-3" x1="261.82145" y1="-25.02832" x2="122.8856" y2="165.75203"/><line class="cls-3" x1="277.06414" y1="-16.01363" x2="138.12829" y2="174.76673"/><line class="cls-3" x1="292.30683" y1="-6.99892" x2="153.37098" y2="183.78143"/><line class="cls-3" x1="307.54954" y1="2.01578" x2="168.6137" y2="192.79613"/></g></g></g></svg>