<?xml version="1.0" encoding="UTF-8"?><svg id="_レイヤー_2" xmlns="http://www.w3.org/2000/svg" viewBox="0 0 128.69897 27.2002"><defs><style>.cls-1{fill:#b60005;}</style></defs><g id="text"><g><path class="cls-1" d="M1.3999,1.5c0-.2334-.07495-.4248-.22485-.5752-.15015-.15039-.54224-.25781-1.17505-.3252V0H12.05005V.59961c-.56738,.03418-.94238,.1084-1.125,.22559-.18359,.11719-.27515,.25781-.27515,.4248,0,.06738,.21655,.36719,.65015,.89941,.43262,.53418,1,1.2002,1.69995,2,.69995,.80078,1.49146,1.69238,2.375,2.67578,.88281,.9834,1.7749,1.9668,2.67505,2.94922,.8999,.98438,1.76636,1.91797,2.59985,2.80078,.83276,.88281,1.55005,1.6416,2.15015,2.27441V1.5c0-.56641-.3501-.86621-1.05005-.90039V0h9.1499V.59961c-.63354,.06738-1.0249,.1748-1.17505,.3252-.1499,.15039-.22485,.3418-.22485,.5752V24.7998c0,.2334,.07495,.4248,.22485,.5752,.15015,.14941,.5415,.25879,1.17505,.3252v.59961h-9.5v-.59961c.46655,0,.77515-.05078,.92505-.15039s.2251-.23242,.2251-.40039c0-.09961-.05005-.22461-.15015-.375-.09985-.14941-.31714-.40723-.6499-.77441-.33374-.36621-.82495-.8916-1.4751-1.5752-.6499-.68262-1.50854-1.59961-2.57495-2.75-1.06714-1.15039-2.38354-2.58301-3.94995-4.2998-1.56714-1.7168-3.44995-3.80762-5.65015-6.27539v15.7002c0,.2334,.0752,.4248,.2251,.5752,.1499,.14941,.5415,.25879,1.17505,.3252v.59961H0v-.59961c.63281-.06641,1.0249-.17578,1.17505-.3252,.1499-.15039,.22485-.3418,.22485-.5752V1.5Z"/><path class="cls-1" d="M58.94995,21.89941c.66626,0,1.09985-.41602,1.2998-1.25h.6001v6.55078h-.5c-.16724-.46777-.34229-.73438-.5249-.80078-.18359-.06641-.4751-.09961-.875-.09961h-22.30005v-.59961c.36646-.0332,.69141-.10059,.97485-.2002,.28296-.10059,.42505-.33301,.42505-.7002V5.7998c0-.36621-.14209-.59961-.42505-.7002-.28345-.09961-.6084-.16602-.97485-.2002v-.59961h22.69995c.19995,0,.3999-.06641,.6001-.2002,.19995-.13281,.2998-.43262,.2998-.89941h.6001v6.69922h-.6001c0-.5-.09985-.82422-.2998-.97461-.2002-.15039-.40015-.22461-.6001-.22461h-14.6001v4.0498h9.40015c.19995,0,.3999-.0752,.59985-.22559,.2002-.14941,.30005-.45703,.30005-.9248h.6001v6.5h-.6001c0-.46582-.09985-.77441-.30005-.9248-.19995-.15039-.3999-.22461-.59985-.22461h-9.40015v4.94922h14.2002Z"/><path class="cls-1" d="M73.04932,4.89941c-.2998,0-.59985,.05859-.8999,.17578s-.44995,.3584-.44995,.72461c0,.13379,.08276,.5,.25,1.09961,.16626,.60059,.38281,1.30859,.6499,2.125,.26636,.81738,.55005,1.7002,.8501,2.65039s.59131,1.86719,.875,2.75c.28271,.88379,.53271,1.68359,.75,2.40039,.21631,.7168,.35767,1.24219,.42505,1.57422h.09985c.06641-.36621,.2251-.89941,.4751-1.59961s.54126-1.48242,.875-2.34961c.33276-.86719,.68286-1.77539,1.05005-2.72559,.36621-.9502,.70776-1.8252,1.0249-2.625,.31641-.7998,.57495-1.5,.7749-2.09961,.2002-.60059,.30005-1,.30005-1.2002,0-.36621-.1499-.60742-.44995-.72461s-.6001-.17578-.8999-.17578v-.59961h10.1499v.59961c-.3335,0-.6499,.05859-.94995,.17578s-.44995,.3584-.44995,.72461c0,.09961,.10767,.4502,.32495,1.0498,.21631,.60059,.48267,1.3252,.80005,2.1748,.31641,.85059,.65771,1.77539,1.0249,2.77539,.36646,1,.7251,1.9502,1.07495,2.84961,.3501,.90039,.65015,1.69238,.90015,2.375,.25,.68359,.40771,1.14258,.47485,1.375h.1001c.06641-.36621,.20776-.90723,.42505-1.625,.21631-.71582,.46631-1.50781,.75-2.375,.28271-.86621,.57495-1.75781,.875-2.6748,.2998-.91602,.58276-1.78223,.84985-2.59961,.26636-.81641,.48291-1.52539,.65015-2.125,.16626-.60059,.25-1,.25-1.2002,0-.36621-.15015-.60742-.4502-.72461-.2998-.11719-.61719-.17578-.94995-.17578v-.59961h8.30005v.59961c-.46729,.06738-.76709,.21777-.8999,.4502-.13379,.2334-.26733,.53418-.40015,.90039-.09985,.33301-.31714,1.0166-.6499,2.0498-.33374,1.0332-.73364,2.2334-1.19995,3.59961-.46729,1.36719-.94238,2.80078-1.42505,4.30078-.48364,1.5-.94214,2.8916-1.375,4.1748-.43359,1.2832-.78369,2.3584-1.05005,3.22461-.26709,.86719-.3999,1.35059-.3999,1.4502,0,.33398,.46631,.5498,1.3999,.65039v.59961h-10.55005v-.59961c.96655-.10059,1.44995-.31641,1.44995-.65039,0-.16602-.09985-.5498-.2998-1.15039-.2002-.59961-.4502-1.31641-.75-2.14941-.30005-.83301-.625-1.7334-.9751-2.7002s-.69214-1.88281-1.0249-2.75c-.33374-.86621-.61719-1.63281-.8501-2.2998-.23364-.66699-.38354-1.13281-.44995-1.40039h-.1001c-.06714,.26758-.21704,.7334-.44995,1.40039-.23364,.66699-.51709,1.43359-.8501,2.2998-.3335,.86719-.6748,1.7832-1.0249,2.75s-.67505,1.86719-.9751,2.7002c-.2998,.83301-.5498,1.5498-.75,2.14941-.19995,.60059-.2998,.98438-.2998,1.15039,0,.2002,.125,.3418,.375,.4248,.25,.08398,.55762,.15918,.9248,.22559v.59961h-10.34985v-.59961c.8999-.10059,1.34985-.31641,1.34985-.65039,0-.13281-.1499-.68262-.44995-1.65039-.30005-.96582-.67505-2.14062-1.125-3.52441-.44995-1.38281-.94214-2.88281-1.47485-4.5-.53369-1.61621-1.03369-3.125-1.5-4.52539-.46729-1.39941-.85864-2.59082-1.17505-3.5752-.31714-.98242-.49219-1.55762-.52515-1.72461-.06714-.2666-.1748-.44141-.32495-.52539-.1499-.08203-.30859-.125-.47485-.125v-.59961h8.7998v.59961Z"/><path class="cls-1" d="M107.89917,18.9502c0,.06641-.00879,.1416-.02515,.22461-.01709,.08398-.0249,.19238-.0249,.3252,0,.33301,.31641,.64941,.94995,.9502,.63281,.2998,1.44141,.57422,2.42505,.82422,.98267,.25,2.05005,.4502,3.19995,.60059,1.1499,.14941,2.2251,.22461,3.2251,.22461,.2998,0,.70776-.0166,1.22485-.0498,.51636-.0332,1.02515-.125,1.52515-.27539,.5-.14941,.9248-.36621,1.2749-.64941s.5249-.6748,.5249-1.1748c0-.66699-.3999-1.1416-1.19995-1.42578-.80005-.28223-1.80859-.5-3.0249-.64941-1.21729-.15039-2.53369-.30762-3.94995-.47559-1.41724-.16602-2.73364-.45703-3.9502-.875-1.21704-.41602-2.22485-1.01562-3.0249-1.7998-.80005-.78223-1.19995-1.875-1.19995-3.27441,0-.7666,.19995-1.5918,.59985-2.47559,.40015-.88281,1.03296-1.69141,1.90015-2.4248,.86646-.73242,2.00781-1.3418,3.42505-1.8252,1.41626-.48242,3.14136-.72461,5.1748-.72461,1.2002,0,2.34155,.06738,3.42505,.2002,1.08276,.13281,2.06641,.2832,2.94995,.44922,.88281,.16797,1.63281,.31738,2.25,.4502,.61646,.13379,1.05786,.2002,1.3252,.2002,.26636,0,.48267-.0752,.6499-.22461,.1665-.15039,.31641-.27539,.44995-.375l.55005,.19922-3,6.30078-.6499-.30078c0-.06641,.00781-.14941,.0249-.25,.01636-.09961,.0249-.19922,.0249-.2998,0-.13281-.19995-.2998-.59985-.5-.40015-.2002-.92505-.39941-1.57495-.59961-.65015-.2002-1.38379-.375-2.2002-.52539-.81714-.14941-1.65845-.22461-2.5249-.22461-.30005,0-.76709,.00879-1.3999,.02441-.63379,.01758-1.26733,.10059-1.90015,.25-.63354,.15039-1.19214,.36719-1.67505,.65039-.4834,.2832-.72485,.70898-.72485,1.27539,0,.59961,.3999,1.02441,1.19995,1.27441s1.80786,.4502,3.0249,.60059c1.21655,.14941,2.53296,.31641,3.9502,.5,1.41626,.18359,2.73267,.49219,3.94995,.9248,1.21631,.43359,2.22485,1.05859,3.0249,1.875,.80005,.81738,1.19995,1.95801,1.19995,3.4248,0,.9668-.21704,1.89258-.6499,2.77539-.43359,.88281-1.1001,1.6582-2,2.32422-.8999,.66797-2.04224,1.17578-3.42505,1.52539-1.38354,.34961-3.0249,.52539-4.92505,.52539-1.19995,0-2.41699-.0752-3.6499-.22559-1.23364-.14941-2.36719-.33301-3.3999-.5498-1.03369-.2168-1.89233-.41602-2.5752-.59961-.68359-.18359-1.07495-.27539-1.1748-.27539-.23364,0-.44238,.0752-.625,.22461-.18359,.15039-.35864,.30859-.52515,.47559l-.55005-.15039,2.05005-6.7002,.65015,.30078Z"/></g></g></svg>