<?xml version="1.0" encoding="UTF-8"?><svg id="_レイヤー_2" xmlns="http://www.w3.org/2000/svg" viewBox="0 0 662.33889 82.52879"><defs><style>.cls-1{fill:#3e0005;}</style></defs><g id="text"><g><path class="cls-1" d="M8.43655,10.57214h11.91992c1.17285,0,1.98633-.14355,2.44043-.43164,.45361-.2876,.76904-.87402,.94629-1.75977,.06641-.39844,.27637-.68604,.63086-.86328,.22119-.11035,.43164-.16602,.63086-.16602,.15479,0,.30957,.02246,.46484,.06641,.48682,.17725,.85205,.46484,1.0957,.86328,.17676,.26562,.26562,.56445,.26562,.89648,0,.11084-.01123,.22168-.0332,.33203-.35449,1.57178-.96875,2.62891-1.84277,3.1709-.87451,.54248-2.37402,.81348-4.49902,.81348H8.50295c-3.01074,0-5.03027-.29883-6.05957-.89648s-1.54395-1.81494-1.54395-3.65234V2.63659c0-.44238,.15479-.81885,.46484-1.12891,.30957-.30957,.68604-.46484,1.12891-.46484,.44238,0,.82422,.15527,1.14551,.46484,.3208,.31006,.48145,.68652,.48145,1.12891v1.89258c0,.08887,.02734,.16064,.08301,.21582,.05518,.05566,.12695,.08301,.21582,.08301,6.68457-.59766,12.07471-1.32812,16.16992-2.19141,.19922-.04395,.39844-.06641,.59766-.06641,.30957,0,.6084,.04443,.89648,.13281,.48682,.17725,.90723,.4541,1.26172,.83008,.24316,.28809,.3042,.61426,.18262,.97949-.12207,.36523-.37109,.58105-.74707,.64746-4.91406,.99609-11.02344,1.771-18.32812,2.32422-.22168,0-.33203,.11084-.33203,.33203v1.0957c0,.68652,.25977,1.13477,.78027,1.34473,.52002,.21045,1.69873,.31543,3.53613,.31543ZM3.42287,32.22057c-.4209,0-.78027-.14941-1.0791-.44824s-.44824-.65869-.44824-1.0791v-11.42188c0-.79688,.28223-1.47754,.84668-2.04199s1.24512-.84668,2.04199-.84668H22.04983c.79688,0,1.47754,.28223,2.04199,.84668s.84668,1.24512,.84668,2.04199v11.15625c0,.44238-.15527,.82422-.46484,1.14551-.31006,.3208-.68652,.48145-1.12891,.48145h-.63086c-.26562,0-.49805-.09961-.69727-.29883s-.29883-.44287-.29883-.73047c0-.06641-.04443-.09961-.13281-.09961H5.08303c-.08887,0-.13281,.04395-.13281,.13281,0,.30957-.11084,.58105-.33203,.81348-.22168,.23242-.49805,.34863-.83008,.34863h-.36523Zm18.29492-12.75c0-.22119-.11084-.33203-.33203-.33203H5.28225c-.22168,0-.33203,.11084-.33203,.33203v2.45703c0,.22168,.11035,.33203,.33203,.33203H21.38576c.22119,0,.33203-.11035,.33203-.33203v-2.45703ZM4.95022,27.80456c0,.22168,.11035,.33203,.33203,.33203H21.38576c.22119,0,.33203-.11035,.33203-.33203v-2.65625c0-.22119-.11084-.33203-.33203-.33203H5.28225c-.22168,0-.33203,.11084-.33203,.33203v2.65625Z"/><path class="cls-1" d="M46.58694,13.75964c.42041,.26562,.6582,.61426,.71387,1.0459,.05518,.43164,.02197,.79688-.09961,1.0957-.12207,.29883-.32666,.69189-.61426,1.17871-.06641,.11084-.12207,.18848-.16602,.23242-.79688,1.5498-1.46094,3.11035-1.99219,4.68164-.15527,.4209-.59766,1.79297-1.32812,4.11719-.44287,1.5498-.96289,2.5459-1.56055,2.98828-.88574,.68604-1.80957,.69141-2.77246,.0166s-1.65479-1.54395-2.0752-2.60645c-.7085-1.68213-1.10693-4.33838-1.19531-7.96875-.02246-.79688-.01123-2.18018,.0332-4.15039,.04395-1.96973,.04395-3.35352,0-4.15039,0-.19922-.0332-.54199-.09961-1.0293-.06641-.48682-.11084-.89648-.13281-1.22852-.02246-.33203,.02734-.6748,.14941-1.0293,.12158-.354,.34863-.63086,.68066-.83008,.50879-.26562,1.02344-.28223,1.54395-.0498,.52002,.23242,.83545,.62549,.94629,1.17871,.2876,1.26172,.39844,3.20996,.33203,5.84375-.13281,5.62256,.05518,9.34131,.56445,11.15625,.11035,.35449,.22119,.67529,.33203,.96289,1.21729-3.7627,1.99219-6.05371,2.32422-6.87305,.5752-1.30566,1.20605-2.52344,1.89258-3.65234,.26562-.50879,.61963-.85742,1.0625-1.0459,.44238-.18799,.92969-.14941,1.46094,.11621Zm14.64258,6.80664c.33203,2.23584-.08887,3.59717-1.26172,4.08398-.26562,.11084-.57031,.17188-.91309,.18262-.34326,.01123-.64746-.00537-.91309-.0498-1.0625-.17676-1.68262-.30957-1.85938-.39844-.57568-.17676-1.0293-.42041-1.36133-.73047-.35449-.37598-.40967-.87402-.16602-1.49414,.15479-.39844,.44238-.70801,.86328-.92969,.42041-.19922,1.0625-.22119,1.92578-.06641,.19922,.04443,.3208,.05566,.36523,.0332-.33203-2.96582-1.42773-5.43408-3.28711-7.4043-.35449-.37598-.66406-.71924-.92969-1.0293-.26562-.30957-.49805-.65283-.69727-1.0293-.19922-.37598-.24902-.73584-.14941-1.0791,.09961-.34277,.37061-.64746,.81348-.91309,.61963-.37598,1.28369-.2876,1.99219,.26562,.99609,.7749,1.96973,1.92578,2.92188,3.45312,1.39453,2.16943,2.27979,4.53809,2.65625,7.10547Z"/><path class="cls-1" d="M78.46194,19.40417c-.7749-.77441-1.16211-1.7041-1.16211-2.78906,0-1.08447,.38721-2.01416,1.16211-2.78906,.77441-.77441,1.7041-1.16211,2.78906-1.16211,1.08447,0,2.01416,.3877,2.78906,1.16211,.77441,.7749,1.16211,1.70459,1.16211,2.78906,0,1.08496-.3877,2.01465-1.16211,2.78906-.7749,.7749-1.70459,1.16211-2.78906,1.16211-1.08496,0-2.01465-.38721-2.78906-1.16211Z"/><path class="cls-1" d="M129.81057,14.17468c.29883,.29883,.44824,.65332,.44824,1.0625,0,.40967-.14941,.76367-.44824,1.0625s-.65869,.44824-1.0791,.44824h-4.08398c-.22168,0-.36523,.11084-.43164,.33203-.99609,3.20996-2.43506,5.83301-4.31641,7.86914-.04443,.04443-.06104,.10547-.0498,.18262,.01074,.07764,.0498,.13867,.11621,.18262,2.85547,1.19531,5.26807,2.33545,7.23828,3.41992,.39844,.22168,.63086,.55371,.69727,.99609v.23242c0,.354-.13281,.6748-.39844,.96289-.35449,.37598-.78613,.58643-1.29492,.63086-.11084,.02197-.21045,.0332-.29883,.0332-.4209,0-.80811-.11084-1.16211-.33203-1.97021-1.15137-4.44922-2.37939-7.4375-3.68555-.19922-.08838-.3877-.07715-.56445,.0332-2.92188,1.96973-6.97266,3.41992-12.15234,4.34961-.13281,.02197-.26562,.0332-.39844,.0332-.33203,0-.65332-.07764-.96289-.23242-.4873-.24365-.86328-.57568-1.12891-.99609-.22168-.33203-.25488-.66992-.09961-1.0127,.15479-.34277,.40918-.54785,.76367-.61426,4.40479-.59766,7.90234-1.58252,10.49219-2.95508,.06641-.02197,.09375-.06641,.08301-.13281-.01123-.06641-.03906-.11035-.08301-.13281-1.5498-.59766-3.29834-1.21729-5.24609-1.85938-.08887-.04395-.16602-.02197-.23242,.06641-.17725,.35449-.4541,.60889-.83008,.76367-.22168,.08887-.4541,.13281-.69727,.13281-.13281,0-.27686-.02197-.43164-.06641l-.33203-.06641c-.4209-.11035-.69727-.36523-.83008-.76367-.06641-.17676-.11084-.34277-.13281-.49805,0-.22119,.05518-.44238,.16602-.66406,.95166-1.61572,2.03613-3.58594,3.25391-5.91016,.04395-.06641,.04395-.13281,0-.19922-.04443-.06641-.09961-.09961-.16602-.09961h-5.94336c-.4209,0-.78027-.14941-1.0791-.44824s-.44824-.65283-.44824-1.0625c0-.40918,.14941-.76367,.44824-1.0625s.6582-.44824,1.0791-.44824h7.50391c.22119,0,.38721-.09961,.49805-.29883,.61963-1.28369,1.17285-2.42383,1.66016-3.41992,.22119-.44238,.55322-.77441,.99609-.99609,.2876-.15479,.59766-.23242,.92969-.23242,.15479,0,.30957,.02246,.46484,.06641,.42041,.08887,.71924,.33203,.89648,.73047,.08838,.17725,.13281,.36523,.13281,.56445s-.04443,.39844-.13281,.59766c-.4209,.86328-.86328,1.75977-1.32812,2.68945-.02246,.06641-.0166,.13281,.0166,.19922s.09375,.09961,.18262,.09961h15.07422c.42041,0,.78027,.14941,1.0791,.44824Zm-25.11816-6.92285c-.22168,0-.33203,.09961-.33203,.29883v2.68945c0,.44287-.15527,.82471-.46484,1.14551-.31006,.32129-.68652,.48145-1.12891,.48145-.44287,0-.82471-.16016-1.14551-.48145-.32129-.3208-.48145-.70264-.48145-1.14551v-3.02148c0-.79688,.28223-1.47754,.84668-2.04199s1.24512-.84668,2.04199-.84668h9.13086c.22119,0,.33203-.11035,.33203-.33203v-1.32812c0-.48682,.16016-.89062,.48145-1.21191,.3208-.3208,.71387-.48145,1.17871-.48145s.86328,.16602,1.19531,.49805,.49805,.73047,.49805,1.19531v1.32812c0,.22168,.11035,.33203,.33203,.33203h9.42969c.79688,0,1.47754,.28223,2.04199,.84668s.84668,1.24512,.84668,2.04199v2.95508c0,.4873-.16602,.89111-.49805,1.21191-.33203,.32129-.73047,.48145-1.19531,.48145s-.85791-.16602-1.17871-.49805c-.32129-.33203-.48145-.73047-.48145-1.19531v-2.62305c0-.22119-.11084-.3208-.33203-.29883h-21.11719Zm15.9375,9.82812c.02197-.08838,.01074-.16602-.0332-.23242-.04443-.06641-.11084-.09961-.19922-.09961h-8.30078c-.22168,0-.3877,.09961-.49805,.29883-.68652,1.32812-1.41699,2.72266-2.19141,4.18359-.11084,.17725-.06641,.29883,.13281,.36523,2.32422,.68652,4.5376,1.42773,6.64062,2.22461,.22119,.08887,.40918,.05566,.56445-.09961,1.79297-1.74854,3.08789-3.96191,3.88477-6.64062Z"/><path class="cls-1" d="M148.58694,13.75964c.41992,.26562,.6582,.61426,.71387,1.0459,.05469,.43164,.02148,.79688-.09961,1.0957-.12207,.29883-.32715,.69189-.61426,1.17871-.06641,.11084-.12207,.18848-.16602,.23242-.79688,1.5498-1.46094,3.11035-1.99219,4.68164-.15527,.4209-.59766,1.79297-1.32812,4.11719-.44336,1.5498-.96289,2.5459-1.56055,2.98828-.88574,.68604-1.80957,.69141-2.77246,.0166s-1.65527-1.54395-2.0752-2.60645c-.70898-1.68213-1.10742-4.33838-1.19531-7.96875-.02246-.79688-.01172-2.18018,.0332-4.15039,.04395-1.96973,.04395-3.35352,0-4.15039,0-.19922-.0332-.54199-.09961-1.0293-.06641-.48682-.11133-.89648-.13281-1.22852-.02246-.33203,.02734-.6748,.14941-1.0293,.12109-.354,.34863-.63086,.68066-.83008,.50879-.26562,1.02344-.28223,1.54395-.0498,.51953,.23242,.83496,.62549,.94629,1.17871,.28711,1.26172,.39844,3.20996,.33203,5.84375-.13281,5.62256,.05469,9.34131,.56445,11.15625,.11035,.35449,.2207,.67529,.33203,.96289,1.2168-3.7627,1.99219-6.05371,2.32422-6.87305,.5752-1.30566,1.20605-2.52344,1.89258-3.65234,.26562-.50879,.61914-.85742,1.0625-1.0459,.44238-.18799,.92969-.14941,1.46094,.11621Zm14.64258,6.80664c.33203,2.23584-.08887,3.59717-1.26172,4.08398-.26562,.11084-.57031,.17188-.91309,.18262-.34375,.01123-.64746-.00537-.91309-.0498-1.0625-.17676-1.68262-.30957-1.85938-.39844-.57617-.17676-1.0293-.42041-1.36133-.73047-.35449-.37598-.41016-.87402-.16602-1.49414,.1543-.39844,.44238-.70801,.86328-.92969,.41992-.19922,1.0625-.22119,1.92578-.06641,.19922,.04443,.32031,.05566,.36523,.0332-.33203-2.96582-1.42773-5.43408-3.28711-7.4043-.35449-.37598-.66406-.71924-.92969-1.0293-.26562-.30957-.49805-.65283-.69727-1.0293-.19922-.37598-.24902-.73584-.14941-1.0791,.09961-.34277,.37012-.64746,.81348-.91309,.61914-.37598,1.2832-.2876,1.99219,.26562,.99609,.7749,1.96973,1.92578,2.92188,3.45312,1.39453,2.16943,2.2793,4.53809,2.65625,7.10547Z"/><path class="cls-1" d="M180.46194,19.40417c-.77539-.77441-1.16211-1.7041-1.16211-2.78906,0-1.08447,.38672-2.01416,1.16211-2.78906,.77441-.77441,1.7041-1.16211,2.78906-1.16211,1.08398,0,2.01367,.3877,2.78906,1.16211,.77441,.7749,1.16211,1.70459,1.16211,2.78906,0,1.08496-.3877,2.01465-1.16211,2.78906-.77539,.7749-1.70508,1.16211-2.78906,1.16211-1.08496,0-2.01465-.38721-2.78906-1.16211Z"/><path class="cls-1" d="M229.83498,13.29479c.02148,.26562,0,.50928-.06641,.73047-.17773,.53125-.875,.90771-2.0918,1.12891-.13281,.02246-.37695,.04443-.73047,.06641-.35449,.02246-.55371,.0332-.59766,.0332l-5.74414,.43164c.50879,1.21777,.41992,3.20996-.26562,5.97656-.44336,1.88184-1.20703,3.63037-2.29102,5.24609-1.15137,1.63818-2.55664,2.96582-4.2168,3.98438-.50977,.30957-.8584,.52539-1.0459,.64746-.18848,.12158-.53711,.2876-1.0459,.49805-.50977,.20996-.94629,.27637-1.31152,.19922-.36523-.07764-.68066-.28223-.94629-.61426-.35449-.44287-.46484-.93555-.33203-1.47754,.13281-.54248,.46484-.92383,.99609-1.14551,1.26172-.55322,2.3457-1.21729,3.25391-1.99219,1.90332-1.6377,3.1543-3.81836,3.75195-6.54102,.02148-.06641,.07129-.28223,.14941-.64746,.07715-.36523,.13281-.64746,.16602-.84668s.07129-.44824,.11621-.74707c.04395-.29883,.0498-.56982,.0166-.81348-.0332-.24316-.09473-.45361-.18262-.63086-.35449-.55322-.67578-.81885-.96289-.79688-.4209,.04443-1.0625,.09961-1.92578,.16602-.22168,.02246-.68066,.07227-1.37793,.14941-.69727,.07764-1.22363,.12207-1.57715,.13281-.35449,.01123-.81934,.02246-1.39453,.0332-.57617,.01123-1.0957-.0332-1.56055-.13281s-.9082-.24902-1.32812-.44824c-1.46094-.68604-1.9375-1.54932-1.42773-2.58984,.2207-.44238,.58105-.74121,1.0791-.89648,.49805-.15479,.96777-.08838,1.41113,.19922,.37598,.26562,.89648,.4043,1.56055,.41504,.66406,.01123,1.2168-.0166,1.66016-.08301,.81836-.04395,6.20898-.45361,16.16992-1.22852,.55273-.04395,1.03418,.07227,1.44434,.34863,.40918,.27686,.625,.69189,.64746,1.24512Zm-19.72266-5.3457c-.55371-.11035-.94141-.40918-1.16211-.89648-.22168-.48682-.23242-.97363-.0332-1.46094,.19922-.48682,.5752-.80762,1.12891-.96289,.30957-.02197,.53613-.0332,.68066-.0332,.14355,0,.37598,.04443,.69727,.13281,.32031,.08887,.53613,.14404,.64746,.16602,.2207,.04443,.91797,.06641,2.0918,.06641,1.32812-.04395,4.36035-.354,9.09766-.92969,.81836-.11035,1.32812-.15479,1.52734-.13281,.86328,.15527,1.31641,.68652,1.36133,1.59375,.04395,.90771-.35449,1.4834-1.19531,1.72656-.39844,.11084-.84668,.19385-1.34473,.24902-.49805,.05566-1.05762,.11084-1.67676,.16602-.62012,.05566-1.08496,.10547-1.39453,.14941-1.74902,.19922-2.97168,.33203-3.66895,.39844s-1.73242,.09961-3.10449,.09961c-1.37305,0-2.58984-.11035-3.65234-.33203Zm19.58984-2.62305c.19922,.7085,.01074,1.27295-.56445,1.69336-.57617,.4209-1.14062,.35449-1.69336-.19922-.11133-.13281-.21094-.29883-.29883-.49805-.08887-.19922-.17188-.41504-.24902-.64746-.07812-.23242-.13867-.40381-.18262-.51465-.39844-.95166-.74219-1.59375-1.0293-1.92578-.4873-.55322-.4873-1.12305,0-1.70996,.48633-.58643,1.05078-.70264,1.69336-.34863,.88477,.50928,1.66016,1.89258,2.32422,4.15039Zm3.68555-.73047c.11035,.44287,.02148,.83594-.26562,1.17871-.28809,.34326-.65918,.50928-1.1123,.49805-.4541-.01074-.80273-.21582-1.0459-.61426-.13281-.19922-.27734-.52539-.43164-.97949-.15527-.45361-.25488-.72461-.29883-.81348-.08887-.15479-.44336-.74121-1.0625-1.75977-.37695-.6416-.27148-1.21191,.31543-1.70996,.58594-.49805,1.16699-.52539,1.74316-.08301,.95117,.81934,1.6709,2.24707,2.1582,4.2832Z"/><path class="cls-1" d="M261.17873,10.70495c.06641,4.71484-.24414,9.35254-.92969,13.91211,0,.06641-.0332,.30469-.09961,.71387-.06641,.40967-.11133,.69189-.13281,.84668-.02246,.15527-.06641,.42627-.13281,.81348-.06641,.3877-.12793,.67529-.18262,.86328-.05566,.18848-.13867,.44824-.24902,.78027-.11133,.33203-.22754,.59766-.34863,.79688-.12207,.19922-.26074,.41504-.41504,.64746-.15527,.23242-.33203,.42578-.53125,.58105-1.04102,.88525-2.88867,.79688-5.54492-.26562-.62012-.24365-.97949-.67529-1.0791-1.29492s.05469-1.15088,.46484-1.59375c.40918-.44238,.94629-.5752,1.61035-.39844,.17676,.04443,.40918,.12744,.69727,.24902,.28711,.12207,.50879,.20508,.66406,.24902,.35352,.08887,.70801,.15527,1.0625,.19922,.11035-.22119,.24316-.58643,.39844-1.0957,.77441-3.03223,1.22852-7.78027,1.36133-14.24414-1.08496,.28809-3.06641,.66406-5.94336,1.12891-.44336,2.39062-.98535,4.48242-1.62695,6.27539-1.52734,4.38281-3.63086,7.9248-6.30859,10.625-.28809,.2876-.51465,.49805-.68066,.63086s-.39355,.24902-.68066,.34863c-.28809,.09961-.59766,.10498-.92969,.0166-.35449-.08887-.64746-.27686-.87988-.56445-.23242-.28809-.36035-.63086-.38184-1.0293,0-.22168,.06055-.44824,.18262-.68066,.12109-.23242,.22656-.40381,.31543-.51465,.08789-.11035,.26562-.29297,.53125-.54785,.26562-.25439,.41992-.40381,.46484-.44824,.61914-.6416,1.25-1.4165,1.89258-2.32422,2.05859-2.94385,3.57422-6.71777,4.54883-11.32227-.06641,0-.31055,.0332-.73047,.09961-.4209,.06641-.69238,.10547-.81348,.11621-.12207,.01123-.37109,.0332-.74707,.06641-.37695,.0332-.64746,.04443-.81348,.0332-.16602-.01074-.41016-.02197-.73047-.0332-.32129-.01074-.59277-.04395-.81348-.09961-.22168-.05518-.4541-.13281-.69727-.23242-.24414-.09961-.47656-.21582-.69727-.34863-.81934-.53125-1.18457-1.17285-1.0957-1.92578,.04395-.42041,.24316-.78027,.59766-1.0791,.35352-.29883,.74121-.43701,1.16211-.41504,.26562,0,.60254,.12207,1.0127,.36523,.40918,.24365,.76855,.36523,1.0791,.36523,.41992,0,1.32812-.07715,2.72266-.23242,.06641,0,.1875-.00537,.36523-.0166,.17676-.01074,.30957-.02734,.39844-.0498,.08789-.02197,.17676-.06641,.26562-.13281,.08789-.06641,.14355-.16602,.16602-.29883l.23242-1.66016c.06641-.75244,.14355-1.79297,.23242-3.12109,.02148-.30957-.11621-.78564-.41504-1.42773-.29883-.6416-.38184-1.16211-.24902-1.56055,.19922-.68604,.65234-1.05664,1.36133-1.1123,.70801-.05518,1.26172,.18262,1.66016,.71387,.33203,.37646,.58594,.80811,.76367,1.29492,.17676,.4873,.27051,1.06836,.28223,1.74316,.01074,.67529,.01074,1.20117,0,1.57715-.01172,.37646-.07227,.99609-.18262,1.85938-.11133,.86328-.17773,1.36133-.19922,1.49414,1.48242-.24316,2.49023-.42041,3.02148-.53125,.48633-.06641,.95117-.16602,1.39453-.29883,.13281-.04395,.30957-.13818,.53125-.28223,.2207-.14355,.36523-.23779,.43164-.28223,.79688-.37598,1.55469-.34863,2.27441,.08301,.71875,.43164,1.08984,1.09033,1.1123,1.97559Z"/><path class="cls-1" d="M284.58694,13.75964c.41992,.26562,.6582,.61426,.71387,1.0459,.05469,.43164,.02148,.79688-.09961,1.0957-.12207,.29883-.32715,.69189-.61426,1.17871-.06641,.11084-.12207,.18848-.16602,.23242-.79688,1.5498-1.46094,3.11035-1.99219,4.68164-.15527,.4209-.59766,1.79297-1.32812,4.11719-.44336,1.5498-.96289,2.5459-1.56055,2.98828-.88574,.68604-1.80957,.69141-2.77246,.0166s-1.65527-1.54395-2.0752-2.60645c-.70898-1.68213-1.10742-4.33838-1.19531-7.96875-.02246-.79688-.01172-2.18018,.0332-4.15039,.04395-1.96973,.04395-3.35352,0-4.15039,0-.19922-.0332-.54199-.09961-1.0293-.06641-.48682-.11133-.89648-.13281-1.22852-.02246-.33203,.02734-.6748,.14941-1.0293,.12109-.354,.34863-.63086,.68066-.83008,.50879-.26562,1.02344-.28223,1.54395-.0498,.51953,.23242,.83496,.62549,.94629,1.17871,.28711,1.26172,.39844,3.20996,.33203,5.84375-.13281,5.62256,.05469,9.34131,.56445,11.15625,.11035,.35449,.2207,.67529,.33203,.96289,1.2168-3.7627,1.99219-6.05371,2.32422-6.87305,.5752-1.30566,1.20605-2.52344,1.89258-3.65234,.26562-.50879,.61914-.85742,1.0625-1.0459,.44238-.18799,.92969-.14941,1.46094,.11621Zm14.64258,6.80664c.33203,2.23584-.08887,3.59717-1.26172,4.08398-.26562,.11084-.57031,.17188-.91309,.18262-.34375,.01123-.64746-.00537-.91309-.0498-1.0625-.17676-1.68262-.30957-1.85938-.39844-.57617-.17676-1.0293-.42041-1.36133-.73047-.35449-.37598-.41016-.87402-.16602-1.49414,.1543-.39844,.44238-.70801,.86328-.92969,.41992-.19922,1.0625-.22119,1.92578-.06641,.19922,.04443,.32031,.05566,.36523,.0332-.33203-2.96582-1.42773-5.43408-3.28711-7.4043-.35449-.37598-.66406-.71924-.92969-1.0293-.26562-.30957-.49805-.65283-.69727-1.0293-.19922-.37598-.24902-.73584-.14941-1.0791,.09961-.34277,.37012-.64746,.81348-.91309,.61914-.37598,1.2832-.2876,1.99219,.26562,.99609,.7749,1.96973,1.92578,2.92188,3.45312,1.39453,2.16943,2.2793,4.53809,2.65625,7.10547Z"/><path class="cls-1" d="M321.44241,28.93346c-.59766,.55371-1.32812,.83008-2.19141,.83008s-1.59375-.27637-2.19141-.83008c-.59766-.55322-.89648-1.26172-.89648-2.125s.29883-1.57715,.89648-2.1416,1.32812-.84668,2.19141-.84668,1.59375,.28223,2.19141,.84668,.89648,1.27832,.89648,2.1416-.29883,1.57178-.89648,2.125Zm-1.16211-8.23438c-.28809,.26562-.63086,.39844-1.0293,.39844s-.74219-.13281-1.0293-.39844c-.28809-.26562-.44336-.59766-.46484-.99609l-.89648-11.12305-.0332-1.99219c-.02246-.68604,.20996-1.27246,.69727-1.75977,.48633-.48682,1.06738-.73047,1.74316-.73047,.6748,0,1.25586,.24365,1.74316,.73047,.48633,.4873,.71875,1.07373,.69727,1.75977l-.0332,1.99219-.92969,11.12305c-.02246,.39844-.17773,.73047-.46484,.99609Z"/><path class="cls-1" d="M7.07522,65.55261c1.68213,.62012,1.3833,2.64551-.89648,6.07617-.06641,.11084-.11084,.18848-.13281,.23242-.62012,.92969-1.41699,1.92578-2.39062,2.98828-.22168,.26562-.40967,.46484-.56445,.59766-.68652,.64209-1.40576,.83008-2.1582,.56445-.4873-.17676-.78613-.59766-.89648-1.26172-.11084-.5752,.0332-1.0625,.43164-1.46094,.92969-.92969,1.7373-1.88135,2.42383-2.85547,.84082-1.19531,1.47168-2.36816,1.89258-3.51953,.19922-.55322,.49805-.96289,.89648-1.22852s.86328-.30957,1.39453-.13281Zm12.05273-1.95898c-1.30615,.08887-2.28027,.14404-2.92188,.16602h-.74707c-.09961,0-.18262,.0332-.24902,.09961s-.09961,.16602-.09961,.29883,.00537,.35986,.0166,.68066c.01074,.32129,.0166,.55908,.0166,.71387l.0332,5.2793v4.98047c0,2.08105-.05566,3.44238-.16602,4.08398-.11084,.61963-.42627,1.05664-.94629,1.31152-.52051,.25439-1.10156,.3374-1.74316,.24902-1.50537-.19922-2.98828-.67529-4.44922-1.42773-.59766-.31006-.90234-.79688-.91309-1.46094-.01123-.66406,.25977-1.17285,.81348-1.52734,.22119-.13281,.47021-.20459,.74707-.21582,.27637-.01074,.56445,.02246,.86328,.09961,.29883,.07764,.56982,.16064,.81348,.24902,.24316,.08887,.52539,.20508,.84668,.34863,.3208,.14404,.55859,.23828,.71387,.28223,.06641-2.54541,.05518-7.16064-.0332-13.8457-2.8999,.08887-5.08008,.13281-6.54102,.13281-2.94434,0-4.50488-.73047-4.68164-2.19141-.06641-.44238,.0498-.85742,.34863-1.24512,.29883-.38721,.66943-.61426,1.1123-.68066,.30957-.04395,.70264,.05566,1.17871,.29883,.47559,.24365,.83545,.37646,1.0791,.39844,.95166,.06641,3.05469,.04443,6.30859-.06641,.11035,0,.25977-.00537,.44824-.0166,.18799-.01074,.32617-.0166,.41504-.0166,.08838,0,.16016-.01074,.21582-.0332,.05518-.02197,.08838-.06055,.09961-.11621,.01074-.05518,.0166-.10498,.0166-.14941l-.13281-4.88086c0-.26562-.16064-.49805-.48145-.69727-.32129-.19922-.51465-.34277-.58105-.43164-.28809-.354-.4043-.76367-.34863-1.22852,.05518-.46484,.25977-.85205,.61426-1.16211,.86328-.68604,1.74854-.60303,2.65625,.24902,.90723,.85254,1.40527,1.77637,1.49414,2.77246,.06641,.55371,.11035,1.12354,.13281,1.70996,.02197,.58691,.02734,1.27295,.0166,2.05859-.01123,.78613-.0166,1.37793-.0166,1.77637,2.34619-.13281,4.11719-.25439,5.3125-.36523,1.19531-.08838,2.125-.16602,2.78906-.23242,.73047-.06641,1.29492,.07764,1.69336,.43164,.48682,.44287,.6416,.99072,.46484,1.64355-.17725,.65332-.57568,1.05713-1.19531,1.21191-.4873,.11084-.99609,.19922-1.52734,.26562s-1.18457,.11084-1.95898,.13281c-.7749,.02246-1.28418,.04443-1.52734,.06641Zm7.50391,9.42969c.2876,.4873,.32617,.99609,.11621,1.52734-.21045,.53125-.58105,.87451-1.1123,1.0293-.53125,.13281-.96289,.07227-1.29492-.18262-.33203-.25439-.67529-.66943-1.0293-1.24512-.66406-.99609-1.40576-2.05859-2.22461-3.1875-.24365-.2876-.68066-.76367-1.31152-1.42773s-1.0791-1.18408-1.34473-1.56055c-.31006-.44238-.38184-.95166-.21582-1.52734,.16602-.5752,.51465-.95166,1.0459-1.12891,.15479-.04395,.30957-.06641,.46484-.06641,.15479,0,.29297,.01123,.41504,.0332,.12158,.02246,.24902,.07227,.38184,.14941,.13281,.07764,.24902,.14941,.34863,.21582s.22119,.16602,.36523,.29883c.14355,.13281,.24902,.23828,.31543,.31543,.06641,.07764,.16602,.18848,.29883,.33203,.13281,.14404,.22119,.24902,.26562,.31543,1.68213,1.90381,3.1875,3.94043,4.51562,6.10938Zm-3.91797-15.9375c.19922,.7085,.01074,1.27295-.56445,1.69336-.57568,.4209-1.14014,.35449-1.69336-.19922-.11084-.13281-.21045-.29297-.29883-.48145-.08887-.18799-.17188-.40381-.24902-.64746-.07764-.24316-.13867-.42041-.18262-.53125-.39844-.95166-.7417-1.58252-1.0293-1.89258-.4873-.55322-.4873-1.12891,0-1.72656,.48682-.59766,1.05127-.71924,1.69336-.36523,.88525,.50928,1.66016,1.89258,2.32422,4.15039Zm3.68555-.69727c.11035,.44287,.02197,.83008-.26562,1.16211-.28809,.33203-.65869,.49268-1.1123,.48145-.4541-.01074-.80273-.21582-1.0459-.61426-.13281-.19922-.27686-.52539-.43164-.97949-.15527-.45361-.25488-.72461-.29883-.81348-.08887-.15479-.44287-.74121-1.0625-1.75977-.37646-.6416-.27148-1.21191,.31543-1.70996,.58643-.49805,1.16748-.51465,1.74316-.0498,.95166,.81934,1.6709,2.24707,2.1582,4.2832Z"/><path class="cls-1" d="M44.52834,69.40417c0,.7085-.28223,1.20117-.84668,1.47754-.56445,.27686-1.12891,.27686-1.69336,0-.56445-.27637-.84668-.76904-.84668-1.47754v-12.01953c0-.26562-.17725-.55322-.53125-.86328-.35449-.30957-.56445-.52002-.63086-.63086-.26562-.50879-.28223-1.01807-.0498-1.52734,.23242-.50879,.625-.81885,1.17871-.92969,.86328-.22119,1.71533,.25488,2.55664,1.42773,.5752,.79688,.86328,2.00342,.86328,3.61914v10.92383Zm10.45898-13.14844c.06641,.35449,.11035,.73047,.13281,1.12891,.02197,.39844,.02197,.86914,0,1.41113-.02246,.54248-.0332,.92432-.0332,1.14551v4.74805c0,7.17188-1.92578,12.29639-5.77734,15.37305-1.12891,.92969-2.36865,1.6377-3.71875,2.125-1.5498,.53125-2.5791,.44238-3.08789-.26562-.33203-.4209-.4209-.91309-.26562-1.47754,.15479-.56445,.48682-.94629,.99609-1.14551,.19922-.06641,.48682-.16602,.86328-.29883,.37598-.13281,.6748-.23779,.89648-.31543,.22119-.07715,.48145-.18799,.78027-.33203,.29883-.14355,.58105-.3042,.84668-.48145,3.38672-2.30176,5.06885-6.64062,5.04688-13.01562v-7.60352c0-.53125-.15527-.87402-.46484-1.0293-.81934-.81885-1.05176-1.58252-.69727-2.29102,.50879-.81885,1.0791-1.12891,1.70996-.92969s1.22266,.64746,1.77637,1.34473c.55322,.69727,.88525,1.33398,.99609,1.90918Z"/><path class="cls-1" d="M92.40725,75.57995c.02197,.26562-.01123,.50928-.09961,.73047-.24365,.66406-1.40576,.99609-3.48633,.99609l-5.94336,.19922c-.53125,.02246-1.87598,.06641-4.03418,.13281s-3.81299,.09961-4.96387,.09961c-.4873,0-.87988-.01074-1.17871-.0332-.29883-.02197-.69189-.08838-1.17871-.19922-.4873-.11035-.89648-.29883-1.22852-.56445s-.56445-.61963-.69727-1.0625c-.15527-.53125-.02783-1.02344,.38184-1.47754,.40918-.45361,.90186-.63623,1.47754-.54785,.26562,.04443,.52539,.16602,.78027,.36523,.25439,.19922,.40381,.29883,.44824,.29883,.59766,.02246,1.04004,.02783,1.32812,.0166,.2876-.01074,.73047-.0332,1.32812-.06641s1.05127-.0498,1.36133-.0498l6.04297-.19922c.42041-.06641,.65283-.11035,.69727-.13281,.26562-.73047,.65283-2.92188,1.16211-6.57422l-5.24609,.33203c-.15527,0-.55371,.0332-1.19531,.09961-.64209,.06641-1.15137,.09961-1.52734,.09961-.37646,0-.81348-.0498-1.31152-.14941s-.90234-.28223-1.21191-.54785c-.35449-.26562-.63086-.63623-.83008-1.1123-.19922-.47559-.19922-.92383,0-1.34473,.15479-.354,.45361-.61426,.89648-.78027,.44238-.16602,.86328-.17139,1.26172-.0166,.11035,.06641,.23779,.15527,.38184,.26562,.14355,.11084,.26562,.21045,.36523,.29883,.09961,.08887,.17139,.13281,.21582,.13281,1.04004-.02197,3.85156-.18799,8.43359-.49805,.33203-.02197,.50879-.05518,.53125-.09961,.37598-.33203,.78564-.49805,1.22852-.49805,.37598,0,.73047,.14941,1.0625,.44824s.50879,.64746,.53125,1.0459c.04395,.35449-.01123,.94092-.16602,1.75977-.02246,.11084-.08887,.44824-.19922,1.0127-.11084,.56445-.19922,1.02393-.26562,1.37793l-.83008,4.88086c.37598-.02197,1.22852-.05518,2.55664-.09961,.02197,0,.20996-.01074,.56445-.0332,.97363-.06641,1.62695,.0332,1.95898,.29883,.13281,.11084,.26562,.26562,.39844,.46484s.19922,.44287,.19922,.73047Z"/><path class="cls-1" d="M127.80178,64.92175c.66406-.02197,1.16211,.26025,1.49414,.84668,.33203,.58691,.33203,1.16797,0,1.74316-.35449,.55371-.96289,.81934-1.82617,.79688-12.72803,.22168-19.82227,.29883-21.2832,.23242-.64209-.02197-1.35059-.14941-2.125-.38184-.7749-.23242-1.46094-.61963-2.05859-1.16211-.59766-.54199-.80811-1.16748-.63086-1.87598,.13281-.55322,.46484-.93506,.99609-1.14551,.53125-.20996,1.04004-.17139,1.52734,.11621,.11035,.06641,.29883,.18262,.56445,.34863s.45898,.28223,.58105,.34863c.12158,.06641,.29297,.13867,.51465,.21582,.22119,.07764,.46484,.12744,.73047,.14941,1.04004,.04443,3.67432,.04443,7.90234,0l13.61328-.23242Z"/><path class="cls-1" d="M162.56545,76.37682c.24316,.4873,.28223,.91309,.11621,1.27832s-.41016,.66992-.73047,.91309c-.32129,.24365-.70898,.33203-1.16211,.26562-.4541-.06641-.8252-.2876-1.1123-.66406-.19922-.2876-.44824-.74121-.74707-1.36133-.29883-.61963-.49316-.98486-.58105-1.0957-8.76562,1.15137-14.31055,1.85938-16.63477,2.125-.06641,0-.27148,.02246-.61426,.06641-.34375,.04443-.59277,.07764-.74707,.09961-.75293,.11084-1.5498,.13281-2.39062,.06641-.31055-.02197-.57617-.07715-.79688-.16602-.79688-.30957-1.28418-.75244-1.46094-1.32812-.15527-.55322-.06152-1.05664,.28223-1.51074,.34277-.45361,.80176-.69141,1.37793-.71387,.13281,0,.32031,.05566,.56445,.16602,.24316,.11084,.43164,.16602,.56445,.16602,.44238,0,.78516-.01074,1.0293-.0332,.19922,0,.40918-.16016,.63086-.48145,.2207-.3208,.44238-.73584,.66406-1.24512,.2207-.50879,.34277-.78564,.36523-.83008,.97363-2.01416,1.56055-3.2207,1.75977-3.61914,1.52734-3.1875,2.66699-5.72168,3.41992-7.60352,.30957-.68604,.50879-1.20605,.59766-1.56055,.04395-.39844,.06641-.6084,.06641-.63086,0-.02197-.13281-.18799-.39844-.49805-.31055-.354-.42676-.79688-.34863-1.32812,.07715-.53125,.32617-.92969,.74707-1.19531,.5752-.26562,1.1123-.29297,1.61035-.08301,.49805,.21045,.92383,.57031,1.27832,1.0791,.5752,.7749,.74121,1.771,.49805,2.98828-.11133,.57568-.29395,1.18994-.54785,1.84277-.25488,.65332-.48145,1.21191-.68066,1.67676s-.48145,1.0791-.84668,1.84277-.62598,1.31152-.78027,1.64355c-1.35059,2.98828-2.56836,5.48975-3.65234,7.50391l12.51758-1.59375c-.73047-1.01807-1.40625-1.88135-2.02539-2.58984-.02246-.02197-.25488-.25439-.69727-.69727-.44336-.44238-.71973-.80762-.83008-1.0957-.31055-.84082-.09473-1.51074,.64746-2.00879,.74121-.49805,1.43262-.43701,2.0752,.18262,1.34961,1.26172,2.55078,2.68945,3.60254,4.2832,1.05078,1.59375,2.1748,3.50879,3.37012,5.74414Z"/><path class="cls-1" d="M174.02053,62.66393c.37598,.22168,.61914,.55371,.73047,.99609,.02148,.11084,.0332,.22168,.0332,.33203,0,.33203-.09961,.63086-.29883,.89648-.24414,.35449-.57617,.57568-.99609,.66406h-.29883c-.33203,0-.63086-.08838-.89648-.26562-1.01855-.6416-2.1582-1.23926-3.41992-1.79297-.33203-.15479-.56445-.40918-.69727-.76367-.02246-.13281-.0332-.25439-.0332-.36523,0-.22119,.06641-.44238,.19922-.66406,.24316-.354,.5752-.59766,.99609-.73047,.17676-.06641,.36523-.09961,.56445-.09961,.2207,0,.44238,.04443,.66406,.13281,1.26172,.50928,2.41211,1.0625,3.45312,1.66016Zm-2.02539,17.59766c-.19922,.42041-.52051,.68604-.96289,.79688-.13281,.02197-.26562,.0332-.39844,.0332-.28809,0-.57617-.08887-.86328-.26562-.39844-.24365-.64258-.59766-.73047-1.0625-.02246-.15527-.0332-.29883-.0332-.43164,0-.30957,.07715-.6084,.23242-.89648,1.39453-2.50098,2.72266-5.14648,3.98438-7.93555,.17676-.37598,.44238-.6084,.79688-.69727,.11035-.02197,.23242-.0332,.36523-.0332,.26562,0,.50879,.07764,.73047,.23242,.35352,.28809,.59766,.65332,.73047,1.0957,.04395,.17725,.06641,.35449,.06641,.53125,0,.26562-.05566,.52051-.16602,.76367-1.15137,2.63428-2.40234,5.25732-3.75195,7.86914Zm3.61914-26.29688c.35352,.24365,.55273,.58691,.59766,1.0293v.16602c0,.37646-.12207,.71973-.36523,1.0293-.24414,.31006-.57617,.4873-.99609,.53125h-.16602c-.35449,0-.67578-.11035-.96289-.33203-.92969-.70801-2.02539-1.4165-3.28711-2.125-.33203-.17676-.53711-.44824-.61426-.81348-.07812-.36523,.00488-.69141,.24902-.97949,.28711-.33203,.6416-.54199,1.0625-.63086,.13281-.04395,.26562-.06641,.39844-.06641,.26562,0,.53125,.06641,.79688,.19922,1.26172,.64209,2.35742,1.30615,3.28711,1.99219Zm22.72754,6.60742c.27637,.28809,.41504,.62549,.41504,1.0127,0,.3877-.13867,.71973-.41504,.99609-.27734,.27686-.61426,.41504-1.0127,.41504h-8.16797c-.22168,0-.33203,.11084-.33203,.33203v1.82617c0,.22168,.11035,.33203,.33203,.33203h5.71094c.79688,0,1.47754,.28223,2.04199,.84668s.84668,1.24512,.84668,2.04199v10.625c0,.75244-.08887,1.33887-.26562,1.75977-.17773,.42041-.52051,.74121-1.0293,.96289-.66406,.26562-1.85938,.39844-3.58594,.39844-.37695,0-.71973-.12744-1.0293-.38184-.31055-.25488-.53125-.58105-.66406-.97949-.08887-.31006-.03906-.59766,.14941-.86328,.1875-.26562,.44824-.39844,.78027-.39844,.66406,.02246,1.37207,.0332,2.125,.0332,.2207,0,.37012-.03857,.44824-.11621,.07715-.07715,.11621-.21582,.11621-.41504v-10.39258c0-.22119-.11133-.33203-.33203-.33203h-5.64453c-.22168,0-.33203,.11084-.33203,.33203v5.54492c0,.22168,.11035,.33203,.33203,.33203h1.62695c.2207,0,.33203-.11035,.33203-.33203v-3.25391c0-.26562,.09961-.49805,.29883-.69727s.43164-.29883,.69727-.29883,.49805,.09961,.69727,.29883,.29883,.43164,.29883,.69727v6.3418c0,.28809-.09961,.52588-.29883,.71387-.19922,.18848-.43164,.28223-.69727,.28223s-.49805-.09375-.69727-.28223c-.19922-.18799-.29883-.42578-.29883-.71387v-.26562c0-.11035-.04492-.16602-.13281-.16602h-6.54102c-.15527,0-.23242,.06641-.23242,.19922v.86328c0,.26562-.09473,.49805-.28223,.69727-.18848,.19922-.4209,.29883-.69727,.29883-.27734,0-.50977-.09961-.69727-.29883-.18848-.19922-.28223-.43164-.28223-.69727v-6.97266c0-.26562,.09375-.49805,.28223-.69727,.1875-.19922,.41992-.29883,.69727-.29883,.27637,0,.50879,.09961,.69727,.29883,.1875,.19922,.28223,.43164,.28223,.69727v3.25391c0,.22168,.11035,.33203,.33203,.33203h1.52734c.2207,0,.33203-.11035,.33203-.33203v-5.54492c0-.22119-.11133-.33203-.33203-.33203h-5.37891c-.22168,0-.33203,.11084-.33203,.33203v12.15234c0,.39844-.13867,.73584-.41504,1.0127-.27734,.27637-.60938,.41504-.99609,.41504-.3877,0-.71973-.13867-.99609-.41504-.27734-.27686-.41504-.61426-.41504-1.0127v-12.38477c0-.79688,.28223-1.47754,.84668-2.04199s1.24512-.84668,2.04199-.84668h5.3457c.2207,0,.33203-.11035,.33203-.33203v-1.82617c0-.22119-.11133-.33203-.33203-.33203h-8.03516c-.39844,0-.73633-.13818-1.0127-.41504-.27734-.27637-.41504-.6084-.41504-.99609,0-.38721,.1377-.72461,.41504-1.0127,.27637-.2876,.61426-.43164,1.0127-.43164h3.95117c.2207,0,.33203-.11035,.33203-.33203v-2.52344c0-.22119-.11133-.33203-.33203-.33203h-2.92188c-.37695,0-.69727-.13818-.96289-.41504-.26562-.27637-.39844-.60303-.39844-.97949,0-.37598,.13281-.69727,.39844-.96289s.58594-.39844,.96289-.39844h2.92188c.2207,0,.33203-.11035,.33203-.33203v-1.39453c0-.39844,.1377-.74121,.41504-1.0293,.27637-.2876,.625-.43164,1.0459-.43164,.41992,0,.77441,.14404,1.0625,.43164,.28711,.28809,.43164,.63086,.43164,1.0293v1.39453c0,.22168,.11035,.33203,.33203,.33203h4.71484c.2207,0,.33203-.11035,.33203-.33203v-1.36133c0-.39844,.14355-.74707,.43164-1.0459,.28711-.29883,.6416-.44824,1.0625-.44824,.41992,0,.78027,.15527,1.0791,.46484,.29883,.31006,.44824,.65332,.44824,1.0293v1.36133c0,.22168,.11035,.33203,.33203,.33203h3.05469c.37598,0,.69727,.13281,.96289,.39844s.39844,.58691,.39844,.96289c0,.37646-.13281,.70312-.39844,.97949-.26562,.27686-.58691,.41504-.96289,.41504h-3.05469c-.22168,0-.33203,.11084-.33203,.33203v2.52344c0,.22168,.11035,.33203,.33203,.33203h3.95117c.39844,0,.73535,.14404,1.0127,.43164Zm-13.36426-3.61914c-.22168,0-.33203,.11084-.33203,.33203v2.52344c0,.22168,.11035,.33203,.33203,.33203h4.71484c.2207,0,.33203-.11035,.33203-.33203v-2.52344c0-.22119-.11133-.33203-.33203-.33203h-4.71484Z"/><path class="cls-1" d="M205.66311,80.92565c-.31055,.354-.70898,.58643-1.19531,.69727h-.39844c-.33203,0-.65332-.06641-.96289-.19922-.35449-.17725-.56445-.4541-.63086-.83008v-.23242c0-.28809,.09961-.55371,.29883-.79688,.97363-1.12891,1.87012-2.51221,2.68945-4.15039,.19922-.39844,.49805-.68604,.89648-.86328,.24316-.13281,.49805-.19922,.76367-.19922,.1543,0,.30957,.02246,.46484,.06641,.39844,.11084,.69727,.34326,.89648,.69727,.08789,.19922,.13281,.3877,.13281,.56445,0,.17725-.04492,.35449-.13281,.53125-.81934,1.81543-1.75977,3.38672-2.82227,4.71484Zm20.1875-19.82227c.79688,0,1.47754,.28223,2.04199,.84668s.84668,1.24512,.84668,2.04199v5.41211c0,.79688-.28223,1.47754-.84668,2.04199s-1.24512,.84668-2.04199,.84668h-17.13281c-.79688,0-1.47754-.28223-2.04199-.84668s-.84668-1.24512-.84668-2.04199v-5.41211c0-.79688,.28223-1.47754,.84668-2.04199s1.24512-.84668,2.04199-.84668h6.375c.2207,0,.33203-.11035,.33203-.33203v-8.13477c0-.48682,.1543-.87988,.46484-1.17871,.30957-.29883,.68555-.44824,1.12891-.44824,.44238,0,.82422,.15527,1.14551,.46484,.32031,.31006,.48145,.69727,.48145,1.16211v1.36133c0,.22168,.11035,.33203,.33203,.33203h10.69141c.39844,0,.74121,.14404,1.0293,.43164,.28711,.28809,.43164,.63086,.43164,1.0293s-.14453,.7417-.43164,1.0293c-.28809,.28809-.63086,.43164-1.0293,.43164h-10.69141c-.22168,0-.33203,.09961-.33203,.29883v3.2207c0,.22168,.11035,.33203,.33203,.33203h6.87305Zm-.66406,8.26758c.2207,0,.33203-.11035,.33203-.33203v-4.68164c0-.22119-.11133-.33203-.33203-.33203h-16.00391c-.22168,0-.33203,.11084-.33203,.33203v4.68164c0,.22168,.11035,.33203,.33203,.33203h16.00391Zm-13.38086,7.20508v-.23242c0-.30957,.09961-.59766,.29883-.86328,.24316-.33203,.5752-.50879,.99609-.53125h.16602c.35352,0,.68555,.11084,.99609,.33203,.35352,.24365,.56445,.57568,.63086,.99609,.2207,1.26172,.38672,2.46826,.49805,3.61914v.16602c0,.37598-.13281,.71924-.39844,1.0293-.28809,.354-.65332,.56445-1.0957,.63086h-.16602c-.35449,0-.67578-.12207-.96289-.36523-.33203-.26562-.50977-.62012-.53125-1.0625-.08887-1.17285-.23242-2.4126-.43164-3.71875Zm7.30469-.13281c-.08887-.15479-.13281-.29883-.13281-.43164,0-.19922,.05469-.39844,.16602-.59766,.1543-.33203,.41992-.54199,.79688-.63086,.13281-.02197,.27637-.0332,.43164-.0332,.26562,0,.53125,.05566,.79688,.16602,.37598,.19922,.65234,.4873,.83008,.86328,.5752,1.26172,1.07324,2.50146,1.49414,3.71875,.04395,.15479,.06641,.30957,.06641,.46484,0,.24316-.06641,.48682-.19922,.73047-.22168,.37598-.54297,.61963-.96289,.73047-.13281,.02197-.26562,.0332-.39844,.0332-.26562,0-.53125-.07764-.79688-.23242-.37695-.22168-.62012-.54248-.73047-.96289-.35449-1.19531-.80859-2.46777-1.36133-3.81836Zm7.13867-.36523c-.13281-.22119-.19922-.44238-.19922-.66406,0-.11035,.01074-.23242,.0332-.36523,.11035-.354,.34277-.59766,.69727-.73047,.24316-.08838,.48633-.13281,.73047-.13281,.17676,0,.36523,.02246,.56445,.06641,.41992,.13281,.76367,.37646,1.0293,.73047,1.12891,1.5498,2.05859,2.97754,2.78906,4.2832,.13281,.22168,.19922,.45361,.19922,.69727,0,.15479-.0332,.3208-.09961,.49805-.15527,.42041-.44336,.70801-.86328,.86328-.19922,.08838-.4043,.13281-.61426,.13281-.21094,0-.41504-.04443-.61426-.13281-.4209-.17725-.74219-.46484-.96289-.86328-.68652-1.32812-1.58301-2.78906-2.68945-4.38281Z"/><path class="cls-1" d="M265.0635,65.02136c.37598,2.47949,.06641,4.87549-.92969,7.18848-.99609,2.31348-2.53516,4.17822-4.61523,5.59473-1.94824,1.30615-3.94043,2.10254-5.97656,2.39062-.70898,.11035-1.24023-.08301-1.59375-.58105-.35449-.49805-.42676-1.0459-.21582-1.64355,.20996-.59766,.63574-.96289,1.27832-1.0957,2.21289-.44238,4.12793-1.4165,5.74414-2.92188,1.61523-1.50488,2.58984-3.32031,2.92188-5.44531,.39844-2.7002-.18848-5.00244-1.75977-6.90625-1.46094-1.68213-3.58594-2.64502-6.375-2.88867,.02148,.19922,.0332,.4209,.0332,.66406,0,.81934-.15527,1.64941-.46484,2.49023-.11133,.31006-.17773,.49805-.19922,.56445-.02246,.06641-.09961,.27686-.23242,.63086-.13281,.35449-.19922,.54248-.19922,.56445-.75293,1.99219-1.59375,3.97363-2.52344,5.94336-1.37305,2.85547-2.45703,4.83691-3.25391,5.94336-.28809,.39844-.58691,.76367-.89648,1.0957-1.57227,1.79297-3.35352,1.8374-5.3457,.13281-1.39453-1.19531-2.29102-2.72803-2.68945-4.59863-.39844-1.87012-.38184-3.70752,.0498-5.51172,.43164-1.80371,1.14551-3.46973,2.1416-4.99707,1.52734-2.32422,3.53027-4.02295,6.00977-5.09668,2.47852-1.07324,5.14648-1.47754,8.00195-1.21191s5.30664,1.25635,7.35449,2.97168c2.04688,1.71582,3.29199,3.95703,3.73535,6.72363Zm-14.94141-5.2793c.2207-.99609-.4541-1.17285-2.02539-.53125-.02246,.02246-.28809,.13281-.79688,.33203-1.5498,.7085-2.86719,1.75977-3.95117,3.1543-.99609,1.30615-1.71582,2.78369-2.1582,4.43262-.44336,1.64941-.43164,3.2041,.0332,4.66504,.2207,.84131,.6084,1.53857,1.16211,2.0918,.28711,.31006,.48633,.47607,.59766,.49805,.11035,.02246,.30957-.11035,.59766-.39844,.79688-1.04004,1.71484-2.60059,2.75586-4.68164,2.125-4.33838,3.38672-7.52588,3.78516-9.5625Z"/><path class="cls-1" d="M286.67873,52.96862c0,.19922,.09961,.29883,.29883,.29883h11.55469c.37598,0,.69727,.13281,.96289,.39844s.39844,.59229,.39844,.97949c0,.3877-.13281,.71387-.39844,.97949s-.58691,.39844-.96289,.39844h-26.5625c-.39844,0-.73047-.13281-.99609-.39844s-.39844-.5918-.39844-.97949c0-.38721,.13281-.71387,.39844-.97949s.59766-.39844,.99609-.39844h11.18945c.19922,0,.29883-.09961,.29883-.29883v-1.12891c0-.48682,.1543-.87988,.46484-1.17871,.30957-.29883,.69141-.44824,1.14551-.44824,.45312,0,.83496,.15527,1.14551,.46484,.30957,.31006,.46484,.69727,.46484,1.16211v1.12891Zm9.16406,13.61328c.79688,0,1.48242,.28223,2.05859,.84668,.5752,.56445,.86328,1.24512,.86328,2.04199v8.40039c0,.81934-.11133,1.46094-.33203,1.92578-.22168,.46484-.62012,.81885-1.19531,1.0625-.57617,.22119-1.49414,.37598-2.75586,.46484h-.26562c-.68652,0-1.31738-.22168-1.89258-.66406-.64258-.4873-1.15137-1.11816-1.52734-1.89258-.08887-.19922-.24414-.29883-.46484-.29883h-8.59961c-.11133,0-.16602,.05566-.16602,.16602v.09961c0,.37646-.13281,.69727-.39844,.96289s-.59277,.39844-.97949,.39844c-.3877,0-.71387-.13281-.97949-.39844s-.39844-.58643-.39844-.96289v-4.71484c0-.79688,.28223-1.47754,.84668-2.04199s1.25586-.84668,2.0752-.84668h7.03906c.79688,0,1.48242,.28223,2.05859,.84668,.5752,.56445,.86328,1.24512,.86328,2.04199v4.11719c0,.22168,.11035,.33203,.33203,.33203,.55273,.02246,1.0293,.0332,1.42773,.0332s.71875-.01074,.96289-.0332c.48633-.02197,.79688-.06641,.92969-.13281,.1543-.08838,.23242-.25439,.23242-.49805v-8.26758c0-.22119-.11133-.33203-.33203-.33203h-19.82227c-.22168,0-.33203,.11084-.33203,.33203v10.35938c0,.42041-.14941,.78027-.44824,1.0791s-.66406,.44824-1.0957,.44824-.79688-.14941-1.0957-.44824-.44824-.65869-.44824-1.0791v-10.45898c0-.79688,.28223-1.47754,.84668-2.04199s1.24512-.84668,2.04199-.84668h20.95117Zm-19.72266-6.04297c0-.79688,.28223-1.47754,.84668-2.04199s1.24512-.84668,2.04199-.84668h12.48438c.79688,0,1.47754,.28223,2.04199,.84668s.84668,1.24512,.84668,2.04199v1.32812c0,.79688-.28223,1.47754-.84668,2.04199s-1.24512,.84668-2.04199,.84668h-12.48438c-.79688,0-1.47754-.28223-2.04199-.84668s-.84668-1.24512-.84668-2.04199v-1.32812Zm14.74219,2.05859c.2207,0,.33203-.11035,.33203-.33203v-2.0918c0-.22119-.11133-.33203-.33203-.33203h-11.35547c-.22168,0-.33203,.11084-.33203,.33203v2.0918c0,.22168,.11035,.33203,.33203,.33203h11.35547Zm-2.32422,13.64648c.2207,0,.33203-.11035,.33203-.33203v-2.22461c0-.22119-.11133-.33203-.33203-.33203h-6.64062c-.22168,0-.33203,.11084-.33203,.33203v2.22461c0,.22168,.11035,.33203,.33203,.33203h6.64062Z"/><path class="cls-1" d="M314.37014,68.27526c-.02246-.13281-.11133-.19922-.26562-.19922l-2.0918,.13281c-.22168,.02246-.33203,.14404-.33203,.36523v12.25195c0,.39844-.13867,.73584-.41504,1.0127-.27734,.27637-.60938,.41504-.99609,.41504-.3877,0-.71973-.13867-.99609-.41504-.27734-.27686-.41504-.61426-.41504-1.0127v-12.05273c0-.08838-.0332-.16016-.09961-.21582-.06641-.05518-.14453-.08301-.23242-.08301l-3.41992,.19922h-.09961c-.35449,0-.66406-.12158-.92969-.36523-.33203-.2876-.49805-.65283-.49805-1.0957,0-.30957,.11035-.59766,.33203-.86328,.24316-.2876,.55273-.43164,.92969-.43164l.73047-.0332c.17676-.02197,.30957-.09961,.39844-.23242,.5752-.70801,1.10645-1.42773,1.59375-2.1582,.13281-.19922,.13281-.38721,0-.56445-.81934-1.12891-1.84863-2.32422-3.08789-3.58594-.26562-.26562-.41504-.58105-.44824-.94629s.06055-.69141,.28223-.97949l.13281-.16602c.17676-.24316,.40918-.38184,.69727-.41504,.28711-.0332,.54199,.0498,.76367,.24902,.06641,.04443,.12109,.0332,.16602-.0332,.81836-1.50488,1.54883-3.05469,2.19141-4.64844,.1543-.37598,.41992-.65283,.79688-.83008,.19922-.08838,.39844-.13281,.59766-.13281,.17676,0,.35352,.0332,.53125,.09961,.35352,.15527,.6084,.4209,.76367,.79688,.04395,.15527,.06641,.31006,.06641,.46484,0,.19922-.04492,.40967-.13281,.63086-1.15137,2.14746-2.14746,3.86279-2.98828,5.14648-.11133,.17725-.08887,.35449,.06641,.53125,.48633,.50928,.88477,.96289,1.19531,1.36133,.04395,.06641,.10449,.09424,.18262,.08301,.07715-.01074,.1377-.0498,.18262-.11621,.90723-1.48291,1.71484-2.89941,2.42383-4.25,.17676-.354,.45312-.59766,.83008-.73047,.17676-.06641,.34277-.09961,.49805-.09961,.2207,0,.43164,.05566,.63086,.16602,.33203,.15527,.55273,.40967,.66406,.76367,.04395,.13281,.06641,.26562,.06641,.39844,0,.22168-.06641,.43164-.19922,.63086-2.01465,3.20996-3.87402,5.93262-5.57812,8.16797-.04492,.06641-.0498,.12744-.0166,.18262,.0332,.05566,.08301,.08301,.14941,.08301l3.98438-.16602c.08789-.02197,.14941-.06055,.18262-.11621,.0332-.05518,.03809-.12695,.0166-.21582-.24414-.50879-.4873-.98486-.73047-1.42773-.13281-.26562-.14941-.54785-.0498-.84668s.29297-.50342,.58105-.61426c.30957-.13281,.625-.14355,.94629-.0332,.32031,.11084,.55859,.31006,.71387,.59766,.95117,1.70459,1.68164,3.30957,2.19141,4.81445,.11035,.35449,.08301,.69189-.08301,1.0127-.16602,.32129-.41504,.55908-.74707,.71387-.28809,.13281-.58105,.12744-.87988-.0166-.29883-.14355-.49316-.37061-.58105-.68066-.04492-.17676-.09961-.34277-.16602-.49805Zm-9.36328,3.51953c.04395-.354,.21582-.6416,.51465-.86328,.29883-.22119,.63574-.29883,1.0127-.23242,.35352,.06641,.65234,.25488,.89648,.56445,.1543,.24365,.23242,.49805,.23242,.76367v.26562c-.39844,2.39062-.91895,4.41602-1.56055,6.07617-.11133,.33203-.34375,.55371-.69727,.66406-.35449,.11084-.68652,.07764-.99609-.09961-.33203-.15479-.56445-.40381-.69727-.74707-.13281-.34277-.13281-.68066,0-1.0127,.53125-1.46094,.96289-3.25391,1.29492-5.37891Zm27.06055-10.29297c.30957-.06641,.61914-.04395,.92969,.06641l.49805,.19922c.26562,.11084,.46973,.29346,.61426,.54785,.14355,.25488,.18262,.52588,.11621,.81348-1.0625,4.80371-2.78906,8.83203-5.17969,12.08594-.13281,.17725-.12207,.34326,.0332,.49805,1.39453,1.39453,2.95508,2.50146,4.68164,3.32031,.35352,.17725,.56445,.4541,.63086,.83008,.04395,.08838,.06641,.18799,.06641,.29883,0,.24316-.08887,.48682-.26562,.73047-.28809,.354-.65332,.59766-1.0957,.73047-.17773,.04395-.34375,.07715-.49805,.09961-.26562,0-.52051-.05566-.76367-.16602-1.77148-.95215-3.34277-2.13574-4.71484-3.55273-.15527-.15479-.31055-.15479-.46484,0-1.26172,1.30615-2.65625,2.42383-4.18359,3.35352-.28809,.17676-.57617,.26562-.86328,.26562-.13281,0-.26562-.02246-.39844-.06641-.4209-.08887-.78613-.31006-1.0957-.66406-.26562-.26562-.37695-.58691-.33203-.96289,.04395-.37646,.23242-.65283,.56445-.83008,1.66016-.95166,3.14258-2.10254,4.44922-3.45312,.1543-.15479,.17676-.3208,.06641-.49805-1.43945-2.14697-2.64551-4.73682-3.61914-7.76953,0-.04395-.02246-.06641-.06641-.06641-.04492,0-.06641,.02246-.06641,.06641-.59766,5.55615-2.1582,10.09375-4.68164,13.61328-.22168,.30957-.53125,.47559-.92969,.49805-.04492,.02197-.09961,.0332-.16602,.0332-.33203,0-.63086-.11084-.89648-.33203-.31055-.22168-.49805-.52051-.56445-.89648v-.23242c0-.28809,.07715-.55322,.23242-.79688,.66406-.90723,1.22852-1.85938,1.69336-2.85547,.02148-.02197,.02148-.04395,0-.06641-.02246-.02197-.04492-.0332-.06641-.0332-.15527,.06641-.29883,.09961-.43164,.09961-.22168,0-.44336-.05518-.66406-.16602-.33203-.19922-.55371-.48682-.66406-.86328-.31055-1.08447-.68652-2.21338-1.12891-3.38672-.06641-.13281-.09961-.26562-.09961-.39844-.02246-.17676,.01074-.34277,.09961-.49805,.13281-.2876,.35352-.47559,.66406-.56445,.33203-.11035,.65234-.09961,.96289,.0332,.30957,.13281,.53125,.35449,.66406,.66406,.50879,1.21777,.91797,2.35742,1.22852,3.41992,.02148,.04443,.06055,.07227,.11621,.08301,.05469,.01123,.09375-.0166,.11621-.08301,1.34961-3.51953,2.02539-8.0791,2.02539-13.67969v-4.68164c0-.22119-.11133-.33203-.33203-.33203h-1.29492c-.39844,0-.74219-.13818-1.0293-.41504-.28809-.27637-.43164-.61963-.43164-1.0293,0-.40918,.14355-.75781,.43164-1.0459,.28711-.2876,.63086-.43164,1.0293-.43164h10.35938c.19922-.04395,.39844-.06641,.59766-.06641h.33203l.59766,.09961c.30957,.04443,.54785,.18262,.71387,.41504s.22656,.50391,.18262,.81348c-.28809,1.70459-.71973,3.99561-1.29492,6.87305,0,.08887,.02734,.16602,.08301,.23242,.05469,.06641,.11621,.09961,.18262,.09961h3.32031Zm-10.29297-5.54492c-.22168,0-.33203,.11084-.33203,.33203v1.42773c1.04004,6.46387,2.81055,11.51074,5.3125,15.14062,.04395,.06641,.09961,.09961,.16602,.09961s.13281-.0332,.19922-.09961c1.68164-2.4126,2.93262-5.15723,3.75195-8.23438,.02148-.08838,.00488-.16016-.0498-.21582-.05566-.05518-.12793-.08301-.21582-.08301h-2.58984c-.11133,0-.17773,.05566-.19922,.16602-.06641,.37646-.25488,.67529-.56445,.89648-.26562,.17725-.55371,.26562-.86328,.26562h-.26562c-.37695-.04395-.67578-.22119-.89648-.53125-.15527-.22119-.23242-.46484-.23242-.73047,0-.08838,.01074-.18799,.0332-.29883,.53125-2.52344,1.01758-5.12402,1.46094-7.80273,.02148-.08838,.00488-.16602-.0498-.23242-.05566-.06641-.12793-.09961-.21582-.09961h-4.44922Z"/><path class="cls-1" d="M364.14162,55.12682c.79688,0,1.47754,.28223,2.04199,.84668s.84668,1.24512,.84668,2.04199v19.68945c0,1.771-.50977,2.85547-1.52734,3.25391-.73047,.30957-2.13672,.49805-4.2168,.56445h-.06641c-.44336,0-.85254-.14404-1.22852-.43164-.37695-.31006-.63086-.69727-.76367-1.16211-.04492-.13281-.06641-.26562-.06641-.39844,0-.22119,.06641-.43164,.19922-.63086,.2207-.33203,.51953-.49805,.89648-.49805,.79688,.02246,1.75977,.0332,2.88867,.0332,.50879-.02197,.76367-.2876,.76367-.79688v-19.05859c0-.22119-.11133-.33203-.33203-.33203h-8.89844c-.22168,0-.36523,.11084-.43164,.33203-.02246,.11084-.06641,.25488-.13281,.43164-.06641,.19922,0,.34326,.19922,.43164,2.98828,1.74902,5.32324,3.25391,7.00586,4.51562,.39844,.31006,.59766,.71973,.59766,1.22852,0,.39844-.13281,.75293-.39844,1.0625-.28809,.33203-.66406,.50928-1.12891,.53125h-.09961c-.4209,0-.78613-.13281-1.0957-.39844-1.50586-1.23926-3.54199-2.66699-6.10938-4.2832-.17773-.11035-.32129-.06641-.43164,.13281-1.30664,2.05859-3.19922,3.70801-5.67773,4.94727-.24414,.08887-.47656,.13281-.69727,.13281-.17773,0-.34375-.02197-.49805-.06641-.39844-.13281-.74219-.37598-1.0293-.73047-.24414-.26562-.33203-.56982-.26562-.91309,.06641-.34277,.25391-.5918,.56445-.74707,1.34961-.66406,2.45703-1.43848,3.32031-2.32422,1.0625-1.12891,1.88086-2.45703,2.45703-3.98438,.02148-.06641,.01074-.13281-.0332-.19922-.04492-.06641-.11133-.09961-.19922-.09961h-7.60352c-.22168,0-.33203,.11084-.33203,.33203v21.31641c0,.44238-.15527,.81885-.46484,1.12891-.31055,.30957-.68652,.46484-1.12891,.46484-.44336,0-.81934-.15527-1.12891-.46484-.31055-.31006-.46484-.68652-.46484-1.12891v-21.88086c0-.79688,.28223-1.47754,.84668-2.04199s1.24512-.84668,2.04199-.84668h8.96484c.2207,0,.34277-.11035,.36523-.33203,.11035-.81885,.20996-1.7373,.29883-2.75586,.02148-.48682,.2041-.88525,.54785-1.19531,.34277-.30957,.75781-.46484,1.24512-.46484,.44238,0,.81836,.16602,1.12891,.49805,.26562,.28809,.39844,.64209,.39844,1.0625,0,.39844-.11133,1.35059-.33203,2.85547,0,.08887,.02734,.16602,.08301,.23242,.05469,.06641,.12695,.09961,.21582,.09961h8.86523Zm-3.05469,19.02539c.33203,.28809,.49805,.65869,.49805,1.1123,0,.4541-.16113,.83008-.48145,1.12891-.32129,.29883-.70312,.44824-1.14551,.44824h-.0332c-.44336,0-.83008-.15479-1.16211-.46484-1.35059-1.23926-3.19922-2.7334-5.54492-4.48242-.17773-.13281-.32129-.11035-.43164,.06641-1.37305,2.08105-3.33203,3.72998-5.87695,4.94727-.22168,.11084-.44336,.16602-.66406,.16602-.17773,0-.35449-.0332-.53125-.09961-.39844-.13281-.74219-.38721-1.0293-.76367-.22168-.26562-.29883-.5752-.23242-.92969,.06641-.354,.25391-.59766,.56445-.73047,.84082-.37598,1.60449-.79688,2.29102-1.26172,1.04004-.73047,1.85938-1.54395,2.45703-2.44043s1.0625-1.76514,1.39453-2.60645c.1543-.39844,.28711-.81885,.39844-1.26172,.13281-.48682,.38672-.87402,.76367-1.16211,.37598-.2876,.79688-.43164,1.26172-.43164,.41992,0,.76367,.16602,1.0293,.49805,.19922,.22168,.29883,.47607,.29883,.76367,0,.11084-.01172,.22168-.0332,.33203-.15527,.59766-.32129,1.17334-.49805,1.72656-.06641,.19922-.01172,.36523,.16602,.49805,2.7002,1.8374,4.88086,3.48633,6.54102,4.94727Z"/><path class="cls-1" d="M398.34084,63.72643c.02148,1.01855-.24902,1.83203-.81348,2.44043-.56445,.60889-1.42285,1.23438-2.57324,1.87598-1.26172,.68652-2.21387,1.18457-2.85547,1.49414-.06641,.04443-.15527,.08887-.26562,.13281-.11133,.04443-.18262,.07764-.21582,.09961-.0332,.02246-.06641,.07227-.09961,.14941-.0332,.07764-.0498,.18262-.0498,.31543,0,.06641,.00488,.18262,.0166,.34863,.01074,.16602,.0166,.29346,.0166,.38184v2.22461c0,.24365-.00586,.42627-.0166,.54785-.01172,.12207-.02246,.31006-.0332,.56445-.01172,.25488-.02832,.4541-.0498,.59766-.02246,.14404-.06152,.31543-.11621,.51465-.05566,.19922-.12207,.36523-.19922,.49805-.07812,.13281-.17773,.26025-.29883,.38184-.12207,.12207-.24902,.20508-.38184,.24902-.13281,.04443-.29883,.06641-.49805,.06641s-.4209-.0332-.66406-.09961c-.33203-.11035-.59766-.29883-.79688-.56445s-.32715-.59766-.38184-.99609c-.05566-.39844-.07812-.76367-.06641-1.0957,.01074-.33203,.0332-.73047,.06641-1.19531s.0498-.79688,.0498-.99609c-.88574,.50928-1.54395,.89111-1.97559,1.14551-.43164,.25488-.98535,.63672-1.66016,1.14551-.67578,.50928-1.22363,1.00732-1.64355,1.49414-.26562,.33203-.42676,.64209-.48145,.92969-.05566,.28809,.0166,.52051,.21582,.69727,.19922,.17725,.42578,.34326,.68066,.49805,.25391,.15527,.58105,.27148,.97949,.34863,.39844,.07764,.73047,.13867,.99609,.18262,.26562,.04443,.55273,.07764,.86328,.09961,2.54492,.19922,5.22363,.08887,8.03516-.33203,1.26172-.17676,2.11328-.17676,2.55664,0,.86328,.35449,1.20605,.96289,1.0293,1.82617-.08887,.77441-.69727,1.26172-1.82617,1.46094-.4873,.08838-.8418,.12158-1.0625,.09961-6.33105,.59766-10.625,.43164-12.88281-.49805-1.26172-.55371-2.1416-1.41113-2.63965-2.57324s-.4707-2.38477,.08301-3.66895c.35352-.73047,.90723-1.44971,1.66016-2.1582,.75195-.70801,1.42773-1.25586,2.02539-1.64355,.59766-.38721,1.39453-.86865,2.39062-1.44434,.26562-.15479,.64746-.37061,1.14551-.64746,.49805-.27637,.81348-.45898,.94629-.54785,.28711-.15479,.26562-.6084-.06641-1.36133-.17773-.50879-.46484-.81885-.86328-.92969-.39844-.11035-.8418-.08838-1.32812,.06641-.75293,.15527-1.4502,.4873-2.0918,.99609-.64258,.50928-1.29004,1.10156-1.94238,1.77637-.65332,.67529-1.22363,1.16797-1.70996,1.47754-.39844,.28809-.8584,.37646-1.37793,.26562-.52051-.11035-.90234-.38721-1.14551-.83008-.06641-.13281-.11621-.26562-.14941-.39844s-.05566-.24902-.06641-.34863c-.01172-.09961,.00488-.22119,.0498-.36523,.04395-.14355,.07129-.24902,.08301-.31543,.01074-.06641,.06641-.17676,.16602-.33203,.09961-.15479,.16016-.25439,.18262-.29883,.02148-.04395,.09961-.15479,.23242-.33203l.19922-.29883c1.48242-2.10254,2.97656-4.59277,4.48242-7.4707-1.9707,.13281-3.44238-.0332-4.41602-.49805-.66406-.30957-1.21191-.73584-1.64355-1.27832-.43164-.54199-.53711-1.12305-.31543-1.74316,.19922-.5752,.60254-.92969,1.21191-1.0625,.6084-.13281,1.13379,.01123,1.57715,.43164,.39844,.39844,.75195,.64209,1.0625,.73047,.24316,.04443,.83008,.06641,1.75977,.06641l2.49023-.19922c.24316-.59766,.36523-1.05127,.36523-1.36133,0-.22119-.0498-.53125-.14941-.92969s-.14941-.74707-.14941-1.0459,.09961-.5918,.29883-.87988c.35352-.50879,.84668-.73584,1.47754-.68066,.63086,.05566,1.08984,.34863,1.37793,.87988,.50879,.92969,.66406,2.11426,.46484,3.55273,1.15039-.19922,1.98047-.39844,2.49023-.59766,.11035-.06641,.27051-.17676,.48145-.33203,.20996-.15479,.40332-.25977,.58105-.31543,.17676-.05518,.38672-.06055,.63086-.0166,.79688,.13281,1.23926,.58105,1.32812,1.34473,.08789,.76367-.15527,1.37793-.73047,1.84277-.79688,.64209-2.32422,1.14014-4.58203,1.49414l-1.59375,.23242c-.26562,.55371-.46484,.94092-.59766,1.16211-.35449,.75293-.78613,1.56055-1.29492,2.42383,1.61523-.39844,3.01562-.27637,4.2002,.36523,1.18359,.64209,1.99707,1.75977,2.44043,3.35352,1.17285-.59766,2.125-1.10645,2.85547-1.52734,.44238-.26562,.76367-.47559,.96289-.63086,.06641-.04395,.11035-.09961,.13281-.16602l.0332-.43164c.06641-.6416,.38184-1.0791,.94629-1.31152s1.10645-.20459,1.62695,.08301c.51953,.28809,.79102,.75293,.81348,1.39453Z"/><path class="cls-1" d="M418.52834,69.40417c0,.7085-.28223,1.20117-.84668,1.47754-.56445,.27686-1.12891,.27686-1.69336,0-.56445-.27637-.84668-.76904-.84668-1.47754v-12.01953c0-.26562-.17773-.55322-.53125-.86328-.35449-.30957-.56445-.52002-.63086-.63086-.26562-.50879-.28223-1.01807-.0498-1.52734,.23242-.50879,.625-.81885,1.17871-.92969,.86328-.22119,1.71484,.25488,2.55664,1.42773,.5752,.79688,.86328,2.00342,.86328,3.61914v10.92383Zm10.45898-13.14844c.06641,.35449,.11035,.73047,.13281,1.12891,.02148,.39844,.02148,.86914,0,1.41113-.02246,.54248-.0332,.92432-.0332,1.14551v4.74805c0,7.17188-1.92578,12.29639-5.77734,15.37305-1.12891,.92969-2.36914,1.6377-3.71875,2.125-1.5498,.53125-2.5791,.44238-3.08789-.26562-.33203-.4209-.4209-.91309-.26562-1.47754,.1543-.56445,.48633-.94629,.99609-1.14551,.19922-.06641,.48633-.16602,.86328-.29883,.37598-.13281,.6748-.23779,.89648-.31543,.2207-.07715,.48145-.18799,.78027-.33203,.29883-.14355,.58105-.3042,.84668-.48145,3.38672-2.30176,5.06836-6.64062,5.04688-13.01562v-7.60352c0-.53125-.15527-.87402-.46484-1.0293-.81934-.81885-1.05176-1.58252-.69727-2.29102,.50879-.81885,1.0791-1.12891,1.70996-.92969s1.22266,.64746,1.77637,1.34473c.55273,.69727,.88477,1.33398,.99609,1.90918Z"/><path class="cls-1" d="M467.80178,64.92175c.66406-.02197,1.16211,.26025,1.49414,.84668,.33203,.58691,.33203,1.16797,0,1.74316-.35449,.55371-.96289,.81934-1.82617,.79688-12.72852,.22168-19.82227,.29883-21.2832,.23242-.64258-.02197-1.35059-.14941-2.125-.38184-.77539-.23242-1.46094-.61963-2.05859-1.16211-.59766-.54199-.80859-1.16748-.63086-1.87598,.13281-.55322,.46484-.93506,.99609-1.14551,.53125-.20996,1.04004-.17139,1.52734,.11621,.11035,.06641,.29883,.18262,.56445,.34863s.45898,.28223,.58105,.34863c.12109,.06641,.29297,.13867,.51465,.21582,.2207,.07764,.46484,.12744,.73047,.14941,1.04004,.04443,3.67383,.04443,7.90234,0l13.61328-.23242Z"/><path class="cls-1" d="M500.9053,76.60925c.28711,.4873,.32617,.99609,.11621,1.52734-.21094,.53125-.58105,.86328-1.1123,.99609-.15527,.04443-.30469,.06641-.44824,.06641-.14453,0-.27148-.01074-.38184-.0332-.11133-.02197-.22168-.07178-.33203-.14941-.11133-.07715-.21094-.14355-.29883-.19922-.08887-.05518-.18262-.14941-.28223-.28223s-.17188-.22656-.21582-.28223c-.04492-.05518-.12207-.16602-.23242-.33203-.11133-.16602-.18848-.271-.23242-.31543-1.59375-2.25781-3.51953-4.18359-5.77734-5.77734-.06641-.04395-.16113-.11621-.28223-.21582-.12207-.09961-.21094-.16602-.26562-.19922-.05566-.0332-.12207-.04395-.19922-.0332-.07812,.01123-.16113,.06104-.24902,.14941l-.66406,.79688c-.15527,.15527-.39355,.39844-.71387,.73047-.32129,.33203-.55957,.57568-.71387,.73047-.88574,.84131-1.9375,1.73779-3.1543,2.68945-.92969,.73047-2.03711,1.4834-3.32031,2.25781-.04492,.02246-.29395,.18262-.74707,.48145-.4541,.29883-.77539,.50342-.96289,.61426-.18848,.11035-.46484,.24316-.83008,.39844-.36523,.15479-.68066,.25439-.94629,.29883-.57617,.08838-1.06836-.06641-1.47754-.46484-.41016-.39844-.58105-.87402-.51465-1.42773,.04395-.2876,.1709-.54785,.38184-.78027,.20996-.23242,.38672-.40381,.53125-.51465,.14355-.11035,.42578-.25977,.84668-.44824,.41992-.18799,.65234-.29297,.69727-.31543,2.32422-1.28369,4.38281-2.74463,6.17578-4.38281,3.91797-3.49707,6.93945-7.95752,9.06445-13.38086-1.52734,.26562-3.90723,.58691-7.13867,.96289-.26562,.02246-.74707,.08301-1.44434,.18262s-1.26172,.17725-1.69336,.23242c-.43164,.05566-.92969,.06641-1.49414,.0332s-1.06836-.12695-1.51074-.28223c-.55371-.19922-1.04102-.53125-1.46094-.99609-.4209-.46484-.64258-.96289-.66406-1.49414,0-.44238,.16602-.83545,.49805-1.17871,.33203-.34277,.73047-.52539,1.19531-.54785,.53125,0,.96289,.19922,1.29492,.59766,.19922,.28809,.32031,.43164,.36523,.43164,.19922,.04443,.98438,0,2.35742-.13281,3.54102-.354,6.13086-.66406,7.76953-.92969,1.2832-.22119,2.20215-.45361,2.75586-.69727,1.0625-.44238,1.92578-.34277,2.58984,.29883,.70801,.7085,.79688,1.8374,.26562,3.38672-.39844,1.10693-.875,2.28027-1.42773,3.51953-1.0625,2.34668-2.26953,4.47168-3.61914,6.375,3.32031,2.16943,5.9541,4.84766,7.90234,8.03516Zm1.0625-20.81836c.19922,.7085,.01074,1.27295-.56445,1.69336-.57617,.4209-1.14062,.35449-1.69336-.19922-.11133-.13281-.21094-.29297-.29883-.48145-.08887-.18799-.17188-.40381-.24902-.64746-.07812-.24316-.13867-.42041-.18262-.53125-.39844-.95166-.74219-1.58252-1.0293-1.89258-.4873-.55322-.48145-1.12891,.0166-1.72656s1.05664-.71924,1.67676-.36523c.88477,.50928,1.66016,1.89258,2.32422,4.15039Zm3.71875-.69727c.11035,.44287,.0166,.83008-.28223,1.16211s-.67578,.49268-1.12891,.48145c-.4541-.01074-.80273-.21582-1.0459-.61426-.13281-.19922-.27734-.52539-.43164-.97949-.15527-.45361-.25488-.72461-.29883-.81348-.08887-.15479-.43164-.74121-1.0293-1.75977-.37695-.6416-.27734-1.21191,.29883-1.70996,.5752-.49805,1.15039-.51465,1.72656-.0498,.97363,.81934,1.7041,2.24707,2.19141,4.2832Z"/><path class="cls-1" d="M536.43264,61.40221c.06641,.95215-.39844,1.5166-1.39453,1.69336-.37695,.06641-.62012,.11084-.73047,.13281-.11133,.02246-.3877,.04443-.83008,.06641l-6.97266,.39844h-.54785c-.0332,0-.07227,.0332-.11621,.09961-.04492,.06641-.06641,.16602-.06641,.29883,0,.22168-.02246,.58691-.06641,1.0957-.02246,.4873-.07812,1.19531-.16602,2.125-.15527,1.52734-.35449,2.82227-.59766,3.88477-.59766,2.81152-1.57227,5.11328-2.92188,6.90625-.77539,.99609-1.71582,1.84814-2.82227,2.55664-1.28418,.81885-2.24707,1.0625-2.88867,.73047-.4209-.19922-.70898-.52051-.86328-.96289-.15527-.44287-.12207-.87451,.09961-1.29492,.17676-.354,.6084-.71387,1.29492-1.0791,.68555-.36523,1.0625-.5918,1.12891-.68066,.90723-.70801,1.66504-1.58252,2.27441-2.62305,.6084-1.04004,1.0459-2.25781,1.31152-3.65234s.44824-2.56201,.54785-3.50293c.09961-.94043,.18262-2.16357,.24902-3.66895-4.22852,.19922-6.375,.29883-6.44141,.29883-2.45703,.04443-4.01758-.59766-4.68164-1.92578-.26562-.53125-.26074-1.05127,.0166-1.56055,.27637-.50879,.66895-.80225,1.17871-.87988,.50879-.07715,1.00684,.07227,1.49414,.44824,.2207,.22168,.55273,.38184,.99609,.48145,.44238,.09961,.83008,.13867,1.16211,.11621l6.04297-.36523c.13281,0,.22656-.02734,.28223-.08301,.05469-.05518,.08301-.10498,.08301-.14941v-.23242c.02148-.68604,.02148-1.78174,0-3.28711v-.48145c0-.12158-.00586-.26562-.0166-.43164-.01172-.16602-.03906-.30957-.08301-.43164-.04492-.12158-.10547-.23779-.18262-.34863-.07812-.11035-.18262-.20996-.31543-.29883-.33203-.24316-.55957-.56982-.68066-.97949-.12207-.40918-.09473-.80225,.08301-1.17871,.35352-.70801,.80176-1.04004,1.34473-.99609,.54199,.04443,1.0625,.27148,1.56055,.68066,.49805,.40967,.86816,.85791,1.1123,1.34473,.24316,.44287,.41992,.97949,.53125,1.61035,.11035,.63086,.16602,1.15674,.16602,1.57715,0,.4209-.02246,1.03516-.06641,1.84277-.04492,.80811-.06641,1.34473-.06641,1.61035l7.13867-.39844c.04395,0,.1875-.01074,.43164-.0332,.24316-.02197,.41504-.0332,.51465-.0332h.48145c1.2168,0,1.88086,.52051,1.99219,1.56055Z"/><path class="cls-1" d="M570.23342,55.06042c.1543,.53125,.07129,.99609-.24902,1.39453-.32129,.39844-.71387,.57568-1.17871,.53125-.02246,.06641-.03906,.17725-.0498,.33203-.01172,.15527-.0166,.27686-.0166,.36523-.64258,5.55615-2.63477,10.51465-5.97656,14.875-1.59375,2.08105-3.43164,3.91797-5.51172,5.51172-1.26172,.92969-2.47949,1.7041-3.65234,2.32422-.11133,.06641-.36523,.20459-.76367,.41504-.39844,.20996-.70898,.37061-.92969,.48145-.22168,.11035-.50391,.22656-.84668,.34863-.34375,.12158-.64746,.19336-.91309,.21582-.57617,.04395-1.0459-.14941-1.41113-.58105s-.49316-.92432-.38184-1.47754c.06641-.26562,.19922-.50879,.39844-.73047,.19922-.22119,.39258-.38184,.58105-.48145,.1875-.09961,.46484-.22119,.83008-.36523,.36523-.14355,.61426-.23779,.74707-.28223,2.39062-1.08447,4.58203-2.60059,6.57422-4.54883,1.96973-1.90332,3.60254-4.08398,4.89746-6.54102s2.19629-5.02441,2.70605-7.70312c-1.15137,.06641-3.12695,.21045-5.92676,.43164-2.80078,.22168-4.95312,.37646-6.45801,.46484-.77539,.13281-1.65527,.14404-2.63965,.0332-.98535-.11035-1.78809-.43164-2.40723-.96289-.4209-.48682-.62012-1.00146-.59766-1.54395,.02148-.54199,.27637-.97949,.76367-1.31152,.48633-.33203,1.01758-.34277,1.59375-.0332,.04395,.02246,.1377,.08887,.28223,.19922,.14355,.11084,.25977,.17725,.34863,.19922,.13281,.04443,.47559,.06641,1.0293,.06641,.6416,0,4.86914-.29883,12.68359-.89648h.96289c.1543,0,.31543-.0332,.48145-.09961s.29297-.15479,.38184-.26562c.41992-.50879,.95117-.73047,1.59375-.66406-.31055-.81885-.63086-1.4165-.96289-1.79297-.4873-.55322-.48145-1.12891,.0166-1.72656s1.06738-.70801,1.70996-.33203c.86328,.50928,1.62695,1.89258,2.29102,4.15039Zm3.71875-.73047c.11035,.44287,.0166,.83008-.28223,1.16211s-.67578,.49268-1.12891,.48145c-.4541-.01074-.80273-.20459-1.0459-.58105-.13281-.19922-.27148-.52539-.41504-.97949-.14453-.45361-.23828-.72461-.28223-.81348-.08887-.15479-.44336-.75244-1.0625-1.79297-.37695-.6416-.27148-1.20605,.31543-1.69336,.58594-.48682,1.15625-.50879,1.70996-.06641,.97363,.81934,1.7041,2.24707,2.19141,4.2832Z"/><path class="cls-1" d="M588.29592,59.64245c.28711,.7085,.27637,1.99219-.0332,3.85156-.19922,1.23975-.50977,2.46826-.92969,3.68555-.81934,2.43506-1.94824,4.75928-3.38672,6.97266-.70898,1.12891-1.49414,2.18066-2.35742,3.1543-.04492,.04443-.18848,.21045-.43164,.49805-.15527,.17725-.4873,.54248-.99609,1.0957-.8418,.88525-1.66016,1.17285-2.45703,.86328-.44336-.17725-.75293-.47559-.92969-.89648-.17773-.86328,.12109-1.66016,.89648-2.39062,1.81445-1.68213,3.3584-3.71875,4.63184-6.10938,1.27246-2.39062,2.1416-4.8252,2.60645-7.30469,.13281-.90723,.20996-1.57129,.23242-1.99219,0-.08838-.0498-.16016-.14941-.21582-.09961-.05518-.23242-.10498-.39844-.14941-.16602-.04395-.26074-.07715-.28223-.09961-.37695-.22119-.62598-.5752-.74707-1.0625-.12207-.48682-.0498-.91846,.21582-1.29492,.41992-.61963,.93457-.89648,1.54395-.83008,.6084,.06641,1.20605,.32666,1.79297,.78027,.58594,.4541,.97949,.93555,1.17871,1.44434Zm16.33594,1.26172c.41992,.11084,.73047,.32129,.92969,.63086,.19922,.31006,.29297,.63672,.28223,.97949-.01172,.34326-.08301,.74707-.21582,1.21191s-.27148,.86914-.41504,1.21191c-.14453,.34326-.31543,.70312-.51465,1.0791-.08887,.15527-.14453,.26562-.16602,.33203-.8418,1.8374-2.02539,3.77441-3.55273,5.81055-.26562,.35449-.48145,.63086-.64746,.83008s-.48145,.58105-.94629,1.14551-.86328,1.01855-1.19531,1.36133c-.33203,.34326-.75879,.75293-1.27832,1.22852-.52051,.47607-.97949,.81348-1.37793,1.0127s-.81348,.36523-1.24512,.49805-.83008,.09961-1.19531-.09961-.66992-.54199-.91309-1.0293c-.15527-.30957-.26074-.71924-.31543-1.22852-.05566-.50879-.06152-1.14551-.0166-1.90918,.04395-.76367,.06641-1.20068,.06641-1.31152v-11.25586c0-.08838,.0166-.25439,.0498-.49805,.0332-.24316,.0498-.46484,.0498-.66406s-.04492-.354-.13281-.46484c-.04492-.11035-.29395-.39844-.74707-.86328-.4541-.46484-.63086-.94629-.53125-1.44434s.37012-.88525,.81348-1.16211c.44238-.27637,.90723-.3374,1.39453-.18262,.73047,.24365,1.33301,.75293,1.80957,1.52734,.47559,.7749,.71387,1.56055,.71387,2.35742v13.48047c1.96973-1.92578,3.69629-4.16113,5.17969-6.70703,.81836-1.43848,1.42773-2.7998,1.82617-4.08398,.50879-1.46094,1.27246-2.05859,2.29102-1.79297Z"/><path class="cls-1" d="M618.67678,75.28112c.73047,.37646,1.05664,.91895,.97949,1.62695-.07812,.7085-.36035,1.41699-.84668,2.125-.4873,.70801-.99609,1.19531-1.52734,1.46094-.59766,.30957-1.10742,.37598-1.52734,.19922-.4209-.17725-.77539-.42627-1.0625-.74707-.28809-.32129-.52051-.76367-.69727-1.32812-.17773-.56445-.31055-1.0791-.39844-1.54395-.37695-2.16895-.39844-4.80322-.06641-7.90234,.17676-1.57129,.29883-2.65039,.36523-3.2373,.06641-.58643,.21582-1.66553,.44824-3.2373,.23242-1.57129,.38184-2.64502,.44824-3.2207,.1543-1.32812,.16602-2.45703,.0332-3.38672-.06641-.53125,.01074-1.00146,.23242-1.41113,.2207-.40918,.59766-.6582,1.12891-.74707,.41992-.06641,.78516-.02734,1.0957,.11621,.30957,.14404,.53125,.39844,.66406,.76367s.2373,.7251,.31543,1.0791c.07715,.35449,.11035,.7915,.09961,1.31152-.01172,.52051-.02832,.91309-.0498,1.17871-.02246,.26562-.05566,.59766-.09961,.99609-.08887,.92969-.31055,2.5957-.66406,4.99707-.35449,2.40186-.59277,4.46045-.71387,6.17578-.12207,1.71582-.11621,3.39258,.0166,5.03027,.53125-.48682,1.13965-.58643,1.82617-.29883Zm20.25391,1.66016c.04395,.88574-.33203,1.4834-1.12891,1.79297-.44336,.15527-1.0625,.26562-1.85938,.33203-.15527,.02246-.36035,.03906-.61426,.0498-.25488,.01123-.42676,.0166-.51465,.0166-2.28027,.06641-4.47168-.08838-6.57422-.46484-2.47949-.42041-4.22852-1.28369-5.24609-2.58984-.55371-.73047-.92969-1.63232-1.12891-2.70605-.19922-1.07324-.06641-2.01953,.39844-2.83887,.50879-.73047,1.18359-.92969,2.02539-.59766,.84082,.33203,1.19531,.94092,1.0625,1.82617-.26562,1.771,.6084,2.91113,2.62305,3.41992,1.79297,.39844,3.96191,.57568,6.50781,.53125,.1543,0,.55273-.0332,1.19531-.09961,.6416-.06641,1.12891-.09961,1.46094-.09961,1.12891,0,1.72656,.47607,1.79297,1.42773Zm-13.08203-15.33984c-.4873,.28809-.99121,.32129-1.51074,.09961-.52051-.22119-.84668-.59766-.97949-1.12891-.22168-.90723,.26562-1.64893,1.46094-2.22461,2.3457-1.15088,5.01367-1.81494,8.00195-1.99219,1.66016-.08838,2.83301,.11084,3.51953,.59766,.99609,.7749,1.37207,1.74902,1.12891,2.92188-.11133,.57568-.33789,1.05713-.68066,1.44434-.34375,.3877-.79199,.57031-1.34473,.54785-.53125-.04395-.95801-.2876-1.27832-.73047-.32129-.44238-.41504-.91846-.28223-1.42773-1.30664-.04395-2.70605,.09961-4.2002,.43164s-2.77246,.81934-3.83496,1.46094Z"/><path class="cls-1" d="M661.44241,78.93346c-.59766,.55371-1.32812,.83008-2.19141,.83008s-1.59375-.27637-2.19141-.83008c-.59766-.55322-.89648-1.26172-.89648-2.125s.29883-1.57715,.89648-2.1416,1.32812-.84668,2.19141-.84668,1.59375,.28223,2.19141,.84668,.89648,1.27832,.89648,2.1416-.29883,1.57178-.89648,2.125Zm-1.16211-8.23438c-.28809,.26562-.63086,.39844-1.0293,.39844s-.74219-.13281-1.0293-.39844c-.28809-.26562-.44336-.59766-.46484-.99609l-.89648-11.12305-.0332-1.99219c-.02246-.68604,.20996-1.27246,.69727-1.75977,.48633-.48682,1.06738-.73047,1.74316-.73047,.6748,0,1.25586,.24365,1.74316,.73047,.48633,.4873,.71875,1.07373,.69727,1.75977l-.0332,1.99219-.92969,11.12305c-.02246,.39844-.17773,.73047-.46484,.99609Z"/></g></g></svg>