<?xml version="1.0" encoding="UTF-8"?><svg id="_レイヤー_2" xmlns="http://www.w3.org/2000/svg" viewBox="0 0 290.42145 99.83187"><defs><style>.cls-1{fill:#3e0005;}</style></defs><g id="text"><g><path class="cls-1" d="M6.69975,8.39562h9.46582c.93164,0,1.57764-.11426,1.93799-.34277,.35986-.22803,.61035-.69434,.75146-1.39746,.05273-.31641,.21973-.54443,.50098-.68555,.17529-.08789,.34277-.13184,.50098-.13184,.12256,0,.24609,.01758,.36914,.05273,.38623,.14111,.67627,.36914,.87012,.68555,.14062,.21094,.21094,.44824,.21094,.71191,0,.08838-.00928,.17578-.02637,.26367-.28125,1.24854-.76904,2.0874-1.46338,2.51807-.69482,.43115-1.88525,.646-3.57275,.646H6.75249c-2.39062,0-3.99463-.2373-4.81201-.71191s-1.22607-1.44092-1.22607-2.90039V2.09386c0-.35156,.12256-.6499,.36914-.89648,.24609-.24609,.54443-.36914,.89648-.36914,.35156,0,.65479,.12305,.90967,.36914,.25439,.24658,.38232,.54492,.38232,.89648v1.50293c0,.07031,.02197,.12793,.06592,.17139,.04346,.04395,.10107,.06592,.17139,.06592,5.30859-.47461,9.58838-1.05469,12.84082-1.74023,.1582-.03516,.31641-.05273,.47461-.05273,.24609,0,.4834,.03564,.71191,.10547,.38623,.14111,.7207,.36035,1.00195,.65918,.19336,.22852,.24121,.48779,.14502,.77783-.09668,.29004-.29443,.46143-.59326,.51416-3.90234,.79102-8.75391,1.40674-14.55469,1.8457-.17578,0-.26367,.08838-.26367,.26367v.87012c0,.54492,.20654,.90088,.61963,1.06787,.4126,.16748,1.34863,.25049,2.80811,.25049ZM2.71831,25.58703c-.33398,0-.61963-.11865-.85693-.35596s-.35596-.52344-.35596-.85693V15.30383c0-.63281,.22412-1.17334,.67236-1.62158s.98877-.67236,1.62158-.67236h13.71094c.63281,0,1.17334,.22412,1.62158,.67236s.67236,.98877,.67236,1.62158v8.85938c0,.35156-.12305,.65479-.36914,.90967-.24658,.25439-.54492,.38232-.89648,.38232h-.50098c-.21094,0-.39551-.0791-.55371-.2373s-.2373-.35205-.2373-.58008c0-.05273-.03564-.0791-.10547-.0791H4.03667c-.07031,0-.10547,.03516-.10547,.10547,0,.24609-.08838,.46143-.26367,.646-.17578,.18457-.39551,.27686-.65918,.27686h-.29004Zm14.52832-10.125c0-.17529-.08838-.26367-.26367-.26367H4.19487c-.17578,0-.26367,.08838-.26367,.26367v1.95117c0,.17578,.08789,.26367,.26367,.26367h12.78809c.17529,0,.26367-.08789,.26367-.26367v-1.95117ZM3.9312,22.08019c0,.17578,.08789,.26367,.26367,.26367h12.78809c.17529,0,.26367-.08789,.26367-.26367v-2.10938c0-.17529-.08838-.26367-.26367-.26367H4.19487c-.17578,0-.26367,.08838-.26367,.26367v2.10938Z"/><path class="cls-1" d="M34.91948,10.92687c.3335,.21094,.52295,.48779,.56689,.83057,.04346,.34277,.01709,.63281-.0791,.87012-.09668,.2373-.25977,.5498-.48779,.93604-.05273,.08838-.09668,.14941-.13184,.18457-.63281,1.23047-1.16016,2.46973-1.58203,3.71777-.12305,.33398-.47461,1.42383-1.05469,3.26953-.35205,1.23047-.76465,2.02148-1.23926,2.37305-.70312,.54443-1.43701,.54932-2.20166,.01318s-1.31445-1.22607-1.64795-2.06982c-.56299-1.33545-.87939-3.44482-.94922-6.32812-.01758-.63281-.00928-1.73096,.02637-3.2959,.03516-1.56445,.03516-2.66309,0-3.2959,0-.1582-.02637-.43066-.0791-.81738-.05273-.38623-.08838-.71191-.10547-.97559-.01758-.26367,.02197-.53613,.11865-.81738,.09619-.28076,.27686-.50098,.54053-.65918,.4043-.21094,.81299-.22412,1.22607-.03955,.4126,.18457,.66309,.49707,.75146,.93604,.22803,1.00195,.31641,2.54883,.26367,4.64062-.10547,4.46533,.04346,7.41846,.44824,8.85938,.08789,.28125,.17529,.53662,.26367,.76465,.96631-2.98828,1.58203-4.80762,1.8457-5.45801,.45703-1.03711,.95801-2.00391,1.50293-2.90039,.21094-.4043,.4917-.68115,.84375-.83057,.35156-.14893,.73828-.11865,1.16016,.09229Zm11.62793,5.40527c.26367,1.77588-.07031,2.85693-1.00195,3.24316-.21094,.08838-.45264,.13623-.7251,.14502-.27295,.00928-.51416-.00391-.7251-.03955-.84375-.14062-1.33594-.24609-1.47656-.31641-.45752-.14062-.81738-.3335-1.08105-.58008-.28125-.29883-.32568-.69434-.13184-1.18652,.12256-.31641,.35156-.5625,.68555-.73828,.3335-.1582,.84375-.17529,1.5293-.05273,.1582,.03564,.25439,.04395,.29004,.02637-.26367-2.35547-1.13379-4.31494-2.61035-5.87988-.28125-.29883-.52734-.5708-.73828-.81738-.21094-.24609-.39551-.51807-.55371-.81738-.1582-.29883-.19775-.58398-.11865-.85693,.0791-.27246,.29395-.51416,.646-.7251,.4917-.29883,1.01904-.22803,1.58203,.21094,.79102,.61572,1.56445,1.5293,2.32031,2.74219,1.10742,1.72314,1.81006,3.60352,2.10938,5.64258Z"/><path class="cls-1" d="M53.48198,15.40929c-.61572-.61523-.92285-1.35352-.92285-2.21484,0-.86084,.30713-1.59912,.92285-2.21484,.61523-.61523,1.35352-.92285,2.21484-.92285,.86084,0,1.59912,.30762,2.21484,.92285,.61523,.61572,.92285,1.354,.92285,2.21484,0,.86133-.30762,1.59961-.92285,2.21484-.61572,.61572-1.354,.92285-2.21484,.92285-.86133,0-1.59961-.30713-2.21484-.92285Z"/><path class="cls-1" d="M87.50884,11.25646c.2373,.2373,.35596,.51855,.35596,.84375,0,.32568-.11865,.60645-.35596,.84375s-.52344,.35596-.85693,.35596h-3.24316c-.17578,0-.29004,.08838-.34277,.26367-.79102,2.54883-1.93408,4.63184-3.42773,6.24902-.03564,.03564-.04883,.0835-.03955,.14502,.00879,.06201,.03955,.10986,.09229,.14502,2.26758,.94922,4.18311,1.85498,5.74805,2.71582,.31641,.17578,.50098,.43945,.55371,.79102v.18457c0,.28076-.10547,.53613-.31641,.76465-.28125,.29883-.62402,.46533-1.02832,.50098-.08838,.01709-.16748,.02637-.2373,.02637-.33398,0-.64209-.08838-.92285-.26367-1.56494-.91406-3.5332-1.88916-5.90625-2.92676-.1582-.06982-.30762-.06152-.44824,.02637-2.32031,1.56445-5.53711,2.71582-9.65039,3.4541-.10547,.01709-.21094,.02637-.31641,.02637-.26367,0-.51855-.06201-.76465-.18457-.38672-.19385-.68555-.45752-.89648-.79102-.17578-.26367-.20215-.53174-.0791-.8042,.12256-.27246,.3252-.43506,.60645-.48779,3.49756-.47461,6.27539-1.25635,8.33203-2.34668,.05273-.01709,.07471-.05273,.06592-.10547-.00928-.05273-.03076-.08789-.06592-.10547-1.23047-.47461-2.61963-.96631-4.16602-1.47656-.07031-.03516-.13184-.01709-.18457,.05273-.14111,.28125-.36035,.48389-.65918,.60645-.17578,.07031-.36035,.10547-.55371,.10547-.10547,0-.22021-.01709-.34277-.05273l-.26367-.05273c-.33398-.08789-.55371-.29004-.65918-.60645-.05273-.14062-.08838-.27246-.10547-.39551,0-.17529,.04346-.35156,.13184-.52734,.75537-1.28271,1.61719-2.84766,2.58398-4.69336,.03516-.05273,.03516-.10547,0-.1582-.03564-.05273-.0791-.0791-.13184-.0791h-4.71973c-.33398,0-.61963-.11865-.85693-.35596s-.35596-.51807-.35596-.84375c0-.3252,.11865-.60645,.35596-.84375s.52295-.35596,.85693-.35596h5.95898c.17529,0,.30713-.0791,.39551-.2373,.4917-1.01904,.93164-1.9248,1.31836-2.71582,.17529-.35156,.43896-.61523,.79102-.79102,.22803-.12256,.47461-.18457,.73828-.18457,.12256,0,.24609,.01758,.36914,.05273,.3335,.07031,.5708,.26367,.71191,.58008,.06982,.14111,.10547,.29004,.10547,.44824s-.03564,.31641-.10547,.47461c-.33398,.68555-.68555,1.39746-1.05469,2.13574-.01758,.05273-.01318,.10547,.01318,.1582s.07471,.0791,.14502,.0791h11.9707c.3335,0,.61963,.11865,.85693,.35596Zm-19.94678-5.49756c-.17578,0-.26367,.0791-.26367,.2373v2.13574c0,.35205-.12305,.65527-.36914,.90967-.24658,.25488-.54492,.38232-.89648,.38232-.35205,0-.65527-.12744-.90967-.38232-.25488-.25439-.38232-.55762-.38232-.90967v-2.39941c0-.63281,.22412-1.17334,.67236-1.62158s.98877-.67236,1.62158-.67236h7.25098c.17529,0,.26367-.08789,.26367-.26367v-1.05469c0-.38623,.12744-.70752,.38232-.9624,.25439-.25439,.56689-.38232,.93604-.38232s.68555,.13184,.94922,.39551,.39551,.58008,.39551,.94922v1.05469c0,.17578,.08789,.26367,.26367,.26367h7.48828c.63281,0,1.17334,.22412,1.62158,.67236s.67236,.98877,.67236,1.62158v2.34668c0,.38672-.13184,.70801-.39551,.9624-.26367,.25488-.58008,.38232-.94922,.38232s-.68164-.13184-.93604-.39551c-.25488-.26367-.38232-.58008-.38232-.94922v-2.08301c0-.17529-.08838-.25439-.26367-.2373h-16.76953Zm12.65625,7.80469c.01709-.06982,.00879-.13184-.02637-.18457-.03564-.05273-.08838-.0791-.1582-.0791h-6.5918c-.17578,0-.30762,.0791-.39551,.2373-.54492,1.05469-1.125,2.16211-1.74023,3.32227-.08838,.14111-.05273,.2373,.10547,.29004,1.8457,.54492,3.60303,1.13379,5.27344,1.7666,.17529,.07031,.3252,.04395,.44824-.0791,1.42383-1.38818,2.45215-3.14648,3.08496-5.27344Z"/><path class="cls-1" d="M100.856,10.92687c.3335,.21094,.52295,.48779,.56689,.83057,.04346,.34277,.01709,.63281-.0791,.87012-.09668,.2373-.25977,.5498-.48779,.93604-.05273,.08838-.09668,.14941-.13184,.18457-.63281,1.23047-1.16016,2.46973-1.58203,3.71777-.12305,.33398-.47461,1.42383-1.05469,3.26953-.35205,1.23047-.76465,2.02148-1.23926,2.37305-.70312,.54443-1.43701,.54932-2.20166,.01318s-1.31445-1.22607-1.64795-2.06982c-.56299-1.33545-.87939-3.44482-.94922-6.32812-.01758-.63281-.00928-1.73096,.02637-3.2959,.03516-1.56445,.03516-2.66309,0-3.2959,0-.1582-.02637-.43066-.0791-.81738-.05273-.38623-.08838-.71191-.10547-.97559-.01758-.26367,.02197-.53613,.11865-.81738,.09619-.28076,.27686-.50098,.54053-.65918,.4043-.21094,.81299-.22412,1.22607-.03955,.4126,.18457,.66309,.49707,.75146,.93604,.22803,1.00195,.31641,2.54883,.26367,4.64062-.10547,4.46533,.04346,7.41846,.44824,8.85938,.08789,.28125,.17529,.53662,.26367,.76465,.96631-2.98828,1.58203-4.80762,1.8457-5.45801,.45703-1.03711,.95801-2.00391,1.50293-2.90039,.21094-.4043,.4917-.68115,.84375-.83057,.35156-.14893,.73828-.11865,1.16016,.09229Zm11.62793,5.40527c.26367,1.77588-.07031,2.85693-1.00195,3.24316-.21094,.08838-.45264,.13623-.7251,.14502-.27295,.00928-.51416-.00391-.7251-.03955-.84375-.14062-1.33594-.24609-1.47656-.31641-.45752-.14062-.81738-.3335-1.08105-.58008-.28125-.29883-.32568-.69434-.13184-1.18652,.12256-.31641,.35156-.5625,.68555-.73828,.3335-.1582,.84375-.17529,1.5293-.05273,.1582,.03564,.25439,.04395,.29004,.02637-.26367-2.35547-1.13379-4.31494-2.61035-5.87988-.28125-.29883-.52734-.5708-.73828-.81738-.21094-.24609-.39551-.51807-.55371-.81738-.1582-.29883-.19775-.58398-.11865-.85693,.0791-.27246,.29395-.51416,.646-.7251,.4917-.29883,1.01904-.22803,1.58203,.21094,.79102,.61572,1.56445,1.5293,2.32031,2.74219,1.10742,1.72314,1.81006,3.60352,2.10938,5.64258Z"/><path class="cls-1" d="M119.4185,15.40929c-.61572-.61523-.92285-1.35352-.92285-2.21484,0-.86084,.30713-1.59912,.92285-2.21484,.61523-.61523,1.35352-.92285,2.21484-.92285,.86084,0,1.59912,.30762,2.21484,.92285,.61523,.61572,.92285,1.354,.92285,2.21484,0,.86133-.30762,1.59961-.92285,2.21484-.61572,.61572-1.354,.92285-2.21484,.92285-.86133,0-1.59961-.30713-2.21484-.92285Z"/><path class="cls-1" d="M151.87651,10.55773c.01758,.21094,0,.40479-.05273,.58008-.14062,.42188-.69434,.72119-1.66113,.89648-.10547,.01758-.29883,.03564-.58008,.05273-.28125,.01758-.43945,.02637-.47461,.02637l-4.56152,.34277c.4043,.9668,.33398,2.54883-.21094,4.74609-.35156,1.49414-.95801,2.8833-1.81934,4.16602-.91406,1.30127-2.03027,2.35547-3.34863,3.16406-.4043,.24609-.68164,.41748-.83105,.51416-.14941,.09619-.42578,.22803-.83008,.39551-.4043,.16699-.75195,.21973-1.04102,.1582-.29102-.06201-.54102-.22412-.75195-.48779-.28125-.35205-.36914-.74268-.26367-1.17334,.10547-.43115,.36914-.73389,.79102-.90967,1.00195-.43896,1.86328-.96631,2.58398-1.58203,1.51172-1.30078,2.50488-3.03223,2.97949-5.19434,.01758-.05273,.05664-.22412,.11816-.51416s.10547-.51416,.13281-.67236c.02539-.1582,.05664-.35596,.0918-.59326s.03906-.45215,.01367-.646c-.02734-.19336-.0752-.35986-.14551-.50098-.28125-.43896-.53613-.6499-.76465-.63281-.33398,.03564-.84375,.0791-1.5293,.13184-.17578,.01758-.54102,.05713-1.09375,.11865-.55469,.06201-.97168,.09668-1.25293,.10547-.28125,.00928-.65039,.01758-1.10742,.02637-.45703,.00928-.87012-.02637-1.23926-.10547s-.7207-.19775-1.05469-.35596c-1.16016-.54443-1.53809-1.22998-1.13379-2.05664,.17578-.35156,.46191-.58887,.85645-.71191,.39648-.12256,.76953-.06982,1.12109,.1582,.29883,.21094,.71191,.3208,1.23926,.32959,.52734,.00928,.9668-.01318,1.31836-.06592,.65039-.03516,4.93066-.35986,12.84082-.97559,.43945-.03516,.82129,.05713,1.14648,.27686,.3252,.22021,.49707,.5498,.51465,.98877Zm-15.66211-4.24512c-.43945-.08789-.74707-.3252-.92285-.71191-.17578-.38623-.18457-.77344-.02637-1.16016,.1582-.38623,.45703-.6416,.89648-.76465,.24609-.01709,.42578-.02637,.54004-.02637s.29883,.03564,.55469,.10547c.25391,.07031,.42578,.11475,.51367,.13184,.17578,.03564,.72949,.05273,1.66113,.05273,1.05469-.03516,3.46289-.28076,7.22461-.73828,.65039-.08789,1.05469-.12256,1.21289-.10547,.68555,.12305,1.0459,.54492,1.08105,1.26562,.03516,.72119-.28125,1.17773-.94922,1.37109-.31641,.08838-.67188,.1543-1.06836,.19775-.39453,.04395-.83887,.08838-1.33105,.13184-.49219,.04395-.86133,.0835-1.10742,.11865-1.38867,.1582-2.36035,.26367-2.91309,.31641-.55469,.05273-1.37598,.0791-2.46582,.0791s-2.05664-.08789-2.90039-.26367Zm15.55664-2.08301c.1582,.56299,.00879,1.01123-.44824,1.34473-.45703,.33398-.90527,.28125-1.34473-.1582-.08789-.10547-.16699-.2373-.2373-.39551s-.13672-.32959-.19727-.51416c-.0625-.18457-.11035-.32031-.14551-.40869-.31641-.75537-.58887-1.26562-.81738-1.5293-.38672-.43896-.38672-.89209,0-1.35791,.38672-.46533,.83496-.55762,1.34473-.27686,.70312,.40479,1.31836,1.50293,1.8457,3.2959Zm2.92676-.58008c.08789,.35205,.01758,.66357-.21094,.93604-.22852,.27295-.52344,.40479-.88281,.39551-.36133-.00879-.6377-.17139-.83105-.48779-.10547-.1582-.21973-.41748-.34277-.77783-.12305-.35986-.20215-.57568-.2373-.646-.07031-.12256-.35156-.58887-.84375-1.39746-.29883-.50977-.21582-.9624,.25098-1.35791,.46484-.39551,.92676-.41748,1.38379-.06592,.75586,.65039,1.32715,1.78418,1.71387,3.40137Z"/><path class="cls-1" d="M173.51323,8.50109c.05273,3.74414-.19336,7.42676-.73828,11.04785,0,.05273-.02637,.2417-.0791,.56689-.05273,.32568-.08789,.5498-.10547,.67236-.01758,.12305-.05273,.33887-.10547,.646-.05273,.30762-.10156,.53662-.14453,.68555-.04492,.14941-.11035,.35596-.19824,.61963s-.18066,.47461-.27637,.63281c-.09766,.1582-.20703,.32959-.33008,.51416s-.26367,.33838-.42188,.46143c-.82617,.70264-2.29395,.63281-4.40332-.21094-.49219-.19385-.77832-.53662-.85645-1.02832-.08008-.4917,.04297-.91357,.36914-1.26562,.32422-.35156,.75098-.45703,1.27832-.31641,.14062,.03564,.3252,.10156,.55371,.19775,.22852,.09668,.4043,.1626,.52734,.19775,.28125,.07031,.5625,.12305,.84375,.1582,.08789-.17529,.19336-.46533,.31641-.87012,.61523-2.4082,.97559-6.17871,1.08105-11.31152-.86133,.22852-2.43457,.52734-4.71973,.89648-.35156,1.89844-.78223,3.55957-1.29199,4.9834-1.21289,3.48047-2.88281,6.29297-5.00977,8.4375-.22852,.22803-.40918,.39551-.54004,.50098-.13281,.10547-.3125,.19775-.54102,.27686s-.47461,.08301-.73828,.01318c-.28125-.07031-.51367-.22021-.69922-.44824-.18359-.22852-.28516-.50098-.30273-.81738,0-.17578,.04785-.35596,.14453-.54053s.18066-.32031,.25098-.40869c.07031-.08789,.21094-.23291,.42188-.43506,.21094-.20166,.33398-.32031,.36914-.35596,.49219-.50977,.99316-1.12451,1.50293-1.8457,1.63477-2.3374,2.83887-5.33496,3.6123-8.99121-.05273,0-.24609,.02637-.58008,.0791s-.5498,.0835-.64551,.09229c-.09766,.00928-.29492,.02637-.59375,.05273s-.51367,.03564-.64648,.02637c-.13086-.00879-.3252-.01709-.58008-.02637-.25488-.00879-.46973-.03516-.64551-.0791-.17578-.04346-.36035-.10547-.55371-.18457s-.37793-.17139-.55371-.27686c-.65039-.42188-.94043-.93164-.87012-1.5293,.03516-.3335,.19336-.61963,.47461-.85693s.58887-.34668,.92285-.32959c.21094,0,.47852,.09668,.80371,.29004,.3252,.19385,.61133,.29004,.85742,.29004,.33398,0,1.05469-.06152,2.16211-.18457,.05273,0,.14941-.00391,.29004-.01318,.14062-.00879,.24609-.02197,.31641-.03955,.07031-.01709,.14062-.05273,.21094-.10547s.11426-.13184,.13184-.2373l.18457-1.31836c.05273-.59717,.11426-1.42383,.18457-2.47852,.01758-.24609-.0918-.62354-.33008-1.13379-.23633-.50977-.30273-.92285-.19727-1.23926,.1582-.54443,.51855-.83936,1.08105-.8833,.5625-.04346,1.00195,.14502,1.31836,.56689,.26367,.29932,.46582,.64209,.60645,1.02832,.14062,.38672,.21484,.84814,.22461,1.38428,.00781,.53662,.00781,.95361,0,1.25244-.00977,.29932-.05762,.79102-.14551,1.47656s-.14062,1.08105-.1582,1.18652c1.17773-.19336,1.97754-.3335,2.39941-.42188,.38672-.05273,.75586-.13184,1.10742-.2373,.10547-.03516,.24609-.10938,.42188-.22412,.17578-.11426,.29004-.18848,.34277-.22412,.63281-.29883,1.23438-.27686,1.80566,.06592s.86621,.86621,.88379,1.56885Z"/><path class="cls-1" d="M188.93511,10.92687c.33398,.21094,.52246,.48779,.56641,.83057s.01758,.63281-.07812,.87012c-.09766,.2373-.25977,.5498-.48828,.93604-.05273,.08838-.09668,.14941-.13184,.18457-.63281,1.23047-1.16016,2.46973-1.58203,3.71777-.12305,.33398-.47461,1.42383-1.05469,3.26953-.35156,1.23047-.76465,2.02148-1.23926,2.37305-.70312,.54443-1.4375,.54932-2.20117,.01318-.76562-.53613-1.31445-1.22607-1.64844-2.06982-.5625-1.33545-.87891-3.44482-.94922-6.32812-.01758-.63281-.00879-1.73096,.02637-3.2959,.03516-1.56445,.03516-2.66309,0-3.2959,0-.1582-.02637-.43066-.0791-.81738-.05273-.38623-.08789-.71191-.10547-.97559s.02148-.53613,.11914-.81738c.0957-.28076,.27637-.50098,.54004-.65918,.4043-.21094,.8125-.22412,1.22559-.03955s.66406,.49707,.75195,.93604c.22852,1.00195,.31641,2.54883,.26367,4.64062-.10547,4.46533,.04395,7.41846,.44824,8.85938,.08789,.28125,.17578,.53662,.26367,.76465,.9668-2.98828,1.58203-4.80762,1.8457-5.45801,.45703-1.03711,.95801-2.00391,1.50293-2.90039,.21094-.4043,.49219-.68115,.84375-.83057,.35156-.14893,.73828-.11865,1.16016,.09229Zm11.62793,5.40527c.26367,1.77588-.07031,2.85693-1.00195,3.24316-.21094,.08838-.45312,.13623-.72559,.14502-.27246,.00928-.51367-.00391-.72461-.03955-.84375-.14062-1.33594-.24609-1.47656-.31641-.45703-.14062-.81738-.3335-1.08105-.58008-.28125-.29883-.3252-.69434-.13184-1.18652,.12305-.31641,.35156-.5625,.68555-.73828,.33398-.1582,.84375-.17529,1.5293-.05273,.1582,.03564,.25488,.04395,.29004,.02637-.26367-2.35547-1.13379-4.31494-2.61035-5.87988-.28125-.29883-.52734-.5708-.73828-.81738-.21094-.24609-.39551-.51807-.55371-.81738-.1582-.29883-.19824-.58398-.11816-.85693,.07812-.27246,.29395-.51416,.64551-.7251,.49219-.29883,1.01953-.22803,1.58203,.21094,.79102,.61572,1.56445,1.5293,2.32031,2.74219,1.10742,1.72314,1.81055,3.60352,2.10938,5.64258Z"/><path class="cls-1" d="M212.1685,22.97668c-.47461,.43945-1.05469,.65918-1.74023,.65918s-1.26562-.21973-1.74023-.65918c-.47461-.43896-.71191-1.00195-.71191-1.6875s.2373-1.25244,.71191-1.70068,1.05469-.67236,1.74023-.67236,1.26562,.22412,1.74023,.67236,.71191,1.01514,.71191,1.70068-.2373,1.24854-.71191,1.6875Zm-.92285-6.53906c-.22852,.21094-.50098,.31641-.81738,.31641s-.58887-.10547-.81738-.31641-.35156-.47461-.36914-.79102l-.71191-8.83301-.02637-1.58203c-.01758-.54443,.16699-1.01074,.55371-1.39746,.38672-.38623,.84766-.58008,1.38477-.58008,.53516,0,.99707,.19385,1.38379,.58008,.38672,.38672,.57129,.85303,.55371,1.39746l-.02637,1.58203-.73828,8.83301c-.01758,.31641-.14062,.58008-.36914,.79102Z"/><path class="cls-1" d="M5.6187,49.3507c1.33545,.49219,1.09814,2.10059-.71191,4.8252-.05273,.08838-.08838,.14941-.10547,.18457-.49219,.73828-1.125,1.5293-1.89844,2.37305-.17578,.21094-.32568,.36914-.44824,.47461-.54492,.51025-1.1167,.65918-1.71387,.44824-.38672-.14062-.62402-.47461-.71191-1.00195-.08838-.45703,.02637-.84375,.34277-1.16016,.73828-.73828,1.37988-1.49365,1.9248-2.26758,.66797-.94922,1.16895-1.88086,1.50293-2.79492,.1582-.43896,.39551-.76465,.71191-.97559s.68555-.24609,1.10742-.10547Zm9.57129-1.55566c-1.0376,.07031-1.81055,.11475-2.32031,.13184h-.59326c-.0791,0-.14502,.02637-.19775,.0791s-.0791,.13184-.0791,.2373,.00391,.28613,.01318,.54053c.00879,.25488,.01318,.44434,.01318,.56689l.02637,4.19238v3.95508c0,1.65234-.04395,2.7334-.13184,3.24316-.08838,.4917-.33887,.83936-.75146,1.0415-.41309,.20166-.87451,.26758-1.38428,.19775-1.1958-.1582-2.37305-.53662-3.5332-1.13379-.47461-.24658-.71631-.63281-.7251-1.16016-.00928-.52734,.20654-.93164,.646-1.21289,.17529-.10547,.37305-.16211,.59326-.17139,.21973-.00879,.44824,.01758,.68555,.0791,.2373,.06201,.45215,.12793,.646,.19775,.19336,.07031,.41748,.1626,.67236,.27686,.25439,.11475,.44385,.18896,.56689,.22412,.05273-2.021,.04346-5.68604-.02637-10.99512-2.30322,.07031-4.03418,.10547-5.19434,.10547-2.33789,0-3.57715-.58008-3.71777-1.74023-.05273-.35156,.03955-.68115,.27686-.98877,.2373-.30713,.53125-.48779,.8833-.54053,.24609-.03516,.55762,.04395,.93604,.2373,.37793,.19385,.66309,.29932,.85693,.31641,.75537,.05273,2.42578,.03564,5.00977-.05273,.08789,0,.20654-.00391,.35596-.01318,.14893-.00879,.25928-.01318,.32959-.01318,.06982,0,.12744-.00879,.17139-.02637,.04346-.01709,.06982-.04834,.0791-.09229,.00879-.04346,.01318-.08301,.01318-.11865l-.10547-3.87598c0-.21094-.12793-.39551-.38232-.55371-.25488-.1582-.40869-.27246-.46143-.34277-.22852-.28076-.3208-.60645-.27686-.97559,.04346-.36914,.20654-.67627,.48779-.92285,.68555-.54443,1.38818-.47852,2.10938,.19775,.7207,.67676,1.11621,1.41064,1.18652,2.20166,.05273,.43945,.08789,.89258,.10547,1.35791,.01709,.46582,.02197,1.01123,.01318,1.63477-.00928,.62402-.01318,1.09424-.01318,1.41064,1.86279-.10547,3.26953-.20166,4.21875-.29004,.94922-.06982,1.6875-.13184,2.21484-.18457,.58008-.05273,1.02832,.06201,1.34473,.34277,.38623,.35205,.50977,.78711,.36914,1.30518-.14111,.51855-.45752,.83984-.94922,.9624-.38672,.08838-.79102,.1582-1.21289,.21094s-.94043,.08838-1.55566,.10547c-.61572,.01758-1.01953,.03564-1.21289,.05273Zm5.95898,7.48828c.22803,.38672,.25928,.79102,.09229,1.21289-.16748,.42188-.46143,.69482-.8833,.81738-.42188,.10547-.76465,.05713-1.02832-.14502-.26367-.20166-.53662-.53125-.81738-.98877-.52734-.79102-1.1167-1.63477-1.7666-2.53125-.19385-.22803-.54053-.60645-1.0415-1.13379s-.85693-.93994-1.06787-1.23926c-.24658-.35156-.30322-.75537-.17139-1.21289,.13184-.45703,.40869-.75537,.83057-.89648,.12256-.03516,.24609-.05273,.36914-.05273,.12256,0,.23291,.00928,.32959,.02637,.09619,.01758,.19775,.05713,.30322,.11865,.10547,.06201,.19775,.11865,.27686,.17139s.17529,.13184,.29004,.2373c.11426,.10547,.19775,.18896,.25049,.25049,.05273,.06201,.13184,.14941,.2373,.26367,.10547,.11475,.17529,.19775,.21094,.25049,1.33545,1.51221,2.53125,3.12891,3.58594,4.85156Zm-3.11133-12.65625c.1582,.56299,.00879,1.01123-.44824,1.34473-.45752,.33398-.90576,.28125-1.34473-.1582-.08838-.10547-.16748-.23291-.2373-.38232-.07031-.14893-.13623-.32031-.19775-.51416-.06201-.19336-.10986-.3335-.14502-.42188-.31641-.75537-.58936-1.25635-.81738-1.50293-.38672-.43896-.38672-.89648,0-1.37109,.38623-.47461,.83447-.5708,1.34473-.29004,.70264,.40479,1.31836,1.50293,1.8457,3.2959Zm2.92676-.55371c.08789,.35205,.01709,.65918-.21094,.92285-.22852,.26367-.52344,.3916-.8833,.38232-.36035-.00879-.63721-.17139-.83057-.48779-.10547-.1582-.22021-.41748-.34277-.77783-.12305-.35986-.20215-.57568-.2373-.646-.07031-.12256-.35205-.58887-.84375-1.39746-.29932-.50977-.21533-.9624,.25049-1.35791,.46533-.39551,.92676-.40869,1.38428-.03955,.75537,.65039,1.32715,1.78418,1.71387,3.40137Z"/><path class="cls-1" d="M31.26518,52.40929c0,.56299-.22412,.95361-.67236,1.17334-.44824,.22021-.89648,.22021-1.34473,0-.44824-.21973-.67236-.61035-.67236-1.17334v-9.54492c0-.21094-.14111-.43896-.42188-.68555-.28125-.24609-.44824-.4126-.50098-.50098-.21094-.4043-.22412-.80811-.03955-1.21289,.18457-.4043,.49658-.6499,.93604-.73828,.68555-.17529,1.36182,.20215,2.03027,1.13379,.45703,.63281,.68555,1.59131,.68555,2.87402v8.6748Zm8.30566-10.44141c.05273,.28125,.08789,.58008,.10547,.89648,.01709,.31641,.01709,.68994,0,1.12061-.01758,.43115-.02637,.73438-.02637,.90967v3.77051c0,5.69531-1.5293,9.76514-4.58789,12.20801-.89648,.73828-1.88135,1.30078-2.95312,1.6875-1.23047,.42188-2.04785,.35156-2.45215-.21094-.26367-.33398-.33398-.7251-.21094-1.17334,.12256-.44824,.38623-.75146,.79102-.90967,.1582-.05273,.38623-.13184,.68555-.2373,.29883-.10547,.53613-.18848,.71191-.25049,.17529-.06152,.38232-.14893,.61963-.26367,.2373-.11426,.46143-.24121,.67236-.38232,2.68945-1.82812,4.0249-5.27344,4.00781-10.33594v-6.03809c0-.42188-.12305-.69434-.36914-.81738-.65039-.6499-.83496-1.25635-.55371-1.81934,.4043-.6499,.85693-.89648,1.35791-.73828s.97119,.51416,1.41064,1.06787c.43896,.55371,.70264,1.05908,.79102,1.51611Z"/><path class="cls-1" d="M64.14848,57.31359c.01709,.21094-.00928,.40479-.0791,.58008-.19385,.52734-1.1167,.79102-2.76855,.79102l-4.71973,.1582c-.42188,.01758-1.48975,.05273-3.20361,.10547s-3.02832,.0791-3.94189,.0791c-.38672,0-.69873-.00879-.93604-.02637-.2373-.01709-.5498-.06982-.93604-.1582-.38672-.08789-.71191-.2373-.97559-.44824s-.44824-.4917-.55371-.84375c-.12305-.42188-.02246-.81299,.30322-1.17334,.3252-.35986,.71582-.50488,1.17334-.43506,.21094,.03564,.41748,.13184,.61963,.29004,.20166,.1582,.32031,.2373,.35596,.2373,.47461,.01758,.82617,.02246,1.05469,.01318,.22803-.00879,.58008-.02637,1.05469-.05273s.83447-.03955,1.08105-.03955l4.79883-.1582c.3335-.05273,.51807-.08789,.55371-.10547,.21094-.58008,.51807-2.32031,.92285-5.2207l-4.16602,.26367c-.12305,0-.43945,.02637-.94922,.0791-.51025,.05273-.91406,.0791-1.21289,.0791-.29932,0-.646-.03955-1.0415-.11865s-.71631-.22412-.9624-.43506c-.28125-.21094-.50098-.50488-.65918-.8833-.1582-.37793-.1582-.73389,0-1.06787,.12256-.28076,.35986-.48779,.71191-.61963,.35156-.13184,.68555-.13574,1.00195-.01318,.08789,.05273,.18848,.12305,.30322,.21094,.11426,.08838,.21094,.16748,.29004,.2373,.0791,.07031,.13574,.10547,.17139,.10547,.82617-.01709,3.05859-.14893,6.69727-.39551,.26367-.01709,.4043-.04346,.42188-.0791,.29883-.26367,.62354-.39551,.97559-.39551,.29883,0,.58008,.11865,.84375,.35596s.4043,.51416,.42188,.83057c.03516,.28125-.00928,.74756-.13184,1.39746-.01758,.08838-.07031,.35596-.1582,.8042-.08838,.44824-.1582,.81348-.21094,1.09424l-.65918,3.87598c.29883-.01709,.97559-.04346,2.03027-.0791,.01709,0,.16699-.00879,.44824-.02637,.77344-.05273,1.29199,.02637,1.55566,.2373,.10547,.08838,.21094,.21094,.31641,.36914s.1582,.35205,.1582,.58008Z"/><path class="cls-1" d="M88.30571,48.84972c.52734-.01709,.92285,.20703,1.18652,.67236,.26367,.46582,.26367,.92725,0,1.38428-.28125,.43945-.76465,.65039-1.4502,.63281-10.10791,.17578-15.74121,.2373-16.90137,.18457-.51025-.01709-1.07227-.11865-1.6875-.30322-.61572-.18457-1.16016-.4917-1.63477-.92285-.47461-.43066-.64209-.92676-.50098-1.48975,.10547-.43896,.36914-.74219,.79102-.90967,.42188-.16699,.82617-.13574,1.21289,.09229,.08789,.05273,.2373,.14502,.44824,.27686s.36475,.22412,.46143,.27686c.09619,.05273,.23291,.10986,.40869,.17139,.17529,.06201,.36914,.10156,.58008,.11865,.82617,.03564,2.91748,.03564,6.27539,0l10.81055-.18457Z"/><path class="cls-1" d="M112.0645,57.9464c.19336,.38672,.22412,.7251,.09229,1.01514s-.32568,.53174-.58008,.7251c-.25488,.19385-.56299,.26367-.92285,.21094-.36035-.05273-.65527-.22803-.8833-.52734-.1582-.22803-.35596-.58887-.59326-1.08105-.2373-.4917-.3916-.78174-.46143-.87012-6.96094,.91406-11.36426,1.47656-13.20996,1.6875-.05273,0-.21533,.01758-.48779,.05273-.27295,.03564-.4707,.06201-.59326,.0791-.59766,.08838-1.23047,.10547-1.89844,.05273-.24658-.01709-.45752-.06152-.63281-.13184-.63281-.24609-1.01953-.59717-1.16016-1.05469-.12305-.43896-.04883-.83936,.22412-1.19971,.27246-.35986,.63672-.54932,1.09424-.56689,.10547,0,.25439,.04395,.44824,.13184,.19336,.08838,.34277,.13184,.44824,.13184,.35156,0,.62354-.00879,.81738-.02637,.1582,0,.3252-.12744,.50098-.38232,.17529-.25439,.35156-.58398,.52734-.98877,.17529-.4043,.27246-.62354,.29004-.65918,.77344-1.59912,1.23926-2.55762,1.39746-2.87402,1.21289-2.53125,2.11816-4.54395,2.71582-6.03809,.24609-.54443,.4043-.95801,.47461-1.23926,.03516-.31641,.05273-.4834,.05273-.50098,0-.01709-.10547-.14893-.31641-.39551-.24658-.28076-.33887-.63281-.27686-1.05469,.06152-.42188,.25928-.73828,.59326-.94922,.45703-.21094,.8833-.23291,1.27881-.06592,.39551,.16748,.73389,.45264,1.01514,.85693,.45703,.61572,.58887,1.40674,.39551,2.37305-.08838,.45752-.2334,.94531-.43506,1.46338-.20215,.51855-.38232,.9624-.54053,1.33154s-.38232,.85693-.67236,1.46338-.49707,1.0415-.61963,1.30518c-1.07227,2.37305-2.03955,4.35986-2.90039,5.95898l9.94043-1.26562c-.58008-.80811-1.1167-1.49365-1.6084-2.05664-.01758-.01709-.20215-.20166-.55371-.55371-.35205-.35156-.57129-.6416-.65918-.87012-.24658-.66797-.0752-1.19971,.51416-1.59521,.58887-.39551,1.1377-.34668,1.64795,.14502,1.07178,1.00195,2.02588,2.13574,2.86084,3.40137,.83447,1.26562,1.72705,2.78613,2.67627,4.56152Z"/><path class="cls-1" d="M119.85991,47.05676c.29883,.17578,.4917,.43945,.58008,.79102,.01709,.08838,.02637,.17578,.02637,.26367,0,.26367-.0791,.50098-.2373,.71191-.19385,.28125-.45752,.45752-.79102,.52734h-.2373c-.26367,0-.50098-.06982-.71191-.21094-.80859-.50977-1.71387-.98438-2.71582-1.42383-.26367-.12256-.44824-.3252-.55371-.60645-.01758-.10547-.02637-.20166-.02637-.29004,0-.17529,.05273-.35156,.1582-.52734,.19336-.28076,.45703-.47461,.79102-.58008,.14062-.05273,.29004-.0791,.44824-.0791,.17529,0,.35156,.03564,.52734,.10547,1.00195,.40479,1.91553,.84375,2.74219,1.31836Zm-1.6084,13.97461c-.1582,.3335-.41309,.54443-.76465,.63281-.10547,.01709-.21094,.02637-.31641,.02637-.22852,0-.45752-.07031-.68555-.21094-.31641-.19385-.51025-.47461-.58008-.84375-.01758-.12305-.02637-.2373-.02637-.34277,0-.24609,.06152-.4834,.18457-.71191,1.10742-1.98633,2.16211-4.08691,3.16406-6.30176,.14062-.29883,.35156-.4834,.63281-.55371,.08789-.01709,.18457-.02637,.29004-.02637,.21094,0,.4043,.06201,.58008,.18457,.28076,.22852,.47461,.51855,.58008,.87012,.03516,.14111,.05273,.28125,.05273,.42188,0,.21094-.04395,.41309-.13184,.60645-.91406,2.09229-1.90771,4.17529-2.97949,6.24902Zm2.87402-20.88281c.28076,.19385,.43896,.46582,.47461,.81738v.13184c0,.29932-.09668,.57129-.29004,.81738-.19385,.24658-.45752,.38672-.79102,.42188h-.13184c-.28125,0-.53662-.08789-.76465-.26367-.73828-.5625-1.6084-1.12451-2.61035-1.6875-.26367-.14062-.42627-.35596-.48779-.646-.06201-.29004,.00391-.54932,.19775-.77783,.22803-.26367,.50977-.43066,.84375-.50098,.10547-.03516,.21094-.05273,.31641-.05273,.21094,0,.42188,.05273,.63281,.1582,1.00195,.51025,1.87207,1.0376,2.61035,1.58203Zm18.04883,5.24707c.21875,.22852,.3291,.49707,.3291,.8042,0,.30762-.11035,.57129-.3291,.79102-.2207,.22021-.48828,.32959-.80469,.32959h-6.48633c-.17578,0-.26367,.08838-.26367,.26367v1.4502c0,.17578,.08789,.26367,.26367,.26367h4.53516c.63281,0,1.17383,.22412,1.62109,.67236,.44922,.44824,.67285,.98877,.67285,1.62158v8.4375c0,.59717-.07031,1.06348-.21094,1.39746-.14062,.3335-.41309,.58887-.81738,.76465-.52734,.21094-1.47656,.31641-2.84766,.31641-.29883,0-.57129-.10156-.81738-.30322-.24609-.20215-.42188-.46143-.52734-.77783-.07031-.24658-.03125-.47461,.11816-.68555s.35645-.31641,.62012-.31641c.52734,.01758,1.08984,.02637,1.6875,.02637,.17578,0,.29395-.03027,.35645-.09229,.06055-.06152,.0918-.17139,.0918-.32959v-8.25293c0-.17529-.08789-.26367-.26367-.26367h-4.48242c-.17578,0-.26367,.08838-.26367,.26367v4.40332c0,.17578,.08789,.26367,.26367,.26367h1.29199c.17578,0,.26367-.08789,.26367-.26367v-2.58398c0-.21094,.0791-.39551,.2373-.55371s.34277-.2373,.55371-.2373,.39551,.0791,.55371,.2373,.2373,.34277,.2373,.55371v5.03613c0,.22852-.0791,.41797-.2373,.56689-.1582,.14941-.34277,.22412-.55371,.22412s-.39551-.07471-.55371-.22412c-.1582-.14893-.2373-.33838-.2373-.56689v-.21094c0-.08789-.03516-.13184-.10547-.13184h-5.19434c-.12305,0-.18457,.05273-.18457,.1582v.68555c0,.21094-.0752,.39551-.22412,.55371-.14941,.1582-.33398,.2373-.55371,.2373-.22021,0-.40479-.0791-.55371-.2373-.14941-.1582-.22412-.34277-.22412-.55371v-5.53711c0-.21094,.07471-.39551,.22412-.55371,.14893-.1582,.3335-.2373,.55371-.2373,.21973,0,.4043,.0791,.55371,.2373,.14893,.1582,.22412,.34277,.22412,.55371v2.58398c0,.17578,.08789,.26367,.26367,.26367h1.21289c.17529,0,.26367-.08789,.26367-.26367v-4.40332c0-.17529-.08838-.26367-.26367-.26367h-4.27148c-.17578,0-.26367,.08838-.26367,.26367v9.65039c0,.31641-.10986,.58398-.32959,.8042-.22021,.21973-.48389,.32959-.79102,.32959-.30762,0-.57129-.10986-.79102-.32959-.22021-.22021-.32959-.48779-.32959-.8042v-9.83496c0-.63281,.22412-1.17334,.67236-1.62158s.98877-.67236,1.62158-.67236h4.24512c.17529,0,.26367-.08789,.26367-.26367v-1.4502c0-.17529-.08838-.26367-.26367-.26367h-6.38086c-.31641,0-.58447-.10938-.8042-.32959-.22021-.21973-.32959-.4834-.32959-.79102,0-.30713,.10938-.57568,.32959-.8042,.21973-.22803,.48779-.34277,.8042-.34277h3.1377c.17529,0,.26367-.08789,.26367-.26367v-2.00391c0-.17529-.08838-.26367-.26367-.26367h-2.32031c-.29932,0-.55371-.10938-.76465-.32959-.21094-.21973-.31641-.47852-.31641-.77783,0-.29883,.10547-.55371,.31641-.76465s.46533-.31641,.76465-.31641h2.32031c.17529,0,.26367-.08789,.26367-.26367v-1.10742c0-.31641,.10938-.58887,.32959-.81738,.21973-.22803,.49658-.34277,.83057-.34277,.3335,0,.61523,.11475,.84375,.34277,.22803,.22852,.34277,.50098,.34277,.81738v1.10742c0,.17578,.08789,.26367,.26367,.26367h3.74414c.17578,0,.26367-.08789,.26367-.26367v-1.08105c0-.31641,.11426-.59326,.34277-.83057s.50977-.35596,.84375-.35596,.62012,.12305,.85645,.36914c.23828,.24658,.35645,.51855,.35645,.81738v1.08105c0,.17578,.08789,.26367,.26367,.26367h2.42578c.29883,0,.55371,.10547,.76465,.31641s.31641,.46582,.31641,.76465c0,.29932-.10547,.55811-.31641,.77783-.21094,.22021-.46582,.32959-.76465,.32959h-2.42578c-.17578,0-.26367,.08838-.26367,.26367v2.00391c0,.17578,.08789,.26367,.26367,.26367h3.1377c.31641,0,.58398,.11475,.80469,.34277Zm-10.61328-2.87402c-.17578,0-.26367,.08838-.26367,.26367v2.00391c0,.17578,.08789,.26367,.26367,.26367h3.74414c.17578,0,.26367-.08789,.26367-.26367v-2.00391c0-.17529-.08789-.26367-.26367-.26367h-3.74414Z"/><path class="cls-1" d="M144.4478,61.55871c-.24609,.28076-.5625,.46533-.94922,.55371h-.31641c-.26367,0-.51855-.05273-.76465-.1582-.28125-.14111-.44824-.36035-.50098-.65918v-.18457c0-.22852,.0791-.43945,.2373-.63281,.77344-.89648,1.48535-1.99463,2.13574-3.2959,.1582-.31641,.39551-.54443,.71191-.68555,.19336-.10547,.39551-.1582,.60645-.1582,.12305,0,.24609,.01758,.36914,.05273,.31641,.08838,.55371,.27295,.71191,.55371,.07031,.1582,.10547,.30762,.10547,.44824,0,.14111-.03516,.28125-.10547,.42188-.65039,1.44141-1.39746,2.68945-2.24121,3.74414Zm16.03125-15.74121c.63281,0,1.17285,.22412,1.62207,.67236,.44727,.44824,.67188,.98877,.67188,1.62158v4.29785c0,.63281-.22461,1.17334-.67188,1.62158-.44922,.44824-.98926,.67236-1.62207,.67236h-13.60547c-.63281,0-1.17285-.22412-1.62207-.67236-.44727-.44824-.67188-.98877-.67188-1.62158v-4.29785c0-.63281,.22461-1.17334,.67188-1.62158,.44922-.44824,.98926-.67236,1.62207-.67236h5.0625c.17578,0,.26367-.08789,.26367-.26367v-6.45996c0-.38623,.12305-.69873,.36914-.93604s.54492-.35596,.89648-.35596,.6543,.12305,.90918,.36914c.25488,.24658,.38281,.55371,.38281,.92285v1.08105c0,.17578,.08789,.26367,.26367,.26367h8.49023c.31641,0,.58887,.11475,.81738,.34277,.22852,.22852,.34277,.50098,.34277,.81738s-.11426,.58936-.34277,.81738c-.22852,.22852-.50098,.34277-.81738,.34277h-8.49023c-.17578,0-.26367,.0791-.26367,.2373v2.55762c0,.17578,.08789,.26367,.26367,.26367h5.45801Zm-.52734,6.56543c.17578,0,.26367-.08789,.26367-.26367v-3.71777c0-.17529-.08789-.26367-.26367-.26367h-12.70898c-.17578,0-.26367,.08838-.26367,.26367v3.71777c0,.17578,.08789,.26367,.26367,.26367h12.70898Zm-10.62598,5.72168v-.18457c0-.24609,.0791-.47461,.2373-.68555,.19336-.26367,.45703-.4043,.79102-.42188h.13184c.28125,0,.54492,.08838,.79102,.26367,.28125,.19385,.44824,.45752,.50098,.79102,.17578,1.00195,.30762,1.96045,.39551,2.87402v.13184c0,.29883-.10547,.5708-.31641,.81738-.22852,.28076-.51855,.44824-.87012,.50098h-.13184c-.28125,0-.53613-.09668-.76465-.29004-.26367-.21094-.4043-.49219-.42188-.84375-.07031-.93164-.18457-1.91553-.34277-2.95312Zm5.80078-.10547c-.07031-.12256-.10547-.2373-.10547-.34277,0-.1582,.04395-.31641,.13184-.47461,.12305-.26367,.33398-.43066,.63281-.50098,.10547-.01709,.21973-.02637,.34277-.02637,.21094,0,.42188,.04395,.63281,.13184,.29883,.1582,.51855,.38672,.65918,.68555,.45703,1.00195,.85254,1.98682,1.18652,2.95312,.03516,.12256,.05273,.24609,.05273,.36914,0,.19336-.05273,.38623-.1582,.58008-.17578,.29883-.43066,.4917-.76465,.58008-.10547,.01709-.21094,.02637-.31641,.02637-.21094,0-.42188-.06201-.63281-.18457-.29883-.17578-.49219-.43115-.58008-.76465-.28125-.94922-.6416-1.95996-1.08105-3.03223Zm5.66895-.29004c-.10547-.17529-.1582-.35156-.1582-.52734,0-.08789,.00879-.18457,.02637-.29004,.08789-.28076,.27246-.47461,.55371-.58008,.19336-.06982,.38672-.10547,.58008-.10547,.14062,0,.29004,.01758,.44824,.05273,.33398,.10547,.60645,.29932,.81738,.58008,.89648,1.23047,1.63477,2.36426,2.21484,3.40137,.10547,.17578,.1582,.35986,.1582,.55371,0,.12256-.02637,.25439-.0791,.39551-.12305,.3335-.35156,.5625-.68555,.68555-.1582,.06982-.32129,.10547-.48828,.10547s-.3291-.03564-.4873-.10547c-.33398-.14111-.58887-.36914-.76465-.68555-.54492-1.05469-1.25684-2.21484-2.13574-3.48047Z"/><path class="cls-1" d="M189.43999,48.92883c.29883,1.96875,.05273,3.87207-.73828,5.7085-.79102,1.83691-2.0127,3.31836-3.66504,4.44287-1.54688,1.0376-3.12891,1.66992-4.74609,1.89844-.5625,.08789-.98438-.06592-1.26562-.46143s-.33887-.83057-.1709-1.30518c.16602-.47461,.50488-.76465,1.01465-.87012,1.75781-.35156,3.27832-1.12451,4.56152-2.32031,1.2832-1.19531,2.05664-2.63672,2.32031-4.32422,.31641-2.14453-.14941-3.97217-1.39746-5.48438-1.16016-1.33545-2.84766-2.1001-5.0625-2.29395,.01758,.1582,.02637,.33398,.02637,.52734,0,.65039-.12305,1.30957-.36914,1.97754-.08789,.24658-.14062,.39551-.1582,.44824s-.0791,.22021-.18457,.50098c-.10547,.28125-.1582,.43115-.1582,.44824-.59766,1.58203-1.26562,3.15527-2.00391,4.71973-1.08984,2.26758-1.95117,3.84082-2.58398,4.71973-.22852,.31641-.46582,.60645-.71191,.87012-1.24805,1.42383-2.66309,1.45947-4.24512,.10547-1.10742-.94922-1.81934-2.16602-2.13574-3.65186-.31641-1.48535-.30273-2.94385,.03906-4.37695,.34375-1.43262,.91016-2.75537,1.70117-3.96826,1.21289-1.8457,2.80371-3.19434,4.77246-4.04736,1.96875-.85254,4.08691-1.17334,6.35449-.9624s4.21387,.99805,5.83984,2.35986c1.62598,1.3623,2.61523,3.14209,2.9668,5.33936Zm-11.86523-4.19238c.17578-.79102-.36035-.93164-1.6084-.42188-.01758,.01758-.22852,.10547-.63281,.26367-1.23047,.56299-2.27637,1.39746-3.1377,2.50488-.79102,1.0376-1.3623,2.21094-1.71387,3.52002-.35156,1.30957-.34277,2.54443,.02637,3.70459,.17578,.66846,.4834,1.22217,.92285,1.66113,.22852,.24658,.38672,.37842,.47461,.39551,.08789,.01758,.24609-.08789,.47461-.31641,.63281-.82617,1.3623-2.06543,2.18848-3.71777,1.6875-3.44482,2.68945-5.97607,3.00586-7.59375Z"/><path class="cls-1" d="M205.17925,39.35754c0,.1582,.0791,.2373,.2373,.2373h9.17578c.29883,0,.55371,.10547,.76465,.31641s.31641,.4707,.31641,.77783c0,.30762-.10547,.56689-.31641,.77783s-.46582,.31641-.76465,.31641h-21.09375c-.31641,0-.58008-.10547-.79102-.31641s-.31641-.47021-.31641-.77783c0-.30713,.10547-.56689,.31641-.77783s.47461-.31641,.79102-.31641h8.88574c.1582,0,.2373-.0791,.2373-.2373v-.89648c0-.38623,.12305-.69873,.36914-.93604s.54883-.35596,.91016-.35596c.35938,0,.66309,.12305,.90918,.36914,.24609,.24658,.36914,.55371,.36914,.92285v.89648Zm7.27734,10.81055c.63281,0,1.17773,.22412,1.63477,.67236s.68555,.98877,.68555,1.62158v6.6709c0,.65039-.08789,1.16016-.26367,1.5293s-.49219,.6499-.94922,.84375c-.45703,.17529-1.18652,.29883-2.18848,.36914h-.21094c-.54492,0-1.0459-.17578-1.50293-.52734-.50977-.38672-.91406-.8877-1.21289-1.50293-.07031-.1582-.19336-.2373-.36914-.2373h-6.8291c-.08789,0-.13184,.04395-.13184,.13184v.0791c0,.29932-.10547,.55371-.31641,.76465s-.4707,.31641-.77832,.31641-.56641-.10547-.77734-.31641-.31641-.46533-.31641-.76465v-3.74414c0-.63281,.22461-1.17334,.67188-1.62158,.44922-.44824,.99805-.67236,1.64844-.67236h5.58984c.63281,0,1.17773,.22412,1.63477,.67236s.68555,.98877,.68555,1.62158v3.26953c0,.17578,.08789,.26367,.26367,.26367,.43945,.01758,.81738,.02637,1.13379,.02637s.57129-.00879,.76465-.02637c.38672-.01709,.63281-.05273,.73828-.10547,.12305-.06982,.18457-.20166,.18457-.39551v-6.56543c0-.17529-.08789-.26367-.26367-.26367h-15.74121c-.17578,0-.26367,.08838-.26367,.26367v8.22656c0,.3335-.11914,.61963-.35547,.85693-.23828,.2373-.52734,.35596-.87109,.35596-.3418,0-.63281-.11865-.86914-.35596-.23828-.2373-.35645-.52344-.35645-.85693v-8.30566c0-.63281,.22363-1.17334,.67285-1.62158,.44727-.44824,.98828-.67236,1.62109-.67236h16.6377Zm-15.66211-4.79883c0-.63281,.22363-1.17334,.67285-1.62158,.44727-.44824,.98828-.67236,1.62109-.67236h9.91406c.63281,0,1.17383,.22412,1.62109,.67236,.44922,.44824,.67285,.98877,.67285,1.62158v1.05469c0,.63281-.22363,1.17334-.67285,1.62158-.44727,.44824-.98828,.67236-1.62109,.67236h-9.91406c-.63281,0-1.17383-.22412-1.62109-.67236-.44922-.44824-.67285-.98877-.67285-1.62158v-1.05469Zm11.70703,1.63477c.17578,0,.26367-.08789,.26367-.26367v-1.66113c0-.17529-.08789-.26367-.26367-.26367h-9.01758c-.17578,0-.26367,.08838-.26367,.26367v1.66113c0,.17578,.08789,.26367,.26367,.26367h9.01758Zm-1.8457,10.83691c.17578,0,.26367-.08789,.26367-.26367v-1.7666c0-.17529-.08789-.26367-.26367-.26367h-5.27344c-.17578,0-.26367,.08838-.26367,.26367v1.7666c0,.17578,.08789,.26367,.26367,.26367h5.27344Z"/><path class="cls-1" d="M226.57573,51.51281c-.01758-.10547-.08789-.1582-.21094-.1582l-1.66113,.10547c-.17578,.01758-.26367,.11475-.26367,.29004v9.72949c0,.31641-.11035,.58398-.33008,.8042-.21973,.21973-.4834,.32959-.79102,.32959s-.57129-.10986-.79102-.32959c-.21973-.22021-.3291-.48779-.3291-.8042v-9.57129c0-.06982-.02637-.12744-.0791-.17139-.05273-.04346-.11426-.06592-.18457-.06592l-2.71582,.1582h-.0791c-.28125,0-.52734-.09619-.73828-.29004-.26367-.22803-.39551-.51807-.39551-.87012,0-.24609,.08789-.47461,.26367-.68555,.19336-.22803,.43945-.34277,.73828-.34277l.58008-.02637c.14062-.01709,.24609-.0791,.31641-.18457,.45703-.5625,.87891-1.13379,1.26562-1.71387,.10547-.1582,.10547-.30713,0-.44824-.65039-.89648-1.46777-1.8457-2.45215-2.84766-.21094-.21094-.3291-.46143-.35645-.75146-.02539-.29004,.04883-.54932,.22461-.77783l.10547-.13184c.14062-.19336,.3252-.30322,.55371-.32959s.43066,.03955,.60645,.19775c.05273,.03564,.09668,.02637,.13184-.02637,.65039-1.19531,1.23047-2.42578,1.74023-3.69141,.12305-.29883,.33398-.51807,.63281-.65918,.1582-.06982,.31641-.10547,.47461-.10547,.14062,0,.28125,.02637,.42188,.0791,.28125,.12305,.4834,.33398,.60645,.63281,.03516,.12305,.05273,.24658,.05273,.36914,0,.1582-.03516,.32568-.10547,.50098-.91406,1.70508-1.70508,3.06787-2.37305,4.08691-.08789,.14111-.07031,.28125,.05273,.42188,.38672,.40479,.70312,.76465,.94922,1.08105,.03516,.05273,.08301,.0752,.14453,.06592,.06152-.00879,.11035-.03955,.14551-.09229,.7207-1.17725,1.3623-2.30273,1.9248-3.375,.14062-.28076,.36035-.47461,.65918-.58008,.14062-.05273,.27246-.0791,.39551-.0791,.17578,0,.34277,.04395,.50098,.13184,.26367,.12305,.43945,.32568,.52734,.60645,.03516,.10547,.05273,.21094,.05273,.31641,0,.17578-.05273,.34277-.1582,.50098-1.59961,2.54883-3.07617,4.71094-4.42969,6.48633-.03516,.05273-.04004,.10156-.0127,.14502,.02539,.04395,.06543,.06592,.11816,.06592l3.16406-.13184c.07031-.01709,.11816-.04834,.14551-.09229,.02539-.04346,.03027-.10107,.0127-.17139-.19336-.4043-.38672-.78174-.58008-1.13379-.10547-.21094-.11816-.43506-.04004-.67236,.08008-.2373,.2334-.39941,.46191-.48779,.24609-.10547,.49609-.11426,.75098-.02637,.25488,.08838,.44434,.24658,.56738,.47461,.75586,1.354,1.33594,2.62793,1.74023,3.82324,.08789,.28125,.06543,.5498-.06543,.8042-.13281,.25488-.33008,.44434-.59375,.56689-.22852,.10547-.46094,.10156-.69922-.01318-.23633-.11426-.39062-.29395-.46094-.54053-.03516-.14062-.0791-.27246-.13184-.39551Zm-7.43555,2.79492c.03516-.28076,.1709-.50977,.40918-.68555,.23633-.17529,.50488-.2373,.80371-.18457,.28125,.05273,.51855,.20215,.71191,.44824,.12305,.19385,.18457,.39551,.18457,.60645v.21094c-.31641,1.89844-.72949,3.50684-1.23926,4.8252-.08789,.26367-.27246,.43945-.55371,.52734-.28125,.08838-.54492,.06201-.79102-.0791-.26367-.12256-.44824-.32031-.55371-.59326-.10547-.27246-.10547-.54053,0-.8042,.42188-1.16016,.76465-2.58398,1.02832-4.27148Zm21.48926-8.17383c.24609-.05273,.49219-.03516,.73828,.05273l.39551,.1582c.21094,.08838,.37305,.2334,.4873,.43506,.11426,.20215,.14551,.41797,.09277,.646-.84375,3.81445-2.21484,7.01367-4.11328,9.59766-.10547,.14111-.09668,.27295,.02637,.39551,1.10742,1.10742,2.34668,1.98682,3.71777,2.63672,.28125,.14111,.44824,.36035,.50098,.65918,.03516,.06982,.05273,.14893,.05273,.2373,0,.19336-.07031,.38623-.21094,.58008-.22852,.28076-.51855,.47461-.87012,.58008-.14062,.03516-.27246,.06152-.39551,.0791-.21094,0-.41309-.04395-.60645-.13184-1.40625-.75586-2.6543-1.69629-3.74414-2.82129-.12305-.12256-.24609-.12256-.36914,0-1.00195,1.0376-2.10938,1.9248-3.32227,2.66309-.22852,.14062-.45703,.21094-.68555,.21094-.10547,0-.21094-.01758-.31641-.05273-.33398-.07031-.62402-.24658-.87012-.52734-.21094-.21094-.29883-.46582-.26367-.76465,.03516-.29932,.18457-.51807,.44824-.65918,1.31836-.75537,2.49609-1.66992,3.5332-2.74219,.12305-.12256,.14062-.25439,.05273-.39551-1.14258-1.70459-2.10059-3.76123-2.87402-6.16992,0-.03516-.01758-.05273-.05273-.05273s-.05273,.01758-.05273,.05273c-.47461,4.4126-1.71387,8.01562-3.71777,10.81055-.17578,.24609-.42188,.37793-.73828,.39551-.03516,.01709-.0791,.02637-.13184,.02637-.26367,0-.50098-.08838-.71191-.26367-.24609-.17578-.39551-.41309-.44824-.71191v-.18457c0-.22852,.06152-.43896,.18457-.63281,.52734-.7207,.97559-1.47656,1.34473-2.26758,.01758-.01709,.01758-.03516,0-.05273-.01758-.01709-.03516-.02637-.05273-.02637-.12305,.05273-.2373,.0791-.34277,.0791-.17578,0-.35156-.04346-.52734-.13184-.26367-.1582-.43945-.38623-.52734-.68555-.24609-.86084-.54492-1.75732-.89648-2.68945-.05273-.10547-.0791-.21094-.0791-.31641-.01758-.14062,.00879-.27246,.0791-.39551,.10547-.22803,.28125-.37793,.52734-.44824,.26367-.08789,.51855-.0791,.76465,.02637s.42188,.28125,.52734,.52734c.4043,.9668,.72949,1.87207,.97559,2.71582,.01758,.03564,.04785,.05713,.09277,.06592,.04297,.00928,.07422-.01318,.0918-.06592,1.07227-2.79492,1.6084-6.41602,1.6084-10.86328v-3.71777c0-.17529-.08789-.26367-.26367-.26367h-1.02832c-.31641,0-.58887-.10938-.81738-.32959-.22852-.21973-.34277-.4917-.34277-.81738,0-.3252,.11426-.60205,.34277-.83057,.22852-.22803,.50098-.34277,.81738-.34277h8.22656c.1582-.03516,.31641-.05273,.47461-.05273h.26367l.47461,.0791c.24609,.03564,.43555,.14502,.56641,.32959,.13281,.18457,.18066,.3999,.14551,.646-.22852,1.354-.57129,3.17334-1.02832,5.45801,0,.07031,.02148,.13184,.06641,.18457,.04297,.05273,.0918,.0791,.14453,.0791h2.63672Zm-8.17383-4.40332c-.17578,0-.26367,.08838-.26367,.26367v1.13379c.82617,5.13281,2.23242,9.14062,4.21875,12.02344,.03516,.05273,.0791,.0791,.13184,.0791s.10547-.02637,.1582-.0791c1.33594-1.91553,2.3291-4.0957,2.97949-6.53906,.01758-.06982,.00391-.12744-.03906-.17139-.04492-.04346-.10156-.06592-.17188-.06592h-2.05664c-.08789,0-.14062,.04395-.1582,.13184-.05273,.29932-.20215,.53662-.44824,.71191-.21094,.14111-.43945,.21094-.68555,.21094h-.21094c-.29883-.03516-.53613-.17529-.71191-.42188-.12305-.17529-.18457-.36914-.18457-.58008,0-.06982,.00879-.14893,.02637-.2373,.42188-2.00391,.80859-4.06934,1.16016-6.19629,.01758-.06982,.00391-.13184-.03906-.18457-.04492-.05273-.10156-.0791-.17188-.0791h-3.5332Z"/><path class="cls-1" d="M265.44878,41.0714c.63281,0,1.17383,.22412,1.62109,.67236,.44922,.44824,.67285,.98877,.67285,1.62158v15.63574c0,1.40674-.4043,2.26758-1.21289,2.58398-.58008,.24609-1.69629,.39551-3.34863,.44824h-.05273c-.35156,0-.67676-.11475-.97559-.34277-.29883-.24658-.50098-.55371-.60645-.92285-.03516-.10547-.05273-.21094-.05273-.31641,0-.17529,.05273-.34277,.1582-.50098,.17578-.26367,.41309-.39551,.71191-.39551,.63281,.01758,1.39746,.02637,2.29395,.02637,.4043-.01709,.60645-.22803,.60645-.63281v-15.13477c0-.17529-.08789-.26367-.26367-.26367h-7.06641c-.17578,0-.29004,.08838-.34277,.26367-.01758,.08838-.05273,.20215-.10547,.34277-.05273,.1582,0,.27295,.1582,.34277,2.37305,1.38867,4.22754,2.58398,5.56348,3.58594,.31641,.24658,.47461,.57129,.47461,.97559,0,.31641-.10547,.59766-.31641,.84375-.22852,.26367-.52734,.40479-.89648,.42188h-.0791c-.33398,0-.62402-.10547-.87012-.31641-1.19531-.98438-2.8125-2.11816-4.85156-3.40137-.14062-.08789-.25488-.05273-.34277,.10547-1.03711,1.63477-2.54004,2.94434-4.50879,3.92871-.19336,.07031-.37793,.10547-.55371,.10547-.14062,0-.27246-.01709-.39551-.05273-.31641-.10547-.58887-.29883-.81738-.58008-.19336-.21094-.26367-.45215-.21094-.7251,.05273-.27246,.20215-.47021,.44824-.59326,1.07227-.52734,1.95117-1.14258,2.63672-1.8457,.84375-.89648,1.49414-1.95117,1.95117-3.16406,.01758-.05273,.00879-.10547-.02637-.1582s-.08789-.0791-.1582-.0791h-6.03809c-.17578,0-.26367,.08838-.26367,.26367v16.92773c0,.35156-.12305,.6499-.36914,.89648-.24609,.24609-.54492,.36914-.89648,.36914s-.65039-.12305-.89648-.36914c-.24609-.24658-.36914-.54492-.36914-.89648v-17.37598c0-.63281,.22363-1.17334,.67285-1.62158,.44727-.44824,.98828-.67236,1.62109-.67236h7.11914c.17578,0,.27246-.08789,.29004-.26367,.08789-.6499,.16699-1.37988,.2373-2.18848,.01758-.38623,.16211-.70264,.43555-.94922,.27148-.24609,.60156-.36914,.98828-.36914,.35156,0,.65039,.13184,.89648,.39551,.21094,.22852,.31641,.51025,.31641,.84375,0,.31641-.08789,1.07227-.26367,2.26758,0,.07031,.02148,.13184,.06641,.18457,.04297,.05273,.10059,.0791,.1709,.0791h7.04004Zm-2.42578,15.1084c.26367,.22852,.39551,.52344,.39551,.8833,0,.36035-.12793,.65918-.38184,.89648-.25586,.2373-.55859,.35596-.91016,.35596h-.02637c-.35156,0-.65918-.12256-.92285-.36914-1.07227-.98438-2.54004-2.1709-4.40332-3.55957-.14062-.10547-.25488-.08789-.34277,.05273-1.08984,1.65234-2.64551,2.9624-4.66699,3.92871-.17578,.08838-.35156,.13184-.52734,.13184-.14062,0-.28125-.02637-.42188-.0791-.31641-.10547-.58887-.30713-.81738-.60645-.17578-.21094-.2373-.45703-.18457-.73828,.05273-.28076,.20215-.47461,.44824-.58008,.66797-.29883,1.27441-.63281,1.81934-1.00195,.82617-.58008,1.47656-1.22607,1.95117-1.93799s.84375-1.40137,1.10742-2.06982c.12305-.31641,.22852-.6499,.31641-1.00195,.10547-.38623,.30762-.69434,.60645-.92285,.29883-.22803,.63281-.34277,1.00195-.34277,.33398,0,.60645,.13184,.81738,.39551,.1582,.17578,.2373,.37842,.2373,.60645,0,.08838-.00879,.17578-.02637,.26367-.12305,.47461-.25488,.93213-.39551,1.37109-.05273,.1582-.00879,.29004,.13184,.39551,2.14453,1.45947,3.87598,2.76855,5.19434,3.92871Z"/><path class="cls-1" d="M290.42046,47.90051c.01758,.80859-.19727,1.45459-.64648,1.93799-.44727,.48389-1.12891,.97998-2.04297,1.48975-1.00195,.54492-1.75781,.94043-2.26758,1.18652-.05273,.03564-.12305,.07031-.21094,.10547-.08789,.03564-.14453,.06201-.17188,.0791-.02539,.01758-.05273,.05713-.07812,.11865-.02734,.06201-.04004,.14502-.04004,.25049,0,.05273,.00391,.14502,.0127,.27686s.01367,.2334,.01367,.30322v1.7666c0,.19385-.00488,.33887-.01367,.43506-.00879,.09668-.01758,.24658-.02539,.44824-.00977,.20215-.02246,.36035-.04004,.47461-.01758,.11475-.04883,.25049-.09277,.40869s-.09668,.29004-.1582,.39551-.14062,.20703-.23633,.30322c-.09766,.09668-.19824,.1626-.30371,.19775-.10547,.03564-.2373,.05273-.39551,.05273s-.33398-.02637-.52734-.0791c-.26367-.08789-.47461-.2373-.63281-.44824s-.25977-.47461-.30273-.79102c-.04492-.31641-.0625-.60645-.05273-.87012,.00781-.26367,.02539-.58008,.05273-.94922,.02539-.36914,.03906-.63281,.03906-.79102-.70312,.40479-1.22656,.70801-1.56836,.90967-.34375,.20215-.7832,.50537-1.31836,.90967-.53711,.40479-.97168,.80029-1.30566,1.18652-.21094,.26367-.33887,.51025-.38184,.73828-.04492,.22852,.0127,.41309,.1709,.55371,.1582,.14111,.33789,.27295,.54004,.39551,.20215,.12305,.46191,.21533,.77832,.27686,.31641,.06201,.58008,.10986,.79102,.14502,.21094,.03564,.43945,.06201,.68555,.0791,2.02148,.1582,4.14844,.07031,6.38086-.26367,1.00195-.14062,1.67871-.14062,2.03027,0,.68555,.28125,.95801,.76465,.81738,1.4502-.07031,.61523-.55371,1.00195-1.4502,1.16016-.38672,.06982-.66797,.09619-.84375,.0791-5.02734,.47461-8.4375,.34277-10.23047-.39551-1.00195-.43945-1.70117-1.12061-2.0957-2.04346-.39648-.92285-.37402-1.89404,.06543-2.91357,.28125-.58008,.7207-1.15088,1.31836-1.71387,.59766-.5625,1.13379-.99756,1.6084-1.30518,.47461-.30713,1.10742-.68945,1.89844-1.14697,.21094-.12256,.51367-.29395,.91016-.51416,.39453-.21973,.64551-.36475,.75098-.43506,.22852-.12256,.21094-.4834-.05273-1.08105-.14062-.4043-.36914-.6499-.68555-.73828-.31641-.08789-.66797-.06982-1.05469,.05273-.59766,.12305-1.15137,.38672-1.66113,.79102-.50977,.40479-1.02441,.87451-1.54297,1.41064-.51855,.53662-.9707,.92725-1.35742,1.17334-.31641,.22852-.68164,.29932-1.09375,.21094-.41406-.08789-.7168-.30713-.91016-.65918-.05273-.10547-.0918-.21094-.11914-.31641-.02539-.10547-.04395-.19775-.05273-.27686s.00488-.17529,.04004-.29004c.03516-.11426,.05664-.19775,.06543-.25049s.05273-.14062,.13281-.26367c.07812-.12256,.12695-.20166,.14453-.2373,.01758-.03516,.0791-.12256,.18457-.26367l.1582-.2373c1.17773-1.66992,2.36426-3.64746,3.55957-5.93262-1.56445,.10547-2.7334-.02637-3.50684-.39551-.52734-.24609-.96191-.58398-1.30566-1.01514-.3418-.43066-.42578-.89209-.25-1.38428,.1582-.45703,.47852-.73828,.96289-.84375,.48242-.10547,.90039,.00928,1.25195,.34277,.31641,.31641,.59766,.51025,.84375,.58008,.19336,.03564,.65918,.05273,1.39746,.05273l1.97754-.1582c.19336-.47461,.29004-.83447,.29004-1.08105,0-.17529-.04004-.42188-.11816-.73828-.08008-.31641-.11914-.59326-.11914-.83057s.0791-.47021,.2373-.69873c.28125-.4043,.67285-.58398,1.17285-.54053,.50195,.04395,.86621,.27686,1.09473,.69873,.4043,.73828,.52734,1.67871,.36914,2.82129,.91406-.1582,1.57324-.31641,1.97754-.47461,.08789-.05273,.21484-.14062,.38281-.26367,.16602-.12256,.32031-.20654,.46094-.25049,.14062-.04346,.30762-.04834,.50098-.01318,.63281,.10547,.98438,.46143,1.05469,1.06787s-.12305,1.09424-.58008,1.46338c-.63281,.51025-1.8457,.90576-3.63867,1.18652l-1.26562,.18457c-.21094,.43945-.36914,.74756-.47461,.92285-.28125,.59766-.62402,1.23926-1.02832,1.9248,1.2832-.31641,2.39453-.21973,3.33594,.29004,.93945,.51025,1.58594,1.39746,1.9375,2.66309,.93164-.47461,1.6875-.87891,2.26758-1.21289,.35156-.21094,.60645-.37793,.76465-.50098,.05273-.03516,.08789-.0791,.10547-.13184l.02637-.34277c.05273-.50977,.30273-.85693,.75195-1.0415,.44727-.18457,.87793-.16211,1.29102,.06592,.41309,.22852,.62891,.59766,.64648,1.10742Z"/><path class="cls-1" d="M8.36089,89.40929c0,.56299-.22412,.95361-.67236,1.17334-.44824,.22021-.89648,.22021-1.34473,0-.44824-.21973-.67236-.61035-.67236-1.17334v-9.54492c0-.21094-.14111-.43896-.42188-.68555-.28125-.24609-.44824-.4126-.50098-.50098-.21094-.4043-.22412-.80811-.03955-1.21289,.18457-.4043,.49658-.6499,.93604-.73828,.68555-.17529,1.36182,.20215,2.03027,1.13379,.45703,.63281,.68555,1.59131,.68555,2.87402v8.6748Zm8.30566-10.44141c.05273,.28125,.08789,.58008,.10547,.89648,.01709,.31641,.01709,.68994,0,1.12061-.01758,.43115-.02637,.73438-.02637,.90967v3.77051c0,5.69531-1.5293,9.76514-4.58789,12.20801-.89648,.73828-1.88135,1.30078-2.95312,1.6875-1.23047,.42188-2.04785,.35156-2.45215-.21094-.26367-.33398-.33398-.7251-.21094-1.17334,.12256-.44824,.38623-.75146,.79102-.90967,.1582-.05273,.38623-.13184,.68555-.2373,.29883-.10547,.53613-.18848,.71191-.25049,.17529-.06152,.38232-.14893,.61963-.26367,.2373-.11426,.46143-.24121,.67236-.38232,2.68945-1.82812,4.0249-5.27344,4.00781-10.33594v-6.03809c0-.42188-.12305-.69434-.36914-.81738-.65039-.6499-.83496-1.25635-.55371-1.81934,.4043-.6499,.85693-.89648,1.35791-.73828s.97119,.51416,1.41064,1.06787c.43896,.55371,.70264,1.05908,.79102,1.51611Z"/><path class="cls-1" d="M44.16069,85.84972c.52734-.01709,.92285,.20703,1.18652,.67236,.26367,.46582,.26367,.92725,0,1.38428-.28125,.43945-.76465,.65039-1.4502,.63281-10.10791,.17578-15.74121,.2373-16.90137,.18457-.51025-.01709-1.07227-.11865-1.6875-.30322-.61572-.18457-1.16016-.4917-1.63477-.92285-.47461-.43066-.64209-.92676-.50098-1.48975,.10547-.43896,.36914-.74219,.79102-.90967,.42188-.16699,.82617-.13574,1.21289,.09229,.08789,.05273,.2373,.14502,.44824,.27686s.36475,.22412,.46143,.27686c.09619,.05273,.23291,.10986,.40869,.17139,.17529,.06201,.36914,.10156,.58008,.11865,.82617,.03564,2.91748,.03564,6.27539,0l10.81055-.18457Z"/><path class="cls-1" d="M65.45122,95.13097c.22803,.38672,.25928,.79102,.09229,1.21289-.16748,.42188-.46143,.68555-.8833,.79102-.12305,.03564-.2417,.05273-.35596,.05273-.11475,0-.21533-.00879-.30322-.02637-.08838-.01709-.17578-.05664-.26367-.11865-.08838-.06152-.16748-.11426-.2373-.1582-.07031-.04346-.14502-.11865-.22412-.22412s-.13623-.18018-.17139-.22412c-.03564-.04346-.09668-.13184-.18457-.26367-.08838-.13184-.14941-.21484-.18457-.25049-1.26562-1.79297-2.79492-3.32227-4.58789-4.58789-.05273-.03516-.12793-.09229-.22412-.17139-.09668-.0791-.16748-.13184-.21094-.1582-.04395-.02637-.09668-.03516-.1582-.02637-.06201,.00928-.12793,.04883-.19775,.11865l-.52734,.63281c-.12305,.12305-.3125,.31641-.56689,.58008-.25488,.26367-.44434,.45752-.56689,.58008-.70312,.66846-1.53857,1.38037-2.50488,2.13574-.73828,.58008-1.61768,1.17773-2.63672,1.79297-.03564,.01758-.2334,.14502-.59326,.38232-.36035,.2373-.61572,.39941-.76465,.48779-.14941,.08789-.36914,.19336-.65918,.31641-.29004,.12256-.54053,.20166-.75146,.2373-.45752,.06982-.84814-.05273-1.17334-.36914-.32568-.31641-.46143-.69434-.40869-1.13379,.03516-.22803,.13574-.43506,.30322-.61963,.16699-.18457,.30713-.32031,.42188-.40869,.11426-.08789,.33838-.20654,.67236-.35596,.3335-.14893,.51807-.23291,.55371-.25049,1.8457-1.01904,3.48047-2.1792,4.9043-3.48047,3.11133-2.77734,5.51074-6.31885,7.19824-10.62598-1.21289,.21094-3.10254,.46582-5.66895,.76465-.21094,.01758-.59326,.06592-1.14697,.14502s-1.00195,.14111-1.34473,.18457c-.34277,.04395-.73828,.05273-1.18652,.02637s-.84814-.10107-1.19971-.22412c-.43945-.1582-.82666-.42188-1.16016-.79102-.33398-.36914-.51025-.76465-.52734-1.18652,0-.35156,.13184-.66309,.39551-.93604,.26367-.27246,.58008-.41748,.94922-.43506,.42188,0,.76465,.1582,1.02832,.47461,.1582,.22852,.25439,.34277,.29004,.34277,.1582,.03564,.78174,0,1.87207-.10547,2.81201-.28076,4.86865-.52734,6.16992-.73828,1.01904-.17529,1.74902-.35986,2.18848-.55371,.84375-.35156,1.5293-.27246,2.05664,.2373,.5625,.56299,.63281,1.45947,.21094,2.68945-.31641,.87939-.69482,1.81055-1.13379,2.79492-.84375,1.86328-1.80225,3.55078-2.87402,5.0625,2.63672,1.72314,4.72852,3.84961,6.27539,6.38086Zm.84375-16.53223c.1582,.56299,.00879,1.01123-.44824,1.34473-.45752,.33398-.90576,.28125-1.34473-.1582-.08838-.10547-.16748-.23291-.2373-.38232-.07031-.14893-.13623-.32031-.19775-.51416-.06201-.19336-.10986-.3335-.14502-.42188-.31641-.75537-.58936-1.25635-.81738-1.50293-.38672-.43896-.38232-.89648,.01318-1.37109s.83936-.5708,1.33154-.29004c.70264,.40479,1.31836,1.50293,1.8457,3.2959Zm2.95312-.55371c.08789,.35205,.01318,.65918-.22412,.92285s-.53662,.3916-.89648,.38232c-.36035-.00879-.63721-.17139-.83057-.48779-.10547-.1582-.22021-.41748-.34277-.77783-.12305-.35986-.20215-.57568-.2373-.646-.07031-.12256-.34277-.58887-.81738-1.39746-.29932-.50977-.22021-.9624,.2373-1.35791,.45703-.39551,.91357-.40869,1.37109-.03955,.77344,.65039,1.35352,1.78418,1.74023,3.40137Z"/><path class="cls-1" d="M91.29594,83.0548c.05273,.75586-.31641,1.2041-1.10742,1.34473-.29932,.05273-.49219,.08838-.58008,.10547-.08838,.01758-.30762,.03564-.65918,.05273l-5.53711,.31641h-.43506c-.02637,0-.05713,.02637-.09229,.0791-.03564,.05273-.05273,.13184-.05273,.2373,0,.17578-.01758,.46582-.05273,.87012-.01758,.38672-.06201,.94922-.13184,1.6875-.12305,1.21289-.28125,2.24121-.47461,3.08496-.47461,2.23242-1.24854,4.06055-2.32031,5.48438-.61572,.79102-1.3623,1.46729-2.24121,2.03027-1.01953,.6499-1.78418,.84375-2.29395,.58008-.33398-.1582-.56299-.41309-.68555-.76465-.12305-.35205-.09668-.69482,.0791-1.02832,.14062-.28076,.4834-.56689,1.02832-.85693,.54443-.29004,.84375-.47021,.89648-.54053,.7207-.5625,1.32227-1.25635,1.80615-2.08301,.4834-.82617,.83057-1.79297,1.0415-2.90039s.35596-2.03418,.43506-2.78174c.0791-.74707,.14502-1.71777,.19775-2.91357-3.35791,.1582-5.0625,.2373-5.11523,.2373-1.95117,.03564-3.19043-.47461-3.71777-1.5293-.21094-.42188-.20703-.83447,.01318-1.23926,.21973-.4043,.53125-.63672,.93604-.69873,.4043-.06152,.7998,.05713,1.18652,.35596,.17529,.17578,.43896,.30322,.79102,.38232,.35156,.0791,.65918,.10986,.92285,.09229l4.79883-.29004c.10547,0,.18018-.02197,.22412-.06592,.04346-.04346,.06592-.08301,.06592-.11865v-.18457c.01709-.54443,.01709-1.41455,0-2.61035v-.38232c0-.09619-.00439-.21094-.01318-.34277-.00928-.13184-.03076-.24609-.06592-.34277-.03564-.09619-.0835-.18848-.14502-.27686-.06201-.08789-.14502-.16699-.25049-.2373-.26367-.19336-.44434-.45215-.54053-.77783-.09668-.3252-.0752-.63672,.06592-.93604,.28076-.5625,.63672-.82617,1.06787-.79102,.43066,.03564,.84375,.21533,1.23926,.54053,.39551,.32568,.68945,.68164,.8833,1.06787,.19336,.35205,.3335,.77783,.42188,1.27881,.08789,.50098,.13184,.91895,.13184,1.25244,0,.33398-.01758,.82178-.05273,1.46338-.03564,.64209-.05273,1.06787-.05273,1.27881l5.66895-.31641c.03516,0,.14893-.00879,.34277-.02637,.19336-.01709,.32959-.02637,.40869-.02637h.38232c.96631,0,1.49365,.41309,1.58203,1.23926Z"/><path class="cls-1" d="M114.56841,78.01867c.12256,.42188,.05664,.79102-.19775,1.10742-.25488,.31641-.56689,.45752-.93604,.42188-.01758,.05273-.03076,.14111-.03955,.26367-.00928,.12305-.01318,.22021-.01318,.29004-.51025,4.4126-2.09229,8.34961-4.74609,11.8125-1.26562,1.65234-2.7251,3.11133-4.37695,4.37695-1.00195,.73828-1.96875,1.35352-2.90039,1.8457-.08838,.05273-.29004,.16211-.60645,.32959-.31641,.16699-.56299,.29395-.73828,.38232-.17578,.08789-.3999,.18018-.67236,.27686-.27295,.09619-.51416,.15381-.7251,.17139-.45752,.03516-.83057-.11865-1.12061-.46143s-.3916-.73438-.30322-1.17334c.05273-.21094,.1582-.4043,.31641-.58008,.1582-.17529,.31201-.30322,.46143-.38232,.14893-.0791,.36914-.17529,.65918-.29004,.29004-.11426,.48779-.18848,.59326-.22412,1.89844-.86084,3.63867-2.06543,5.2207-3.6123,1.56445-1.51172,2.86084-3.24316,3.88916-5.19434s1.74414-3.99023,2.14893-6.11719c-.91406,.05273-2.48291,.16748-4.70654,.34277-2.22412,.17578-3.93311,.29932-5.12842,.36914-.61572,.10547-1.31445,.11475-2.09619,.02637-.78223-.08789-1.41992-.34277-1.91162-.76465-.33398-.38623-.49219-.79492-.47461-1.22607,.01709-.43066,.21973-.77783,.60645-1.0415,.38623-.26367,.80811-.27246,1.26562-.02637,.03516,.01758,.10938,.07031,.22412,.1582,.11426,.08838,.20654,.14111,.27686,.1582,.10547,.03564,.37793,.05273,.81738,.05273,.50977,0,3.8667-.2373,10.07227-.71191h.76465c.12256,0,.25049-.02637,.38232-.0791s.23291-.12256,.30322-.21094c.3335-.4043,.75537-.58008,1.26562-.52734-.24658-.6499-.50098-1.12451-.76465-1.42383-.38672-.43896-.38232-.89648,.01318-1.37109s.84766-.5625,1.35791-.26367c.68555,.40479,1.29199,1.50293,1.81934,3.2959Zm2.95312-.58008c.08789,.35205,.01318,.65918-.22412,.92285s-.53662,.3916-.89648,.38232c-.36035-.00879-.63721-.16211-.83057-.46143-.10547-.1582-.21533-.41748-.32959-.77783-.11475-.35986-.18896-.57568-.22412-.646-.07031-.12256-.35205-.59717-.84375-1.42383-.29932-.50977-.21533-.95801,.25049-1.34473,.46533-.38623,.91846-.4043,1.35791-.05273,.77344,.65039,1.35352,1.78418,1.74023,3.40137Z"/><path class="cls-1" d="M125.4102,81.65734c.22803,.56299,.21973,1.58203-.02637,3.05859-.1582,.98486-.40479,1.96045-.73828,2.92676-.65039,1.93408-1.54688,3.77979-2.68945,5.53711-.56299,.89648-1.18652,1.73145-1.87207,2.50488-.03564,.03564-.14941,.16748-.34277,.39551-.12305,.14111-.38672,.43115-.79102,.87012-.66846,.70264-1.31836,.93164-1.95117,.68555-.35205-.14111-.59766-.37793-.73828-.71191-.14111-.68555,.09619-1.31836,.71191-1.89844,1.44092-1.33545,2.66699-2.95312,3.67822-4.85156,1.01074-1.89844,1.70068-3.83203,2.06982-5.80078,.10547-.7207,.16699-1.24805,.18457-1.58203,0-.06982-.03955-.12744-.11865-.17139-.0791-.04346-.18457-.08301-.31641-.11865-.13184-.03516-.20703-.06152-.22412-.0791-.29932-.17529-.49707-.45703-.59326-.84375-.09668-.38623-.03955-.729,.17139-1.02832,.3335-.4917,.74219-.71191,1.22607-.65918,.4834,.05273,.95801,.25977,1.42383,.61963,.46533,.36035,.77783,.74268,.93604,1.14697Zm12.97217,1.00195c.33398,.08838,.58008,.25488,.73828,.50098,.1582,.24658,.23242,.50537,.22461,.77783-.00977,.27295-.06641,.59326-.17188,.9624s-.21484,.68994-.32812,.9624c-.11523,.27295-.25195,.55811-.41016,.85693-.07031,.12305-.11328,.21094-.13086,.26367-.66797,1.45947-1.60938,2.99707-2.82227,4.61426-.21094,.28125-.38086,.50098-.51367,.65918-.13086,.1582-.38281,.46143-.75195,.90967s-.68555,.80859-.94922,1.08105c-.26367,.27295-.60156,.59766-1.01367,.97559-.41406,.37842-.7793,.646-1.0957,.8042s-.64551,.29004-.98828,.39551-.65918,.0791-.94922-.0791-.53174-.43066-.7251-.81738c-.12305-.24609-.20703-.5708-.25049-.97559-.04395-.4043-.04883-.90967-.01318-1.51611,.03516-.60645,.05273-.95312,.05273-1.0415v-8.93848c0-.06982,.01318-.20166,.03955-.39551,.02637-.19336,.03955-.36914,.03955-.52734s-.03564-.28076-.10547-.36914c-.03564-.08789-.2334-.31641-.59326-.68555-.36035-.36914-.50098-.75146-.42188-1.14697s.29395-.70264,.646-.92285c.35156-.21973,.7207-.26758,1.10742-.14502,.58008,.19385,1.05859,.59766,1.43701,1.21289,.37793,.61572,.56641,1.23926,.56641,1.87207v10.70508c1.56445-1.5293,2.93555-3.30469,4.11328-5.32617,.65039-1.14258,1.13477-2.22363,1.45117-3.24316,.4043-1.16016,1.00977-1.63477,1.81836-1.42383Z"/><path class="cls-1" d="M147.50053,94.07629c.58008,.29932,.83887,.72949,.77734,1.29199-.06152,.56299-.28516,1.125-.67188,1.6875s-.79102,.94922-1.21289,1.16016c-.47461,.24609-.87891,.29883-1.21289,.1582-.33398-.14111-.61523-.33887-.84375-.59326-.22852-.25488-.41309-.60645-.55371-1.05469s-.24609-.85693-.31641-1.22607c-.29883-1.72266-.31641-3.81396-.05273-6.27539,.14062-1.24805,.2373-2.10498,.29004-2.5708,.05273-.46533,.17188-1.32227,.35547-2.5708,.18555-1.24805,.30371-2.1001,.35645-2.55762,.12305-1.05469,.13184-1.95117,.02637-2.68945-.05273-.42188,.00879-.79492,.18457-1.12061,.17578-.3252,.47461-.52295,.89648-.59326,.33398-.05273,.62402-.02197,.87012,.09229,.24609,.11475,.42188,.31641,.52734,.60645s.18848,.57617,.25,.85693c.06152,.28125,.08789,.62891,.08008,1.0415-.00977,.41309-.02246,.7251-.04004,.93604s-.04395,.47461-.0791,.79102c-.07031,.73828-.24609,2.06104-.52734,3.96826-.28125,1.90771-.4707,3.54248-.56641,4.9043-.09766,1.3623-.09277,2.69385,.0127,3.99463,.42188-.38623,.90527-.46533,1.4502-.2373Zm16.08398,1.31836c.03516,.70312-.26367,1.17773-.89648,1.42383-.35156,.12305-.84375,.21094-1.47656,.26367-.12305,.01758-.28613,.03076-.48828,.03955-.20215,.00928-.33789,.01318-.4082,.01318-1.81055,.05273-3.55078-.06982-5.2207-.36914-1.96875-.3335-3.35742-1.01904-4.16602-2.05664-.43945-.58008-.73828-1.2959-.89648-2.14893-.1582-.85254-.05273-1.604,.31641-2.25439,.4043-.58008,.94043-.73828,1.6084-.47461s.94922,.74756,.84375,1.4502c-.21094,1.40674,.4834,2.31152,2.08301,2.71582,1.42383,.31641,3.14648,.45752,5.16797,.42188,.12305,0,.43945-.02637,.94922-.0791s.89648-.0791,1.16016-.0791c.89648,0,1.37109,.37842,1.42383,1.13379Zm-10.38867-12.18164c-.38672,.22852-.78711,.25488-1.19922,.0791-.41406-.17529-.67285-.47461-.77832-.89648-.17578-.7207,.21094-1.30908,1.16016-1.7666,1.86328-.91357,3.98145-1.44092,6.35449-1.58203,1.31836-.06982,2.25,.08838,2.79492,.47461,.79102,.61572,1.08984,1.38867,.89648,2.32031-.08789,.45752-.26855,.83984-.54102,1.14697-.27246,.30762-.62793,.45264-1.06738,.43506-.42188-.03516-.76074-.22803-1.01465-.58008-.25586-.35156-.33008-.729-.22461-1.13379-1.03711-.03516-2.14844,.0791-3.33594,.34277-1.18555,.26367-2.20117,.65039-3.04492,1.16016Z"/><path class="cls-1" d="M175.82964,96.97668c-.47461,.43945-1.05469,.65918-1.74023,.65918s-1.26562-.21973-1.74023-.65918c-.47461-.43896-.71191-1.00195-.71191-1.6875s.2373-1.25244,.71191-1.70068,1.05469-.67236,1.74023-.67236,1.26562,.22412,1.74023,.67236,.71191,1.01514,.71191,1.70068-.2373,1.24854-.71191,1.6875Zm-.92285-6.53906c-.22852,.21094-.50098,.31641-.81738,.31641s-.58887-.10547-.81738-.31641-.35156-.47461-.36914-.79102l-.71191-8.83301-.02637-1.58203c-.01758-.54443,.16699-1.01074,.55371-1.39746,.38672-.38623,.84766-.58008,1.38477-.58008,.53516,0,.99707,.19385,1.38379,.58008,.38672,.38672,.57129,.85303,.55371,1.39746l-.02637,1.58203-.73828,8.83301c-.01758,.31641-.14062,.58008-.36914,.79102Z"/></g></g></svg>