<?xml version="1.0" encoding="UTF-8"?><svg id="_レイヤー_2" xmlns="http://www.w3.org/2000/svg" viewBox="0 0 266.63721 16.5"><defs><style>.cls-1{fill:#b60005;}</style></defs><g id="header"><g><path class="cls-1" d="M.83984,1.08008c0-.13965-.04492-.25488-.13501-.34521-.08984-.08984-.3252-.15479-.70483-.19482V.18018H11.42993c.81982,0,1.56982,.08008,2.25,.23975,.67969,.16016,1.26978,.40527,1.77002,.73486,.49976,.33008,.88965,.76025,1.16992,1.29004,.28003,.53027,.42017,1.16553,.42017,1.90527,0,.8999-.27002,1.625-.81006,2.1748-.54004,.55029-1.22998,.91504-2.07007,1.09521v.06006c1.02002,.28027,1.85498,.70996,2.50513,1.28955,.64966,.58057,.97485,1.43018,.97485,2.55029,0,.6001-.11523,1.16992-.34497,1.70996-.23022,.54004-.59009,1.01025-1.08008,1.41016-.49023,.3999-1.12012,.71973-1.88989,.95996-.77026,.23975-1.68506,.35986-2.74512,.35986H0v-.35986c.37964-.04004,.61499-.10498,.70483-.19531,.09009-.08984,.13501-.20459,.13501-.34473V1.08008ZM9.41992,6.12012c.63989,0,1.16992-.01514,1.59009-.04492,.41992-.03027,.75-.09473,.98999-.19531,.23999-.09961,.40967-.23975,.51001-.41992,.09985-.18018,.1499-.41992,.1499-.72021,0-.2998-.05005-.53955-.1499-.71973-.10034-.18018-.27002-.31982-.51001-.41992s-.57007-.16504-.98999-.19531c-.42017-.02979-.9502-.04492-1.59009-.04492H5.33984v2.76025h4.08008Zm1.02002,6.65967c1.08008,0,1.83984-.13477,2.28003-.40479,.4397-.27002,.65991-.73486,.65991-1.39502s-.22021-1.125-.65991-1.39502c-.44019-.27002-1.19995-.40479-2.28003-.40479H5.33984v3.59961h5.1001Z"/><path class="cls-1" d="M21.59961,3.66016c0-.22021-.08521-.36035-.25488-.42041-.17017-.05957-.375-.09961-.61499-.11963v-.36035h5.3999v.36035c-.10034,.02002-.20996,.06006-.33008,.11963-.11987,.06006-.17993,.2002-.17993,.42041v7.29004c0,.76025,.27466,1.30469,.82495,1.63477,.5498,.33008,1.27515,.49512,2.17505,.49512s1.62476-.16504,2.17505-.49512c.5498-.33008,.82495-.87451,.82495-1.63477V3.66016c0-.22021-.06006-.36035-.17993-.42041-.12012-.05957-.23022-.09961-.33008-.11963v-.36035h5.3999v.36035c-.23999,.02002-.44531,.06006-.61499,.11963-.17017,.06006-.25488,.2002-.25488,.42041v6.59961c0,.80029-.12012,1.55566-.36011,2.26514-.23999,.71045-.62988,1.33057-1.16992,1.85986-.54004,.53027-1.26001,.94043-2.15991,1.22998-.90015,.29053-2.01001,.43506-3.33008,.43506s-2.42993-.14453-3.33008-.43506c-.8999-.28955-1.61987-.69971-2.15991-1.22998-.54004-.5293-.92993-1.14941-1.16992-1.85986-.23999-.70947-.36011-1.46484-.36011-2.26514V3.66016Z"/><path class="cls-1" d="M40.67944,11.5498c0,.04053-.00513,.08545-.01489,.13525-.0105,.05029-.01514,.11523-.01514,.19482,0,.2002,.18994,.39014,.57007,.57031,.37964,.17969,.86475,.34473,1.45483,.49463,.58984,.1499,1.23022,.27002,1.92017,.36035,.68994,.08984,1.33496,.13477,1.93506,.13477,.17993,0,.42456-.00977,.73486-.02979,.30981-.02002,.61499-.0752,.91504-.16504,.30005-.09033,.55493-.22021,.76489-.39014,.21021-.16992,.31519-.40479,.31519-.70508,0-.3999-.23999-.68457-.71997-.85498-.48022-.16943-1.08521-.2998-1.81519-.39014-.73022-.08984-1.52002-.18457-2.36987-.28467-.85034-.1001-1.64014-.2749-2.37012-.52539-.73022-.24951-1.33496-.60938-1.81494-1.07959-.47998-.46973-.71997-1.125-.71997-1.96533,0-.45947,.11987-.95459,.35986-1.48486,.23999-.52979,.61987-1.01465,1.14014-1.45508,.51978-.43945,1.20459-.80469,2.05493-1.09473,.84985-.29004,1.88477-.43506,3.10498-.43506,.71997,0,1.40479,.04004,2.05518,.12012,.64966,.08008,1.23975,.16992,1.76978,.26953,.52979,.10059,.97974,.19043,1.3501,.27002,.36987,.08057,.63477,.12012,.79492,.12012,.15991,0,.28979-.04492,.39014-.13477,.09985-.09033,.1897-.16504,.27002-.2251l.32983,.12012-1.7998,3.77979-.39014-.18018c0-.03955,.00464-.08984,.01514-.1499,.00977-.06006,.01489-.11963,.01489-.17969,0-.08008-.11987-.18018-.36011-.30029-.23999-.12012-.55493-.23975-.94482-.35986-.39014-.12012-.83032-.2251-1.32007-.31494-.49023-.08984-.99512-.13525-1.51489-.13525-.18018,0-.46045,.00537-.84009,.01514-.38013,.01025-.76025,.06006-1.13989,.1499-.38037,.09033-.71533,.22021-1.00513,.39014-.29004,.16992-.43506,.42529-.43506,.76514,0,.35986,.23999,.61475,.71997,.76465,.47998,.15039,1.08472,.27002,1.81519,.36035,.72974,.08984,1.51953,.18994,2.36987,.2998,.84985,.11035,1.63965,.29541,2.37012,.55518,.72974,.26025,1.33496,.63525,1.81494,1.125,.47998,.49023,.71997,1.1748,.71997,2.05469,0,.58057-.13037,1.13574-.38989,1.66504-.26025,.53027-.66016,.99512-1.2002,1.39502-.53979,.40039-1.2251,.70508-2.05493,.91504-.83008,.20996-1.81494,.31494-2.95508,.31494-.71997,0-1.4502-.04492-2.18994-.13477-.73999-.08984-1.42017-.19971-2.04004-.33008-.62012-.12988-1.13525-.25-1.54492-.35986-.41016-.10986-.64502-.16504-.70508-.16504-.14014,0-.26514,.04492-.375,.13477-.11011,.09033-.21509,.18506-.31494,.28516l-.33008-.08984,1.23022-4.02002,.38989,.17969Z"/><path class="cls-1" d="M61.85938,3.12012c-.30005,.02002-.5354,.06006-.70508,.11963-.17017,.06006-.25488,.2002-.25488,.42041V15.06006c0,.22021,.08472,.35986,.25488,.41992,.16968,.06006,.40503,.1001,.70508,.12012v.35986h-5.93994v-.35986c.30005-.02002,.53491-.06006,.70508-.12012,.16968-.06006,.25488-.19971,.25488-.41992V3.66016c0-.22021-.08521-.36035-.25488-.42041-.17017-.05957-.40503-.09961-.70508-.11963v-.36035h5.93994v.36035Z"/><path class="cls-1" d="M80.51929,15.06006c0,.22021,.07959,.35986,.23999,.41992,.15967,.06006,.35986,.1001,.59985,.12012v.35986h-5.55005v-.35986c.15991,0,.34497-.02002,.55518-.06006,.20996-.04004,.31494-.1499,.31494-.33008s-.22046-.51465-.65991-1.00488c-.44019-.48975-1.00513-1.09521-1.69507-1.81494-.68994-.72021-1.46533-1.5249-2.32495-2.41504-.86035-.88965-1.71021-1.83496-2.55005-2.83496l-.06006,.06006v7.85986c0,.22021,.07495,.35986,.2251,.41992,.1499,.06006,.33472,.1001,.55493,.12012v.35986h-5.13013v-.35986c.19971-.02002,.375-.06006,.52515-.12012,.1499-.06006,.22485-.19971,.22485-.41992V3.66016c0-.22021-.08008-.36035-.23999-.42041-.16016-.05957-.3501-.09961-.56982-.11963v-.36035h7.13989v.36035c-.14014,.02002-.28027,.06006-.41992,.11963-.14014,.06006-.20996,.2002-.20996,.42041,0,.04004,.16479,.24512,.49487,.61475,.33008,.37061,.75464,.83545,1.27515,1.39502,.51978,.56006,1.09961,1.18018,1.73999,1.85986,.63965,.68018,1.27954,1.36035,1.91992,2.04004V3.66016c0-.22021-.08008-.36035-.23999-.42041-.1604-.05957-.36011-.09961-.6001-.11963v-.36035h5.28003v.36035c-.23999,.02002-.44019,.06006-.59985,.11963-.1604,.06006-.23999,.2002-.23999,.42041V15.06006Z"/><path class="cls-1" d="M97.64868,13.31982c.3999,0,.66016-.24951,.78003-.75h.36011v3.93018h-.30005c-.10034-.28027-.20532-.44043-.31494-.47998-.11035-.04053-.28516-.06006-.52515-.06006h-13.37988v-.35986c.21973-.02002,.41479-.06006,.58496-.12012,.16968-.06006,.25488-.19971,.25488-.41992V3.66016c0-.22021-.08521-.36035-.25488-.42041-.17017-.05957-.36523-.09961-.58496-.11963v-.36035h13.61987c.12012,0,.23999-.03955,.36011-.11963,.11987-.08008,.17993-.25977,.17993-.54004h.36011V6.12012h-.36011c0-.30029-.06006-.49512-.17993-.58496-.12012-.09033-.23999-.13525-.36011-.13525h-8.76001v2.43018h5.64014c.11987,0,.23999-.04492,.35986-.13525,.12012-.08984,.18018-.27441,.18018-.55469h.35986v3.8999h-.35986c0-.27979-.06006-.46484-.18018-.55518-.11987-.08984-.23999-.13477-.35986-.13477h-5.64014v2.96973h8.52002Z"/><path class="cls-1" d="M102.80859,11.5498c0,.04053-.00513,.08545-.01489,.13525-.0105,.05029-.01514,.11523-.01514,.19482,0,.2002,.18994,.39014,.57007,.57031,.37964,.17969,.86475,.34473,1.45483,.49463,.58984,.1499,1.23022,.27002,1.92017,.36035,.68994,.08984,1.33496,.13477,1.93506,.13477,.17993,0,.42456-.00977,.73486-.02979,.30981-.02002,.61499-.0752,.91504-.16504,.30005-.09033,.55493-.22021,.76489-.39014,.21021-.16992,.31519-.40479,.31519-.70508,0-.3999-.23999-.68457-.71997-.85498-.48022-.16943-1.08521-.2998-1.81519-.39014-.73022-.08984-1.52002-.18457-2.36987-.28467-.85034-.1001-1.64014-.2749-2.37012-.52539-.73022-.24951-1.33496-.60938-1.81494-1.07959-.47998-.46973-.71997-1.125-.71997-1.96533,0-.45947,.11987-.95459,.35986-1.48486,.23999-.52979,.61987-1.01465,1.14014-1.45508,.51978-.43945,1.20459-.80469,2.05493-1.09473,.84985-.29004,1.88477-.43506,3.10498-.43506,.71997,0,1.40479,.04004,2.05518,.12012,.64966,.08008,1.23975,.16992,1.76978,.26953,.52979,.10059,.97974,.19043,1.3501,.27002,.36987,.08057,.63477,.12012,.79492,.12012,.15991,0,.28979-.04492,.39014-.13477,.09985-.09033,.1897-.16504,.27002-.2251l.32983,.12012-1.7998,3.77979-.39014-.18018c0-.03955,.00464-.08984,.01514-.1499,.00977-.06006,.01489-.11963,.01489-.17969,0-.08008-.11987-.18018-.36011-.30029-.23999-.12012-.55493-.23975-.94482-.35986-.39014-.12012-.83032-.2251-1.32007-.31494-.49023-.08984-.99512-.13525-1.51489-.13525-.18018,0-.46045,.00537-.84009,.01514-.38013,.01025-.76025,.06006-1.13989,.1499-.38037,.09033-.71533,.22021-1.00513,.39014-.29004,.16992-.43506,.42529-.43506,.76514,0,.35986,.23999,.61475,.71997,.76465,.47998,.15039,1.08472,.27002,1.81519,.36035,.72974,.08984,1.51953,.18994,2.36987,.2998,.84985,.11035,1.63965,.29541,2.37012,.55518,.72974,.26025,1.33496,.63525,1.81494,1.125,.47998,.49023,.71997,1.1748,.71997,2.05469,0,.58057-.13037,1.13574-.38989,1.66504-.26025,.53027-.66016,.99512-1.2002,1.39502-.53979,.40039-1.2251,.70508-2.05493,.91504-.83008,.20996-1.81494,.31494-2.95508,.31494-.71997,0-1.4502-.04492-2.18994-.13477-.73999-.08984-1.42017-.19971-2.04004-.33008-.62012-.12988-1.13525-.25-1.54492-.35986-.41016-.10986-.64502-.16504-.70508-.16504-.14014,0-.26514,.04492-.375,.13477-.11011,.09033-.21509,.18506-.31494,.28516l-.33008-.08984,1.23022-4.02002,.38989,.17969Z"/><path class="cls-1" d="M118.76855,11.5498c0,.04053-.00513,.08545-.01489,.13525-.0105,.05029-.01514,.11523-.01514,.19482,0,.2002,.18994,.39014,.57007,.57031,.37964,.17969,.86475,.34473,1.45483,.49463,.58984,.1499,1.23022,.27002,1.92017,.36035,.68994,.08984,1.33496,.13477,1.93506,.13477,.17993,0,.42456-.00977,.73486-.02979,.30981-.02002,.61499-.0752,.91504-.16504,.30005-.09033,.55493-.22021,.76489-.39014,.21021-.16992,.31519-.40479,.31519-.70508,0-.3999-.23999-.68457-.71997-.85498-.48022-.16943-1.08521-.2998-1.81519-.39014-.73022-.08984-1.52002-.18457-2.36987-.28467-.85034-.1001-1.64014-.2749-2.37012-.52539-.73022-.24951-1.33496-.60938-1.81494-1.07959-.47998-.46973-.71997-1.125-.71997-1.96533,0-.45947,.11987-.95459,.35986-1.48486,.23999-.52979,.61987-1.01465,1.14014-1.45508,.51978-.43945,1.20459-.80469,2.05493-1.09473,.84985-.29004,1.88477-.43506,3.10498-.43506,.71997,0,1.40479,.04004,2.05518,.12012,.64966,.08008,1.23975,.16992,1.76978,.26953,.52979,.10059,.97974,.19043,1.3501,.27002,.36987,.08057,.63477,.12012,.79492,.12012,.15991,0,.28979-.04492,.39014-.13477,.09985-.09033,.1897-.16504,.27002-.2251l.32983,.12012-1.7998,3.77979-.39014-.18018c0-.03955,.00464-.08984,.01514-.1499,.00977-.06006,.01489-.11963,.01489-.17969,0-.08008-.11987-.18018-.36011-.30029-.23999-.12012-.55493-.23975-.94482-.35986-.39014-.12012-.83032-.2251-1.32007-.31494-.49023-.08984-.99512-.13525-1.51489-.13525-.18018,0-.46045,.00537-.84009,.01514-.38013,.01025-.76025,.06006-1.13989,.1499-.38037,.09033-.71533,.22021-1.00513,.39014-.29004,.16992-.43506,.42529-.43506,.76514,0,.35986,.23999,.61475,.71997,.76465,.47998,.15039,1.08472,.27002,1.81519,.36035,.72974,.08984,1.51953,.18994,2.36987,.2998,.84985,.11035,1.63965,.29541,2.37012,.55518,.72974,.26025,1.33496,.63525,1.81494,1.125,.47998,.49023,.71997,1.1748,.71997,2.05469,0,.58057-.13037,1.13574-.38989,1.66504-.26025,.53027-.66016,.99512-1.2002,1.39502-.53979,.40039-1.2251,.70508-2.05493,.91504-.83008,.20996-1.81494,.31494-2.95508,.31494-.71997,0-1.4502-.04492-2.18994-.13477-.73999-.08984-1.42017-.19971-2.04004-.33008-.62012-.12988-1.13525-.25-1.54492-.35986-.41016-.10986-.64502-.16504-.70508-.16504-.14014,0-.26514,.04492-.375,.13477-.11011,.09033-.21509,.18506-.31494,.28516l-.33008-.08984,1.23022-4.02002,.38989,.17969Z"/><path class="cls-1" d="M157.19849,5.79004c.01953-.06006,.03467-.125,.04492-.19531,.00977-.06982,.01514-.1543,.01514-.25488,0-.15967-.13501-.31934-.40503-.47998-.27002-.15967-.63013-.30469-1.08008-.43506-.44995-.12988-.96509-.23975-1.54492-.33008-.58032-.08984-1.19019-.13477-1.83008-.13477-.6001,0-1.22998,.07031-1.88989,.20996-.66016,.14014-1.26538,.37012-1.81519,.68994-.55029,.32031-1.00024,.74561-1.34985,1.2749-.35034,.53027-.52515,1.17529-.52515,1.93506,0,.76025,.1748,1.40527,.52515,1.93506,.34961,.53027,.79956,.95557,1.34985,1.2749,.5498,.32031,1.15503,.55029,1.81519,.68994,.65991,.14062,1.28979,.21045,1.88989,.21045,.25977,0,.66992-.04541,1.22998-.13525,.55981-.08984,1.11987-.21484,1.67993-.375,.55981-.15967,1.05469-.33984,1.48511-.54004,.42993-.19971,.64502-.40967,.64502-.62988,0-.1001-.02026-.18018-.06006-.24023-.04028-.05957-.08008-.12988-.11987-.20996l.32983-.20996,3.09009,4.70996-.36011,.20996c-.04028-.09961-.09497-.16504-.16504-.19482-.07031-.02979-.15503-.04492-.25488-.04492-.14014,0-.41992,.08545-.84009,.25488-.41992,.17041-.96509,.3501-1.63501,.54004-.67017,.19043-1.45483,.35986-2.35498,.51025-.8999,.1499-1.91016,.22461-3.03003,.22461-1.19995,0-2.39014-.1543-3.56982-.46484-1.18042-.31006-2.24023-.7998-3.18018-1.47021-.94019-.66943-1.69995-1.50977-2.27979-2.52002-.58032-1.00928-.87012-2.18457-.87012-3.5249,0-1.33936,.28979-2.51465,.87012-3.5249,.57983-1.00977,1.3396-1.84961,2.27979-2.52002,.93994-.66992,1.99976-1.1748,3.18018-1.51514,1.17969-.33984,2.36987-.50977,3.56982-.50977,1.2002,0,2.23511,.06494,3.10522,.19482,.86987,.13037,1.60498,.27539,2.20483,.43506,.57983,.16016,1.02979,.29541,1.3501,.40527,.31958,.10986,.55957,.16504,.71997,.16504,.17993,0,.33008-.08008,.44995-.24023l.33008,.08984-2.69995,4.9502-.30005-.20996Z"/><path class="cls-1" d="M170.48804,2.58008c.93994,0,1.88501,.13037,2.83521,.38965,.94946,.26025,1.80981,.66553,2.57983,1.21533,.76978,.55029,1.39502,1.25537,1.875,2.11475,.47998,.86035,.71997,1.88037,.71997,3.06006,0,1.2002-.23999,2.2251-.71997,3.0752s-1.10522,1.54492-1.875,2.08496c-.77002,.54004-1.63037,.93018-2.57983,1.16992-.9502,.24023-1.89526,.35986-2.83521,.35986-.94019,0-1.88525-.11963-2.83496-.35986-.9502-.23975-1.8103-.62988-2.57983-1.16992-.77026-.54004-1.39502-1.23486-1.875-2.08496-.48022-.8501-.72021-1.875-.72021-3.0752,0-1.17969,.23999-2.19971,.72021-3.06006,.47998-.85938,1.10474-1.56445,1.875-2.11475,.76953-.5498,1.62964-.95508,2.57983-1.21533,.94971-.25928,1.89478-.38965,2.83496-.38965Zm0,3.17969c-.56006,0-1.09033,.08594-1.58984,.25684-.50024,.17041-.94043,.41113-1.32007,.72266-.38013,.31104-.67505,.68799-.88501,1.12939-.20996,.44238-.31494,.94434-.31494,1.50635,0,.5625,.10498,1.06445,.31494,1.50586,.20996,.44238,.50488,.81885,.88501,1.12988,.37964,.31104,.81982,.55273,1.32007,.72314,.49951,.1709,1.02979,.25586,1.58984,.25586,.57983,0,1.11475-.08496,1.60498-.25586,.48999-.17041,.92505-.41211,1.30518-.72314,.37964-.31104,.67505-.6875,.88501-1.12988,.20996-.44141,.31494-.94336,.31494-1.50586,0-.56201-.10498-1.06396-.31494-1.50635-.20996-.44141-.50537-.81836-.88501-1.12939-.38013-.31152-.81519-.55225-1.30518-.72266-.49023-.1709-1.02515-.25684-1.60498-.25684Z"/><path class="cls-1" d="M196.31812,15.06006c0,.22021,.07959,.35986,.23999,.41992,.15967,.06006,.35986,.1001,.59985,.12012v.35986h-5.55005v-.35986c.15991,0,.34497-.02002,.55518-.06006,.20996-.04004,.31494-.1499,.31494-.33008s-.22046-.51465-.65991-1.00488c-.44019-.48975-1.00513-1.09521-1.69507-1.81494-.68994-.72021-1.46533-1.5249-2.32495-2.41504-.86035-.88965-1.71021-1.83496-2.55005-2.83496l-.06006,.06006v7.85986c0,.22021,.07495,.35986,.2251,.41992,.1499,.06006,.33472,.1001,.55493,.12012v.35986h-5.13013v-.35986c.19971-.02002,.375-.06006,.52515-.12012,.1499-.06006,.22485-.19971,.22485-.41992V3.66016c0-.22021-.08008-.36035-.23999-.42041-.16016-.05957-.3501-.09961-.56982-.11963v-.36035h7.13989v.36035c-.14014,.02002-.28027,.06006-.41992,.11963-.14014,.06006-.20996,.2002-.20996,.42041,0,.04004,.16479,.24512,.49487,.61475,.33008,.37061,.75464,.83545,1.27515,1.39502,.51978,.56006,1.09961,1.18018,1.73999,1.85986,.63965,.68018,1.27954,1.36035,1.91992,2.04004V3.66016c0-.22021-.08008-.36035-.23999-.42041-.1604-.05957-.36011-.09961-.6001-.11963v-.36035h5.28003v.36035c-.23999,.02002-.44019,.06006-.59985,.11963-.1604,.06006-.23999,.2002-.23999,.42041V15.06006Z"/><path class="cls-1" d="M212.87769,2.75977c.12012,0,.23999-.03955,.36011-.11963s.17993-.25977,.17993-.54004h.36011V6.47998h-.36011c0-.27979-.05981-.45996-.17993-.54004-.12012-.07959-.23999-.12012-.36011-.12012h-4.28979V15.06006c0,.22021,.07495,.35986,.22485,.41992,.15015,.06006,.30469,.1001,.46509,.12012v.35986h-5.40015v-.35986c.15991-.02002,.31519-.06006,.46509-.12012s.2251-.19971,.2251-.41992V5.81982h-4.29004c-.12012,0-.23999,.04053-.36011,.12012-.11987,.08008-.17993,.26025-.17993,.54004h-.36011V2.1001h.36011c0,.28027,.06006,.45996,.17993,.54004,.12012,.08008,.23999,.11963,.36011,.11963h12.59985Z"/><path class="cls-1" d="M229.40747,13.31982c.3999,0,.66016-.24951,.78003-.75h.36011v3.93018h-.30005c-.10034-.28027-.20532-.44043-.31494-.47998-.11035-.04053-.28516-.06006-.52515-.06006h-13.37988v-.35986c.21973-.02002,.41479-.06006,.58496-.12012,.16968-.06006,.25488-.19971,.25488-.41992V3.66016c0-.22021-.08521-.36035-.25488-.42041-.17017-.05957-.36523-.09961-.58496-.11963v-.36035h13.61987c.12012,0,.23999-.03955,.36011-.11963,.11987-.08008,.17993-.25977,.17993-.54004h.36011V6.12012h-.36011c0-.30029-.06006-.49512-.17993-.58496-.12012-.09033-.23999-.13525-.36011-.13525h-8.76001v2.43018h5.64014c.11987,0,.23999-.04492,.35986-.13525,.12012-.08984,.18018-.27441,.18018-.55469h.35986v3.8999h-.35986c0-.27979-.06006-.46484-.18018-.55518-.11987-.08984-.23999-.13477-.35986-.13477h-5.64014v2.96973h8.52002Z"/><path class="cls-1" d="M249.17749,15.06006c0,.22021,.07959,.35986,.23999,.41992,.15967,.06006,.35986,.1001,.59985,.12012v.35986h-5.55005v-.35986c.15991,0,.34497-.02002,.55518-.06006,.20996-.04004,.31494-.1499,.31494-.33008s-.22046-.51465-.65991-1.00488c-.44019-.48975-1.00513-1.09521-1.69507-1.81494-.68994-.72021-1.46533-1.5249-2.32495-2.41504-.86035-.88965-1.71021-1.83496-2.55005-2.83496l-.06006,.06006v7.85986c0,.22021,.07495,.35986,.2251,.41992,.1499,.06006,.33472,.1001,.55493,.12012v.35986h-5.13013v-.35986c.19971-.02002,.375-.06006,.52515-.12012,.1499-.06006,.22485-.19971,.22485-.41992V3.66016c0-.22021-.08008-.36035-.23999-.42041-.16016-.05957-.3501-.09961-.56982-.11963v-.36035h7.13989v.36035c-.14014,.02002-.28027,.06006-.41992,.11963-.14014,.06006-.20996,.2002-.20996,.42041,0,.04004,.16479,.24512,.49487,.61475,.33008,.37061,.75464,.83545,1.27515,1.39502,.51978,.56006,1.09961,1.18018,1.73999,1.85986,.63965,.68018,1.27954,1.36035,1.91992,2.04004V3.66016c0-.22021-.08008-.36035-.23999-.42041-.1604-.05957-.36011-.09961-.6001-.11963v-.36035h5.28003v.36035c-.23999,.02002-.44019,.06006-.59985,.11963-.1604,.06006-.23999,.2002-.23999,.42041V15.06006Z"/><path class="cls-1" d="M265.73706,2.75977c.12012,0,.23999-.03955,.36011-.11963s.17993-.25977,.17993-.54004h.36011V6.47998h-.36011c0-.27979-.05981-.45996-.17993-.54004-.12012-.07959-.23999-.12012-.36011-.12012h-4.28979V15.06006c0,.22021,.07495,.35986,.22485,.41992,.15015,.06006,.30469,.1001,.46509,.12012v.35986h-5.40015v-.35986c.15991-.02002,.31519-.06006,.46509-.12012s.2251-.19971,.2251-.41992V5.81982h-4.29004c-.12012,0-.23999,.04053-.36011,.12012-.11987,.08008-.17993,.26025-.17993,.54004h-.36011V2.1001h.36011c0,.28027,.06006,.45996,.17993,.54004,.12012,.08008,.23999,.11963,.36011,.11963h12.59985Z"/></g></g></svg>