<?xml version="1.0" encoding="UTF-8"?><svg id="_レイヤー_2" xmlns="http://www.w3.org/2000/svg" viewBox="0 0 454.34473 27.75"><defs><style>.cls-1{fill:#b60005;}</style></defs><g id="header"><g><path class="cls-1" d="M4.2002,16.44995c-.06738,.20007-.10059,.55005-.10059,1.05005,0,.33362,.30811,.70862,.92529,1.125,.6167,.41711,1.4165,.80859,2.3999,1.17493,.98291,.36719,2.10791,.67505,3.375,.92505,1.2666,.25,2.5498,.375,3.8501,.375,2.5,0,4.33252-.29138,5.5-.875,1.1665-.58276,1.75-1.42505,1.75-2.52502,0-.59998-.5083-1.02502-1.5249-1.27502-1.01758-.25-2.29199-.44995-3.8252-.59998-1.5332-.15002-3.18359-.31641-4.9502-.5-1.7666-.18274-3.41699-.51636-4.94971-1-1.53369-.48279-2.80859-1.18274-3.82471-2.09998-1.01758-.91638-1.52539-2.17505-1.52539-3.77502,0-1.26636,.2915-2.41638,.875-3.44995,.58301-1.03284,1.40039-1.91638,2.4502-2.65002,1.0498-.73279,2.3252-1.30786,3.8252-1.72498,1.5-.41638,3.16602-.625,5-.625,1.69971,0,3.28223,.10852,4.75,.32495,1.46582,.21716,2.76611,.45862,3.89941,.72498,1.13281,.26721,2.08301,.50867,2.85059,.7251,.76611,.21716,1.31641,.32495,1.64941,.32495s.60059-.07495,.80029-.22498,.38281-.32507,.55029-.52502l.5498,.19995-3.4502,6.95007-.59961-.30005v-.54993c0-.30005-.3252-.60791-.97559-.92505-.64941-.31641-1.47461-.59998-2.47461-.84998s-2.11719-.45789-3.3501-.625c-1.23389-.16638-2.43359-.25-3.6001-.25-2.16699,0-3.68359,.25-4.5498,.75-.86719,.5-1.2998,1.03357-1.2998,1.59998,0,.56714,.2998,.99219,.89941,1.27502,.60059,.28357,1.38281,.49219,2.35059,.625,.96582,.13354,2.06641,.24219,3.2998,.32495,1.23242,.08362,2.5,.20862,3.7998,.375,1.2998,.16724,2.56641,.40002,3.7998,.70007,1.2334,.29993,2.33301,.74219,3.30029,1.32495,.96631,.58362,1.75,1.34998,2.3501,2.30005,.59961,.94995,.8999,2.14209,.8999,3.57495,0,1.09998-.2251,2.18359-.67529,3.25-.44971,1.06714-1.2168,2.02502-2.2998,2.875-1.0835,.84998-2.5332,1.52502-4.34961,2.02502-1.81738,.5-4.0752,.75-6.77539,.75-2.09961,0-3.9082-.09998-5.4248-.30005-1.51758-.19995-2.80859-.44141-3.875-.72498-1.06738-.28284-1.90869-.54138-2.52539-.77502-.61719-.23279-1.07471-.34998-1.375-.34998-.19971,0-.375,.06714-.52441,.19995-.15039,.13367-.30859,.28369-.47559,.45007l-.59961-.15002,3.7002-8.90002,.5,.25Z"/><path class="cls-1" d="M54.49951,4.59998c.2002,0,.3999-.06641,.6001-.19995,.2002-.13281,.2998-.43286,.2998-.90002h.6001v7.29993h-.6001c0-.46631-.09961-.76636-.2998-.8999-.2002-.13281-.3999-.20007-.6001-.20007h-7.1499v15.40002c0,.36719,.125,.59998,.375,.69995,.25,.1001,.50781,.16724,.7749,.20007v.59998h-9v-.59998c.2666-.03284,.5249-.09998,.7749-.20007,.25-.09998,.375-.33276,.375-.69995V9.69995h-7.1499c-.19971,0-.3999,.06726-.6001,.20007-.19971,.13354-.2998,.43359-.2998,.8999h-.6001V3.5h.6001c0,.46716,.1001,.76721,.2998,.90002,.2002,.13354,.40039,.19995,.6001,.19995h21Z"/><path class="cls-1" d="M71.94971,4.29993c1.56641,0,3.14111,.21729,4.7251,.65002,1.58301,.43359,3.0166,1.10864,4.2998,2.02502,1.2832,.91724,2.3252,2.09216,3.125,3.52502,.7998,1.43359,1.2002,3.13354,1.2002,5.09998,0,2-.40039,3.70862-1.2002,5.125-.7998,1.41724-1.8418,2.57495-3.125,3.47498-1.2832,.90002-2.7168,1.55005-4.2998,1.95007-1.58398,.3999-3.15869,.59998-4.7251,.59998-1.56689,0-3.14209-.20007-4.7251-.59998-1.5835-.40002-3.01709-1.05005-4.2998-1.95007-1.28369-.90002-2.3252-2.05774-3.125-3.47498-.7998-1.41638-1.2002-3.125-1.2002-5.125,0-1.96643,.40039-3.66638,1.2002-5.09998,.7998-1.43286,1.84131-2.60779,3.125-3.52502,1.28271-.91638,2.71631-1.59143,4.2998-2.02502,1.58301-.43274,3.1582-.65002,4.7251-.65002Zm0,5.30005c-.93359,0-1.81689,.14294-2.6499,.42737-.83398,.2843-1.56738,.68591-2.2002,1.20471-.63379,.51868-1.125,1.14685-1.47461,1.88281-.35059,.73669-.52539,1.57336-.52539,2.51013,0,.9375,.1748,1.77417,.52539,2.51013,.34961,.73669,.84082,1.36401,1.47461,1.88281,.63281,.5188,1.36621,.92114,2.2002,1.20544,.83301,.28442,1.71631,.42664,2.6499,.42664,.96631,0,1.85791-.14221,2.67529-.42664,.81641-.2843,1.54102-.68665,2.1748-1.20544,.63281-.5188,1.125-1.14612,1.47461-1.88281,.35059-.73596,.52539-1.57263,.52539-2.51013,0-.93677-.1748-1.77344-.52539-2.51013-.34961-.73596-.8418-1.36414-1.47461-1.88281-.63379-.5188-1.3584-.92041-2.1748-1.20471-.81738-.28442-1.70898-.42737-2.67529-.42737Z"/><path class="cls-1" d="M90.69922,6.09998c0-.36646-.11719-.59998-.3501-.69995-.23389-.1001-.48389-.1665-.75-.20007v-.59998h16.05029c2.5,0,4.49121,.58362,5.97461,1.75,1.48291,1.16724,2.2251,2.90002,2.2251,5.19995,0,1.80005-.5249,3.2251-1.57471,4.27502-1.05029,1.05005-2.375,1.875-3.97559,2.47498l4.4502,6.70007c.1665,.26721,.4082,.5,.7251,.69995,.31641,.20007,.65771,.30005,1.0249,.30005v.59998h-10.09961v-.59998c.23242,0,.49121-.04138,.77441-.125,.2832-.08289,.42529-.25781,.42529-.52502,0-.16638-.17529-.58276-.5249-1.25-.3501-.66638-.75-1.38281-1.2002-2.15002-.4502-.76636-.88379-1.5-1.2998-2.19995-.41699-.70007-.6748-1.15002-.77539-1.34998h-4.7998v6.69995c0,.36719,.125,.59998,.375,.69995,.25,.1001,.55762,.16724,.9248,.20007v.59998h-8.59961v-.59998c.2002-.03284,.41602-.09998,.6499-.20007,.23291-.09998,.3501-.33276,.3501-.69995V6.09998Zm13.3999,8.09998c1.06641,0,1.90771-.22498,2.5249-.67493,.61621-.45007,.9248-1.125,.9248-2.02502,0-.76648-.2583-1.40784-.77441-1.92505-.51758-.51636-1.52539-.77502-3.02539-.77502h-6.75v5.40002h7.1001Z"/><path class="cls-1" d="M140.74902,22.19995c.66602,0,1.09961-.41638,1.2998-1.25h.59961v6.55005h-.5c-.16699-.46716-.3418-.73364-.52441-.80005-.18359-.06714-.47559-.09998-.875-.09998h-22.30029v-.59998c.3667-.03284,.69141-.09998,.9751-.20007,.28271-.09998,.4248-.33276,.4248-.69995V6.09998c0-.36646-.14209-.59998-.4248-.69995-.28369-.1001-.6084-.1665-.9751-.20007v-.59998h22.69971c.2002,0,.40039-.06641,.60059-.19995,.19971-.13281,.2998-.43286,.2998-.90002h.59961v6.69995h-.59961c0-.5-.1001-.82495-.2998-.97498-.2002-.15002-.40039-.22498-.60059-.22498h-14.59961v4.04993h9.3999c.19971,0,.3999-.07495,.6001-.22498s.2998-.45776,.2998-.92493h.6001v6.5h-.6001c0-.46643-.09961-.77502-.2998-.92505s-.40039-.22498-.6001-.22498h-9.3999v4.94995h14.2002Z"/><path class="cls-1" d="M188.94775,20.5c.2666,0,.46631-.09143,.6001-.27502,.13281-.18286,.23291-.55786,.2998-1.125h.6001v8.65002h-.6001c-.06689-.53357-.16699-.85864-.2998-.97498-.13379-.11719-.3335-.17505-.6001-.17505h-26.1001v-.59998c.63281-.06641,1.02539-.17505,1.17529-.32507,.1499-.1499,.2251-.34131,.2251-.57495V1.79993c0-.23279-.0752-.42493-.2251-.57495s-.54248-.25781-1.17529-.32495V.29993h10.30029V.90002c-.63379,.06714-1.0249,.17493-1.17529,.32495-.1499,.15002-.22461,.34216-.22461,.57495V20.5h17.19971Z"/><path class="cls-1" d="M204.24756,5.19995c-.5,.03357-.89209,.09998-1.17529,.20007-.2832,.09998-.4248,.3335-.4248,.69995V25.09998c0,.36719,.1416,.59998,.4248,.69995,.2832,.1001,.67529,.16724,1.17529,.20007v.59998h-9.8999v-.59998c.5-.03284,.8916-.09998,1.1748-.20007,.2832-.09998,.4248-.33276,.4248-.69995V6.09998c0-.36646-.1416-.59998-.4248-.69995-.2832-.1001-.6748-.1665-1.1748-.20007v-.59998h9.8999v.59998Z"/><path class="cls-1" d="M210.99707,19.25c0,.06714-.00879,.14221-.02539,.22498-.0166,.08362-.02441,.19214-.02441,.32495,0,.33362,.31641,.65002,.94971,.95007,.63281,.29993,1.44141,.57495,2.42529,.82495,.98242,.25,2.0498,.45007,3.19971,.59998,1.1499,.15002,2.2251,.2251,3.2251,.2251,.2998,0,.70801-.01648,1.22461-.05005,.5166-.03284,1.02539-.125,1.52539-.27502s.9248-.36633,1.2749-.65002c.3501-.28271,.5249-.67493,.5249-1.17493,0-.66638-.3999-1.14148-1.2002-1.42505-.7998-.28284-1.80859-.5-3.02441-.65002-1.21777-.1499-2.53418-.30774-3.9502-.47498-1.41699-.16638-2.7334-.45776-3.9502-.875-1.2168-.41638-2.22461-1.01636-3.0249-1.79993-.80029-.78284-1.19971-1.875-1.19971-3.27502,0-.76648,.19971-1.59143,.59961-2.47498,.40039-.88281,1.0332-1.69141,1.90039-2.42505,.86621-.73279,2.00781-1.34143,3.4248-1.82495,1.41602-.48291,3.1416-.7251,5.1748-.7251,1.2002,0,2.3418,.06726,3.4248,.20007,1.08301,.13354,2.06641,.28357,2.9502,.44995,.88281,.16724,1.63281,.31726,2.25,.45007,.61621,.13354,1.05762,.19995,1.3252,.19995,.2666,0,.48242-.07495,.6499-.22498,.1665-.15002,.31641-.27502,.44971-.375l.55029,.19995-3,6.30005-.6499-.30005c0-.06641,.00781-.15002,.0249-.25,.01611-.09998,.0249-.19995,.0249-.29993,0-.13281-.2002-.30005-.59961-.5-.40039-.20007-.92529-.40002-1.5752-.6001-.65039-.19995-1.38379-.375-2.2002-.5249-.81738-.15002-1.6582-.2251-2.5249-.2251-.30029,0-.76709,.00867-1.3999,.02502-.63379,.01721-1.26758,.09998-1.90039,.25-.6333,.15002-1.19189,.36719-1.6748,.65002-.4834,.28357-.72461,.70862-.72461,1.27502,0,.59998,.39941,1.02502,1.19971,1.27502s1.80811,.44995,3.0249,.59998,2.5332,.31714,3.9502,.5c1.41602,.18359,2.73242,.49219,3.9502,.92493,1.21582,.43359,2.22461,1.05859,3.02441,1.875,.80029,.81726,1.2002,1.95862,1.2002,3.42505,0,.96716-.2168,1.89221-.6499,2.77502-.43359,.88354-1.1001,1.65857-2,2.32495-.8999,.66724-2.04248,1.17505-3.42529,1.52502-1.3833,.34998-3.02441,.52502-4.9248,.52502-1.2002,0-2.41699-.07507-3.6499-.22498-1.23389-.15002-2.36719-.33289-3.3999-.55005-1.03369-.21643-1.89258-.41638-2.5752-.59998-.68359-.18286-1.0752-.27502-1.1748-.27502-.2334,0-.44238,.07495-.625,.22498-.18359,.15002-.3584,.30859-.52539,.47498l-.5498-.1499,2.0498-6.70007,.65039,.30005Z"/><path class="cls-1" d="M257.39697,4.59998c.2002,0,.3999-.06641,.6001-.19995,.2002-.13281,.2998-.43286,.2998-.90002h.6001v7.29993h-.6001c0-.46631-.09961-.76636-.2998-.8999-.2002-.13281-.3999-.20007-.6001-.20007h-7.1499v15.40002c0,.36719,.125,.59998,.375,.69995,.25,.1001,.50781,.16724,.7749,.20007v.59998h-9v-.59998c.2666-.03284,.5249-.09998,.7749-.20007,.25-.09998,.375-.33276,.375-.69995V9.69995h-7.1499c-.19971,0-.3999,.06726-.6001,.20007-.19971,.13354-.2998,.43359-.2998,.8999h-.6001V3.5h.6001c0,.46716,.1001,.76721,.2998,.90002,.2002,.13354,.40039,.19995,.6001,.19995h21Z"/><path class="cls-1" d="M306.39697,15.69995c-.06689-.23279-.17529-.40784-.32471-.52502-.15039-.11633-.40918-.17493-.77539-.17493-.3335,0-.68359,.15002-1.0498,.44995-.36719,.30005-.71729,.65857-1.0498,1.07507-.33398,.41711-.625,.84216-.875,1.2749-.25,.43359-.42529,.80005-.52539,1.1001,.1665,.16711,.40039,.34998,.7002,.54993,.2998,.20007,.61621,.38367,.9502,.55005,.33252,.16711,.66602,.30859,1,.42493,.33252,.11719,.61621,.17505,.84961,.17505,.5,0,.7998-.23279,.90039-.69995h.59961v6.84998c-.7998,0-1.61719-.02502-2.4502-.07507-.83301-.04993-1.64941-.18274-2.44971-.3999-.80029-.21643-1.55859-.52502-2.2749-.92505-.71729-.40002-1.3584-.90002-1.9248-1.5-1.60059,1.16724-3.20898,1.94214-4.8252,2.32495-1.61719,.38367-3.40869,.57507-5.375,.57507-1.2334,0-2.5-.14221-3.7998-.42505-1.30029-.28284-2.47559-.75781-3.52539-1.42493-1.0498-.6665-1.9082-1.51648-2.5752-2.55005-.66699-1.03284-1-2.28284-1-3.75,0-.96643,.16699-1.85779,.5-2.67505,.33301-.81641,.7832-1.55774,1.35059-2.22498,.56641-.66638,1.23242-1.24133,2-1.72498,.76611-.48279,1.58252-.875,2.44971-1.17505-.66748-.53271-1.24219-1.15771-1.7251-1.875-.4834-.71631-.72461-1.50781-.72461-2.375,0-1.33276,.29102-2.42493,.875-3.2749,.58252-.8501,1.33252-1.51648,2.25-2,.91602-.48291,1.93262-.81641,3.0498-1,1.11621-.18286,2.19141-.27502,3.22461-.27502,1.06641,0,2.13281,.09216,3.2002,.27502,1.06641,.18359,2.0415,.50854,2.9248,.97498,.88281,.46716,1.60059,1.10852,2.15039,1.92493,.5498,.81726,.8252,1.875,.8252,3.17505,0,.63354-.125,1.22498-.375,1.77502-.25,.54993-.5752,1.04993-.97559,1.5-.39941,.44995-.84961,.85852-1.34961,1.22498-.5,.36719-1,.69995-1.5,1,.56641,.46716,1.09961,1,1.59961,1.59998s.9834,1.18359,1.4502,1.75c1.1665-1.69995,2.48291-3.25781,3.9502-4.67493,1.46631-1.4165,3.1499-2.55786,5.0498-3.42505V15.69995h-.3999Zm-17.69971,5.70007c.96582,0,1.98242-.24146,3.0498-.7251,1.06641-.48279,1.8999-1.10779,2.5-1.875-1.03369-2.93274-2.88379-4.3999-5.5498-4.3999-1.26758,0-2.31738,.30859-3.15039,.92493-.8335,.61719-1.25,1.47498-1.25,2.57507,0,1.09998,.4165,1.9585,1.25,2.57495,.83301,.61719,1.88281,.92505,3.15039,.92505Zm1.09961-17.6001c-.76709,0-1.51709,.23364-2.25,.70007-.7334,.46716-1.13379,1.19995-1.2002,2.19995,.06641,1,.4668,1.73364,1.2002,2.20007,.73291,.46716,1.48291,.69995,2.25,.69995,.7666,0,1.5166-.23279,2.25-.69995,.73291-.46643,1.13281-1.20007,1.2002-2.20007-.06738-1-.46729-1.73279-1.2002-2.19995-.7334-.46643-1.4834-.70007-2.25-.70007Z"/><path class="cls-1" d="M350.3457,26c.63281-.06641,1.02441-.17505,1.1748-.32507,.1499-.1499,.22461-.34131,.22461-.57495V6.69995l-.09961-.09998-8.90039,19.40002-8.7998-19.59998h-.09961V25.09998c0,.23364,.07471,.42505,.22461,.57495,.15039,.15002,.5415,.25867,1.1748,.32507v.59998h-8.7998v-.59998c.63281-.06641,1.02539-.17505,1.1748-.32507,.15039-.1499,.22559-.34131,.22559-.57495V1.79993c0-.23279-.0752-.42493-.22559-.57495-.14941-.15002-.54199-.25781-1.1748-.32495V.29993h13.0498V.90002c-.7998,.03357-1.19971,.3335-1.19971,.8999,0,.03369,.1001,.30005,.30029,.80005,.19971,.5,.45752,1.11719,.77441,1.84998,.31641,.73364,.66699,1.52502,1.05029,2.375,.38281,.84998,.75,1.66724,1.1001,2.45007,.34961,.78357,.65771,1.47498,.9248,2.07495,.2666,.59998,.4502,1,.5498,1.19995,.56641-1.26636,1.15039-2.5,1.75-3.69995,.60059-1.19995,1.1416-2.30005,1.625-3.30005s.875-1.83276,1.17529-2.5c.30029-.66638,.44971-1.08276,.44971-1.25,0-.56641-.39941-.86633-1.19971-.8999V.29993h13.55029V.90002c-.63379,.06714-1.02539,.17493-1.17529,.32495s-.2251,.34216-.2251,.57495V25.09998c0,.23364,.0752,.42505,.2251,.57495,.1499,.15002,.5415,.25867,1.17529,.32507v.59998h-10v-.59998Z"/><path class="cls-1" d="M388.39551,22.19995c.66602,0,1.09961-.41638,1.2998-1.25h.59961v6.55005h-.5c-.16699-.46716-.3418-.73364-.52441-.80005-.18359-.06714-.47559-.09998-.875-.09998h-22.30029v-.59998c.3667-.03284,.69141-.09998,.9751-.20007,.28271-.09998,.4248-.33276,.4248-.69995V6.09998c0-.36646-.14209-.59998-.4248-.69995-.28369-.1001-.6084-.1665-.9751-.20007v-.59998h22.69971c.2002,0,.40039-.06641,.60059-.19995,.19971-.13281,.2998-.43286,.2998-.90002h.59961v6.69995h-.59961c0-.5-.1001-.82495-.2998-.97498-.2002-.15002-.40039-.22498-.60059-.22498h-14.59961v4.04993h9.3999c.19971,0,.3999-.07495,.6001-.22498s.2998-.45776,.2998-.92493h.6001v6.5h-.6001c0-.46643-.09961-.77502-.2998-.92505s-.40039-.22498-.6001-.22498h-9.3999v4.94995h14.2002Z"/><path class="cls-1" d="M421.34473,25.09998c0,.36719,.13281,.59998,.40039,.69995,.26611,.1001,.59961,.16724,1,.20007v.59998h-9.25v-.59998c.26611,0,.57471-.03284,.9248-.09998,.34961-.06641,.5249-.25,.5249-.55005s-.36719-.85779-1.1001-1.67505c-.7334-.81641-1.6748-1.82495-2.8252-3.0249-1.14941-1.20007-2.44189-2.5415-3.875-4.02502-1.43359-1.48279-2.84961-3.05786-4.25-4.72498l-.09961,.09998v13.09998c0,.36719,.125,.59998,.375,.69995,.25,.1001,.55762,.16724,.9248,.20007v.59998h-8.5498v-.59998c.33301-.03284,.625-.09998,.875-.20007,.25-.09998,.375-.33276,.375-.69995V6.09998c0-.36646-.13379-.59998-.40039-.69995-.2666-.1001-.58301-.1665-.94971-.20007v-.59998h11.8999v.59998c-.2334,.03357-.4668,.09998-.7002,.20007-.2334,.09998-.34961,.3335-.34961,.69995,0,.06714,.2749,.40857,.8252,1.02502,.5498,.61719,1.25781,1.39221,2.125,2.32495,.86621,.93359,1.83252,1.96716,2.89941,3.09998,1.06641,1.13367,2.13281,2.26721,3.2002,3.40002V6.09998c0-.36646-.13379-.59998-.3999-.69995-.26709-.1001-.6001-.1665-1-.20007v-.59998h8.80029v.59998c-.40039,.03357-.73389,.09998-1,.20007-.26758,.09998-.40039,.3335-.40039,.69995V25.09998Z"/><path class="cls-1" d="M429.49414,6.09998c0-.36646-.1416-.59998-.4248-.69995-.2832-.1001-.625-.1665-1.0249-.20007v-.59998h9v.59998c-.16748,.03357-.3501,.09998-.55029,.20007-.19971,.09998-.2998,.3335-.2998,.69995v12.15002c0,1.26721,.45801,2.17493,1.375,2.72498,.9165,.55005,2.125,.82495,3.625,.82495s2.70801-.2749,3.625-.82495c.9165-.55005,1.375-1.45776,1.375-2.72498V6.09998c0-.36646-.09961-.59998-.2998-.69995-.2002-.1001-.38379-.1665-.5498-.20007v-.59998h9v.59998c-.40039,.03357-.74219,.09998-1.02539,.20007-.2832,.09998-.4248,.3335-.4248,.69995v11c0,1.33362-.2002,2.59216-.6001,3.77502-.3999,1.18359-1.05029,2.21716-1.94971,3.09998-.90039,.88354-2.10059,1.56714-3.60059,2.05005-1.5,.48352-3.34961,.72498-5.5498,.72498s-4.0498-.24146-5.5498-.72498c-1.5-.48291-2.7002-1.1665-3.6001-2.05005-.8999-.88281-1.55029-1.91638-1.94971-3.09998-.40039-1.18286-.60059-2.44141-.60059-3.77502V6.09998Z"/></g></g></svg>