<?xml version="1.0" encoding="UTF-8"?><svg id="_レイヤー_2" xmlns="http://www.w3.org/2000/svg" viewBox="0 0 60.3069 60.3069"><defs><style>.cls-1{fill:#fff;}.cls-2{fill:#f08300;}</style></defs><g id="text"><g><rect class="cls-2" width="60.3069" height="60.3069" rx="5.94414" ry="5.94414"/><g><path class="cls-1" d="M12.90267,49.54558h-1.74707v1.125c0,1.41406-.30664,2.47668-.91895,3.1875s-1.55859,1.06641-2.83838,1.06641h-1.14844v-.46875h1.14844c1.21436,0,2.09473-.32031,2.6416-.96094,.51953-.60156,.7793-1.54285,.7793-2.82422v-1.125H5.9056v-.49219h6.99707v.49219Zm-.10645-3.52734H6.02035v-.49219h6.77588v.49219Z"/><path class="cls-1" d="M21.26986,44.94011c0,1.08594-.25146,1.96106-.75488,2.625-.41553,.53906-1.03076,.97266-1.8457,1.30078v6.05859h-.33594v-5.94141l-3.9707,1.34766v-.49219l3.68359-1.19531c.96777-.32031,1.68164-.75,2.14062-1.28906,.51416-.60938,.77148-1.41394,.77148-2.41406h.31152Z"/><path class="cls-1" d="M29.60433,49.2409c0,1.89844-.37354,3.32422-1.12012,4.27734-.74609,.95312-1.87988,1.42969-3.3999,1.42969h-1.65723v-.49219h1.63232c1.46582,0,2.53369-.42957,3.20361-1.28906,.66992-.85938,1.00488-2.16797,1.00488-3.92578v-3.17578h-5.04492c0,1.07043-.10693,1.9259-.31982,2.56641-.23535,.70312-.62109,1.24219-1.15674,1.61719v-.52734c.42627-.34375,.72168-.81042,.88574-1.40039,.16406-.58984,.24609-1.50586,.24609-2.74805h5.72607v3.66797Z"/><path class="cls-1" d="M38.14339,47.29558c0,1.44543-.31152,2.54297-.93506,3.29297-.58545,.69543-1.40576,1.04297-2.46094,1.04297v-.48047c1.00635,0,1.7666-.31445,2.28027-.94336,.51416-.62878,.77148-1.59961,.77148-2.91211v-1.37109h-6.66943v-.49219h7.01367v1.86328Zm-3.89648,3c0,1.39856-.26807,2.52356-.80371,3.375-.55811,.86719-1.3291,1.30078-2.31348,1.30078v-.46875c.86426,0,1.54346-.37305,2.03857-1.11914,.49512-.74597,.74219-1.77539,.74219-3.08789v-1.65234h.33643v1.65234Z"/><path class="cls-1" d="M46.42025,49.41668c0,1.44543-.21338,2.59766-.63965,3.45703-.37744,.77344-.92725,1.32422-1.64893,1.65234-.6123,.27344-1.38086,.41016-2.30518,.41016h-1.24658v-.48047h1.24658c.90771,0,1.63232-.11719,2.17383-.35156,.67285-.29688,1.17871-.79285,1.51758-1.48828,.37744-.78906,.56592-1.85547,.56592-3.19922v-2.76562h-6.10303v4.19531h-.33643v-4.67578h3.19141v-1.05469h.34424v1.05469h3.24023v3.24609Z"/><path class="cls-1" d="M54.7054,50.63543c-1.09912,0-2.14502-.12695-3.1377-.38086-.99268-.25378-1.81689-.60742-2.47314-1.06055v5.74219h-.34473v-9.99609h.34473v3.69141c.65088,.4845,1.45605,.85742,2.41553,1.11914,.95996,.26184,2.0249,.39258,3.19531,.39258v.49219Z"/></g><path class="cls-1" d="M35.71151,16.36623V5.57888c0-.20526,.16641-.37164,.37167-.37164h3.53458c.20526,0,.39794,.1643,.43037,.36698l5.15051,32.19299c.16215,1.01341-.53842,1.83495-1.56472,1.83495H16.19778c-1.02633,0-1.72687-.82154-1.56475-1.83495L19.78355,5.57422c.03242-.20268,.22511-.36698,.43037-.36698h3.53455c.20529,0,.37167,.16638,.37167,.37164v10.78736c0,1.0263,.832,1.85827,1.85831,1.85827h7.87477c1.02633,0,1.85831-.83197,1.85831-1.85827Zm-13.36403,12.35993c0,.1706,.06066,.25265,.19716,.25265h.6724c.13162,0,.19743-.08205,.19743-.25265v-4.06828c0-.08205,.03519-.12631,.09584-.12631h1.03667c.1365,0,.19716-.07584,.19716-.24629v-.3917c0-.17063-.06066-.24644-.19716-.24644h-3.33718c-.13162,0-.19743,.07581-.19743,.24644v.3917c0,.17044,.06581,.24629,.19743,.24629h1.03637c.06581,0,.10131,.04426,.10131,.12631v4.06828Zm2.59198,0c-.04034,.1706,.00516,.25265,.13678,.25265h.67243c.13647,0,.21747-.08205,.25778-.25265l.18716-.8339h1.19348l.19197,.8339c.0355,.1706,.12131,.25265,.25296,.25265h.6724c.1365,0,.17712-.08205,.1365-.25265l-1.07186-4.83258c-.04065-.17063-.12647-.24644-.25781-.24644h-1.03667c-.13647,0-.21747,.07581-.25781,.24644l-1.0773,4.83258Zm1.45126-1.72454l.39946-1.80038,.39944,1.80038h-.7989Zm7.0168,1.72454l-1.54226-2.41318,1.54226-2.41939c.101-.17063,.091-.24644-.04062-.24644h-.86955c-.13165,0-.25296,.07581-.35396,.24644l-1.34514,2.10987v-2.10987c0-.17063-.06581-.24644-.19712-.24644h-.67243c-.13162,0-.19743,.07581-.19743,.24644v4.83258c0,.1706,.06581,.25265,.19743,.25265h.67243c.13131,0,.19712-.08205,.19712-.25265v-2.10987l1.34514,2.10987c.101,.1706,.22231,.25265,.35396,.25265h.86955c.13162,0,.14162-.08205,.04062-.25265Zm4.57405-5.07902h-3.33721c-.13162,0-.19743,.07581-.19743,.24644v4.83258c0,.1706,.06581,.25265,.19743,.25265h3.33721c.13647,0,.19712-.08205,.19712-.25265v-.3917c0-.16423-.06066-.24629-.19712-.24629h-2.36635c-.06581,0-.10131-.04429-.10131-.12631v-1.08658c0-.07581,.0355-.1201,.10131-.1201h2.27019c.13162,0,.19715-.08202,.19715-.24626v-.3981c0-.16423-.06553-.24629-.19715-.24629h-2.27019c-.06581,0-.10131-.04426-.10131-.1201v-1.08655c0-.08205,.0355-.12631,.10131-.12631h2.36635c.13647,0,.19712-.07584,.19712-.24629v-.3917c0-.17063-.06066-.24644-.19712-.24644Zm-14.66506,11.7731c0,.66333,.26297,.9918,.78887,.9918h2.15404c.53109,0,.78887-.32847,.78887-.9918v-3.35432c0-.65693-.25778-.98555-.78887-.98555h-2.15404c-.5259,0-.78887,.32862-.78887,.98555v3.35432Zm1.26414,.10115c-.13131,0-.19712-.08218-.19712-.24641v-3.06378c0-.16423,.06581-.24644,.19712-.24644h1.20349c.1365,0,.19715,.08221,.19715,.24644v3.06378c0,.16423-.06066,.24641-.19715,.24641h-1.20349Zm7.48813-.10115v-4.09346c0-.1706-.06066-.24641-.19716-.24641h-.66755c-.1365,0-.20231,.07581-.20231,.24641v3.94821c0,.16423-.06066,.24641-.19712,.24641h-1.20349c-.13134,0-.19715-.08218-.19715-.24641v-3.94821c0-.1706-.06581-.24641-.19715-.24641h-.6724c-.13162,0-.19746,.07581-.19746,.24641v4.09346c0,.66333,.26297,.9918,.7889,.9918h2.15401c.53109,0,.7889-.32847,.7889-.9918Zm2.31901,.73914c0,.1706,.06066,.25265,.19712,.25265h.67243c.13162,0,.19743-.08205,.19743-.25265v-4.06828c0-.08205,.03519-.12634,.09584-.12634h1.03667c.1365,0,.19715-.07581,.19715-.24626v-.39173c0-.1706-.06066-.24641-.19715-.24641h-3.33718c-.13162,0-.19746,.07581-.19746,.24641v.39173c0,.17044,.06584,.24626,.19746,.24626h1.03636c.06581,0,.10131,.04429,.10131,.12634v4.06828Z"/></g></g></svg>