<?xml version="1.0" encoding="UTF-8"?><svg id="_レイヤー_2" xmlns="http://www.w3.org/2000/svg" viewBox="0 0 60.3069 60.3069"><defs><style>.cls-1{fill:#fff;}.cls-2{fill:#f08300;}</style></defs><g id="text"><g><rect class="cls-2" width="60.3069" height="60.3069" rx="5.94414" ry="5.94414"/><g><path class="cls-1" d="M24.34103,54.50265h-.59766l-.87891-2.22656h-5.76562l-.89062,2.22656h-.57422l3.82031-9.48047h1.05469l3.83203,9.48047Zm-1.6875-2.75391l-2.67188-6.67969-2.66016,6.67969h5.33203Z"/><path class="cls-1" d="M32.884,54.50265h-7.35938v-9.41016h7.35938v.52734h-6.83203v3.67969h6.39844v.51562h-6.39844v4.16016h6.83203v.52734Z"/><path class="cls-1" d="M41.884,50.44797c0,1.36719-.31641,2.375-.94922,3.02344-.67188,.6875-1.75,1.03125-3.23438,1.03125h-3.50391v-9.41016h3.50391c1.49219,0,2.57031,.33984,3.23438,1.01953,.63281,.64844,.94922,1.67578,.94922,3.08203v1.25391Zm-.51562,0v-1.25391c0-1.32812-.2793-2.25781-.83789-2.78906s-1.50195-.79688-2.83008-.79688h-2.97656v8.36719h2.97656c1.30469,0,2.23438-.25391,2.78906-.76172,.58594-.54688,.87891-1.46875,.87891-2.76562Z"/></g><g><path class="cls-1" d="M37.72333,16.95022c-.13734,0-.28047,.00486-.41309,.01258l-.18077,.01682c-.08599,.00736-.17089,.01375-.25467,.02422l-.20949,.0319c-.06742,.01006-.13558,.01955-.20663,.03305-.03452,.00642-.06812,.01418-.1016,.02151l-.09512,.02047c-.06817,.01473-.13623,.02885-.20729,.04667-.04736,.01215-.09585,.02571-.1432,.03945l-.04151,.01143c-.06923,.01951-.13849,.03885-.20439,.05998-.06446,.01991-.12755,.04235-.1888,.06345-.06518,.02241-.13036,.04561-.1978,.07115-.06296,.02418-.12535,.04934-.1887,.07627-.06196,.0255-.12313,.05183-.18256,.0791-.06522,.02885-.12863,.05881-.18979,.08819-.05902,.02883-.11665,.05861-.17085,.08706-.06522,.03348-.12934,.0675-.19273,.10333-.05317,.0294-.1046,.06075-.15999,.09382-.06412,.03829-.12823,.07663-.18979,.11608-.03646,.02303-.07104,.04663-.10637,.07081l-.0416,.02765c-.06441,.04352-.1297,.08708-.19272,.13273l-.1454,.11028c-.06008,.04565-.12023,.09015-.1716,.13269l-.12569,.10697c-.05829,.04878-.11763,.09595-.17196,.14629-.02264,.02162-.04516,.04369-.06996,.06612-.27473,.25503-.53047,.52934-.75965,.81524l-2.32186,2.89834-2.30491-2.88729c-.23313-.29062-.49294-.57125-.77345-.82995-.02192-.01994-.04262-.04043-.06637-.06245-.05716-.05284-.11951-.10273-.19053-.16254l-.09761-.08394c-.06047-.04932-.12279-.09535-.18505-.14273l-.141-.10701c-.06341-.04606-.1287-.08957-.19785-.13524l-.03141-.02203c-.03676-.02475-.07318-.04994-.10964-.07356-.06452-.0404-.1297-.07908-.18979-.11527-.05322-.03211-.10684-.06403-.16098-.09439-.06309-.0358-.12648-.0693-.19177-.10354-.05635-.02919-.1136-.05823-.1719-.08644-.06301-.03096-.12754-.06132-.1906-.08919-.06049-.02785-.1217-.05399-.18288-.0797-.06302-.02633-.12531-.05149-.18942-.07603-.06522-.02475-.1304-.0478-.19497-.0704-.06305-.02209-.12644-.04392-.18761-.06292-.06823-.02205-.13808-.04139-.2103-.0619l-.03855-.01043c-.04736-.01373-.09478-.02729-.14614-.03985-.06851-.01742-.13733-.03153-.22258-.04989l-.07802-.01684c-.03458-.00774-.06915-.01565-.10275-.02205-.06697-.01296-.13623-.0219-.20437-.03252l-.20835-.0319c-.08418-.01047-.1702-.01687-.25503-.02422l-.16695-.01525c-.14599-.0093-.29028-.01416-.42761-.01416-3.98338,0-7.22496,3.44181-7.22496,7.67244,0,6.10138,8.92015,12.50935,15.04607,15.81865,6.12755-3.30929,15.04772-9.71726,15.04772-15.81865,0-4.23063-3.24145-7.67244-7.22489-7.67244Zm-11.1386,18.38279l4.12423-5.88213-5.47644,.06761,7.57237-6.35539-3.11008,4.93557,5.20601,1.14939-8.3161,6.08494Z"/><path class="cls-1" d="M17.64337,13.25843h3.73959l.75886,2.21734h3.07567l-4.04129-9.90654h-3.32603l-4.04129,9.90654h3.07567l.75882-2.21734Zm1.86984-5.46373l1.25782,3.67554h-2.51567l1.25786-3.67554Z"/><polygon class="cls-1" points="34.12261 13.32994 29.40181 13.32994 29.40181 11.39872 33.76498 11.39872 33.76498 9.32443 29.40181 9.32443 29.40181 7.32165 34.12261 7.32165 34.12261 5.56923 27.0414 5.56923 27.0414 15.47577 34.12261 15.47577 34.12261 13.32994"/><path class="cls-1" d="M46.42531,10.29003c0-2.36039-1.78817-4.7208-2.57499-4.7208h-7.08121V15.47577h7.08121c1.10871,0,2.57499-2.11005,2.57499-5.18574Zm-4.79233,3.07569c-1.14208,.09516-2.21733,.03576-2.21733,.03576V7.67928c1.00052,0,1.71113-.01224,2.50345,.03578,1.18018,.07151,1.75242,1.30227,1.75242,2.93262,0,1.42775-.75104,2.61075-2.03854,2.71804Z"/></g></g></g></svg>