<?xml version="1.0" encoding="UTF-8"?><svg id="_レイヤー_2" xmlns="http://www.w3.org/2000/svg" viewBox="0 0 60.3069 60.3069"><defs><style>.cls-1{fill:#fff;}.cls-2{fill:#f08300;}</style></defs><g id="text"><g><rect class="cls-2" width="60.3069" height="60.3069" rx="5.94414" ry="5.94414"/><g><path class="cls-1" d="M17.00058,44.99871v.50391h-4.54688v.85547h4.875v2.63672h-.49219v-2.13281h-4.38281v2.69531h-.49219v-2.69531H7.54355v2.13281h-.49219v-2.63672h4.91016v-.85547H7.40293v-.50391h9.59766Zm-.33984,5.36719v3.07031h-4.20703v.22266c0,.15637,.05078,.28906,.15234,.39844,.10156,.1095,.23438,.16406,.39844,.16406h3.375c.36719,0,.6875-.12488,.96094-.375v.60938c-.13281,.08594-.27539,.15039-.42773,.19336-.15234,.04285-.31445,.06445-.48633,.06445h-3.36328c-.3125,0-.57422-.10742-.78516-.32227s-.31641-.47461-.31641-.7793v-.17578H7.74277v-3.07031h8.91797Zm-8.41406,1.28906h3.71484v-.78516h-3.71484v.78516Zm0,1.27734h3.71484v-.78516h-3.71484v.78516Zm2.92969-5.23828v.50391h-2.84766v-.50391h2.84766Zm0,1.35938v.50391h-2.84766v-.50391h2.84766Zm1.27734,2.60156h3.70312v-.78516h-3.70312v.78516Zm0,1.27734h3.70312v-.78516h-3.70312v.78516Zm3.64453-5.23828v.50391h-2.83594v-.50391h2.83594Zm0,1.35938v.50391h-2.83594v-.50391h2.83594Z"/><path class="cls-1" d="M19.64902,44.99871h9.12891v.50391c-.26562,.42188-.79688,.89062-1.59375,1.40625-.85938,.5625-1.70703,.95325-2.54297,1.17188v1.74609h4.69922v.49219h-4.69922v3.45703c0,.46094-.11523,.78906-.3457,.98438-.23047,.19519-.58789,.29297-1.07227,.29297h-1.51172v-.50391h1.55859c.32812,0,.55469-.05469,.67969-.16406,.125-.1095,.1875-.31238,.1875-.60938v-3.45703h-5.07422v-.49219h5.07422v-2.09766c.82031-.17175,1.61719-.47644,2.39062-.91406,.72656-.40613,1.28906-.84375,1.6875-1.3125h-8.56641v-.50391Z"/><path class="cls-1" d="M31.06308,44.77605l2.39062,1.04297v.52734l-2.39062-1.07812v-.49219Zm0,2.91797l2.39062,1.06641v.50391l-2.39062-1.07812v-.49219Zm0,6.78516c.57031-.30469,1.04102-.80457,1.41211-1.5,.37109-.69531,.60742-1.48425,.70898-2.36719h.49219c-.13281,1.00781-.41016,1.89453-.83203,2.66016-.46875,.82031-1.0625,1.41394-1.78125,1.78125v-.57422Zm6.87891-9.70312v1.25391h3.05859v3.9375h.33984v.50391h-3.31641c.16406,.94531,.53125,1.78528,1.10156,2.51953,.61719,.78918,1.35547,1.30078,2.21484,1.53516v.52734c-.83594-.21094-1.58203-.65625-2.23828-1.33594-.625-.64844-1.07812-1.41797-1.35938-2.30859-.27344,.88293-.73633,1.6543-1.38867,2.31445s-1.4082,1.10339-2.26758,1.33008v-.52734c.86719-.23438,1.61328-.73633,2.23828-1.50586,.625-.76941,.99219-1.61902,1.10156-2.54883h-3.33984v-.50391h3.36328v-3.43359h-3.02344v-.50391h3.02344v-1.25391h.49219Zm0,5.19141h2.55469v-3.43359h-2.55469v3.43359Z"/><path class="cls-1" d="M43.06308,44.77605l2.39062,1.04297v.52734l-2.39062-1.07812v-.49219Zm0,2.91797l2.39062,1.06641v.50391l-2.39062-1.07812v-.49219Zm0,6.78516c.57031-.30469,1.04102-.80457,1.41211-1.5,.37109-.69531,.60742-1.48425,.70898-2.36719h.49219c-.13281,1.00781-.41016,1.89453-.83203,2.66016-.46875,.82031-1.0625,1.41394-1.78125,1.78125v-.57422Zm6.83203-9.70312v.94922h3.44531v.49219h-.73828c-.24219,.49219-.58984,.95703-1.04297,1.39453-.41406,.39844-.90625,.75781-1.47656,1.07812,.52344,.19531,1.05859,.34387,1.60547,.44531,.54688,.10156,1.09766,.15234,1.65234,.15234v.49219l-.67969-.02344v5.29688h-.50391v-1.86328h-4.79297c-.21094,.78918-.67578,1.41016-1.39453,1.86328v-.60938c.32812-.25781,.57617-.56836,.74414-.93164s.25195-.75977,.25195-1.18945v-2.61328c-.33594,.04688-.66797,.07031-.99609,.07031v-.49219c1.00781,0,2.02344-.20312,3.04688-.60938-.44531-.25781-.83789-.54492-1.17773-.86133s-.63086-.68152-.87305-1.0957h.57422c.22656,.35156,.51367,.67383,.86133,.9668s.72461,.53723,1.13086,.73242c.55469-.25781,1.04883-.57422,1.48242-.94922s.78711-.79285,1.06055-1.25391h-6.10547v-.49219h3.43359v-.94922h.49219Zm-2.41406,7.54688l-.02344,.36328h4.69922v-1.48828h-4.67578v1.125Zm0-1.62891h4.67578v-.99609c-.46875-.07031-.91602-.16406-1.3418-.28125s-.8457-.27344-1.25977-.46875c-.65625,.3125-1.34766,.53906-2.07422,.67969v1.06641Z"/></g><g><path class="cls-1" d="M26.94712,22.2415c-.35192-.28153-.87591-.42229-1.61103-.42229-.72724,0-1.24334,.04698-1.61093,.10955v5.20034h1.18083v-1.88467c.10956,.01561,.25025,.0235,.4067,.0235,.70382,0,1.3059-.17198,1.71261-.55519,.31275-.29714,.4848-.73521,.4848-1.25129s-.22675-.954-.56297-1.21994Zm-1.64223,2.11151c-.17207,0-.29722-.00787-.3989-.03137v-1.55615c.08607-.0235,.25025-.04698,.49269-.04698,.59436,0,.93059,.28942,.93059,.7743,0,.53958-.39101,.8602-1.02438,.8602Z"/><path class="cls-1" d="M29.02749,21.85829l-1.61093,5.2708h1.23553l.3754-1.35282h1.50927l.4066,1.35282h1.28251l-1.63434-5.2708h-1.56404Zm.17207,3.02642l.31273-1.11826c.08608-.30501,.16426-.70382,.24244-1.01657h.01569c.07818,.31275,.17198,.70384,.26585,1.01657l.32842,1.11826h-1.16514Z"/><path class="cls-1" d="M34.73627,23.12519c-.15637,.37533-.28153,.68036-.39881,1.00887h-.01559c-.13298-.34412-.24244-.62565-.4067-1.00887l-.53958-1.2669h-1.3607l1.66573,3.11248v2.15831h1.18864v-2.1974l1.736-3.07339h-1.33719l-.53179,1.2669Z"/><path class="cls-1" d="M35.71164,10.47653h-11.5728c-1.7205,0-3.12029,1.39978-3.12029,3.12036v21.90038c0,1.72058,1.39979,3.12036,3.12029,3.12036h11.5728c1.7205,0,3.12027-1.39978,3.12027-3.12036V13.59688c0-1.72058-1.39978-3.12036-3.12027-3.12036Zm2.27928,25.02074c0,1.25688-1.02249,2.27937-2.27928,2.27937h-11.5728c-1.25681,0-2.2793-1.02249-2.2793-2.27937V13.59688c0-1.25688,1.02249-2.27937,2.2793-2.27937h1.81422v.5107c0,.68455,.55494,1.23948,1.23948,1.23948h4.91997c.68455,0,1.23948-.55494,1.23948-1.23948v-.5107h2.35965c1.25679,0,2.27928,1.02249,2.27928,2.27937v21.90038Z"/><path class="cls-1" d="M23.00752,7.18204c-3.11618,0-5.65138,2.53513-5.65138,5.6514h.84099c0-2.65241,2.15791-4.81041,4.81039-4.81041v-.84099Z"/><path class="cls-1" d="M23.00752,5.62293v-.84099c-4.43958,0-8.05141,3.61181-8.05141,8.0515h.84099c0-3.97581,3.23461-7.21051,7.21042-7.21051Z"/></g></g></g></svg>