<?xml version="1.0" encoding="UTF-8"?><svg id="_レイヤー_2" xmlns="http://www.w3.org/2000/svg" viewBox="0 0 60.3069 60.3069"><defs><style>.cls-1{fill:#fff;}.cls-2{fill:#f08300;}</style></defs><g id="text"><g><rect class="cls-2" width="60.3069" height="60.3069" rx="5.94414" ry="5.94414"/><g><path class="cls-1" d="M15.20115,49.5339h-1.99707v1.125c0,1.41406-.35156,2.47656-1.05469,3.1875s-1.78564,1.06641-3.24805,1.06641h-1.30322v-.46875h1.30322c1.38721,0,2.39355-.32031,3.01855-.96094,.6001-.60156,.8999-1.54297,.8999-2.82422v-1.125H7.19481v-.49219H15.20115v.49219Zm-1.28418-3.55078H7.33543v-.48047h6.58154v.48047Zm.77783,.55078h-.36572v-1.86328h.36572v1.86328Zm.87207,0h-.34717v-1.86328h.34717v1.86328Z"/><path class="cls-1" d="M17.49803,50.91672h-.38428v-5.87109h.38428v5.87109Zm6.92822-1.72266c0,1.89062-.30322,3.26562-.90918,4.125-.71875,1.03125-1.97217,1.54688-3.75977,1.54688h-1.75293v-.46875h1.75293c1.6377,0,2.79053-.48047,3.45947-1.44141,.5498-.79688,.8252-2.05078,.8252-3.76172v-4.14844h.38428v4.14844Z"/><path class="cls-1" d="M28.43895,45.19797c0,1.1875-.18311,2.75781-.54834,4.71094-.36572,1.95312-.79248,3.62891-1.27979,5.02734h-.36572c.48145-1.42969,.90771-3.13477,1.27979-5.11523,.37158-1.98047,.55762-3.52148,.55762-4.62305h.35645Zm6.07471,9.73828h-.35596c0-.94531-.22656-2.47461-.67969-4.58789s-.92041-3.83398-1.40186-5.16211h.36572l.2251,.66797c.4375,1.36719,.84668,2.96484,1.22803,4.79297,.4126,1.95312,.61865,3.38281,.61865,4.28906Zm-.62793-8.54297h-.36572v-1.85156h.36572v1.85156Zm.87207,0h-.34717v-1.85156h.34717v1.85156Z"/><path class="cls-1" d="M36.69822,50.91672h-.38428v-5.87109h.38428v5.87109Zm6.92822-1.72266c0,1.89062-.30322,3.26562-.90918,4.125-.71875,1.03125-1.97217,1.54688-3.75977,1.54688h-1.75293v-.46875h1.75293c1.6377,0,2.79053-.48047,3.45947-1.44141,.5498-.79688,.8252-2.05078,.8252-3.76172v-4.14844h.38428v4.14844Z"/><path class="cls-1" d="M53.32029,50.24875h-7.47168v-.52734h7.47168v.52734Z"/></g><g><path class="cls-1" d="M42.67868,29.47266c-2.20134,0-3.98595,1.78453-3.98595,3.98587s1.78462,3.98595,3.98595,3.98595,3.98587-1.78453,3.98587-3.98595-1.78453-3.98587-3.98587-3.98587Zm0,6.37741c-1.32079,0-2.39154-1.07067-2.39154-2.39154,0-1.32079,1.07075-2.39154,2.39154-2.39154,1.32087,0,2.39154,1.07075,2.39154,2.39154,0,1.32087-1.07067,2.39154-2.39154,2.39154Z"/><path class="cls-1" d="M15.93238,29.47266c-2.20134,0-3.98595,1.78453-3.98595,3.98587s1.78461,3.98595,3.98595,3.98595,3.98587-1.78453,3.98587-3.98595-1.78453-3.98587-3.98587-3.98587Zm0,6.37741c-1.32079,0-2.39154-1.07067-2.39154-2.39154,0-1.32079,1.07075-2.39154,2.39154-2.39154,1.32087,0,2.39154,1.07075,2.39154,2.39154,0,1.32087-1.07067,2.39154-2.39154,2.39154Z"/><path class="cls-1" d="M31.05162,34.0007h-9.64746v-.55151c0-3.04419-2.47705-5.52075-5.521-5.52075-3.04443,0-5.52148,2.47656-5.52148,5.52075h-1.10254c0-3.65234,2.97119-6.62378,6.62402-6.62378,3.4668,0,6.31982,2.677,6.60107,6.07227h8.56738v1.10303Z"/><g><path class="cls-1" d="M35.09597,25.73982h7.58271c6.89338,0,6.24816,7.70948,6.24816,7.70948H31.05146l4.04451-7.70948Z"/><path class="cls-1" d="M49.43394,34.0007H30.13951l4.62305-8.8125h7.91602c2.05811,0,3.69678,.64722,4.87109,1.92383,2.22998,2.42456,1.93994,6.22266,1.92627,6.38306l-.04199,.50562Zm-17.47021-1.10303h16.42627c-.00635-1.04028-.19043-3.45337-1.65576-5.04321-.95654-1.03735-2.32129-1.56323-4.05566-1.56323h-7.24902l-3.46582,6.60645Z"/></g><path class="cls-1" d="M31.26353,33.71677l-.97461-.5166,4.02295-7.59277-.30908-16.59546h-8.74121c-1.86621,0-2.98438,.69629-3.85889,2.40356-.2085,.40771-.54248,1.07471-.93115,1.85181-.71045,1.4209-1.60449,3.20801-2.25879,4.4563l-.97656-.51172c.65088-1.24316,1.54102-3.02295,2.24902-4.43799,.39062-.78101,.72607-1.45142,.93604-1.86133,1.06396-2.07715,2.55664-3.00366,4.84033-3.00366h9.82422l.33447,17.96313-4.15674,7.84473Z"/><path class="cls-1" d="M30.98838,33.45853l4.01895-7.18957s-5.67483,.0848-6.92176,.0848c0,.59034-.72377,4.54885-1.10007,7.10478h4.00288Z"/><g><path class="cls-1" d="M15.88297,27.11848v-4.73341c0-1.8842,.83063-2.98718,1.84163-4.91728h2.19382c.33954,0,.72429,.37065,.45989,.86559-.34612,.64787-.79088,1.50859-.99929,2.02961-.36766,.91911-.41356,1.83821-.41356,2.8952v4.54962s-1.47303-.9062-3.08249-.68933Z"/><path class="cls-1" d="M19.51695,28.78879l-.83887-.5105c-.01367-.00806-1.33398-.80176-2.72119-.61328l-.625,.08423v-5.36426c0-1.68896,.61279-2.80493,1.38818-4.21802,.16406-.29834,.33691-.61353,.51562-.95508l.15527-.29565h2.52734c.37793,0,.74951,.21289,.94678,.54199,.20361,.33984,.20361,.75366-.00049,1.13525-.47852,.89526-.81494,1.57788-.97314,1.97412-.3457,.86401-.37451,1.76587-.37451,2.69067v5.53052Zm-3.08252-2.25513c.76953,.00708,1.46973,.20508,1.97998,.40283v-3.67822c0-1.03687,.03467-2.0542,.45264-3.1001,.21875-.54712,.67822-1.43579,1.0249-2.08472l-1.83984-.04614c-.12549,.23413-.24756,.45654-.36523,.67041-.75391,1.37378-1.25244,2.28125-1.25244,3.68726v4.14868Z"/></g><circle class="cls-1" cx="28.73087" cy="12.38945" r="2.11381"/><path class="cls-1" d="M32.03724,17.26433c.33467,1.30531,1.48235,4.62929,1.1099,6.33877-.30047,1.37917-1.14324,1.92703-2.30247,1.92703-1.15931,0-2.09269,.02641-3.52785,.09206-.19096,.0088-.66881,.27371-.69976,.64676-.14087,1.70024-.29226,6.22653-.32167,6.22653-.14788,.00009-2.01969-.00043-2.52344,0-2.20664,.00222,.41972-.40963,.48272-1.43884,.07309-1.19291-.35501-4.92352-.41476-6.76703-.01693-.5217,.35561-1.16529,.96415-1.31583,1.13674-.28115,3.02736-.26739,3.68924-.30073,.1543-.00778,.18114-.26602,.15276-.38561-.20644-.86816-.41912-1.87249-.59034-2.74133-.02214-.11224-.76652,1.08682-1.76034,1.41336-.27551,.09053-3.33654,.45083-4.40029,.25944-.65565-.11797-.48374-.88218,.05993-1.01681,.54375-.13455,3.66026-.25781,4.04912-.72344s.99792-2.46351,2.00353-3.47554c.60342-.60727,1.36968-.64915,1.80744-.64915,1.16743,0,1.88753,.60513,2.22211,1.91036Z"/><rect class="cls-1" x="36.42864" y="12.96406" width="11.12133" height="10.96071"/></g></g></g></svg>