<?xml version="1.0" encoding="UTF-8"?><svg id="_レイヤー_2" xmlns="http://www.w3.org/2000/svg" viewBox="0 0 60.3069 60.3069"><defs><style>.cls-1{fill:#fff;}.cls-2{fill:#f08300;}</style></defs><g id="text"><g><rect class="cls-2" width="60.3069" height="60.3069" rx="5.94414" ry="5.94414"/><g><path class="cls-1" d="M14.07615,51.77215c0,1.11731-.01953,1.84973-.05859,2.19727s-.13281,.70898-.28125,1.08398h-.46875c.13281-.41418,.2207-.81262,.26367-1.19531s.06445-1.07812,.06445-2.08594h.48047Zm3.99609-6.77344v.50391h-1.89844v1.28906h1.75781v.49219h-1.75781v1.28906h1.75781v.50391h-1.75781v1.28906h1.89844v2.40234c0,.67969-.15625,1.22278-.46875,1.62891-.33594,.4375-.8125,.65625-1.42969,.65625h-.64453v-.50391h.64453c.92969,0,1.39453-.59766,1.39453-1.79297v-1.89844h-3.98438v-5.85938h4.48828Zm-3.98438,1.79297h1.57031v-1.28906h-1.57031v1.28906Zm0,1.78125h1.57031v-1.28906h-1.57031v1.28906Zm0,1.79297h1.57031v-1.28906h-1.57031v1.28906Zm.96094,1.40625v1.80469h-.49219v-1.80469h.49219Zm.9375,0v1.80469h-.45703v-1.80469h.45703Zm.96094,0v1.80469h-.46875v-1.80469h.46875Zm4.06641-6.99609l.23438,.99609h2.27344v.49219h-2.25v3.64453h2.09766v.50391h-2.09766v3.98438h2.25v.49219h-4.99219v-.49219h2.25v-3.98438h-2.09766v-.50391h2.09766v-3.64453h-2.25v-.49219h2.19141l-.22266-.99609h.51562Z"/><path class="cls-1" d="M30.63475,44.77605v.96094h4.88672v.49219h-4.88672v1.21875h4.40625v4.73438h-4.40625v1.20703h4.88672v.50391h-4.88672v1.16016h-.49219v-1.16016h-4.89844v-.50391h4.89844v-1.20703h-4.41797v-4.73438h4.41797v-1.21875h-4.89844v-.49219h4.89844v-.96094h.49219Zm-4.40625,4.79297h3.91406v-1.61719h-3.91406v1.61719Zm0,2.12109h3.91406v-1.60547h-3.91406v1.60547Zm4.40625-2.12109h3.90234v-1.61719h-3.90234v1.61719Zm0,2.12109h3.90234v-1.60547h-3.90234v1.60547Z"/><path class="cls-1" d="M40.11522,53.71746c-.42188,.25781-.875,.46875-1.35938,.63281s-.98828,.28516-1.51172,.36328v-.52734c.16406-.02344,.33984-.05273,.52734-.08789s.37891-.08386,.57422-.14648v-6.09375h-1.10156v-.50391h1.10156v-2.57812h.49219v2.57812h1.125v.50391h-1.125v5.92969c.42969-.17175,.85547-.38269,1.27734-.63281v.5625Zm7.40625-.19922c0,.46106-.12695,.83203-.38086,1.11328s-.58789,.42188-1.00195,.42188h-.85547v-.50391h.85547c.29688,0,.52734-.09375,.69141-.28125s.24609-.4375,.24609-.75v-1.80469h-.85547c-.32812,.8595-.86328,1.59375-1.60547,2.20312-.77344,.63281-1.64453,1.01172-2.61328,1.13672v-.52734c.85156-.11719,1.61328-.43945,2.28516-.9668s1.14062-1.14258,1.40625-1.8457h-1.44141c-.33594,.59375-.85547,1.11328-1.55859,1.55859s-1.41406,.71094-2.13281,.79688v-.55078c.65625-.08594,1.27734-.29688,1.86328-.63281,.58594-.33582,1.00781-.72656,1.26562-1.17188h-1.73438c-.42969,.297-.89453,.49622-1.39453,.59766v-.57422c.46094-.0625,.89258-.24609,1.29492-.55078s.68164-.64844,.83789-1.03125h-2.13281v-.50391h6.96094v.50391h-4.30078c-.14844,.38281-.375,.73438-.67969,1.05469h4.98047v2.30859Zm-.33984-4.89844h-6.28125v-3.62109h6.28125v3.62109Zm-.50391-2.07422v-1.04297h-5.27344v1.04297h5.27344Zm0,1.57031v-1.06641h-5.27344v1.06641h5.27344Z"/></g><path class="cls-1" d="M22.2021,9.69658c-1.68554,0-3.42075,1.37103-3.94939,2.64359l-3.13881,7.52506c-.11939,.28634-.37201,.48012-.66665,.57764-1.16626,.38576-2.88686,2.08439-2.88686,3.53106v8.44042c0,1.14267,.92634,2.06892,2.06892,2.06892h.3276c.47659,0,.86302,.38633,.86302,.86302l-.0001,2.21189c0,1.26846,.85777,2.43137,2.10349,2.67053,1.67637,.32177,3.14244-.95423,3.14244-2.57273v-1.98086c0-.65825,.53361-1.19186,1.19186-1.19186h18.67727c.65834,0,1.19195,.53361,1.19195,1.19186v1.83263c0,1.42032,1.06378,2.69316,2.48218,2.76728,1.51267,.07889,2.76365-1.12395,2.76365-2.61905v-2.3097c0-.47669,.38643-.86302,.86302-.86302h.32788c1.14257,0,2.06892-.92625,2.06892-2.06892v-8.44042c0-1.45871-1.74944-3.17357-2.91618-3.54052-.2786-.08758-.51413-.27191-.62654-.54154l-3.14951-7.55171c-.52912-1.27256-2.26385-2.64359-3.94978-2.64359H22.2021Zm-4.75912,18.68482c-1.44887,0-2.62306-1.17514-2.62306-2.62354,0-1.44849,1.17419-2.62268,2.62306-2.62268,1.44849,0,2.62277,1.17419,2.62277,2.62268,0,1.44839-1.17428,2.62354-2.62277,2.62354Zm13.1535-8.24157h-11.87502c-.45195,0-.7592-.45883-.58709-.87668l2.1842-5.30343c.23104-.55328,.42941-1.48717,2.2799-1.48717h15.99557c1.85087,0,2.04896,.93389,2.28076,1.48717l2.18353,5.30343c.17211,.41795-.13515,.87668-.58709,.87668h-11.87474Zm13.15303,8.24157c-1.44839,0-2.62268-1.17514-2.62268-2.62354,0-1.44849,1.17428-2.62268,2.62268-2.62268,1.44887,0,2.62316,1.17419,2.62316,2.62268,0,1.44839-1.17428,2.62354-2.62316,2.62354Z"/></g></g></svg>