<?xml version="1.0" encoding="UTF-8"?><svg id="_レイヤー_2" xmlns="http://www.w3.org/2000/svg" viewBox="0 0 60.3069 60.3069"><defs><style>.cls-1{fill:#fff;}.cls-2{fill:#f08300;}</style></defs><g id="text"><g><rect class="cls-2" width="60.3069" height="60.3069" rx="5.94414" ry="5.94414"/><g><path class="cls-1" d="M7.50107,45.19797c0,1.1875-.15967,2.75781-.47998,4.71094-.31982,1.95312-.69287,3.62891-1.11963,5.02734h-.31982c.4209-1.42969,.79443-3.13477,1.11963-5.11523s.48828-3.52148,.48828-4.62305h.31152Zm5.31592,9.73828h-.31201c0-.94531-.19824-2.47461-.59473-4.58789s-.80518-3.83398-1.22607-5.16211h.31982l.19678,.66797c.38281,1.36719,.74121,2.96484,1.07471,4.79297,.36084,1.95312,.5415,3.38281,.5415,4.28906Zm-.5498-8.54297h-.31982v-1.85156h.31982v1.85156Zm.7627,0h-.30322v-1.85156h.30322v1.85156Z"/><path class="cls-1" d="M14.72812,50.91672h-.33643v-5.87109h.33643v5.87109Zm6.06201-1.72266c0,1.89062-.26514,3.26562-.7959,4.125-.62891,1.03125-1.7251,1.54688-3.28906,1.54688h-1.53418v-.46875h1.53418c1.43262,0,2.44141-.48047,3.02686-1.44141,.48096-.79688,.72168-2.05078,.72168-3.76172v-4.14844h.33643v4.14844Z"/><path class="cls-1" d="M29.50986,47.29562c0,1.44531-.31152,2.54297-.93506,3.29297-.58545,.69531-1.40576,1.04297-2.46094,1.04297v-.48047c1.00635,0,1.7666-.31445,2.28027-.94336,.51416-.62891,.77148-1.59961,.77148-2.91211v-1.37109h-6.66943v-.49219h7.01367v1.86328Zm-3.89648,3c0,1.39844-.26807,2.52344-.80371,3.375-.55811,.86719-1.3291,1.30078-2.31348,1.30078v-.46875c.86426,0,1.54346-.37305,2.03857-1.11914s.74219-1.77539,.74219-3.08789v-1.65234h.33643v1.65234Z"/><path class="cls-1" d="M37.66367,48.10422c0,2.3125-.3501,4.00781-1.0498,5.08594-.75488,1.15625-1.98535,1.73438-3.69141,1.73438h-1.51758v-.48047h1.47656c1.61865,0,2.77246-.51172,3.46143-1.53516,.65625-.97656,.98438-2.55078,.98438-4.72266v-2.14453h-6.20117v-.48047h6.5376v2.54297Z"/><path class="cls-1" d="M39.92783,50.91672h-.33643v-5.87109h.33643v5.87109Zm6.06201-1.72266c0,1.89062-.26514,3.26562-.7959,4.125-.62891,1.03125-1.7251,1.54688-3.28906,1.54688h-1.53418v-.46875h1.53418c1.43262,0,2.44141-.48047,3.02686-1.44141,.48096-.79688,.72168-2.05078,.72168-3.76172v-4.14844h.33643v4.14844Z"/><path class="cls-1" d="M54.47178,50.24875h-6.53809v-.52734h6.53809v.52734Z"/></g><g><path class="cls-1" d="M15.60907,38.79389h28.4074c.47177,0,.85782-.38605,.85782-.85782v-5.28159c0-.47177-.37669-.77355-.8371-.67062l-28.55091,5.69779c-.656,.1467-.54942,1.11224,.1228,1.11224Z"/><g><path class="cls-1" d="M25.25239,11.2096c-.02917-.42054-.00747-.76251,.04833-.75977h.05458c.90022,0,1.75926-.50306,2.10253-1.3353,.826-2.00204-1.07236-3.90061-3.07455-3.07484-.83224,.34334-1.33545,1.20238-1.33545,2.10268v.08359c.00655,.08633,.03647,.50108,.06638,.92162l.82181,11.52355c.02999,.42054,.39945,.76464,.82105,.76464h7.50965c.4216,0,.90153,.31738,1.06649,.70541l3.14557,7.39706c.16497,.38795,.61748,.57066,1.00566,.406l3.3872-1.43731c.3881-.16467,.57112-.61702,.40668-1.00528l-.00282-.00685c-.16444-.38818-.61998-.57957-1.01236-.42526,0,0-1.92346,.833-2.06591,.89352-.22945,.0976-.33877-.13947-.33877-.13947l-3.1901-7.51026c-.16368-.38856-.6426-.7064-1.0642-.7064h-6.98276c-.4216,0-.79098-.3441-.82082-.76464l-.01834-.25899c-.02993-.42054,.29065-.76464,.71225-.76464h4.95918c.4216,0,.76654-.34494,.76654-.76654v-.37714c0-.4216-.34494-.76654-.76654-.76654h-5.43286c-.33611,0-.45837-.15256-.47474-.40265-.07438-1.13805-.2937-4.29618-.2937-4.29618Z"/><path class="cls-1" d="M34.19158,27.84169c-1.50103,3.23312-4.91754,5.39662-8.79189,5.03295-4.10159-.38506-7.44076-3.69126-7.8616-7.78935-.38529-3.75148,1.60015-7.08424,4.64036-8.68196,.19139-.10057,.42449,.0338,.442,.24932,.02923,.36047,.07217,.8464,.09387,1.10653,.00929,.11168-.04674,.21552-.14282,.2733-2.30175,1.38357-3.75977,4.0276-3.41895,6.97706,.37311,3.22893,2.97542,5.84768,6.20237,6.238,3.60972,.43667,6.76915-1.82222,7.73294-5.03105,.08207-.2733,.46682-.28815,.58193-.0271,.18035,.40904,.38544,.86246,.51516,1.13287,.07856,.16383,.08313,.35461,.00662,.51943Z"/></g></g></g></g></svg>