<?xml version="1.0" encoding="UTF-8"?><svg id="_レイヤー_2" xmlns="http://www.w3.org/2000/svg" xmlns:xlink="http://www.w3.org/1999/xlink" viewBox="0 0 240.16063 13.66117"><defs><style>.cls-1{stroke:#b60005;stroke-miterlimit:10;stroke-width:7.33109px;}.cls-1,.cls-2{fill:none;}.cls-3{clip-path:url(#clippath);}</style><clipPath id="clippath"><rect class="cls-2" y="0" width="240.16063" height="13.66117"/></clipPath></defs><g id="text"><g class="cls-3"><g><line class="cls-1" x1="139.87984" y1="-111.25363" x2=".94399" y2="79.52672"/><line class="cls-1" x1="155.12253" y1="-102.23893" x2="16.18668" y2="88.54142"/><line class="cls-1" x1="170.36524" y1="-93.22424" x2="31.42939" y2="97.55612"/><line class="cls-1" x1="185.60794" y1="-84.20954" x2="46.67209" y2="106.57081"/><line class="cls-1" x1="94.15174" y1="-138.29772" x2="-44.78411" y2="52.48264"/><line class="cls-1" x1="109.39443" y1="-129.28302" x2="-29.54142" y2="61.49733"/><line class="cls-1" x1="124.63714" y1="-120.26833" x2="-14.29871" y2="70.51203"/><line class="cls-1" x1="200.85063" y1="-75.19485" x2="61.91478" y2="115.58551"/><line class="cls-1" x1="216.09335" y1="-66.18013" x2="77.1575" y2="124.60023"/><line class="cls-1" x1="231.33604" y1="-57.16543" x2="92.40019" y2="133.61492"/><line class="cls-1" x1="246.57874" y1="-48.15073" x2="107.64289" y2="142.62962"/><line class="cls-1" x1="261.82145" y1="-39.13604" x2="122.8856" y2="151.64432"/><line class="cls-1" x1="277.06414" y1="-30.12134" x2="138.12829" y2="160.65901"/><line class="cls-1" x1="292.30683" y1="-21.10663" x2="153.37098" y2="169.67372"/><line class="cls-1" x1="307.54954" y1="-12.09194" x2="168.6137" y2="178.68842"/></g></g></g></svg>