<?xml version="1.0" encoding="UTF-8"?><svg id="_レイヤー_2" xmlns="http://www.w3.org/2000/svg" viewBox="0 0 60.3069 60.3069"><defs><style>.cls-1{fill:#fff;}.cls-2{fill:#f08300;}</style></defs><g id="text"><g><rect class="cls-2" width="60.3069" height="60.3069" rx="5.94414" ry="5.94414"/><g><path class="cls-1" d="M12.00998,52.72136h-2.34131l.30225,2.20312h-.28125l-.29541-2.20312h-3.38916v-.48047h3.32568c-.25781-2.125-.44971-3.9375-.57617-5.4375h-2.65088v-.48047h2.60156c-.06104-.75-.09131-1.21094-.09131-1.38281h.28809c0,.22668,.02832,.6875,.08447,1.38281h2.93213v.48047h-2.88281c.05127,.65625,.12891,1.46484,.23193,2.42578s.21777,1.96484,.34424,3.01172h2.39795v.48047Z"/><path class="cls-1" d="M14.57638,51.59636h-.29541l-.35156-4.10156h.30273l.34424,4.10156Zm3.97266-2.01562c0,1.74219-.25781,3.03918-.77344,3.89062-.56689,.92969-1.47168,1.39453-2.71387,1.39453h-.84375v-.45703h.82275c1.18115,0,2.02734-.41785,2.53809-1.25391,.45947-.77344,.68896-1.97266,.68896-3.59766v-2.0625h.28125v2.08594Zm-2.23584,2.01562h-.28125l-.3584-4.10156h.28809l.35156,4.10156Z"/><path class="cls-1" d="M26.43136,55.11199l-2.05322-3.1875c-.50635,.84375-1.11768,1.52747-1.83496,2.05078-.66113,.47644-1.3667,.78906-2.1167,.9375v-.46875c1.31738-.29688,2.42334-1.01953,3.31885-2.16797,1.03613-1.34363,1.61719-3.09375,1.74365-5.25h.27441c-.05176,.92188-.1792,1.75977-.3833,2.51367-.20361,.75403-.47705,1.44336-.81885,2.06836l1.87012,2.84766v.65625Zm-.94922-9.09375h-4.8584v-.49219h4.8584v.49219Zm.5625,.52734h-.27441v-1.875h.27441v1.875Zm.65381,0h-.26025v-1.875h.26025v1.875Z"/><path class="cls-1" d="M33.64572,53.42449c-.1875-.38269-.43359-.80078-.73828-1.25391-.27686-.42188-.5791-.83594-.90723-1.24219-.4126,1.25-.98193,2.21484-1.7085,2.89453-.75488,.70312-1.63574,1.05469-2.64355,1.05469v-.46875c.95117,0,1.78125-.32617,2.48877-.97852,.70801-.65222,1.25146-1.57617,1.63135-2.77148-.63281-.75-1.27979-1.41797-1.94043-2.00391-.66113-.58594-1.24219-1.00378-1.74414-1.25391v-.48047c.60938,.3125,1.25879,.76953,1.94775,1.37109,.62354,.54688,1.24707,1.18762,1.87061,1.92188,.29492-1.125,.44287-2.39453,.44287-3.80859v-1.34766h.28809v1.38281c0,1.49231-.1665,2.83997-.49902,4.04297,.65137,.80469,1.15527,1.5509,1.51172,2.23828v.70312Z"/><path class="cls-1" d="M40.81076,54.72527h-6.01172v-.46875h6.01172v.46875Zm-.28125-8.46094h-5.42822v-.48047h5.42822v.48047Z"/><path class="cls-1" d="M47.46261,54.78386h-4.79541v-.45703h3.71924v-6.11719h-3.31152v-.45703h3.58594v6.57422h.80176v.45703Z"/><path class="cls-1" d="M55.02121,50.24871h-5.604v-.52734h5.604v.52734Z"/></g><g><path class="cls-1" d="M46.84979,31.76257c-.8854-1.35145-2.11053-2.49559-3.73234-2.68279,.25303-.49502,.47452-1.00738,.6708-1.53274,.17834,.02207,.35619,.04178,.52734,.04178,.84815,0,1.59699-.26919,2.1925-.79337,.81071-.71376,1.25607-1.86499,1.22139-3.15889-.03192-1.2005-.70272-2.23546-1.6699-2.57638-.46723-.16474-.95299-.14464-1.41096,.03311-.69661-7.39611-6.93597-13.2039-14.51121-13.2039-7.57839,0-13.81913,5.81252-14.5117,13.21257-.46438-.18563-.95821-.20928-1.43293-.04178-.96678,.34092-1.63758,1.37628-1.6695,2.57638-.03429,1.2943,.41107,2.44553,1.22178,3.15929,.59552,.52418,1.34435,.79297,2.1925,.79297,.17775,0,.36249-.01971,.54832-.04335,.19539,.52379,.41619,1.03418,.66824,1.52762-1.68202,.14307-2.94814,1.30494-3.85521,2.68949-.32564,.5435-.61798,1.13901-.79002,1.92135-.09892,.45009,.18543,.89505,.63533,.99358,2.26295,.45048,5.10093-.32082,6.20605-2.43174,2.66959,2.94291,6.51012,4.80514,10.78714,4.80514,4.23337,0,8.03932-1.82479,10.70536-4.71528,1.13704,2.04471,3.93029,2.78605,6.16172,2.34188,.44979-.09853,.73425-.5435,.63533-.99358-.17213-.78233-.46447-1.37785-.79002-1.92135Zm-1.18276-9.58822c.50054,.17657,.86273,.79061,.88165,1.49373,.02483,.94235-.27431,1.75936-.82135,2.24059-.40309,.3551-.94038,.51078-1.55994,.48241,.34988-1.24976,.55098-2.56101,.55098-3.92113,0-.01931-.00286-.03784-.00296-.05715,.30958-.25894,.63907-.3488,.95161-.23844Zm-31.14122,3.73471c-.54704-.48162-.84658-1.29824-.82175-2.24098,.01892-.70312,.38112-1.31716,.88165-1.49373,.31914-.11272,.65681-.01458,.9725,.25815,0,.01261-.00177,.02483-.00177,.03744,0,1.35972,.2009,2.67058,.55059,3.91994-.62823,.03311-1.1736-.12218-1.58122-.48083Zm29.60177-3.43912c0,7.72678-6.2636,13.99018-13.99018,13.99018s-13.99018-6.2634-13.99018-13.99018c0-1.32071,.18701-2.59687,.52911-3.80801,3.33645-1.56348,7.36005-2.55943,11.72673-2.76989l1.59166-3.67559c.15706-.36259,.677-.34446,.80894,.02759l1.29637,3.65864c4.2787,.23411,8.22012,1.22296,11.49853,2.75925,.342,1.21114,.52901,2.48731,.52901,3.80801Z"/><g><path class="cls-1" d="M25.84211,22.88767c0,.60111-.4873,1.08843-1.08843,1.08843s-1.08843-.48732-1.08843-1.08843,.4873-1.08845,1.08843-1.08845,1.08843,.48732,1.08843,1.08845Z"/><path class="cls-1" d="M36.69528,22.88767c0,.60111-.4873,1.08843-1.08843,1.08843s-1.08843-.48732-1.08843-1.08843,.4873-1.08845,1.08843-1.08845,1.08843,.48732,1.08843,1.08845Z"/></g><path class="cls-1" d="M30.23705,30.84937c-2.02106,0-3.7623-1.0525-4.14065-2.50268-.08355-.32032,.10838-.64774,.42881-.73129,.322-.08424,.64794,.10858,.73149,.42881,.23884,.91565,1.52013,1.60625,2.98036,1.60625,1.33095,0,2.52436-.57207,2.90271-1.39125,.13873-.30032,.49423-.43166,.79573-.29293,.30032,.13883,.43156,.49502,.29283,.79564-.5766,1.24858-2.18068,2.08747-3.99128,2.08747Z"/><polygon class="cls-1" points="30.18026 23.85072 29.04548 25.81622 31.31505 25.81622 30.18026 23.85072"/></g></g></g></svg>