<?xml version="1.0" encoding="UTF-8"?><svg id="_レイヤー_2" xmlns="http://www.w3.org/2000/svg" viewBox="0 0 55.43342 53.11836"><defs><style>.cls-1{fill:#b60005;}.cls-2{fill:none;stroke:#b60005;stroke-linecap:round;stroke-linejoin:round;stroke-width:2.3376px;}</style></defs><g id="footer"><g><g><path class="cls-1" d="M27.78907,19.29496s4.87631-2.83845,5.60412-3.85738,6.11358-1.09171,6.84139-1.16449,1.67396-.3639,3.93016-.21834,4.43963,.50947,5.16743,1.5284,1.23727,3.05679,1.38283,3.34791,.43668,1.45561,.87337,1.74674,1.09171,1.23727,1.31005,1.31005,.94615,.46093,.72781,1.09171c-.10102,.29179-.58225,1.01893-.65503,1.23727s-.94615,.80059-1.23727,.80059-1.38283,.14556-1.67396,0-.98117-.26603-1.60118-.21834c-.63078,.04853-.67928,.24259-1.18874,.26687-1.10012,.05237-1.2858,.0485-1.79527,.09703-.65608,.06247-1.98933-.19409-2.18342,.58225-.05296,.21182-.3639,2.2562-.3639,2.54733s.3639,2.62011,.21834,3.63904-1.60118,4.73075-2.69289,5.31299-1.45561,.65503-3.27513,.3639-6.47749-.58225-7.5692-.29112-5.6769,1.16449-6.91417,1.31005-5.09465-.07278-6.18636-.43668-3.34791-.72781-4.22128-.29112-2.11064,4.58519-2.54733,5.24021-2.76567,3.7846-3.20235,4.29406-.07278,3.27513-.07278,3.7846-.21834,1.67396-.72781,1.67396-2.76567,.3639-2.47455-.14556,.94615-2.11064,1.09171-2.76567,.29112-1.8923,.3639-2.98401c.07278-1.09171,.94615-4.58519,1.45561-5.09465s1.23727-3.63904,1.23727-4.1485,.14556-7.78754,.58225-9.09759,3.05679-2.91123,4.07572-3.42069c1.01893-.50947,1.60118-1.81952,2.83845-1.60118s4.58519-.21834,6.47749-.43668,5.38577-3.42069,6.40471-4.00294Z"/><path class="cls-1" d="M40.8896,15.14646s-.14556-1.38283,1.16449-2.03786c.60018-.30009,3.49348-.43668,4.1485-1.09171s.94615-2.62011,1.09171-2.11064,.14556,1.8923,0,2.47455-2.76567,2.18342-2.76567,2.18342l-3.63904,.58225Z"/><path class="cls-1" d="M45.98711,16.74027s2.5811-1.21783,3.34733-1.03692c.76621,.1809,2.24636,.89203,3.27286,.53482,1.0265-.35721,2.92837-2.37303,2.82182-1.76054-.10655,.61246-1.71559,2.16607-2.1668,2.70669-.45121,.54062-3.13412,.80015-3.13412,.80015l-4.14111-1.2442Z"/><path class="cls-1" d="M29.75415,33.92389s5.31299,6.55027,5.89524,7.27807,3.63904,3.63904,3.63904,4.36684,1.09171,1.81952,1.16449,2.83845,.14556,2.11064,.43668,2.40176,1.38283,.72781,1.38283,.72781l1.67396-.14556-.41244-1.31005,.97043,1.16449h.38816s-.24259-1.31005-.77634-1.74674c-.53371-.43668-1.64968-1.26152-1.64968-1.26152,0,0-1.06746-2.37751-1.50414-3.34791-.43668-.97043-1.50415-2.37751-1.50415-2.37751,0,0,.77634-4.56094,.24262-5.38577-.53374-.82484-9.94671-3.20235-9.94671-3.20235Z"/><path class="cls-1" d="M15.34356,36.73808s3.10532,2.71714,3.20235,3.29938c.09703,.58225,1.11596,2.91123,1.69821,3.54201,.58225,.63075,.43668,3.20235,.43668,3.59051s1.8923,2.8142,1.8923,2.8142c0,0,1.16449-.04853,1.55268,0,.38816,.0485,1.55265,.09703,1.55265-.19409s-2.03786-2.08639-2.42602-2.13489c-.38818-.04853-1.64971-1.16449-1.50414-1.64971s0-2.23195,0-2.8142,.82484-5.91949,.82484-5.91949l-7.22954-.53372Z"/><path class="cls-1" d="M12.9418,26.13635s-3.93016,.72781-5.45856,.07278-3.7846-.14556-4.80353,1.09171,.94615,5.96802-.21834,7.5692S.05961,39.01854,.20517,39.45522s-.58225,1.5284,.07278,2.47455,1.60118,2.2562,1.60118,1.45561,.3639-1.45561,.07278-2.47455-.58225-2.03786-.58225-2.40176,1.67396-2.91123,2.03786-3.63904,.14556-4.00294,.14556-5.02187,.21834-2.47455,1.67396-2.32898,4.29406,1.60118,4.29406,1.60118l3.42069-2.98401Z"/><path class="cls-1" d="M41.23473,27.56631s1.91108,2.20907,2.78445,2.57297,4.46117,3.11062,4.56641,3.54061c.27351,1.11736-1.25488,2.53658-1.83713,2.90049s-2.29259,1.45561-2.98401,2.14703c-.41491,.41491-1.14572,.9718-1.5284,1.27366-.1807,.14253-1.1281,1.23727-1.14688,1.24802-.39933,.22891-.38151-2.74002-.12678-2.88558,.77136-.44076,1.65518-.31677,2.09186-.53511,.24096-.12047,.3074-1.18967,.89215-1.90304,.47497-.57945,1.50962-.81244,1.50962-1.00819,0-.43668-4.36684,.14556-5.24021-.07278s1.01893-7.27807,1.01893-7.27807Z"/></g><polyline class="cls-2" points="36.35105 9.80314 27.71671 1.1688 19.08237 9.80314"/></g></g></svg>