<?xml version="1.0" encoding="UTF-8"?><svg id="_レイヤー_2" xmlns="http://www.w3.org/2000/svg" viewBox="0 0 63.83054 63.83054"><defs><style>.cls-1{fill:#3e0005;}.cls-2{fill:none;stroke:#3e0005;}</style></defs><g id="header"><rect class="cls-2" x=".5" y=".5" width="62.83054" height="62.83054" rx="5" ry="5"/><g><path class="cls-1" d="M26.38742,37.07798c-.3846-.26032-.85261-.4123-1.34958-.4123-.33102,0-.64973,.0675-.93845,.19005-.43411,.18311-.80068,.48843-1.06104,.87303-.25958,.38352-.41226,.85153-.41226,1.34863,0,.33089,.06789,.65043,.19039,.93944,.18346,.43376,.48804,.80068,.87264,1.06065,.38391,.25962,.85157,.41261,1.34871,.41226,.33085,.00035,.65077-.0675,.9394-.19005,.43342-.18381,.80033-.48808,1.05991-.87264,.26071-.3846,.41339-.85261,.41235-1.34967,.00035-.33094-.06685-.64973-.18935-.93845-.18415-.43407-.48847-.80068-.87273-1.06095Zm-.3801,2.43824c-.07318,.17357-.1982,.32378-.35348,.42873-.15632,.10547-.34047,.16577-.54491,.16638-.13612,0-.26236-.0274-.37845-.07651-.17418-.07313-.32383-.1982-.42934-.35391-.10551-.15636-.16577-.34004-.16577-.54435,0-.13625,.02679-.2624,.07586-.37853,.0737-.17418,.1982-.32435,.354-.42934,.15632-.10547,.33995-.16573,.5437-.16633,.13681,.00061,.26357,.0274,.37966,.07651,.17366,.07365,.32383,.19759,.42873,.35391,.10499,.15636,.16586,.33943,.16647,.54379,0,.13681-.028,.26296-.07647,.37966Z"/><path class="cls-1" d="M42.80468,13.52578H20.16804l-.77614-2.66613-.00069-.00134c-.35617-1.19322-1.33467-2.09633-2.55212-2.35734l-2.7869-.59711c-.47182-.10109-.93602,.19937-1.03746,.67119-.10144,.47143,.19941,.93667,.67089,1.03776l2.78725,.59745c.59286,.12671,1.06988,.56772,1.24363,1.14891l5.09279,17.49513c-.11427,.05332-.22577,.11215-.33276,.17553-.54829,.32708-.98821,.78611-1.2849,1.32231-.28212,.50989-.43194,1.08727-.44581,1.68264h-.00277v.09104h.00277c.0111,.46454,.10976,.91179,.28212,1.31889,.27553,.65112,.73383,1.20219,1.31161,1.59265,.5763,.39015,1.27831,.6193,2.02498,.61861h16.38051c.48292,0,.87403-.39115,.87403-.87372,0-.48253-.39111-.87437-.87403-.87437H24.36452c-.26062,0-.50546-.05193-.72863-.14644-.33588-.14158-.62312-.3801-.82487-.67986-.19456-.28763-.30883-.62758-.3175-.9997,.00936-.44412,.15025-.82938,.39882-1.13747,.12936-.15923,.28871-.29873,.48145-.414,.18935-.11353,.41434-.20318,.67739-.26032l16.46504-2.6803c1.07621-.17548,1.93125-.99727,2.14853-2.06551l.74909-3.68313,1.13474-6.32875c.32019-1.28182-.3846-1.98661-1.74389-1.98661Zm-.02341,2.83992l-1.72846,8.84289c-.07196,.35729-.35833,.63196-.71788,.69057l-15.75964,2.5653-3.83537-13.17592h21.19325c.73349,0,.98795,.42561,.8481,1.07717Z"/><path class="cls-1" d="M39.61514,37.07798c-.3846-.26032-.85261-.4123-1.34967-.4123-.33094,0-.64973,.0675-.93905,.19005-.4342,.18311-.80077,.48843-1.06035,.87303-.25958,.38352-.41226,.85153-.41226,1.34863,0,.33089,.06719,.65043,.18935,.93944,.18381,.43376,.48873,.80068,.87333,1.06065,.38391,.25962,.85192,.41261,1.34897,.41226,.33094,.00035,.65043-.0675,.93949-.19005,.43376-.18381,.80033-.48808,1.05991-.87264,.25958-.3846,.41304-.85261,.41235-1.34967,0-.33094-.06685-.64973-.18935-.93845-.18381-.43407-.48812-.80068-.87273-1.06095Zm-.35599,2.43824c-.07318,.17357-.19768,.32378-.354,.42873-.15632,.10547-.33943,.16577-.5437,.16638-.13629,0-.26244-.0274-.37853-.07651-.17427-.07313-.32443-.1982-.42986-.35391-.10499-.15636-.16525-.34004-.16525-.54435,0-.13625,.02679-.2624,.07595-.37853,.07361-.17418,.1975-.32435,.35391-.42934,.15623-.10547,.33935-.16573,.54379-.16633,.13612,.00061,.26288,.0274,.37905,.07651,.17357,.07365,.32426,.19759,.42934,.35391,.10491,.15636,.16516,.33943,.16577,.54379-.00061,.13681-.0274,.26296-.07647,.37966Z"/></g><g><path class="cls-1" d="M9.37194,52.16213c0,.61609-.06421,1.17529-.19263,1.67749-.12842,.50244-.31348,.93335-.55542,1.29248-.24194,.3595-.53735,.63806-.8855,.83606-.34839,.198-.73877,.297-1.17139,.297-.44019,0-.83252-.099-1.177-.297-.34497-.198-.63818-.47656-.88013-.83606-.24194-.35913-.42725-.79004-.55542-1.29248-.12842-.5022-.19263-1.0614-.19263-1.67749,0-.61597,.06226-1.17322,.18701-1.672,.12476-.49854,.30811-.92761,.55005-1.28699,.24194-.35925,.53711-.63611,.8855-.83044,.34814-.19421,.74243-.2915,1.18262-.2915,.43262,0,.823,.09729,1.17139,.2915,.34814,.19434,.64355,.47119,.8855,.83044,.24194,.35938,.427,.78845,.55542,1.28699,.12842,.49878,.19263,1.05603,.19263,1.672Zm-1.36401,0c0-.396-.03125-.76807-.09351-1.11646-.0625-.34827-.15405-.64905-.2749-.90198-.12109-.25305-.27148-.45276-.45117-.59949-.17969-.14661-.38672-.22009-.62134-.22009-.24219,0-.45288,.07349-.63257,.22009-.17993,.14673-.33008,.34644-.45093,.59949-.12109,.25293-.21094,.55371-.26953,.90198-.05884,.34839-.08813,.72046-.08813,1.11646s.0293,.76831,.08813,1.11658c.05859,.34839,.14844,.65088,.26953,.90747,.12085,.25671,.271,.45837,.45093,.60498,.17969,.14673,.39038,.21997,.63257,.21997,.24194,0,.45264-.07324,.63232-.21997,.17969-.14661,.33008-.34827,.45117-.60498,.12085-.25659,.21069-.55908,.26929-.90747,.05884-.34827,.08813-.72058,.08813-1.11658Z"/><path class="cls-1" d="M14.01378,56.06716l-2.21094-5.5h-.03296l.02197,5.5h-1.18799v-7.78796h1.50708l2.18896,5.53296h.03296l-.01099-5.53296h1.14404v7.78796h-1.45215Z"/><path class="cls-1" d="M17.04992,56.06716v-7.78796h1.33105v6.56702h2.14502v1.22095h-3.47607Z"/><path class="cls-1" d="M21.3839,56.06716v-7.78796h1.32007v7.78796h-1.32007Z"/><path class="cls-1" d="M27.69762,56.06716l-2.21094-5.5h-.03296l.02197,5.5h-1.18799v-7.78796h1.50708l2.18896,5.53296h.03296l-.01099-5.53296h1.14404v7.78796h-1.45215Z"/><path class="cls-1" d="M30.73375,56.06716v-7.78796h3.48706v1.16602h-2.22217v2.06799h2.05713v1.078h-2.05713v2.29895h2.33203v1.177h-3.59692Z"/><path class="cls-1" d="M40.73278,49.78615c-.28613-.3446-.64551-.51697-1.07812-.51697-.12476,0-.24585,.02026-.36304,.06042-.11743,.04041-.22363,.10449-.31885,.1925-.09546,.08801-.17065,.20178-.22559,.34106-.05493,.1394-.08252,.30432-.08252,.495,0,.32996,.09912,.58484,.29712,.76453s.45801,.35022,.78101,.51147c.19043,.09534,.38501,.20532,.58301,.32996,.198,.12476,.37744,.27502,.53882,.45105s.29321,.38501,.396,.62695c.10278,.24207,.15405,.52808,.15405,.85803,0,.38135-.06055,.71875-.1814,1.01196-.12109,.29346-.28247,.54089-.48413,.74255-.20166,.20178-.43823,.35388-.70947,.45642-.27148,.10266-.55737,.15405-.85791,.15405-.43286,0-.83252-.08435-1.19897-.25305-.36694-.16858-.66016-.38123-.88013-.63794l.71509-.96802c.16846,.20544,.37207,.36682,.61035,.48401,.23828,.11743,.48218,.17603,.73169,.17603,.27856,0,.50952-.09521,.69287-.28601,.18335-.19067,.27515-.45825,.27515-.80298,0-.33728-.11011-.60498-.33008-.80298s-.49878-.38123-.83594-.55005c-.21289-.10266-.4126-.21619-.59961-.34106-.18701-.12451-.35205-.27307-.49487-.44543-.14307-.17224-.25684-.37402-.34106-.60498-.08447-.23108-.12646-.50769-.12646-.83057,0-.4032,.06396-.74963,.19238-1.03943,.12817-.28967,.29712-.52979,.5061-.72058,.20898-.19055,.44531-.33167,.70947-.42346,.26392-.09155,.53149-.13745,.80298-.13745,.396,0,.74976,.06421,1.06152,.1925,.31152,.1283,.57373,.31726,.78638,.56641l-.72583,.94604Z"/><path class="cls-1" d="M46.25475,56.06716v-3.45398h-2.33203v3.45398h-1.30908v-7.78796h1.30908v3.15698h2.33203v-3.15698h1.30884v7.78796h-1.30884Z"/><path class="cls-1" d="M54.41662,52.16213c0,.61609-.06421,1.17529-.19263,1.67749-.12842,.50244-.31348,.93335-.55542,1.29248-.24194,.3595-.53735,.63806-.8855,.83606-.34839,.198-.73877,.297-1.17139,.297-.44019,0-.83252-.099-1.177-.297-.34497-.198-.63818-.47656-.88013-.83606-.24194-.35913-.42725-.79004-.55542-1.29248-.12842-.5022-.19263-1.0614-.19263-1.67749,0-.61597,.06226-1.17322,.18701-1.672,.12476-.49854,.30811-.92761,.55005-1.28699,.24194-.35925,.53711-.63611,.8855-.83044,.34814-.19421,.74243-.2915,1.18262-.2915,.43262,0,.823,.09729,1.17139,.2915,.34814,.19434,.64355,.47119,.8855,.83044,.24194,.35938,.427,.78845,.55542,1.28699,.12842,.49878,.19263,1.05603,.19263,1.672Zm-1.36401,0c0-.396-.03125-.76807-.09351-1.11646-.0625-.34827-.15405-.64905-.2749-.90198-.12109-.25305-.27148-.45276-.45117-.59949-.17969-.14661-.38672-.22009-.62134-.22009-.24219,0-.45288,.07349-.63257,.22009-.17993,.14673-.33008,.34644-.45093,.59949-.12109,.25293-.21094,.55371-.26953,.90198-.05884,.34839-.08813,.72046-.08813,1.11646s.0293,.76831,.08813,1.11658c.05859,.34839,.14844,.65088,.26953,.90747,.12085,.25671,.271,.45837,.45093,.60498,.17969,.14673,.39038,.21997,.63257,.21997,.24194,0,.45264-.07324,.63232-.21997,.17969-.14661,.33008-.34827,.45117-.60498,.12085-.25659,.21069-.55908,.26929-.90747,.05884-.34827,.08813-.72058,.08813-1.11658Z"/><path class="cls-1" d="M59.99352,50.57814c0,.396-.0603,.74255-.18066,1.03955-.12085,.297-.27954,.54443-.47681,.74243-.19751,.198-.42383,.34485-.67969,.44006-.25586,.09534-.5188,.14294-.78906,.14294h-.92065v3.12402h-1.2981v-7.78796h2.15039c.24878,0,.50488,.03674,.76831,.10999,.26318,.07336,.49902,.19983,.70752,.37952s.38037,.41626,.51587,.70947c.13525,.29333,.20288,.66003,.20288,1.09998Zm-1.24292,.01672c0-.41614-.09912-.71912-.29712-.90894-.198-.1897-.45093-.28479-.75903-.28479h-.7478v2.46399h.7478c.30811,0,.56104-.10754,.75903-.32288,.198-.21545,.29712-.53113,.29712-.94739Z"/></g></g></svg>