<?xml version="1.0" encoding="UTF-8"?><svg id="_レイヤー_2" xmlns="http://www.w3.org/2000/svg" viewBox="0 0 134.64558 66.85381"><defs><style>.cls-1{fill:#fff;}.cls-2{fill:#b60005;fill-rule:evenodd;}</style></defs><g id="header"><g><path class="cls-1" d="M20.00158,6.4496v7.47455c0,1.11706-.02335,1.83897-.04203,2.14998-.04109,.33348-.19052,.61451-.45951,.87798-.27458,.25584-.65004,.42867-1.09834,.53048-.46511,.09611-1.15904,.14935-2.08366,.14935h-2.09581v-1.96403c.2447,.01767,.43056,.01767,.54917,.01767,.28673,0,.52022-.04196,.69207-.14377,.18026-.10466,.27552-.23258,.3054-.37828,.01775-.13727,.02989-.42685,.02989-.85085V6.4496h4.20283Z"/><path class="cls-1" d="M31.17866,6.4496v7.49324c0,.84424-.03643,1.42614-.11395,1.77546-.07659,.34089-.32222,.70138-.70421,1.06564-.39413,.35867-.91341,.63321-1.55225,.81254-.63882,.19142-1.40374,.28582-2.28073,.28582-.94984,0-1.80348-.10375-2.53758-.33154-.73409-.21958-1.28326-.51281-1.65404-.86772-.36424-.35297-.57906-.72008-.63883-1.1198-.07098-.39698-.10741-1.22069-.10741-2.49269V6.4496h4.19723V14.8385c0,.48374,.04203,.80513,.12515,.93396,.07284,.13453,.22788,.20636,.4483,.20636,.26898,0,.44176-.07468,.51928-.22779,.05978-.14297,.1018-.50153,.1018-1.05356V6.4496h4.19723Z"/><path class="cls-1" d="M45.75791,6.4496v11.18235h-3.67795l-.01214-7.53987-1.45605,7.53987h-2.55531l-1.5345-7.39976-.01214,7.39976h-3.68355V6.4496h5.40951c.13075,.67436,.31008,1.46262,.5006,2.37321l.59213,2.85045,.96104-5.22367h5.46836Z"/><path class="cls-1" d="M47.46509,6.44926h4.18601c1.3253,0,2.32838,.07753,3.0027,.21856,.68085,.14,1.24216,.43802,1.6475,.86202,.41841,.44828,.63322,1.14967,.63322,2.12011,0,.65088-.1429,1.10395-.44176,1.3729-.29793,.25401-.88353,.44737-1.75491,.58464,.9788,.16155,1.63536,.40633,1.98186,.7528,.35304,.35206,.51368,.89565,.51368,1.61859v1.03851c0,.74904-.12515,1.30096-.36424,1.66522-.26245,.36711-.65098,.61462-1.19454,.7463-.54263,.13442-1.65964,.20259-3.34919,.20259h-4.86033V6.44926Zm4.20377,1.90429v2.53203c.17371-.01779,.3222-.01779,.41187-.01779,.41187,0,.66872-.07103,.78266-.21764,.11861-.14103,.17838-.54074,.17838-1.21226,0-.35491-.04763-.60619-.14942-.74995-.08873-.13727-.20268-.22973-.35772-.27362-.1429-.0309-.44176-.04766-.86577-.06077m0,4.24855v3.1251c.57905-.0122,.96758-.07468,1.12262-.19051,.16718-.1196,.25029-.40074,.25029-.8537v-1.03292c0-.48385-.07097-.78267-.22041-.87513-.14384-.09805-.53142-.16155-1.1525-.17284"/><path class="cls-1" d="M68.33866,13.00535c0,1.13473-.03643,1.91649-.11394,2.38815-.08407,.47815-.32222,.89463-.72849,1.28317-.39414,.38854-.9321,.68747-1.61763,.89007-.68646,.22049-1.48686,.31569-2.40027,.31569-.86578,0-1.64844-.0952-2.32276-.29882-.6986-.19336-1.25339-.48283-1.66526-.87981-.41749-.39139-.67432-.81539-.74623-1.27485-.08407-.46892-.11955-1.27211-.11955-2.4236v-1.9231c0-1.12538,.03549-1.92584,.11301-2.39373,.07845-.46037,.32222-.89007,.71075-1.27485,.40533-.39698,.9489-.6893,1.63536-.89851,.693-.20921,1.48126-.30725,2.39469-.30725,.87139,0,1.6419,.08311,2.32276,.29517,.69206,.19701,1.25337,.47815,1.67179,.87787,.41189,.39413,.65658,.82383,.7397,1.2777,.08965,.46607,.12608,1.27485,.12608,2.4236v1.9231Zm-4.20375-3.67805c0-.51646-.04764-.86008-.11955-1.00864-.09527-.13168-.26245-.21571-.51368-.21571-.22041,0-.38759,.06624-.495,.18207-.11955,.1074-.17278,.46892-.17278,1.04227v5.22367c0,.65099,.03549,1.04797,.1074,1.20017,.07098,.14388,.25031,.22699,.5249,.22699,.28672,0,.46604-.08973,.54917-.26245,.07845-.17375,.11955-.58464,.11955-1.24783v-5.14055Z"/><path class="cls-1" d="M82.39237,9.83533h-3.89277v-.83021c0-.38854-.04763-.63321-.1541-.7406-.09527-.10751-.26338-.16166-.49594-.16166-.25123,0-.4483,.08414-.57998,.20921-.13075,.14662-.20268,.36711-.20268,.65658,0,.36426,.07753,.64449,.22695,.82657,.1429,.1831,.53142,.41568,1.18894,.68747,1.86232,.78165,3.03817,1.4242,3.52197,1.90714,.48286,.50153,.72849,1.29537,.72849,2.39738,0,.80046-.1373,1.37951-.40627,1.76155-.26245,.38478-.78826,.69477-1.56999,.95163-.76492,.25401-1.65404,.38204-2.68608,.38204-1.12354,0-2.07806-.14855-2.87286-.44087-.79387-.29049-1.31876-.66399-1.56999-1.12265-.23256-.45478-.36424-1.10486-.36424-1.95286v-.71632h3.89368v1.34394c0,.41465,.05324,.68269,.17185,.81163,.1074,.10648,.30448,.17364,.57999,.17364,.28672,0,.4894-.08402,.62668-.22779,.13075-.15232,.20921-.38204,.20921-.67436,0-.66593-.13822-1.08343-.38853-1.29822-.26804-.19427-.91995-.53231-1.96412-1.0124-1.03296-.48009-1.73717-.83033-2.0902-1.04421-.32222-.22129-.60801-.51737-.82283-.90124-.22227-.38854-.34089-.87513-.34089-1.46912,0-.8667,.16158-1.48121,.47726-1.88103,.311-.39687,.82468-.71073,1.53449-.93111,.6986-.22141,1.55225-.33154,2.54973-.33154,1.09833,0,2.02389,.11583,2.80095,.36791,.76305,.24387,1.27113,.54827,1.51582,.92461,.25031,.36996,.37546,1.00225,.37546,1.88662v.44828Z"/><polygon class="cls-1" points="92.50671 6.4496 92.50671 8.68281 89.99901 8.68281 89.99901 17.63195 85.8074 17.63195 85.8074 8.68281 83.33706 8.68281 83.33706 6.4496 92.50671 6.4496"/><polygon class="cls-1" points="93.47972 6.4496 100.48255 6.4496 100.48255 8.68281 97.69562 8.68281 97.69562 10.8019 100.30977 10.8019 100.30977 12.91825 97.69562 12.91825 97.69562 15.40821 100.75714 15.40821 100.75714 17.63195 93.47972 17.63195 93.47972 6.4496"/><path class="cls-1" d="M109.21118,6.45006l2.40122,11.18143h-4.27568l-.22602-2.01454h-1.54103l-.22602,2.01454h-4.34105l2.13784-11.18143h6.07075Zm-2.22563,7.1999c-.20268-1.28978-.41189-2.85969-.64538-4.72864-.42401,2.15192-.68646,3.71909-.79386,4.72864h1.43924Z"/><polygon class="cls-1" points="122.34699 6.4496 119.9579 11.50055 122.59168 17.63195 118.2637 17.63195 116.54335 12.83799 116.54335 17.63195 112.34706 17.63195 112.34706 6.4496 116.54335 6.4496 116.54335 10.79631 118.41781 6.4496 122.34699 6.4496"/><path class="cls-1" d="M20.00158,6.4496v7.47455c0,1.11706-.02335,1.83897-.04203,2.14998-.04109,.33348-.19052,.61451-.45951,.87798-.27458,.25584-.65004,.42867-1.09834,.53048-.46511,.09611-1.15904,.14935-2.08366,.14935h-2.09581v-1.96403c.2447,.01767,.43056,.01767,.54917,.01767,.28673,0,.52022-.04196,.69207-.14377,.18026-.10466,.27552-.23258,.3054-.37828,.01775-.13727,.02989-.42685,.02989-.85085V6.4496h4.20283Z"/><path class="cls-1" d="M31.17866,6.4496v7.49324c0,.84424-.03643,1.42614-.11395,1.77546-.07659,.34089-.32222,.70138-.70421,1.06564-.39413,.35867-.91341,.63321-1.55225,.81254-.63882,.19142-1.40374,.28582-2.28073,.28582-.94984,0-1.80348-.10375-2.53758-.33154-.73409-.21958-1.28326-.51281-1.65404-.86772-.36424-.35297-.57906-.72008-.63883-1.1198-.07098-.39698-.10741-1.22069-.10741-2.49269V6.4496h4.19723V14.8385c0,.48374,.04203,.80513,.12515,.93396,.07284,.13453,.22788,.20636,.4483,.20636,.26898,0,.44176-.07468,.51928-.22779,.05978-.14297,.1018-.50153,.1018-1.05356V6.4496h4.19723Z"/><path class="cls-1" d="M45.75791,6.4496v11.18235h-3.67795l-.01214-7.53987-1.45605,7.53987h-2.55531l-1.5345-7.39976-.01214,7.39976h-3.68355V6.4496h5.40951c.13075,.67436,.31008,1.46262,.5006,2.37321l.59213,2.85045,.96104-5.22367h5.46836Z"/><path class="cls-1" d="M47.46509,6.44926h4.18601c1.3253,0,2.32838,.07753,3.0027,.21856,.68085,.14,1.24216,.43802,1.6475,.86202,.41841,.44828,.63322,1.14967,.63322,2.12011,0,.65088-.1429,1.10395-.44176,1.3729-.29793,.25401-.88353,.44737-1.75491,.58464,.9788,.16155,1.63536,.40633,1.98186,.7528,.35304,.35206,.51368,.89565,.51368,1.61859v1.03851c0,.74904-.12515,1.30096-.36424,1.66522-.26245,.36711-.65098,.61462-1.19454,.7463-.54263,.13442-1.65964,.20259-3.34919,.20259h-4.86033V6.44926Zm4.20377,1.90429v2.53203c.17371-.01779,.3222-.01779,.41187-.01779,.41187,0,.66872-.07103,.78266-.21764,.11861-.14103,.17838-.54074,.17838-1.21226,0-.35491-.04763-.60619-.14942-.74995-.08873-.13727-.20268-.22973-.35772-.27362-.1429-.0309-.44176-.04766-.86577-.06077m0,4.24855v3.1251c.57905-.0122,.96758-.07468,1.12262-.19051,.16718-.1196,.25029-.40074,.25029-.8537v-1.03292c0-.48385-.07097-.78267-.22041-.87513-.14384-.09805-.53142-.16155-1.1525-.17284"/><path class="cls-1" d="M68.33866,13.00535c0,1.13473-.03643,1.91649-.11394,2.38815-.08407,.47815-.32222,.89463-.72849,1.28317-.39414,.38854-.9321,.68747-1.61763,.89007-.68646,.22049-1.48686,.31569-2.40027,.31569-.86578,0-1.64844-.0952-2.32276-.29882-.6986-.19336-1.25339-.48283-1.66526-.87981-.41749-.39139-.67432-.81539-.74623-1.27485-.08407-.46892-.11955-1.27211-.11955-2.4236v-1.9231c0-1.12538,.03549-1.92584,.11301-2.39373,.07845-.46037,.32222-.89007,.71075-1.27485,.40533-.39698,.9489-.6893,1.63536-.89851,.693-.20921,1.48126-.30725,2.39469-.30725,.87139,0,1.6419,.08311,2.32276,.29517,.69206,.19701,1.25337,.47815,1.67179,.87787,.41189,.39413,.65658,.82383,.7397,1.2777,.08965,.46607,.12608,1.27485,.12608,2.4236v1.9231Zm-4.20375-3.67805c0-.51646-.04764-.86008-.11955-1.00864-.09527-.13168-.26245-.21571-.51368-.21571-.22041,0-.38759,.06624-.495,.18207-.11955,.1074-.17278,.46892-.17278,1.04227v5.22367c0,.65099,.03549,1.04797,.1074,1.20017,.07098,.14388,.25031,.22699,.5249,.22699,.28672,0,.46604-.08973,.54917-.26245,.07845-.17375,.11955-.58464,.11955-1.24783v-5.14055Z"/><path class="cls-1" d="M82.39237,9.83533h-3.89277v-.83021c0-.38854-.04763-.63321-.1541-.7406-.09527-.10751-.26338-.16166-.49594-.16166-.25123,0-.4483,.08414-.57998,.20921-.13075,.14662-.20268,.36711-.20268,.65658,0,.36426,.07753,.64449,.22695,.82657,.1429,.1831,.53142,.41568,1.18894,.68747,1.86232,.78165,3.03817,1.4242,3.52197,1.90714,.48286,.50153,.72849,1.29537,.72849,2.39738,0,.80046-.1373,1.37951-.40627,1.76155-.26245,.38478-.78826,.69477-1.56999,.95163-.76492,.25401-1.65404,.38204-2.68608,.38204-1.12354,0-2.07806-.14855-2.87286-.44087-.79387-.29049-1.31876-.66399-1.56999-1.12265-.23256-.45478-.36424-1.10486-.36424-1.95286v-.71632h3.89368v1.34394c0,.41465,.05324,.68269,.17185,.81163,.1074,.10648,.30448,.17364,.57999,.17364,.28672,0,.4894-.08402,.62668-.22779,.13075-.15232,.20921-.38204,.20921-.67436,0-.66593-.13822-1.08343-.38853-1.29822-.26804-.19427-.91995-.53231-1.96412-1.0124-1.03296-.48009-1.73717-.83033-2.0902-1.04421-.32222-.22129-.60801-.51737-.82283-.90124-.22227-.38854-.34089-.87513-.34089-1.46912,0-.8667,.16158-1.48121,.47726-1.88103,.311-.39687,.82468-.71073,1.53449-.93111,.6986-.22141,1.55225-.33154,2.54973-.33154,1.09833,0,2.02389,.11583,2.80095,.36791,.76305,.24387,1.27113,.54827,1.51582,.92461,.25031,.36996,.37546,1.00225,.37546,1.88662v.44828Z"/><polygon class="cls-1" points="92.50671 6.4496 92.50671 8.68281 89.99901 8.68281 89.99901 17.63195 85.8074 17.63195 85.8074 8.68281 83.33706 8.68281 83.33706 6.4496 92.50671 6.4496"/><polygon class="cls-1" points="93.47972 6.4496 100.48255 6.4496 100.48255 8.68281 97.69562 8.68281 97.69562 10.8019 100.30977 10.8019 100.30977 12.91825 97.69562 12.91825 97.69562 15.40821 100.75714 15.40821 100.75714 17.63195 93.47972 17.63195 93.47972 6.4496"/><path class="cls-1" d="M109.21118,6.45006l2.40122,11.18143h-4.27568l-.22602-2.01454h-1.54103l-.22602,2.01454h-4.34105l2.13784-11.18143h6.07075Zm-2.22563,7.1999c-.20268-1.28978-.41189-2.85969-.64538-4.72864-.42401,2.15192-.68646,3.71909-.79386,4.72864h1.43924Z"/><polygon class="cls-1" points="122.34699 6.4496 119.9579 11.50055 122.59168 17.63195 118.2637 17.63195 116.54335 12.83799 116.54335 17.63195 112.34706 17.63195 112.34706 6.4496 116.54335 6.4496 116.54335 10.79631 118.41781 6.4496 122.34699 6.4496"/><path class="cls-1" d="M84.32904,27.45189v5.28249c.65564,.37178,1.08899,1.12732,1.08899,2.00895v10.07749l-8.61673-17.39037-.02708,.02143h-10.87132v5.28249c.66218,.37178,1.1058,1.12732,1.1058,2.00895v24.38391c0,.87793-.44362,1.64469-1.1058,2.01642v5.28341h10.87692v-5.28341c-.6519-.37173-1.0946-1.13849-1.0946-2.01642v-9.56091l8.37577,16.9093,.26805-.14194v.09337h9.80379c-.02242-.1485-.03269-.29044-.03269-.45484v-30.64323c0-1.02369,.4427-1.9296,1.09927-2.42737v-5.44975h-10.87038Z"/><path class="cls-1" d="M119.20289,41.20252c-2.03044-.92553-3.25674-1.71846-3.69476-2.36945-.45951-.66399-.68926-1.626-.68926-2.92422,0-1.00214,.20172-1.75118,.60707-2.24894,.40534-.49309,1.00214-.73969,1.7904-.73969,.71169,0,1.23657,.18675,1.54291,.55386,.30634,.36608,.45951,1.22628,.45951,2.57204v2.88785h12.13683v-1.52795c0-.23816,0-.46789-.0056-.68086v-7.05328h-.05511C144.71125,.8293,113.50572,.0008,113.50572,.0008c23.98508,3.27263,10.49774,20.53223,5.11718,26.41156-.59681-.02805-1.21042-.04948-1.83338-.04948-3.10448,0-5.74759,.38296-7.94334,1.16551-2.19482,.778-3.77601,1.85116-4.76227,3.22224-.97972,1.38225-1.46165,3.56027-1.46165,6.53306,0,2.06869,.34556,3.76857,1.03483,5.10133,.68366,1.31965,1.56064,2.36478,2.61135,3.11473,1.05538,.75178,3.20163,1.95389,6.45835,3.61534,3.24085,1.64002,5.27222,2.81682,6.09317,3.52288,.80507,.71176,1.21041,2.20511,1.21041,4.49891,0,1.05162-.21948,1.83988-.64163,2.37042-.41,.52017-1.05538,.79384-1.92677,.79384-.85364,0-1.46164-.21947-1.80067-.6295-.33996-.41653-.50247-1.35238-.50247-2.81312v-4.74819h-12.13684v2.55813c0,2.91202,.37825,5.15634,1.13851,6.72727,.77144,1.59613,2.37599,2.89058,4.85006,3.91701s5.45247,1.54106,8.93989,1.54106c3.18574,0,5.97081-.43802,8.36923-1.33088,2.40308-.88636,4.01697-1.99122,4.85567-3.30062,.83123-1.31874,1.24216-3.35574,1.24216-6.12491,0-3.80967-.74529-6.58818-2.24991-8.29079-1.51115-1.71663-5.16762-3.92168-10.9647-6.60409"/><path class="cls-1" d="M32.65442,32.59803v-5.28238h-13.99729v5.28238c.84337,.3662,1.41215,1.13758,1.41215,2.00804v8.59993h-4.5157v-8.59993c0-.87046,.57439-1.64184,1.40748-2.00804v-5.28238h-.08219C12.34635,22.58599-4.22867,3.45938,21.15362,0c0,0-30.60499,.81072-18.18984,28.82023v3.7778c.84243,.3662,1.41775,1.13758,1.41775,2.00804v24.38761c0,.88072-.57532,1.6419-1.41775,2.01363v5.28529h13.99729v-5.28529c-.83309-.37173-1.40748-1.13291-1.40748-2.01363v-8.61104h4.5157v8.61104c0,.88072-.56878,1.6419-1.41215,2.01363v5.28529h13.99729v-5.28529c-.83217-.37173-1.40656-1.13291-1.40656-2.01363v-24.38761c0-.87046,.57439-1.64184,1.40656-2.00804"/><path class="cls-1" d="M62.87079,58.17151l-4.41205-30.85061h-18.34861l-4.41204,30.85061c-.1373,1.00402-.60241,1.89973-1.28699,2.62728v5.49352h13.80488v-5.3021c-.59027-.39316-.99-1.09175-.9956-1.89871h4.19348c-.0224,.82189-.44362,1.5438-1.05631,1.92955v5.27126h13.8049v-5.49352c-.6902-.72755-1.14411-1.62326-1.29167-2.62728"/><path class="cls-2" d="M44.63136,47.13122c-.01682,.28491-.04391,.56879-.06538,.84811-.03923,.12051-.07659,.22688-.07659,.36608,0,.37543,.04857,.74254,.12515,1.12265,.10928,.20829,.1373,.45478,.26243,.6519l.14851,.27921,.14196,.29608c-.01028,.08129-.04857,.09714-.11488,.13635-.10366,.01311-.20827,.01311-.31194,.02713-.06071,0-.11488-.01402-.17465-.02713-.07659-.05507-.16999-.09896-.25217-.15596-.02148-.1009-.04389-.18868-.05977-.29323h-.01682c-.0168-.11207-.03268-.21388-.08219-.31193-.02708-.12051-.0056-.19712,.02148-.30634,.02803-.41374-.01026-.80422-.05977-1.21602-.07098-.26804-.099-.51931-.16997-.7715-.06538-.0952-.08686-.16999-.08686-.28479,.06537-.17934,.03269-.36893,.03269-.55762-.01682-.43244-.16439-.78358-.21388-1.19926-.05978-.12039-.10928-.24273-.14197-.37726-.04389-.36141-.12608-.72293-.19239-1.08993-.04857-.36141-.19052-.70047-.2998-1.06188,.04857-.13077,.09246-.25777,.16905-.38296,.10366-.21012,.19146-.37737,.38853-.5062,.21854-.10466,.37171-.19712,.49781-.39413,.05509-.17557,.21387-.29893,.35676-.38581,.27365-.03078,.49221-.11013,.73316-.23908,.33342,.07194,.66218,.1457,.99094,.23908,.19612,.02428,.38291,0,.57999,.02428,0-.00832,.0112-.01676,.0224-.02428,.05978,.05427,.12515,.11492,.18026,.18025,.5585,.10375,1.03389,.39413,1.60361,.39413,.06538-.02143,.13169-.03819,.19146-.05222,.15877,.01961,.26338-.01311,.41095-.08129,.59679-.01402,.91341-.3866,1.38974,.11207l.08311,.08973,.95732,.62192c.27365-.01676,.53608-.04663,.79853-.12974,.1158-.01779,.19706,.01961,.31287,.03637,.06071-.03637,.12609-.06533,.19146-.0952-.1046-.11777-.18119-.24945-.21387-.40074,0-.41556,.46604-.65931,.78826-.79567,.04949-.00844,.08219-.01687,.12142-.01687,.01028,.01687,.02615,.04389,.03735,.05974-.02708,.09349-.05417,.15323-.12515,.21958-.15877,.09337-.27458,.16999-.37265,.34739,0,.06909,.03829,.13168,.04951,.21103,.09246,.01129,.16437,.02428,.25683,.01129,.16439,.08779,.23536-.10933,.39974-.06909,.07659,.04104,.14756,.0578,.22974,.06909,.0822-.03648,.15317-.06909,.24097-.06909,.1429-.15323,.26805-.31945,.32314-.52307v-.40998c.01122-.01687,.02149-.02805,.03829-.03831h.01122c.06537,.06065,.09806,.06533,.12514,.14753,.07659,.34465,.04391,.60801-.07097,.9611-.02149,.11207-.06538,.19518-.10368,.29608-.02708,.013-.03362,.05222-.04949,.07844,.15317,.18675,.31194,.39972,.47632,.54816,.02709,.06544,.07098,.10375,.10368,.14206,.0168,.0822,.04949,.14,.06631,.21856h-.03363v.02702c-.01026,.00844-.01588,.02246-.01588,.02246-.07659,.13727-.1046,.23531-.09339,.39972l-.01122,.20271,.1429,.55283,.35024,.78267c.30074,.11207,.26338,.4053,.36145,.67243v.14764l-.38853,.12701c-.1429,.14194-.38853,.0822-.58559,.15779l-.20828,.02246-.50341-.32037c-.17559-.057-.27458-.04104-.43802,.02987h-.24657c-.15317-.01676-.28953,0-.43802-.02987l-.28485-.13453-.35585,.63047-.16437,.38296c-.05417,.14285-.07564,.25219-.19052,.36141-.12609,.03831-.24657,.07661-.37265,.07661l-.46511,.17466-.6846,.45946c-.04949,.13727-.04949,.26336-.04949,.40906l-.01682,.08973-.01028,.38102c.01682,.06259,.01682,.11116,0,.17466-.03829,.14285-.06538,.28479-.10368,.44076,0,.53333,.12609,.96018,.33343,1.4608,.02242,.06533,.06631,.09622,.1102,.15403,.07659,.05518,.11394,.10933,.15317,.2018,.11488,.11298,.21294,.23349,.21294,.40257-.04389,.03637-.09339,.08026-.15317,.1074-.26805,.03546-.49219,.01117-.76678-.07103,.1102,.13635,.13169,.32037,.22416,.46516,.03362,.14753,.06631,.25686,0,.3988-.06538,.0635-.11395,.07661-.20174,.05507-.02242,.03831-.02242,.05233-.07191,.05233-.19054-.04389-.35491-.07479-.5305-.19518-.05417-.12233-.09806-.22984-.10926-.35217,.07659-.15596,0-.36985-.01682-.52581,0-.5884-.03269-1.12732-.17465-1.69417-.0878-.29608-.19146-.52022-.19146-.83215-.08779-.36141-.20828-.72476-.31754-1.08343l-.24097-.87605-.14756-.33997-.82095-.01494c-.1924,.01494-.39507,.01494-.58093,.03181l-.37731-.03181c-.07659-.03078-.15879-.02246-.23536-.02246-.01682,.15323-.04951,.27932-.04951,.41568l.14757,1.22913c.12608,.43517,.32875,.79658,.48192,1.21226,.15877,.23531,.47073,.35024,.56412,.62477,.01028,.05415,.02709,.1196,.02709,.18777-.02709,.0252-.04951,.04389-.0822,.05792-.01588,0-.03268-.01402-.05417-.01402-.08311,.06818-.1541,.05507-.25777,.05507-.17557,0-.33902-.03272-.51928-.08779-.09899-.14479-.03922-.32504-.1597-.44646-.08219,.01687-.11488,.04207-.16345,.10466-.01682-.00844-.02802-.02155-.04389-.03831,.05977-.20829,.15877-.367,.14196-.57814-.12608-.41841-.27925-.80137-.4483-1.20109-.07191-.15505-.15971-.30725-.26898-.44646-.03269-.13727-.05511-.27921-.07098-.40804-.05511-.14764-.12048-.26815-.17559-.3988,.1373-.1831,.17559-.36152,.17559-.59125-.06071-.19986-.60708-.55659-.77238-.76112-.02709-.0822-.07659-.13635-.13637-.21023-.03268,.04025-.07097,.05985-.09339,.1009-.0878,.40439-.12048,.78552-.13635,1.19356"/><path class="cls-1" d="M101.31426,29.19817c0,1.23939-1.37387,11.61672-2.15652,11.52232-.7892-.11481-2.26673-10.28293-2.26673-11.52232,0-1.23745,.99654-2.24427,2.21722-2.24427,1.21509,0,2.20603,1.00681,2.20603,2.24427"/></g></g></svg>