<?xml version="1.0" encoding="UTF-8"?><svg id="_レイヤー_2" xmlns="http://www.w3.org/2000/svg" viewBox="0 0 86.0928 42.74653"><defs><style>.cls-1{fill:#c67216;}.cls-2{fill:#b60005;fill-rule:evenodd;}.cls-3{fill:#a5640a;}.cls-4{fill:#f08300;}</style></defs><g id="header"><g><path class="cls-3" d="M12.78907,4.1239v4.77925c0,.71425-.01493,1.17584-.02688,1.37471-.02628,.21323-.12182,.39292-.29381,.56139-.17557,.16358-.41564,.2741-.70228,.33919-.2974,.06145-.7411,.0955-1.3323,.0955h-1.34007v-1.25581c.15646,.0113,.2753,.0113,.35114,.0113,.18333,0,.33263-.02683,.44251-.09192,.11526-.06692,.17617-.14871,.19527-.24187,.01135-.08777,.01911-.27293,.01911-.54404V4.1239h2.6873Z"/><path class="cls-3" d="M19.93573,4.1239v4.7912c0,.53981-.02329,.91188-.07286,1.13524-.04897,.21796-.20603,.44847-.45027,.68137-.25201,.22934-.58404,.40487-.99251,.51954-.40846,.1224-.89755,.18275-1.45831,.18275-.60733,0-1.15315-.06634-1.62253-.21199-.46938-.1404-.82052-.32789-1.0576-.55482-.2329-.22569-.37025-.46042-.40847-.716-.04539-.25383-.06868-.78052-.06868-1.59384V4.1239h2.68372v5.36389c0,.30931,.02687,.5148,.08002,.59718,.04658,.08602,.14571,.13194,.28664,.13194,.17199,0,.28247-.04775,.33203-.14565,.03822-.09141,.06509-.32068,.06509-.67365V4.1239h2.68372Z"/><path class="cls-3" d="M29.25775,4.1239v7.15003h-2.35169l-.00776-4.82102-.931,4.82102h-1.63387l-.98117-4.73143-.00776,4.73143h-2.35527V4.1239h3.45886c.0836,.43119,.19826,.9352,.32008,1.51744l.37861,1.82259,.61449-3.34003h3.49648Z"/><path class="cls-3" d="M30.34933,4.12368h2.67655c.8474,0,1.48877,.04957,1.91993,.13974,.43534,.08952,.79424,.28007,1.05342,.55118,.26753,.28663,.40488,.7351,.40488,1.35561,0,.41617-.09137,.70587-.28246,.87783-.1905,.16242-.56493,.28605-1.1221,.37382,.62585,.1033,1.04565,.25981,1.26721,.48134,.22574,.22511,.32845,.57268,.32845,1.03493v.66403c0,.47894-.08002,.83184-.2329,1.06474-.16781,.23473-.41624,.39299-.76379,.47719-.34696,.08595-1.06118,.12954-2.14148,.12954h-3.10771V4.12368Zm2.6879,1.21761v1.61899c.11107-.01137,.20602-.01137,.26335-.01137,.26335,0,.42758-.04542,.50043-.13916,.07584-.09017,.11406-.34575,.11406-.77512,0-.22693-.03045-.3876-.09554-.47952-.05673-.08777-.12959-.14689-.22873-.17495-.09137-.01976-.28246-.03047-.55358-.03885m0,2.71653v1.9982c.37025-.0078,.61867-.04775,.71781-.12181,.1069-.07647,.16004-.25624,.16004-.54586v-.66045c0-.30938-.04538-.50044-.14093-.55956-.09197-.06269-.33979-.1033-.73691-.11051"/><path class="cls-3" d="M43.69595,8.31566c0,.72555-.02329,1.22541-.07285,1.52699-.05375,.30573-.20603,.57203-.4658,.82046-.25202,.24844-.59598,.43957-1.03432,.56911-.43893,.14098-.9507,.20185-1.53474,.20185-.55359,0-1.05402-.06087-1.48518-.19106-.44669-.12363-.80142-.30872-1.06477-.56255-.26694-.25026-.43116-.52136-.47714-.81514-.05375-.29983-.07644-.81339-.07644-1.54966v-1.22964c0-.71957,.02269-1.23139,.07226-1.53056,.05016-.29436,.20603-.56911,.45445-.81514,.25917-.25383,.60673-.44074,1.04565-.57451,.44311-.13377,.94712-.19646,1.53117-.19646,.55717,0,1.04984,.05314,1.48518,.18873,.44251,.12597,.80141,.30573,1.06894,.56131,.26336,.25201,.41982,.52676,.47297,.81696,.05732,.29801,.08062,.81514,.08062,1.54966v1.22964Zm-2.68789-2.35175c0-.33023-.03046-.54994-.07644-.64493-.06092-.0842-.16781-.13792-.32845-.13792-.14093,0-.24782,.04235-.3165,.11642-.07644,.06867-.11048,.29983-.11048,.66643v3.34003c0,.41625,.02269,.67008,.06867,.76739,.04539,.092,.16005,.14514,.33562,.14514,.18333,0,.29799-.05737,.35114-.16781,.05016-.1111,.07644-.37382,.07644-.79787v-3.28689Z"/><path class="cls-3" d="M52.68194,6.28874h-2.48905v-.53084c0-.24844-.03045-.40487-.09853-.47354-.06092-.06874-.1684-.10337-.31711-.10337-.16064,0-.28664,.0538-.37084,.13377-.0836,.09375-.12959,.23473-.12959,.41982,0,.23291,.04957,.41209,.14511,.52851,.09137,.11707,.33979,.26579,.76021,.43957,1.19078,.49979,1.94261,.91064,2.25196,1.21943,.30874,.32068,.4658,.82826,.4658,1.53289,0,.51181-.08779,.88206-.25977,1.12634-.16781,.24603-.50401,.44424-1.00386,.60848-.48909,.16242-1.0576,.24428-1.71749,.24428-.7184,0-1.32872-.09499-1.83691-.2819-.50761-.18574-.84322-.42456-1.00386-.71782-.1487-.29079-.2329-.70645-.2329-1.24867v-.45802h2.48963v.85932c0,.26513,.03404,.43651,.10988,.51896,.06867,.06809,.19468,.11102,.37085,.11102,.18333,0,.31292-.05373,.4007-.14565,.0836-.09739,.13377-.24428,.13377-.43119,0-.4258-.08838-.69275-.24843-.83009-.17138-.12422-.58822-.34036-1.25586-.64733-.66048-.30697-1.11075-.53091-1.33648-.66767-.20603-.14149-.38876-.33081-.52612-.57626-.14212-.24844-.21796-.55956-.21796-.93936,0-.55417,.10331-.94709,.30516-1.20274,.19886-.25376,.52731-.45444,.98116-.59536,.44669-.14157,.99251-.21199,1.6303-.21199,.70228,0,1.29408,.07406,1.79093,.23524,.4879,.15593,.81276,.35057,.96922,.5912,.16005,.23655,.24007,.64084,.24007,1.20631v.28663Z"/><polygon class="cls-3" points="59.14908 4.1239 59.14908 5.55182 57.54565 5.55182 57.54565 11.27392 54.86552 11.27392 54.86552 5.55182 53.28598 5.55182 53.28598 4.1239 59.14908 4.1239"/><polygon class="cls-3" points="59.77122 4.1239 64.24886 4.1239 64.24886 5.55182 62.46688 5.55182 62.46688 6.90677 64.13838 6.90677 64.13838 8.25997 62.46688 8.25997 62.46688 9.85205 64.42443 9.85205 64.42443 11.27392 59.77122 11.27392 59.77122 4.1239"/><path class="cls-3" d="M69.82997,4.12419l1.53534,7.14944h-2.73388l-.14452-1.2881h-.98534l-.14452,1.2881h-2.77568l1.36694-7.14944h3.88166Zm-1.42307,4.60364c-.12959-.82469-.26336-1.82849-.41266-3.02351-.27112,1.37594-.43893,2.378-.5076,3.02351h.92025Z"/><polygon class="cls-3" points="78.22904 4.1239 76.70145 7.35348 78.3855 11.27392 75.61818 11.27392 74.51818 8.20865 74.51818 11.27392 71.83506 11.27392 71.83506 4.1239 74.51818 4.1239 74.51818 6.9032 75.71671 4.1239 78.22904 4.1239"/><path class="cls-1" d="M12.78907,4.1239v4.77925c0,.71425-.01493,1.17584-.02688,1.37471-.02628,.21323-.12182,.39292-.29381,.56139-.17557,.16358-.41564,.2741-.70228,.33919-.2974,.06145-.7411,.0955-1.3323,.0955h-1.34007v-1.25581c.15646,.0113,.2753,.0113,.35114,.0113,.18333,0,.33263-.02683,.44251-.09192,.11526-.06692,.17617-.14871,.19527-.24187,.01135-.08777,.01911-.27293,.01911-.54404V4.1239h2.6873Z"/><path class="cls-1" d="M19.93573,4.1239v4.7912c0,.53981-.02329,.91188-.07286,1.13524-.04897,.21796-.20603,.44847-.45027,.68137-.25201,.22934-.58404,.40487-.99251,.51954-.40846,.1224-.89755,.18275-1.45831,.18275-.60733,0-1.15315-.06634-1.62253-.21199-.46938-.1404-.82052-.32789-1.0576-.55482-.2329-.22569-.37025-.46042-.40847-.716-.04539-.25383-.06868-.78052-.06868-1.59384V4.1239h2.68372v5.36389c0,.30931,.02687,.5148,.08002,.59718,.04658,.08602,.14571,.13194,.28664,.13194,.17199,0,.28247-.04775,.33203-.14565,.03822-.09141,.06509-.32068,.06509-.67365V4.1239h2.68372Z"/><path class="cls-1" d="M29.25775,4.1239v7.15003h-2.35169l-.00776-4.82102-.931,4.82102h-1.63387l-.98117-4.73143-.00776,4.73143h-2.35527V4.1239h3.45886c.0836,.43119,.19826,.9352,.32008,1.51744l.37861,1.82259,.61449-3.34003h3.49648Z"/><path class="cls-1" d="M30.34933,4.12368h2.67655c.8474,0,1.48877,.04957,1.91993,.13974,.43534,.08952,.79424,.28007,1.05342,.55118,.26753,.28663,.40488,.7351,.40488,1.35561,0,.41617-.09137,.70587-.28246,.87783-.1905,.16242-.56493,.28605-1.1221,.37382,.62585,.1033,1.04565,.25981,1.26721,.48134,.22574,.22511,.32845,.57268,.32845,1.03493v.66403c0,.47894-.08002,.83184-.2329,1.06474-.16781,.23473-.41624,.39299-.76379,.47719-.34696,.08595-1.06118,.12954-2.14148,.12954h-3.10771V4.12368Zm2.6879,1.21761v1.61899c.11107-.01137,.20602-.01137,.26335-.01137,.26335,0,.42758-.04542,.50043-.13916,.07584-.09017,.11406-.34575,.11406-.77512,0-.22693-.03045-.3876-.09554-.47952-.05673-.08777-.12959-.14689-.22873-.17495-.09137-.01976-.28246-.03047-.55358-.03885m0,2.71653v1.9982c.37025-.0078,.61867-.04775,.71781-.12181,.1069-.07647,.16004-.25624,.16004-.54586v-.66045c0-.30938-.04538-.50044-.14093-.55956-.09197-.06269-.33979-.1033-.73691-.11051"/><path class="cls-1" d="M43.69595,8.31566c0,.72555-.02329,1.22541-.07285,1.52699-.05375,.30573-.20603,.57203-.4658,.82046-.25202,.24844-.59598,.43957-1.03432,.56911-.43893,.14098-.9507,.20185-1.53474,.20185-.55359,0-1.05402-.06087-1.48518-.19106-.44669-.12363-.80142-.30872-1.06477-.56255-.26694-.25026-.43116-.52136-.47714-.81514-.05375-.29983-.07644-.81339-.07644-1.54966v-1.22964c0-.71957,.02269-1.23139,.07226-1.53056,.05016-.29436,.20603-.56911,.45445-.81514,.25917-.25383,.60673-.44074,1.04565-.57451,.44311-.13377,.94712-.19646,1.53117-.19646,.55717,0,1.04984,.05314,1.48518,.18873,.44251,.12597,.80141,.30573,1.06894,.56131,.26336,.25201,.41982,.52676,.47297,.81696,.05732,.29801,.08062,.81514,.08062,1.54966v1.22964Zm-2.68789-2.35175c0-.33023-.03046-.54994-.07644-.64493-.06092-.0842-.16781-.13792-.32845-.13792-.14093,0-.24782,.04235-.3165,.11642-.07644,.06867-.11048,.29983-.11048,.66643v3.34003c0,.41625,.02269,.67008,.06867,.76739,.04539,.092,.16005,.14514,.33562,.14514,.18333,0,.29799-.05737,.35114-.16781,.05016-.1111,.07644-.37382,.07644-.79787v-3.28689Z"/><path class="cls-1" d="M52.68194,6.28874h-2.48905v-.53084c0-.24844-.03045-.40487-.09853-.47354-.06092-.06874-.1684-.10337-.31711-.10337-.16064,0-.28664,.0538-.37084,.13377-.0836,.09375-.12959,.23473-.12959,.41982,0,.23291,.04957,.41209,.14511,.52851,.09137,.11707,.33979,.26579,.76021,.43957,1.19078,.49979,1.94261,.91064,2.25196,1.21943,.30874,.32068,.4658,.82826,.4658,1.53289,0,.51181-.08779,.88206-.25977,1.12634-.16781,.24603-.50401,.44424-1.00386,.60848-.48909,.16242-1.0576,.24428-1.71749,.24428-.7184,0-1.32872-.09499-1.83691-.2819-.50761-.18574-.84322-.42456-1.00386-.71782-.1487-.29079-.2329-.70645-.2329-1.24867v-.45802h2.48963v.85932c0,.26513,.03404,.43651,.10988,.51896,.06867,.06809,.19468,.11102,.37085,.11102,.18333,0,.31292-.05373,.4007-.14565,.0836-.09739,.13377-.24428,.13377-.43119,0-.4258-.08838-.69275-.24843-.83009-.17138-.12422-.58822-.34036-1.25586-.64733-.66048-.30697-1.11075-.53091-1.33648-.66767-.20603-.14149-.38876-.33081-.52612-.57626-.14212-.24844-.21796-.55956-.21796-.93936,0-.55417,.10331-.94709,.30516-1.20274,.19886-.25376,.52731-.45444,.98116-.59536,.44669-.14157,.99251-.21199,1.6303-.21199,.70228,0,1.29408,.07406,1.79093,.23524,.4879,.15593,.81276,.35057,.96922,.5912,.16005,.23655,.24007,.64084,.24007,1.20631v.28663Z"/><polygon class="cls-1" points="59.14908 4.1239 59.14908 5.55182 57.54565 5.55182 57.54565 11.27392 54.86552 11.27392 54.86552 5.55182 53.28598 5.55182 53.28598 4.1239 59.14908 4.1239"/><polygon class="cls-1" points="59.77122 4.1239 64.24886 4.1239 64.24886 5.55182 62.46688 5.55182 62.46688 6.90677 64.13838 6.90677 64.13838 8.25997 62.46688 8.25997 62.46688 9.85205 64.42443 9.85205 64.42443 11.27392 59.77122 11.27392 59.77122 4.1239"/><path class="cls-1" d="M69.82997,4.12419l1.53534,7.14944h-2.73388l-.14452-1.2881h-.98534l-.14452,1.2881h-2.77568l1.36694-7.14944h3.88166Zm-1.42307,4.60364c-.12959-.82469-.26336-1.82849-.41266-3.02351-.27112,1.37594-.43893,2.378-.5076,3.02351h.92025Z"/><polygon class="cls-1" points="78.22904 4.1239 76.70145 7.35348 78.3855 11.27392 75.61818 11.27392 74.51818 8.20865 74.51818 11.27392 71.83506 11.27392 71.83506 4.1239 74.51818 4.1239 74.51818 6.9032 75.71671 4.1239 78.22904 4.1239"/><path class="cls-4" d="M53.92025,17.55282v3.37764c.41922,.23772,.6963,.72081,.6963,1.28453v6.44358l-5.50956-11.11945-.01731,.0137h-6.95115v3.37764c.4234,.23772,.70705,.72081,.70705,1.28453v15.59115c0,.56135-.28365,1.05162-.70705,1.28931v3.37823h6.95473v-3.37823c-.41683-.23768-.69989-.72796-.69989-1.28931v-6.11328l5.35549,10.81186,.17139-.09076v.0597h6.26858c-.01433-.09495-.0209-.18571-.0209-.29083V22.58947c0-.65455,.28306-1.23379,.70288-1.55207v-3.48458h-6.95055Z"/><path class="cls-4" d="M76.2187,26.34502c-1.29827-.59178-2.08237-1.09879-2.36244-1.51503-.29381-.42456-.44071-1.03967-.44071-1.86975,0-.64077,.12898-1.11971,.38816-1.43798,.25918-.31528,.64077-.47296,1.14479-.47296,.45505,0,.79067,.11941,.98654,.35414,.19588,.23407,.29381,.78409,.29381,1.64457v1.8465h7.76033v-.97698c0-.15228,0-.29917-.00358-.43535v-4.50989h-.03524C92.52882,.53026,72.57591,.00051,72.57591,.00051c15.33613,2.09253,6.71229,13.12837,3.27194,16.88763-.3816-.01793-.77395-.03164-1.17227-.03164-1.98501,0-3.67503,.24486-5.07899,.74523-1.40337,.49745-2.41439,1.18364-3.04501,2.06031-.62644,.88381-.93459,2.27645-.93459,4.17726,0,1.32273,.22095,2.40963,.66167,3.26181,.43713,.84379,.99788,1.51204,1.6697,1.99157,.67481,.48069,2.04713,1.24932,4.12949,2.31166,2.07221,1.04863,3.37107,1.80108,3.89599,2.25254,.51477,.4551,.77394,1.40995,.77394,2.87662,0,.67241-.14034,1.17642-.41026,1.51565-.26216,.3326-.67481,.50759-1.23198,.50759-.54582,0-.93458-.14033-1.15136-.4025-.21737-.26633-.32128-.86471-.32128-1.79871v-3.03601h-7.76034v1.63568c0,1.86195,.24186,3.29698,.72797,4.30144,.49326,1.02057,1.51922,1.84825,3.10114,2.50455s3.48632,.98536,5.71619,.98536c2.03697,0,3.81775-.28007,5.35131-.85097,1.53654-.56674,2.56846-1.2732,3.10473-2.11043,.53149-.84321,.79424-2.14567,.79424-3.91628,0-2.43591-.47654-4.2125-1.4386-5.30116-.96623-1.09762-3.30419-2.50754-7.01087-4.22267"/><path class="cls-4" d="M20.87934,20.84328v-3.37757H11.92943v3.37757c.53926,.23415,.90293,.72737,.90293,1.28395v5.49882h-2.88736v-5.49882c0-.55657,.36727-1.0498,.89995-1.28395v-3.37757h-.05255C7.8943,14.44155-2.70382,2.21194,13.52569,0,13.52569,0-6.04324,.51838,1.89505,18.42774v2.41554c.53865,.23415,.90652,.72737,.90652,1.28395v15.59352c0,.56313-.36786,1.04984-.90652,1.28752v3.37943H10.84496v-3.37943c-.53268-.23768-.89995-.72438-.89995-1.28752v-5.50593h2.88736v5.50593c0,.56313-.36368,1.04984-.90293,1.28752v3.37943h8.94991v-3.37943c-.53209-.23768-.89936-.72438-.89936-1.28752v-15.59352c0-.55657,.36727-1.0498,.89936-1.28395"/><path class="cls-4" d="M40.19978,37.19504l-2.82108-19.72598h-11.73216l-2.82107,19.72598c-.08779,.64197-.38518,1.21469-.82291,1.67989v3.51258h8.82688v-3.39018c-.37742-.25139-.63301-.69807-.63659-1.21404h2.68132c-.01432,.52552-.28365,.98711-.67541,1.23376v3.37046h8.82689v-3.51258c-.44131-.4652-.73155-1.03792-.82589-1.67989"/><path class="cls-2" d="M28.53743,30.13584c-.01075,.18217-.02807,.36369-.04181,.54229-.02509,.07705-.04897,.14507-.04897,.23407,0,.24005,.03105,.47478,.08002,.71782,.06987,.13318,.08779,.29079,.1678,.41683l.09496,.17853,.09077,.18932c-.00657,.05198-.03105,.06211-.07345,.08719-.06628,.00838-.13317,.00838-.19946,.01735-.03882,0-.07345-.00897-.11167-.01735-.04897-.03521-.10869-.06328-.16124-.09972-.01373-.06451-.02807-.12065-.03822-.18749h-.01075c-.01074-.07166-.02089-.13676-.05255-.19945-.01731-.07705-.00358-.12604,.01373-.19588,.01792-.26455-.00656-.51422-.03822-.77753-.04539-.17138-.0633-.33205-.10868-.4933-.04181-.06087-.05554-.10869-.05554-.1821,.0418-.11467,.0209-.2359,.0209-.35654-.01075-.2765-.10511-.50103-.13676-.76681-.03823-.07698-.06987-.1552-.09078-.24122-.02807-.23109-.08062-.46224-.12301-.6969-.03105-.23109-.12182-.44788-.19169-.67897,.03105-.08361,.05912-.16482,.10809-.24486,.06628-.13435,.12242-.24129,.24843-.32367,.13974-.06692,.23767-.12604,.3183-.25201,.03523-.11226,.13675-.19114,.22812-.24669,.17497-.01968,.31472-.07042,.46879-.15287,.21319,.046,.4234,.09316,.63361,.15287,.1254,.01553,.24484,0,.37085,.01553,0-.00532,.00716-.01072,.01432-.01553,.03823,.0347,.08002,.07348,.11526,.11525,.35711,.06634,.66107,.25201,1.02535,.25201,.04181-.0137,.08421-.02442,.12242-.03339,.10152,.01254,.1684-.00838,.26276-.05198,.38159-.00897,.58404-.2472,.8886,.07166l.05314,.05737,.61211,.39766c.17497-.01072,.34277-.02982,.51058-.08296,.07405-.01137,.126,.01254,.20005,.02325,.03882-.02325,.08062-.04177,.12242-.06087-.06688-.0753-.11585-.1595-.13675-.25624,0-.26571,.29799-.42157,.50401-.50875,.03165-.00539,.05255-.01079,.07764-.01079,.00657,.01079,.01672,.02807,.02388,.0382-.01731,.05978-.03464,.09797-.08002,.1404-.10152,.0597-.17557,.10869-.23828,.22212,0,.04418,.02448,.0842,.03166,.13493,.05912,.00722,.1051,.01553,.16422,.00722,.10511,.05613,.15049-.06991,.2556-.04418,.04897,.02624,.09435,.03696,.1469,.04418,.05256-.02333,.09794-.04418,.15408-.04418,.09137-.09797,.17139-.20426,.20662-.33445v-.26214c.00717-.01079,.01374-.01793,.02448-.02449h.00717c.0418,.03878,.0627,.04177,.08001,.09433,.04897,.22037,.02807,.38876-.04538,.61453-.01374,.07166-.04181,.1248-.06629,.18932-.01731,.00831-.0215,.03339-.03165,.05015,.09794,.11941,.19946,.25558,.30456,.35049,.01732,.04184,.04539,.06634,.06629,.09083,.01074,.05256,.03165,.08952,.0424,.13974h-.0215v.01728c-.00656,.00539-.01015,.01436-.01015,.01436-.04897,.08777-.06688,.15046-.05971,.25558l-.00717,.12961,.09137,.35348,.22394,.50044c.1923,.07166,.1684,.25915,.23111,.42995v.0944l-.24843,.08121c-.09137,.09076-.24843,.05256-.37443,.10089l-.13318,.01436-.32188-.20484c-.11227-.03645-.17557-.02624-.28007,.0191h-.15766c-.09794-.01072-.18512,0-.28007-.0191l-.18213-.08602-.22753,.40312-.1051,.24486c-.03464,.09134-.04837,.16125-.12182,.23109-.08062,.02449-.15766,.04899-.23828,.04899l-.2974,.11168-.43773,.29378c-.03165,.08777-.03165,.16839-.03165,.26156l-.01075,.05737-.00657,.24362c.01075,.04002,.01075,.07108,0,.11168-.02448,.09134-.04181,.1821-.06629,.28182,0,.34102,.08062,.61394,.2132,.93404,.01433,.04177,.0424,.06153,.07046,.09848,.04897,.03528,.07285,.06991,.09794,.12903,.07345,.07224,.13615,.14929,.13615,.2574-.02807,.02325-.05971,.05132-.09794,.06867-.17139,.02267-.31471,.00714-.49028-.04542,.07046,.08719,.08421,.20484,.14333,.29742,.0215,.09433,.0424,.16424,0,.255-.04181,.0406-.07286,.04899-.12899,.03521-.01433,.02449-.01433,.03346-.04598,.03346-.12183-.02807-.22693-.04782-.3392-.1248-.03464-.07822-.0627-.14696-.06986-.22518,.04897-.09972,0-.23648-.01075-.3362,0-.37623-.0209-.72081-.11167-1.08326-.05614-.18932-.12242-.33263-.12242-.53208-.05613-.23109-.13318-.46341-.20304-.69275l-.15408-.56015-.09435-.21738-.52492-.00955c-.12302,.00955-.25261,.00955-.37145,.02034l-.24126-.02034c-.04897-.01968-.10153-.01436-.15049-.01436-.01075,.09797-.03166,.1786-.03166,.26579l.09436,.78591c.08062,.27825,.2102,.50934,.30814,.77512,.10152,.15046,.30099,.22394,.3607,.39948,.00657,.03463,.01732,.07647,.01732,.12006-.01732,.01611-.03166,.02807-.05256,.03703-.01015,0-.02089-.00897-.03464-.00897-.05314,.04359-.09853,.03521-.16482,.03521-.11226,0-.21677-.02092-.33203-.05613-.06329-.09258-.02508-.20783-.10211-.28547-.05255,.01079-.07345,.0269-.10451,.06692-.01075-.00539-.01791-.01378-.02807-.02449,.03822-.13318,.10152-.23466,.09077-.36966-.08062-.26753-.17855-.5124-.28664-.76798-.04598-.09914-.10212-.19646-.17198-.28547-.0209-.08777-.03524-.17853-.04539-.2609-.03524-.0944-.07703-.17146-.11227-.255,.08779-.11707,.11227-.23116,.11227-.37805-.03882-.12779-.38817-.35589-.49386-.48667-.01732-.05256-.04897-.08719-.08719-.13442-.02089,.02573-.04538,.03827-.05971,.06451-.05614,.25857-.07703,.50227-.08719,.76317"/><path class="cls-4" d="M64.78065,18.6694c0,.79247-.87845,7.42777-1.37889,7.36741-.50462-.07341-1.44935-6.57494-1.44935-7.36741,0-.79123,.63719-1.43499,1.4177-1.43499,.77693,0,1.41054,.64376,1.41054,1.43499"/></g></g></svg>