<?xml version="1.0" encoding="UTF-8"?><svg id="_レイヤー_2" xmlns="http://www.w3.org/2000/svg" viewBox="0 0 31.63002 33.60546"><defs><style>.cls-1{fill:#3e0005;}</style></defs><g id="header"><g><path class="cls-1" d="M13.39237,29.1937c-.3846-.26032-.85261-.4123-1.34958-.4123-.33102,0-.64973,.0675-.93845,.19005-.43411,.18311-.80068,.48843-1.06104,.87303-.25958,.38352-.41226,.85153-.41226,1.34863,0,.33089,.06789,.65043,.19039,.93944,.18346,.43376,.48804,.80068,.87264,1.06065,.38391,.25962,.85157,.41261,1.34871,.41226,.33085,.00035,.65077-.0675,.9394-.19005,.43342-.18381,.80033-.48808,1.05991-.87264,.26071-.3846,.41339-.85261,.41235-1.34967,.00035-.33094-.06685-.64973-.18935-.93845-.18415-.43407-.48847-.80068-.87273-1.06095Zm-.3801,2.43824c-.07318,.17357-.1982,.32378-.35348,.42873-.15632,.10547-.34047,.16577-.54491,.16638-.13612,0-.26236-.0274-.37845-.07651-.17418-.07313-.32383-.1982-.42934-.35391-.10551-.15636-.16577-.34004-.16577-.54435,0-.13625,.02679-.2624,.07586-.37853,.0737-.17418,.1982-.32435,.354-.42934,.15632-.10547,.33995-.16573,.5437-.16633,.13681,.00061,.26357,.0274,.37966,.07651,.17366,.07365,.32383,.19759,.42873,.35391,.10499,.15636,.16586,.33943,.16647,.54379,0,.13681-.028,.26296-.07647,.37966Z"/><path class="cls-1" d="M29.80964,5.6415H7.17299l-.77614-2.66613-.00069-.00134c-.35617-1.19322-1.33467-2.09633-2.55212-2.35734L1.05713,.01957C.58531-.08152,.12112,.21894,.01968,.69077c-.10144,.47143,.19941,.93667,.67089,1.03776l2.78725,.59745c.59286,.12671,1.06988,.56772,1.24363,1.14891l5.09279,17.49513c-.11427,.05332-.22577,.11215-.33276,.17553-.54829,.32708-.98821,.78611-1.2849,1.32231-.28212,.50989-.43194,1.08727-.44581,1.68264h-.00277v.09104h.00277c.0111,.46454,.10976,.91179,.28212,1.31889,.27553,.65112,.73383,1.20219,1.31161,1.59265,.5763,.39015,1.27831,.6193,2.02498,.61861H27.74998c.48292,0,.87403-.39115,.87403-.87372,0-.48253-.39111-.87437-.87403-.87437H11.36947c-.26062,0-.50546-.05193-.72863-.14644-.33588-.14158-.62312-.3801-.82487-.67986-.19456-.28763-.30883-.62758-.3175-.9997,.00936-.44412,.15025-.82938,.39882-1.13747,.12936-.15923,.28871-.29873,.48145-.414,.18935-.11353,.41434-.20318,.67739-.26032l16.46504-2.6803c1.07621-.17548,1.93125-.99727,2.14853-2.06551l.74909-3.68313,1.13474-6.32875c.32019-1.28182-.3846-1.98661-1.74389-1.98661Zm-.02341,2.83992l-1.72846,8.84289c-.07196,.35729-.35833,.63196-.71788,.69057l-15.75964,2.5653L7.74487,7.40425H28.93812c.73349,0,.98795,.42561,.8481,1.07717Z"/><path class="cls-1" d="M26.6201,29.1937c-.3846-.26032-.85261-.4123-1.34967-.4123-.33094,0-.64973,.0675-.93905,.19005-.4342,.18311-.80077,.48843-1.06035,.87303-.25958,.38352-.41226,.85153-.41226,1.34863,0,.33089,.06719,.65043,.18935,.93944,.18381,.43376,.48873,.80068,.87333,1.06065,.38391,.25962,.85192,.41261,1.34897,.41226,.33094,.00035,.65043-.0675,.93949-.19005,.43376-.18381,.80033-.48808,1.05991-.87264,.25958-.3846,.41304-.85261,.41235-1.34967,0-.33094-.06685-.64973-.18935-.93845-.18381-.43407-.48812-.80068-.87273-1.06095Zm-.35599,2.43824c-.07318,.17357-.19768,.32378-.354,.42873-.15632,.10547-.33943,.16577-.5437,.16638-.13629,0-.26244-.0274-.37853-.07651-.17427-.07313-.32443-.1982-.42986-.35391-.10499-.15636-.16525-.34004-.16525-.54435,0-.13625,.02679-.2624,.07595-.37853,.07361-.17418,.1975-.32435,.35391-.42934,.15623-.10547,.33935-.16573,.54379-.16633,.13612,.00061,.26288,.0274,.37905,.07651,.17357,.07365,.32426,.19759,.42934,.35391,.10491,.15636,.16516,.33943,.16577,.54379-.00061,.13681-.0274,.26296-.07647,.37966Z"/></g></g></svg>