<?xml version="1.0" encoding="UTF-8"?><svg id="_レイヤー_2" xmlns="http://www.w3.org/2000/svg" viewBox="0 0 145.81317 38.69536"><defs><style>.cls-1{fill:#fff;}.cls-2{fill:#3e0005;}</style></defs><g id="header"><g><rect class="cls-2" x="0" width="145.81317" height="38.69536" rx="5" ry="5"/><g><g><path class="cls-1" d="M46.21336,19.14954c1.20117-.38379,2.43359-.57617,3.47363-.57617,2.30469,0,3.96973,1.26465,3.96973,3.15332,0,1.9209-1.2002,3.13721-3.37695,3.66553-.70508,.16016-1.40918,.19189-1.95312,.20801l-.44824-1.26465c.59277,0,1.24902,.01611,1.85645-.11182,1.39258-.25586,2.65723-1.0083,2.65723-2.48096,0-1.34473-1.21582-2.06494-2.7207-2.06494-1.18457,0-2.30469,.22412-3.44141,.62451,.03223,1.34424,.06348,2.73682,.06348,3.42529,0,1.47266-.55957,1.93652-1.4082,1.93652-1.24805,0-3.31348-1.2002-3.31348-2.625,0-1.29639,1.64844-2.67285,3.47363-3.45752v-.896c0-.64062,0-1.37695,.01562-2.08105-.43164,.03223-.83203,.04785-1.16797,.04785-.7207,0-1.40918-.01562-2.0166-.07959l-.03223-1.2168c.86426,.1123,1.44043,.12793,2.0166,.12793,.36816,0,.78418-.01562,1.2168-.04785,.01562-.83252,.03223-1.52051,.03223-1.80859,0-.32031-.03223-.84863-.09668-1.12061h1.39258c-.03223,.28809-.06348,.72021-.08008,1.08838-.01562,.38428-.03223,1.0083-.04785,1.71289,1.15234-.14404,2.35254-.36816,3.24902-.64014l.0166,1.26416c-.92871,.20801-2.14551,.4165-3.29785,.54443-.01562,.75244-.03223,1.50439-.03223,2.14502v.52783Zm-1.10352,4.41797c0-.57617-.03223-1.64844-.04883-2.80127-1.28027,.6084-2.22461,1.50488-2.22461,2.2251s1.08887,1.34424,1.71289,1.34424c.36816,0,.56055-.27197,.56055-.76807Zm6.24219-9.31592c1.12012,.59229,2.84863,1.68066,3.61719,2.32129l-.63965,1.02441c-.78516-.75244-2.5459-1.82471-3.55371-2.36914l.57617-.97656Z"/><path class="cls-1" d="M58.53269,18.14124v8.33936h-1.16895V12.53919h5.74609v5.60205h-4.57715Zm0-4.6416v1.34424h3.44141v-1.34424h-3.44141Zm3.44141,3.68115v-1.45654h-3.44141v1.45654h3.44141Zm-.08008,7.04297v.96045h-1.08887v-5.61816h5.9541v4.65771h-4.86523Zm0-3.64941v2.64111h3.76074v-2.64111h-3.76074Zm8.53125,4.28955c0,.78467-.19238,1.18457-.7041,1.39258-.56055,.19238-1.47266,.20801-2.86523,.20801-.06445-.33594-.25586-.896-.41602-1.21631,1.04004,.04785,2.08008,.03223,2.40039,.01611,.28809,0,.38477-.09619,.38477-.40039v-6.72266h-4.69043v-5.60205h5.89062v12.32471Zm-4.75391-11.38037v1.36035h3.55371v-1.36035h-3.55371Zm3.55371,3.71338v-1.47266h-3.55371v1.47266h3.55371Z"/><path class="cls-1" d="M75.3325,15.64417c-.01562,.99268,0,2.44922,.1123,3.74561,.25586,2.65723,1.02441,4.40186,2.14453,4.40186,.81641,0,1.55273-1.63281,1.96875-3.2334l1.00879,1.15234c-.94434,2.68945-1.9209,3.60156-3.00977,3.60156-1.48828,0-2.92871-1.48877-3.36133-5.60205-.15918-1.37695-.17578-3.29736-.17578-4.22607,0-.36816-.01562-1.02441-.0957-1.4082l1.53613,.03174c-.06348,.38428-.11133,1.12061-.12793,1.53662Zm11.17285,6.65869l-1.29688,.51221c-.27148-2.84912-1.23242-5.98633-2.7373-7.84326l1.24902-.43213c1.4248,1.84082,2.56055,5.09033,2.78516,7.76318Z"/><path class="cls-1" d="M96.34227,11.89856c1.69727,2.35303,4.51465,4.57812,7.02734,5.71436-.28809,.27246-.57617,.68848-.78418,1.02441-2.48145-1.29639-5.28223-3.53711-6.77051-5.58594-1.3125,1.95264-3.90625,4.22559-6.64355,5.68213-.14355-.27197-.46387-.68848-.73633-.94434,2.78516-1.40869,5.45898-3.8418,6.70703-5.89062h1.2002Zm-5.33008,8.21143h9.73242v6.37061h-1.2168v-.65625h-7.34668v.65625h-1.16895v-6.37061Zm8.85156-3.05713v1.05664h-8.01855v-1.05664h8.01855Zm-7.68262,4.12988v3.56934h7.34668v-3.56934h-7.34668Z"/><path class="cls-1" d="M110.22996,15.54847c-.19238,.28809-.46387,.72021-.7041,1.104-.03223,.32031-.04883,.67236-.08008,1.00879,1.74414-1.4248,3.52148-1.96875,5.02539-1.96875,2.20898,0,4.16211,1.53662,4.17773,4.00146,.0166,3.18506-2.32031,4.88184-5.77832,5.53809l-.57617-1.2002c2.67285-.40039,5.07422-1.63281,5.05859-4.37012,0-1.21631-.96094-2.80078-3.05762-2.80078-1.82422,0-3.50488,.91211-4.94629,2.27295-.03125,.65625-.04785,1.29639-.04785,1.85645,0,1.44043,0,2.40088,.06445,3.82568,.01562,.27197,.04785,.67236,.08008,.96045h-1.39258c.01562-.22412,.04785-.68848,.04785-.94434,.01562-1.521,.01562-2.30518,.04785-4.06592,0-.16016,.01562-.36816,.01562-.60791-.76758,1.16846-1.80859,2.68896-2.57617,3.74512l-.80078-1.10449c.88086-1.104,2.70508-3.56934,3.50586-4.81787,.03125-.51221,.06348-1.02441,.0957-1.52051-.7207,.08008-2.09668,.27197-3.08887,.40039l-.12891-1.32861c.35254,.01611,.65625,.01611,1.04102-.01611,.51172-.03223,1.44043-.12793,2.25684-.25635,.04785-.75195,.08008-1.3125,.08008-1.48828,0-.36816,.01562-.78418-.06445-1.18457l1.52051,.04785c-.08008,.38428-.20801,1.28076-.31934,2.38525l.08008-.03223,.46387,.56055Z"/><path class="cls-1" d="M131.65574,12.9552c-.03223,.25586-.06348,.80029-.08008,1.13623,0,.7207-.01562,1.50488-.01562,2.20898,.62402-.04785,1.2168-.0957,1.72852-.12793,.41602-.01611,.86426-.04785,1.24902-.08008v1.28076c-.25684-.01611-.84863,0-1.24902,0-.46387,.01562-1.07227,.03174-1.76074,.08008-.03223,1.16846-.0957,2.59277-.24023,3.3291-.14355,.7041-.49609,.9126-1.21582,.9126-.57617,0-1.66504-.16016-2.09766-.22412l.03223-1.13672c.54492,.1123,1.2168,.20801,1.58496,.20801,.38379,0,.54395-.06396,.5918-.41602,.08008-.52832,.14453-1.58447,.17676-2.57715-1.63281,.12793-3.49023,.3042-5.05859,.46436-.01562,1.63281-.03223,3.28125,0,3.88965,.04785,1.7124,.06445,2.28857,2.81738,2.28857,1.71289,0,3.68164-.17578,4.70605-.35205l-.04785,1.34473c-1.05664,.11182-2.99316,.27197-4.59375,.27197-3.66602,0-4.01855-.84814-4.09766-3.37744-.0166-.68799-.0166-2.35303-.0166-3.9375l-1.68066,.17627c-.49609,.06396-1.18457,.16016-1.61621,.22412l-.12793-1.3125c.47949,0,1.07227-.03223,1.64844-.08008,.40039-.03223,1.02441-.09619,1.77637-.16016l.0166-2.20898c0-.47998-.03223-.84814-.09668-1.32861h1.39258c-.03223,.35205-.04785,.78418-.04785,1.28076l-.01562,2.12891c1.53613-.14404,3.37695-.32031,5.05762-.46436v-2.25684c0-.35205-.03223-.9126-.08008-1.18457h1.36035Z"/></g><g><polygon class="cls-1" points="16.5299 30.19165 20.92801 26.79256 16.5299 23.80214 16.5299 30.19165"/><polygon class="cls-1" points="10.55208 18.03055 16.59019 22.40833 33.4318 11.64143 18.04845 23.46584 27.04157 29.98542 35.69911 9.78617 10.55208 18.03055"/></g></g></g></g></svg>